<svg width="48" height="48" viewBox="0 0 48 48" fill="none" xmlns="http://www.w3.org/2000/svg">
    <g clip-path="url(#clip0_2017_2957)">
        <path d="M36.3302 18.9512H34.1523C35.297 17.0186 34.6057 14.7813 34.249 13.8968C36.9657 11.1652 37.0289 9.01342 36.5866 7.67178C36.0477 6.0477 34.3976 4.79898 32.4762 4.56113C30.3504 4.29726 28.4773 5.97709 27.8901 6.57172L20.7509 6.30042C19.5505 4.63546 17.1534 3.23436 14.0613 4.47193C12.5747 5.07028 11.6084 6.99539 11.3557 8.06944C11.1609 8.95777 11.1839 9.88004 11.4227 10.7576C11.6615 11.6351 12.109 12.4418 12.7271 13.1089C12.7549 13.137 12.7847 13.1631 12.8163 13.187L13.9647 14.0343C13.6425 15.7203 13.9577 17.4658 14.8492 18.9326L12.4149 18.8508C11.6183 18.7986 10.8206 18.9348 10.0865 19.2485C9.35234 19.5622 8.70248 20.0444 8.18955 20.6562C7.67663 21.2679 7.3151 21.9919 7.13426 22.7695C6.95342 23.5471 6.95837 24.3563 7.14871 25.1316C7.46032 26.3204 8.13799 27.3811 9.08578 28.1635C10.0336 28.9459 11.2034 29.4103 12.4298 29.491L14.5742 29.6434L11.7311 33.3598C10.4674 34.9718 9.73038 36.9337 9.62014 38.979C9.47892 42.0525 10.9506 43.8327 13.764 43.9888C13.894 43.9888 14.0204 43.9888 14.1356 43.9888C15.2696 43.9778 16.3851 43.6999 17.3917 43.1776C18.3983 42.6552 19.2677 41.9031 19.9295 40.9822L22.754 37.1543C24.6122 35.9464 26.4965 37.1914 26.8421 37.433L29.793 41.3278C30.4019 42.1516 31.2099 42.8073 32.1413 43.2337C33.0728 43.6601 34.0972 43.8432 35.1186 43.7658C37.1627 43.5688 38.5377 42.3573 39.0878 40.2575C39.3547 39.1975 39.3863 38.0918 39.1802 37.0183C38.9741 35.9448 38.5353 34.9294 37.8948 34.0436L34.6578 29.4352H35.9251C37.0315 29.4526 38.1212 29.1636 39.0735 28.6002C40.0259 28.0368 40.8039 27.2209 41.3213 26.2428C41.6868 25.5772 41.8803 24.8309 41.8842 24.0715C41.888 23.3122 41.7023 22.5639 41.3436 21.8946C40.8597 20.9902 40.1355 20.2369 39.251 19.7176C38.3664 19.1983 37.3557 18.9331 36.3302 18.9512ZM40.3216 25.7188C39.8949 26.5114 39.2599 27.1726 38.4852 27.631C37.7104 28.0895 36.8253 28.3278 35.9251 28.3203H33.5763C33.4737 28.3202 33.373 28.3482 33.2852 28.4012C33.1974 28.4543 33.1259 28.5304 33.0783 28.6213C33.0311 28.7128 33.0096 28.8155 33.0161 28.9182C33.0227 29.021 33.057 29.12 33.1155 29.2048L36.9768 34.6791C37.5225 35.4314 37.897 36.2939 38.0742 37.2061C38.2514 38.1184 38.2269 39.0584 38.0026 39.9602C37.5677 41.6103 36.5903 42.4836 35.0294 42.636C34.201 42.6994 33.3701 42.5512 32.6147 42.2054C31.8593 41.8596 31.2042 41.3274 30.7109 40.6589L27.6932 36.7046C27.6658 36.6679 27.6332 36.6353 27.5965 36.608C26.6414 35.8424 24.2518 34.7943 22.0591 36.2883C22.0079 36.3257 21.9617 36.3694 21.9215 36.4184L19.0413 40.3281C18.4534 41.1504 17.6698 41.8131 16.7613 42.2563C15.8528 42.6995 14.8482 42.9092 13.8383 42.8664C11.6493 42.7438 10.6384 41.4914 10.7537 39.0274C10.8556 37.2117 11.5119 35.4709 12.6342 34.0399L16.1128 29.4984C16.175 29.4178 16.2142 29.3217 16.226 29.2205C16.2378 29.1193 16.2219 29.0168 16.1799 28.924C16.1378 28.8311 16.0713 28.7515 15.9875 28.6936C15.9037 28.6357 15.8056 28.6017 15.7039 28.5953L12.5227 28.3686C11.5313 28.3101 10.5838 27.9402 9.815 27.3116C9.04623 26.683 8.49552 25.8277 8.24134 24.8677C8.1114 24.3323 8.08991 23.7763 8.17816 23.2325C8.36126 22.2966 8.86784 21.4549 9.60915 20.8549C10.3505 20.2549 11.2792 19.9349 12.2328 19.9509H12.3777L15.9269 20.0698C16.0368 20.0754 16.1458 20.0479 16.2398 19.991C16.3339 19.934 16.4087 19.8501 16.4547 19.7502C16.5021 19.6509 16.5193 19.5398 16.5041 19.4307C16.4889 19.3217 16.442 19.2195 16.3692 19.137C16.3469 19.1147 14.3549 16.7956 15.139 13.934C15.1701 13.8231 15.166 13.7053 15.1274 13.5969C15.0888 13.4884 15.0176 13.3946 14.9235 13.3282L13.5113 12.3173C13.0276 11.787 12.6781 11.1486 12.4918 10.4554C12.3056 9.76227 12.2882 9.03459 12.4409 8.33331C12.649 7.44136 13.4369 5.93249 14.4664 5.51997C17.8223 4.1709 19.6359 6.64605 19.9556 7.1552C20.0044 7.2309 20.0708 7.29373 20.1491 7.33837C20.2273 7.383 20.3152 7.40813 20.4052 7.41163L28.102 7.71638C28.1878 7.71961 28.2733 7.70322 28.3519 7.66844C28.4304 7.63366 28.5 7.58142 28.5554 7.51569C28.574 7.49339 30.4136 5.43821 32.3499 5.65747C33.5986 5.80985 35.0666 6.59773 35.5311 8.00626C36.0366 9.53 35.2078 11.4254 33.2009 13.3431C33.1043 13.4267 33.0391 13.5408 33.0162 13.6665C32.9932 13.7922 33.0138 13.9219 33.0746 14.0343C33.1378 14.1607 34.6243 17.1784 32.6026 19.1221C32.5225 19.2007 32.4674 19.3011 32.4442 19.4109C32.4211 19.5207 32.4309 19.6349 32.4725 19.7391C32.5142 19.8427 32.5861 19.9315 32.6789 19.9938C32.7717 20.0561 32.8811 20.089 32.9928 20.0884H36.3376C37.1552 20.0781 37.9604 20.2893 38.6677 20.6995C39.375 21.1098 39.958 21.7038 40.3551 22.4186C40.6271 22.9272 40.7667 23.4962 40.7608 24.073C40.755 24.6498 40.6039 25.2158 40.3216 25.7188Z" fill="white"/>
        <path d="M22.9808 16.9294H24.0214V17.7507C24.043 17.8829 24.111 18.0032 24.2131 18.0899C24.3152 18.1767 24.4448 18.2243 24.5788 18.2243C24.7128 18.2243 24.8424 18.1767 24.9446 18.0899C25.0467 18.0032 25.1146 17.8829 25.1363 17.7507V16.9294H26.1769C26.3091 16.9077 26.4293 16.8398 26.5161 16.7376C26.6028 16.6355 26.6505 16.5059 26.6505 16.3719C26.6505 16.2379 26.6028 16.1083 26.5161 16.0062C26.4293 15.9041 26.3091 15.8361 26.1769 15.8145H22.9808C22.8485 15.8361 22.7283 15.9041 22.6416 16.0062C22.5548 16.1083 22.5072 16.2379 22.5072 16.3719C22.5072 16.5059 22.5548 16.6355 22.6416 16.7376C22.7283 16.8398 22.8485 16.9077 22.9808 16.9294Z" fill="white"/>
        <path d="M30.9674 9.24382C31.261 9.20666 31.9783 9.24382 32.2124 9.53742C32.3796 9.75298 32.3388 10.1915 32.0972 10.7638C32.0395 10.9013 32.0388 11.0561 32.0953 11.1941C32.1518 11.3321 32.2607 11.442 32.3982 11.4997C32.5357 11.5574 32.6905 11.558 32.8285 11.5016C32.9665 11.4451 33.0764 11.3362 33.1341 11.1987C33.5466 10.2101 33.5392 9.42221 33.1081 8.85731C32.4168 7.9505 30.986 8.11403 30.8225 8.11403C30.6746 8.13325 30.5404 8.21041 30.4495 8.32855C30.3585 8.44669 30.3182 8.59611 30.3375 8.74396C30.3567 8.89181 30.4338 9.02597 30.552 9.11693C30.6701 9.20788 30.8195 9.24818 30.9674 9.22896V9.24382Z" fill="white"/>
        <path d="M18.1493 8.93171C18.2227 8.93992 18.297 8.93338 18.3678 8.91247C18.4385 8.89157 18.5045 8.85672 18.5616 8.80997C18.6187 8.76323 18.6659 8.70553 18.7004 8.64027C18.7349 8.57502 18.7561 8.50352 18.7625 8.42999C18.7703 8.35651 18.7634 8.28223 18.7423 8.21142C18.7213 8.1406 18.6864 8.07464 18.6398 8.01733C18.5932 7.96001 18.5357 7.91246 18.4707 7.8774C18.4056 7.84235 18.3343 7.82048 18.2608 7.81306C17.1756 7.70528 16.3543 7.97287 15.8266 8.59723C14.864 9.73817 15.3323 11.5704 15.388 11.7748C15.4216 11.89 15.4915 11.9912 15.5872 12.0636C15.683 12.1359 15.7995 12.1754 15.9195 12.1762C15.9696 12.1757 16.0195 12.1695 16.0681 12.1576C16.2124 12.1184 16.3352 12.0237 16.4098 11.8941C16.4843 11.7645 16.5044 11.6107 16.4658 11.4663C16.3543 11.0649 16.1833 9.89426 16.6776 9.31078C16.9452 8.99489 17.4358 8.86481 18.1493 8.93171Z" fill="white"/>
        <path d="M32.0637 24.2174L25.2106 21.9206C25.1699 21.9054 25.1274 21.8955 25.0842 21.8909C24.5453 21.8463 23.7314 21.8686 23.698 21.8909C23.6358 21.8908 23.574 21.9021 23.5159 21.9243L17.8781 24.0687C17.7996 24.0981 17.7289 24.1447 17.671 24.2052C17.613 24.2657 17.5695 24.3384 17.5436 24.418C17.5176 24.4982 17.5099 24.5832 17.5208 24.6667C17.5317 24.7503 17.5611 24.8304 17.6068 24.9012L18.5693 26.3692L17.7071 29.1862C17.6658 29.3315 17.6818 29.4871 17.7517 29.6211C17.826 29.7526 17.9486 29.8499 18.0936 29.8924L23.1145 31.312C23.1652 31.3267 23.2178 31.3342 23.2706 31.3343C23.4099 31.3349 23.5443 31.2834 23.6475 31.1899C23.7507 31.0963 23.8151 30.9675 23.8281 30.8289L24.4264 24.8417L24.8873 25.3248C24.8855 25.3533 24.8855 25.3819 24.8873 25.4103L25.8535 30.6394C25.8662 30.7145 25.8942 30.7863 25.9358 30.8502C25.9773 30.9141 26.0316 30.9689 26.0951 31.011C26.1881 31.0712 26.2965 31.1034 26.4073 31.1039C26.448 31.1094 26.4892 31.1094 26.5299 31.1039L31.614 29.9518C31.7024 29.9318 31.7846 29.8907 31.8536 29.832C31.9227 29.7734 31.9765 29.6988 32.0104 29.6148C32.0444 29.5308 32.0575 29.4399 32.0487 29.3497C32.0398 29.2595 32.0093 29.1728 31.9596 29.097L30.6366 27.0084C30.6069 26.9658 30.5719 26.9271 30.5325 26.8932L32.2718 25.1465C32.3394 25.0788 32.3886 24.995 32.4148 24.903C32.4409 24.811 32.4431 24.7139 32.4211 24.6208C32.3992 24.5277 32.3538 24.4418 32.2893 24.3712C32.2248 24.3006 32.1433 24.2476 32.0525 24.2174H32.0637ZM23.7983 23.0021L23.8615 23.79L20.5167 27.2871L19.6545 25.9641L18.9298 24.8491L23.7983 23.0021ZM23.1628 26.1499L22.7912 30.0373L18.9521 28.9558L19.3721 27.5807L19.9741 28.495C20.0194 28.5662 20.0806 28.6261 20.1528 28.6699C20.2249 28.7137 20.3062 28.7403 20.3904 28.7477H20.4758H20.5427H20.5873L20.6579 28.7254L20.6988 28.7031C20.7198 28.6942 20.7398 28.683 20.7583 28.6696C20.7912 28.649 20.8212 28.624 20.8475 28.5953L23.1628 26.1499ZM30.5957 28.9893L26.8793 29.8292L26.3255 26.7668L28.0499 28.5767C28.1542 28.6853 28.2972 28.7481 28.4476 28.7514C28.5984 28.7464 28.7423 28.687 28.8527 28.5842L29.7521 27.6885L30.5957 28.9893ZM28.4513 27.3838L24.9876 23.7528L24.9281 23.0095L30.8447 24.9941L28.4513 27.3838Z" fill="white"/>
    </g>
    <defs>
        <clipPath id="clip0_2017_2957">
            <rect width="34.8825" height="40" fill="white" transform="translate(7 4)"/>
        </clipPath>
    </defs>
</svg>
