<svg width="48" height="48" viewBox="0 0 48 48" fill="none" xmlns="http://www.w3.org/2000/svg">
    <g clip-path="url(#clip0_2017_2975)">
        <path d="M39.1251 18.7766C40.3425 14.1899 37.2636 9.13775 32.0067 7.30603C28.656 6.13701 25.3983 6.50558 22.997 8.09903C22.9897 8.08337 22.981 8.06841 22.9709 8.05436C22.5794 7.46038 21.9982 7.01664 21.322 6.79553C20.6459 6.57443 19.9147 6.58902 19.2479 6.83693C18.8465 6.14884 18.6453 5.36224 18.6671 4.5659C18.6682 4.41995 18.6125 4.2793 18.5118 4.17369C18.411 4.06808 18.2731 4.0058 18.1273 4V4C17.9782 4 17.8352 4.05923 17.7298 4.16466C17.6244 4.27009 17.5651 4.41308 17.5651 4.56217C17.5372 5.56894 17.7954 6.56298 18.3097 7.42889C17.9204 7.75594 17.6314 8.18631 17.4759 8.67043C17.3205 9.15455 17.3049 9.67273 17.4311 10.1653C16.6623 10.0128 15.8707 10.0163 15.1032 10.1755C14.3358 10.3348 13.6082 10.6465 12.9635 11.0923C10.6552 12.6597 9.78777 15.5227 10.7706 17.8421C9.44916 17.9182 8.18796 18.4206 7.17615 19.2741C6.16435 20.1275 5.45647 21.2859 5.15868 22.5757C4.86089 23.8654 4.98923 25.2169 5.52446 26.4275C6.05968 27.6382 6.97295 28.6427 8.12731 29.2904C8.07677 29.408 8.06758 29.5392 8.10125 29.6627L12.338 43.583C12.3727 43.6989 12.4441 43.8005 12.5415 43.8723C12.6388 43.9441 12.7569 43.9824 12.8779 43.9814H35.6738C35.7956 43.9813 35.9141 43.9418 36.0115 43.8686C36.1088 43.7954 36.1798 43.6926 36.2137 43.5756L40.2494 29.6888C40.2756 29.5937 40.2756 29.4934 40.2494 29.3984C41.2563 28.8563 42.0792 28.0269 42.6133 27.0158C43.1475 26.0047 43.3687 24.8575 43.249 23.7203C43.1292 22.583 42.6739 21.5071 41.9408 20.6294C41.2078 19.7517 40.2302 19.112 39.1325 18.7915L39.1251 18.7766ZM18.8235 10.5339C18.5582 10.2101 18.4297 9.79555 18.4651 9.37844C18.5006 8.96133 18.6973 8.57448 19.0134 8.30007C19.1656 8.45697 19.3355 8.59565 19.5197 8.71333C19.6068 8.76749 19.7075 8.79588 19.8101 8.79523C19.9289 8.79662 20.0451 8.76005 20.1417 8.69085C20.2384 8.62166 20.3104 8.52344 20.3474 8.41049C20.3843 8.29754 20.3843 8.17574 20.3472 8.06281C20.3102 7.94988 20.2381 7.85171 20.1415 7.78258C20.5119 7.74587 20.8854 7.81068 21.2219 7.97005C21.5583 8.12943 21.8451 8.37736 22.0514 8.68727C22.0732 8.71826 22.0982 8.74696 22.1258 8.7729C21.254 9.53997 20.5505 10.4793 20.0595 11.5316C19.7129 11.2005 19.3205 10.9209 18.8942 10.7014C18.8808 10.6418 18.8569 10.5851 18.8235 10.5339ZM9.40057 30.0797H12.2747L16.3216 42.8756H13.2948L9.40057 30.0797ZM17.5018 42.8756L13.4549 30.0797H29.5718L26.6828 42.8756H17.5018ZM38.9575 30.0797L35.2345 42.8756H27.8518L30.7409 30.0797H38.9575ZM42.096 25.035C41.9037 26.2511 41.2366 27.3412 40.2411 28.0657C39.2457 28.7903 38.0034 29.0902 36.787 28.8995C36.6686 28.8799 36.547 28.8995 36.4408 28.9553H11.1243C10.456 28.9736 9.79078 28.8577 9.16798 28.6145C8.54519 28.3713 7.97744 28.0058 7.49827 27.5396C7.01911 27.0733 6.63824 26.5157 6.37818 25.8998C6.11812 25.2839 5.98413 24.622 5.98413 23.9535C5.98413 23.2849 6.11812 22.6231 6.37818 22.0071C6.63824 21.3912 7.01911 20.8336 7.49827 20.3674C7.97744 19.9011 8.54519 19.5356 9.16798 19.2924C9.79078 19.0493 10.456 18.9334 11.1243 18.9516C11.2272 18.9505 11.3277 18.9209 11.4147 18.866C11.5048 18.9254 11.6103 18.957 11.7181 18.957C11.826 18.957 11.9315 18.9254 12.0216 18.866C12.0827 18.8245 12.1351 18.7713 12.1757 18.7095C12.2163 18.6477 12.2444 18.5786 12.2582 18.5059C12.272 18.4333 12.2714 18.3587 12.2564 18.2863C12.2413 18.2139 12.2121 18.1452 12.1705 18.0841C10.8674 16.1668 11.5078 13.4527 13.6001 12.0343C15.6925 10.6158 18.44 11.0141 19.7505 12.9278L19.7915 12.9762C19.8017 12.9883 19.8129 12.9995 19.825 13.0097C19.8381 13.024 19.8532 13.0366 19.8697 13.0469L19.9106 13.0767L19.959 13.1028L20.0111 13.1288H20.0521H20.1079H20.2643H20.3276H20.3723L20.4281 13.1102L20.4765 13.0841C20.4897 13.0781 20.5022 13.0706 20.5138 13.0618C20.5544 13.0247 20.5544 13.0247 20.5953 12.9875L20.6292 12.9464L20.6627 12.9017L20.685 12.857C20.6952 12.8392 20.7039 12.8205 20.7111 12.8012C22.2003 8.55696 26.7684 6.69918 31.5971 8.38198C36.4259 10.0648 39.1772 14.6627 37.9263 18.7468C37.8189 18.8342 37.7463 18.957 37.7215 19.0931C37.699 19.2406 37.7356 19.391 37.8235 19.5117C37.9113 19.6323 38.0433 19.7133 38.1906 19.7372C38.7957 19.8267 39.3772 20.035 39.9015 20.3502C40.4258 20.6653 40.8826 21.0811 41.2456 21.5735C41.6086 22.0659 41.8706 22.6252 42.0166 23.2193C42.1625 23.8134 42.1895 24.4304 42.096 25.035Z" fill="white"/>
        <path d="M10.4467 23.5495C10.3392 23.448 10.196 23.393 10.0482 23.3964C9.90039 23.3998 9.75985 23.4612 9.65703 23.5675C9.55422 23.6737 9.49739 23.8162 9.49887 23.964C9.50034 24.1119 9.56 24.2532 9.66492 24.3573L11.236 25.8875C11.2883 25.94 11.3503 25.9816 11.4187 26.01C11.4871 26.0384 11.5604 26.053 11.6344 26.053C11.7084 26.053 11.7817 26.0384 11.8501 26.01C11.9184 25.9816 11.9805 25.94 12.0328 25.8875C12.1378 25.7815 12.1967 25.6384 12.1967 25.4891C12.1967 25.3399 12.1378 25.1968 12.0328 25.0908L10.4467 23.5495Z" fill="white"/>
        <path d="M17.1593 15.3254C17.1272 15.1797 17.0386 15.0528 16.9129 14.9725C16.7872 14.8922 16.6348 14.8651 16.4892 14.8972C16.3435 14.9293 16.2166 15.0179 16.1363 15.1436C16.056 15.2693 16.0289 15.4217 16.061 15.5673L16.5413 17.7528C16.5699 17.8775 16.64 17.9889 16.7401 18.0686C16.8401 18.1484 16.9643 18.1919 17.0923 18.1921C17.1319 18.1959 17.1718 18.1959 17.2114 18.1921C17.2864 18.1784 17.3578 18.1497 17.4213 18.1076C17.4849 18.0655 17.5392 18.011 17.581 17.9472C17.6227 17.8835 17.6511 17.812 17.6644 17.7369C17.6777 17.6619 17.6756 17.585 17.6582 17.5108L17.1593 15.3254Z" fill="white"/>
        <path d="M19.2852 19.0409C19.2177 19.0104 19.1449 18.9936 19.071 18.9914C18.997 18.9891 18.9233 19.0015 18.8541 19.0278C18.7849 19.054 18.7216 19.0937 18.6678 19.1445C18.614 19.1954 18.5708 19.2563 18.5406 19.3239L17.8444 20.8987C17.8135 20.9663 17.7965 21.0394 17.7942 21.1136C17.7919 21.1879 17.8045 21.2619 17.8312 21.3312C17.8579 21.4006 17.8982 21.4639 17.9497 21.5175C18.0012 21.5711 18.0628 21.6138 18.131 21.6433C18.2024 21.6756 18.2798 21.6921 18.3581 21.6917C18.4666 21.6919 18.5728 21.6608 18.664 21.602C18.7552 21.5432 18.8274 21.4593 18.8719 21.3603L19.5718 19.7855C19.6027 19.7179 19.6198 19.6448 19.622 19.5706C19.6243 19.4963 19.6117 19.4223 19.585 19.353C19.5583 19.2836 19.518 19.2203 19.4665 19.1667C19.4151 19.1131 19.3534 19.0704 19.2852 19.0409Z" fill="white"/>
        <path d="M27.4534 16.0663C27.3914 16.0261 27.322 15.9986 27.2493 15.9853C27.1766 15.972 27.1019 15.9731 27.0296 15.9887C26.9574 16.0042 26.8889 16.0339 26.8281 16.076C26.7673 16.118 26.7154 16.1717 26.6753 16.2338L25.4877 18.0954C25.4079 18.2214 25.3811 18.3739 25.4132 18.5197C25.4453 18.6654 25.5336 18.7925 25.659 18.8735C25.7488 18.9315 25.8535 18.9625 25.9605 18.9628C26.0554 18.9628 26.1488 18.939 26.2321 18.8934C26.3154 18.8479 26.3859 18.7821 26.4371 18.7022L27.621 16.8407C27.6611 16.7789 27.6885 16.7098 27.7018 16.6374C27.7151 16.565 27.7139 16.4906 27.6983 16.4186C27.6828 16.3467 27.6531 16.2785 27.6111 16.218C27.569 16.1576 27.5155 16.106 27.4534 16.0663Z" fill="white"/>
        <path d="M25.9605 12.1646C26.0791 12.1659 26.1951 12.1296 26.2919 12.061C26.3887 11.9924 26.4613 11.8949 26.4993 11.7825C26.5373 11.6702 26.5388 11.5486 26.5035 11.4354C26.4683 11.3221 26.3981 11.2229 26.303 11.1519L24.9925 10.1579C24.8711 10.0675 24.7187 10.0291 24.5689 10.0511C24.4192 10.0731 24.2843 10.1537 24.1939 10.2751C24.1036 10.3966 24.0652 10.5489 24.0872 10.6987C24.1092 10.8485 24.1898 10.9834 24.3112 11.0737L25.6217 12.0678C25.7215 12.1353 25.8401 12.1692 25.9605 12.1646Z" fill="white"/>
        <path d="M33.5629 24.2755L31.5524 22.6932C31.4349 22.6014 31.2858 22.56 31.1378 22.5782C30.9897 22.5963 30.855 22.6725 30.7632 22.79C30.6713 22.9075 30.63 23.0567 30.6481 23.2047C30.6663 23.3527 30.7425 23.4875 30.86 23.5793L32.8667 25.1616C32.9248 25.2073 32.9915 25.2411 33.0627 25.2611C33.134 25.281 33.2084 25.2868 33.2819 25.278C33.3554 25.2691 33.4264 25.2459 33.4909 25.2097C33.5554 25.1734 33.6121 25.1248 33.6578 25.0666C33.7035 25.0085 33.7373 24.9418 33.7573 24.8706C33.7773 24.7994 33.783 24.7249 33.7742 24.6514C33.7654 24.5779 33.7422 24.5069 33.7059 24.4424C33.6697 24.3779 33.6211 24.3212 33.5629 24.2755Z" fill="white"/>
        <path d="M33.1311 11.3977C33.0753 11.2584 32.9665 11.1471 32.8286 11.0881C32.6907 11.0291 32.535 11.0273 32.3958 11.0831C32.2565 11.1388 32.1452 11.2477 32.0862 11.3855C32.0272 11.5234 32.0254 11.6791 32.0812 11.8184L32.6917 13.3969C32.7306 13.5052 32.8018 13.599 32.8957 13.6656C32.9895 13.7322 33.1016 13.7683 33.2167 13.7692C33.2869 13.7682 33.3563 13.7543 33.4215 13.7283C33.56 13.6742 33.6715 13.5675 33.7315 13.4314C33.7915 13.2953 33.7951 13.141 33.7416 13.0023L33.1311 11.3977Z" fill="white"/>
    </g>
    <defs>
        <clipPath id="clip0_2017_2975">
            <rect width="38.28" height="40" fill="white" transform="translate(5 4)"/>
        </clipPath>
    </defs>
</svg>
