<svg width="48" height="48" viewBox="0 0 48 48" fill="none" xmlns="http://www.w3.org/2000/svg">
    <g clip-path="url(#clip0_2017_2886)">
        <path d="M24.7245 21.5062C25.2596 21.219 25.6839 20.762 25.9306 20.2071C26.1773 19.6523 26.2324 19.0311 26.0872 18.4415C25.942 17.8518 25.6047 17.3273 25.1286 16.9504C24.6524 16.5736 24.0644 16.3659 23.4572 16.36C22.85 16.3541 22.2581 16.5504 21.7747 16.918C21.2914 17.2856 20.944 17.8035 20.7875 18.3902C20.6309 18.9769 20.674 19.5991 20.9099 20.1586C21.1458 20.7181 21.5612 21.1833 22.0906 21.4807C6.90916 22.754 7.32753 37.4007 7.33117 37.5498C7.33761 37.6902 7.39723 37.8228 7.49791 37.9208C7.59858 38.0187 7.73278 38.0747 7.87323 38.0774C7.95327 38.0774 15.7896 38.1756 23.5676 38.2229C26.9583 38.2447 29.6322 38.2556 31.7459 38.2556C39.6113 38.2556 39.7495 38.1174 39.9278 37.8918C39.9789 37.8348 40.0178 37.768 40.0422 37.6954C40.0666 37.6229 40.0759 37.5461 40.0697 37.4698C38.5417 24.3438 29.192 21.9136 24.7245 21.5062ZM23.433 17.4607C23.7568 17.4607 24.0733 17.5567 24.3426 17.7366C24.6118 17.9165 24.8216 18.1722 24.9455 18.4713C25.0694 18.7705 25.1019 19.0996 25.0387 19.4172C24.9755 19.7348 24.8196 20.0265 24.5906 20.2554C24.3617 20.4844 24.07 20.6403 23.7524 20.7035C23.4348 20.7666 23.1057 20.7342 22.8065 20.6103C22.5074 20.4864 22.2517 20.2766 22.0718 20.0073C21.8919 19.7381 21.7959 19.4216 21.7959 19.0978C21.7969 18.6639 21.9697 18.2481 22.2765 17.9413C22.5833 17.6345 22.9991 17.4617 23.433 17.4607ZM8.43349 36.9859C8.51365 34.7115 9.03765 32.4746 9.97601 30.4011C12.2025 25.6244 16.4007 22.9832 22.4762 22.5539C25.0609 22.4361 27.6386 22.9075 30.0142 23.9327C35.0347 26.1374 38.0178 30.5539 38.9092 37.066C35.9187 37.2406 19.675 37.106 8.43349 36.9859Z" fill="white"/>
        <path d="M39.5239 39.438H7.5494C7.404 39.4389 7.26482 39.4971 7.16201 39.5999C7.05919 39.7028 7.00101 39.8419 7.00006 39.9873V43.4471C6.99762 43.5209 7.01001 43.5945 7.03648 43.6634C7.06295 43.7324 7.10297 43.7954 7.15418 43.8486C7.20538 43.9018 7.26674 43.9443 7.33462 43.9734C7.4025 44.0026 7.47553 44.0178 7.5494 44.0182H39.5239C39.67 44.0173 39.8097 43.9586 39.9126 43.855C40.0155 43.7514 40.0733 43.6113 40.0733 43.4653V39.9873C40.0723 39.8419 40.0141 39.7028 39.9113 39.5999C39.8085 39.4971 39.6693 39.4389 39.5239 39.438ZM38.971 42.8977H8.09146V40.5367H38.971V42.8977Z" fill="white"/>
        <path d="M19.8168 10.6795C20.6245 9.97368 20.7118 9.30429 20.6426 8.86045C20.4607 7.68537 19.0092 7.04144 18.8236 6.95413C18.6909 6.90108 18.5427 6.90189 18.4105 6.95636C18.2783 7.01084 18.1726 7.1147 18.1157 7.24589C18.0589 7.37707 18.0555 7.52525 18.1061 7.65893C18.1568 7.79262 18.2576 7.90129 18.3871 7.96186C18.7327 8.11466 19.4785 8.57669 19.5367 9.03144C19.5767 9.26791 19.4203 9.5444 19.0747 9.84272C18.3725 10.4575 18.0305 11.1306 18.056 11.8473C18.0947 12.2161 18.2079 12.5733 18.3886 12.8972C18.5693 13.2211 18.8138 13.505 19.1074 13.7318C19.2019 13.8026 19.3167 13.8409 19.4348 13.8409C19.5497 13.8399 19.6613 13.8032 19.7544 13.7359C19.8474 13.6685 19.9172 13.5739 19.954 13.4651C19.9908 13.3563 19.9928 13.2388 19.9597 13.1288C19.9267 13.0188 19.8602 12.9218 19.7695 12.8514C19.4372 12.5934 19.2181 12.2164 19.1583 11.8C19.1772 11.5758 19.2462 11.3588 19.3601 11.1648C19.4741 10.9709 19.6302 10.805 19.8168 10.6795Z" fill="white"/>
        <path d="M24.5244 7.76176C25.332 7.05598 25.4194 6.38659 25.3502 5.94275C25.1647 4.77494 23.735 4.11646 23.5494 4.0437C23.4829 4.01377 23.4111 3.99746 23.3382 3.99575C23.2653 3.99405 23.1928 4.00697 23.1249 4.03377C23.0571 4.06056 22.9953 4.10068 22.9433 4.15175C22.8912 4.20282 22.8499 4.2638 22.8218 4.33111C22.7923 4.39746 22.7762 4.46901 22.7745 4.54162C22.7728 4.61423 22.7855 4.68645 22.8119 4.75412C22.8383 4.82178 22.8778 4.88354 22.9282 4.93583C22.9786 4.98811 23.0389 5.02988 23.1056 5.05871C23.4694 5.20787 24.197 5.6699 24.2552 6.12829C24.2916 6.36476 24.1351 6.63761 23.7932 6.93957C23.091 7.55439 22.7491 8.22742 22.7745 8.94047C22.813 9.30902 22.9257 9.66597 23.1057 9.98983C23.2858 10.3137 23.5295 10.5978 23.8223 10.825C23.939 10.9128 24.0859 10.9506 24.2305 10.9301C24.3751 10.9097 24.5057 10.8326 24.5935 10.7158C24.6813 10.5991 24.7192 10.4522 24.6987 10.3076C24.6782 10.163 24.6011 10.0324 24.4844 9.94457C24.157 9.68597 23.9399 9.31285 23.8768 8.90046C23.8923 8.67421 23.9586 8.45435 24.0707 8.25722C24.1828 8.06008 24.3379 7.89074 24.5244 7.76176Z" fill="white"/>
        <path d="M27.9441 13.5972C28.7518 12.8878 28.8391 12.222 28.77 11.7782C28.5844 10.6031 27.1365 9.95917 26.951 9.87185C26.8182 9.81881 26.67 9.81961 26.5378 9.87409C26.4056 9.92856 26.2999 10.0324 26.2431 10.1636C26.1862 10.2948 26.1828 10.443 26.2334 10.5767C26.2841 10.7103 26.3849 10.819 26.5144 10.8796C26.8782 11.0287 27.6058 11.4908 27.664 11.9492C27.704 12.1856 27.5476 12.4585 27.202 12.7604C26.4998 13.3753 26.1579 14.0483 26.1833 14.7614C26.2208 15.1306 26.3334 15.4882 26.5142 15.8123C26.695 16.1364 26.9402 16.42 27.2347 16.6458C27.3283 16.7187 27.4435 16.7584 27.5621 16.7586C27.6777 16.7591 27.7906 16.7232 27.8845 16.6558C27.9785 16.5885 28.0489 16.4932 28.0855 16.3836C28.1222 16.2739 28.1234 16.1555 28.0888 16.0452C28.0543 15.9349 27.9858 15.8382 27.8932 15.7691C27.5662 15.5086 27.3492 15.1345 27.2856 14.7213C27.3037 14.4965 27.3724 14.2786 27.4864 14.084C27.6004 13.8893 27.7569 13.7229 27.9441 13.5972Z" fill="white"/>
        <path d="M16.3716 25.1625C14.8164 26.2703 13.5108 27.692 12.5389 29.3356C11.567 30.9792 10.9504 32.8084 10.7291 34.705C10.7201 34.8501 10.7691 34.9929 10.8652 35.102C10.9614 35.2112 11.0969 35.2777 11.242 35.2871H11.2784C11.4172 35.2866 11.5507 35.2339 11.6525 35.1396C11.7542 35.0452 11.8168 34.9161 11.8278 34.7777C12.0439 33.0446 12.6152 31.3747 13.506 29.8724C14.3967 28.3701 15.5878 27.0677 17.0047 26.0465C17.1238 25.9625 17.2047 25.8347 17.2296 25.6911C17.2546 25.5475 17.2214 25.3998 17.1374 25.2807C17.0535 25.1615 16.9257 25.0806 16.782 25.0557C16.6384 25.0308 16.4908 25.064 16.3716 25.1479V25.1625Z" fill="white"/>
        <path d="M19.9187 23.4962L18.016 24.2238C17.8936 24.268 17.7909 24.3542 17.7261 24.4671C17.6613 24.5799 17.6387 24.7121 17.6623 24.8401C17.6859 24.9681 17.7541 25.0835 17.8549 25.1658C17.9556 25.2482 18.0823 25.2921 18.2124 25.2898C18.2784 25.2897 18.3438 25.2774 18.4052 25.2534L20.3043 24.5258C20.3719 24.5005 20.4338 24.4621 20.4866 24.4128C20.5394 24.3636 20.5819 24.3044 20.6118 24.2387C20.6417 24.173 20.6584 24.102 20.6608 24.0299C20.6633 23.9577 20.6516 23.8858 20.6262 23.8182C20.6009 23.7506 20.5625 23.6886 20.5133 23.6359C20.464 23.5831 20.4048 23.5406 20.3391 23.5107C20.2734 23.4808 20.2025 23.4641 20.1303 23.4616C20.0582 23.4592 19.9863 23.4709 19.9187 23.4962Z" fill="white"/>
    </g>
    <defs>
        <clipPath id="clip0_2017_2886">
            <rect width="33.0732" height="40" fill="white" transform="translate(7 4)"/>
        </clipPath>
    </defs>
</svg>
