<svg width="48" height="48" viewBox="0 0 48 48" fill="none" xmlns="http://www.w3.org/2000/svg">
    <g clip-path="url(#clip0_2017_2862)">
        <path d="M24.0018 44.0036C29.3042 43.9969 34.3875 41.8873 38.1365 38.1376C41.8856 34.3879 43.9943 29.3042 44 24.0018V23.8789C43.9553 18.5993 41.8297 13.5504 38.0848 9.82849C34.3399 6.1066 29.278 4.01218 23.9982 4C23.8537 4.00095 23.7155 4.05875 23.6133 4.1609C23.5112 4.26304 23.4534 4.40131 23.4524 4.54577V22.7404L12.1793 11.6877L10.4733 10.0143C10.4236 9.96239 10.3634 9.9217 10.2967 9.8949C10.23 9.8681 10.1584 9.85582 10.0866 9.85886C10.0143 9.85979 9.943 9.87495 9.87664 9.90348C9.81028 9.93201 9.7502 9.97334 9.69983 10.0251C6.066 13.7231 4.02066 18.6944 4 23.8789H4V23.9946C4.00383 29.2989 6.11215 34.3849 9.86218 38.1363C13.6122 41.8877 18.6975 43.9979 24.0018 44.0036ZM23.4524 42.9012C18.8636 42.773 14.4796 40.9737 11.1239 37.8411L12.0202 36.9159L12.1467 37.0279L12.425 37.2737C12.5407 37.3785 12.66 37.4761 12.7865 37.5773L13.0756 37.8122L13.4371 38.0942L13.7334 38.3146L14.0949 38.5785C14.1961 38.6471 14.2973 38.7158 14.4021 38.7809C14.5069 38.8459 14.6623 38.9471 14.7961 39.0303C14.9298 39.1134 14.9985 39.1568 15.0997 39.2146C15.2009 39.2724 15.378 39.3736 15.5189 39.4495L15.8189 39.6158L16.2888 39.8507L16.549 39.9772C16.7767 40.0857 17.0044 40.1832 17.2357 40.2808L17.308 40.3134C17.5574 40.4146 17.8068 40.5085 18.0598 40.5989L18.3237 40.6893L18.8369 40.8555L19.155 40.9459C19.314 40.9893 19.4694 41.0362 19.6284 41.076L19.9682 41.1555L20.4308 41.2603L20.7923 41.3254L21.2513 41.4049L21.6127 41.4555L22.0681 41.5133L22.4296 41.5495C22.5814 41.5495 22.7368 41.5748 22.8886 41.582L23.25 41.6037H23.4199L23.4524 42.9012ZM11.3733 34.6461C11.2974 34.5593 11.2251 34.469 11.1528 34.3786C11.0805 34.2882 10.9649 34.1473 10.8745 34.0172L10.6649 33.7389L10.4082 33.3774L10.2131 33.0919C10.1299 32.9654 10.0504 32.8425 9.97452 32.7305C9.89862 32.6184 9.85163 32.5389 9.7938 32.4413C9.73597 32.3437 9.642 32.1811 9.56971 32.0473L9.40707 31.7582C9.33478 31.6209 9.26611 31.4799 9.19743 31.3426C9.12876 31.2052 9.09985 31.1546 9.05647 31.0606C8.98419 30.9052 8.91551 30.7498 8.84684 30.5944L8.73841 30.345C8.64082 30.1101 8.54685 29.8715 8.46011 29.6221L8.43842 29.5534C8.3565 29.3269 8.28059 29.0992 8.21072 28.8703C8.1818 28.7836 8.16012 28.6932 8.13482 28.6065C8.08783 28.4438 8.04084 28.2812 7.99747 28.1186C7.97217 28.0137 7.95048 27.9089 7.92518 27.8077C7.89988 27.7065 7.8529 27.5041 7.82398 27.3523C7.79507 27.2005 7.78061 27.1318 7.76254 27.0234C7.74447 26.915 7.70471 26.7234 7.68302 26.5752C7.66134 26.427 7.65049 26.3475 7.63604 26.2355C7.62158 26.1234 7.59628 25.9391 7.58182 25.7909C7.56736 25.6427 7.55652 25.556 7.54568 25.4295L7.51315 24.9849C7.51315 24.8656 7.51315 24.75 7.51315 24.6235C7.51315 24.497 7.51315 24.4825 7.51315 24.4102H22.5778L12.0094 35.3509L11.9046 35.246C11.8251 35.1593 11.7492 35.0726 11.6696 34.9894L11.3733 34.6461ZM24.544 7.49508H24.6777L24.9994 7.51315L25.4367 7.54206L25.7584 7.57459L26.1921 7.62519L26.5102 7.67218L26.9403 7.74447L27.2511 7.8023L27.6848 7.89627L27.9848 7.96494L28.4294 8.08421L28.7077 8.16012L29.192 8.33722L29.4161 8.40951C29.6546 8.49264 29.886 8.57938 30.1173 8.66974C30.345 8.7601 30.5691 8.85769 30.7896 8.95527L31.01 9.0637C31.1618 9.13238 31.3136 9.20466 31.4618 9.28056L31.7221 9.41791L32.1196 9.63477L32.3871 9.7938C32.5136 9.8697 32.6401 9.94199 32.7485 10.0215L33.016 10.195L33.3774 10.4372L33.6413 10.6251L34.0027 10.8889C34.0858 10.9504 34.1726 11.0155 34.2557 11.0841L34.6172 11.3697C34.6967 11.4347 34.7762 11.4998 34.8521 11.5684L34.9533 11.6588L24.544 22.4007V7.49508ZM36.4171 13.1154C36.4966 13.2021 36.5689 13.2925 36.6448 13.3792C36.7207 13.466 36.8436 13.6178 36.9376 13.7407L37.1508 14.0117C37.2448 14.1346 37.3351 14.2611 37.4255 14.3732C37.5159 14.4852 37.5592 14.5539 37.6207 14.6479C37.6821 14.7418 37.7978 14.9081 37.8845 15.0418C37.9713 15.1756 38.0038 15.2226 38.058 15.3129C38.1122 15.4033 38.2279 15.5984 38.311 15.7394L38.4628 15.9996C38.5496 16.1587 38.6363 16.3213 38.7194 16.4876L38.8315 16.7008C38.9471 16.9358 39.0592 17.1779 39.164 17.4237V17.4454C39.2652 17.6803 39.3592 17.9152 39.4495 18.1682L39.5363 18.4104C39.5941 18.5767 39.6556 18.7429 39.7098 18.9128C39.7423 19.0104 39.7712 19.1116 39.8001 19.2092C39.8471 19.3646 39.8941 19.52 39.9339 19.6754C39.9736 19.8308 39.9881 19.8887 40.017 19.9935C40.0459 20.0983 40.0893 20.2971 40.1218 20.4489C40.1543 20.6007 40.1688 20.673 40.1905 20.7814C40.2122 20.8899 40.2483 21.085 40.2736 21.2368L40.3278 21.5766C40.3495 21.7284 40.3676 21.8802 40.3857 22.0356C40.4037 22.191 40.4146 22.2633 40.4254 22.379C40.4363 22.4946 40.4507 22.6898 40.4616 22.8452C40.4724 23.0006 40.4616 23.0729 40.4832 23.2066C40.4832 23.2573 40.4832 23.3115 40.4832 23.3657H25.1584L35.7484 12.4287L35.8677 12.5443L36.1026 12.7937C36.2111 12.8925 36.3159 12.9997 36.4171 13.1154ZM40.5049 24.9849C40.5049 25.1295 40.5049 25.2777 40.4724 25.4259C40.4399 25.574 40.4724 25.65 40.4435 25.7656L40.3893 26.2066C40.3893 26.315 40.3604 26.427 40.3423 26.5355C40.3242 26.6439 40.2917 26.8318 40.2664 26.98C40.2411 27.1282 40.2302 27.1933 40.2085 27.2981C40.1869 27.4029 40.1435 27.6017 40.1073 27.7535C40.082 27.8511 40.064 27.9523 40.0387 28.0499C39.9953 28.2161 39.9483 28.3788 39.9049 28.5414C39.8796 28.6246 39.858 28.7077 39.8327 28.7908C39.764 29.0185 39.6917 29.2462 39.6122 29.4703C39.6122 29.4703 39.6122 29.5028 39.6122 29.5209C39.5291 29.7631 39.4351 30.0016 39.3411 30.2438L39.2435 30.4679C39.1748 30.6269 39.1062 30.7896 39.0339 30.945L38.9038 31.216C38.8351 31.357 38.7664 31.498 38.6941 31.6353L38.5423 31.9136C38.47 32.0473 38.3978 32.1811 38.3219 32.3112C38.246 32.4413 38.2062 32.4955 38.152 32.5895C38.0978 32.6835 37.9966 32.8425 37.9134 32.9509C37.8303 33.0594 37.7942 33.1353 37.7291 33.2256C37.664 33.316 37.5628 33.4714 37.4761 33.5871L37.2809 33.8545C37.1906 33.9774 37.1002 34.0931 37.0062 34.216C36.9123 34.3388 36.8689 34.3894 36.7966 34.4726C36.7243 34.5557 36.6014 34.7075 36.5002 34.834L36.287 35.0762L36.1822 35.1846L34.0136 33.0485L25.1801 24.4355H40.5049C40.5049 24.5042 40.5049 24.5729 40.5049 24.6415C40.5049 24.7102 40.5049 24.8693 40.5049 24.9849ZM35.0183 36.3014L34.6569 36.605L34.3931 36.8255L34.0316 37.1038C33.9425 37.1761 33.8521 37.2448 33.7605 37.3098L33.3991 37.5737L33.1208 37.7652C32.9943 37.852 32.8642 37.9315 32.7377 38.011L32.4594 38.1881L32.0473 38.4231L31.7799 38.5749L31.3136 38.8098L31.0823 38.9255C30.8474 39.0375 30.6125 39.1459 30.3594 39.2435C30.1185 39.3423 29.8775 39.4363 29.6366 39.5254L29.398 39.6086L28.939 39.7821L28.6426 39.8652C28.4908 39.9122 28.339 39.9555 28.1836 39.9953L27.8655 40.0712L27.421 40.1724L27.0885 40.2375C26.9403 40.2628 26.7921 40.2917 26.6439 40.3134L26.3041 40.364C26.1572 40.3857 26.009 40.4037 25.8596 40.4182L25.4981 40.4543C25.35 40.4543 25.1982 40.4796 25.0464 40.4869H24.6849H24.5331V25.3427L31.1076 31.7763L35.3798 35.9653L35.2677 36.0737L35.0183 36.3014ZM22.9753 40.5049L22.5235 40.4688L22.191 40.4363C22.044 40.4218 21.8958 40.4037 21.7465 40.382L21.4212 40.3351C21.2718 40.3134 21.1236 40.2881 20.9766 40.2592L20.6585 40.1977L20.2104 40.1001L19.9067 40.0278L19.4441 39.9013L19.1803 39.8037L18.667 39.6339L18.4502 39.5616C17.9658 39.3917 17.4924 39.2001 17.0261 38.9797C16.9611 38.9471 16.896 38.911 16.8309 38.8821C16.6647 38.8026 16.502 38.7231 16.343 38.6363C16.2563 38.5929 16.1731 38.5459 16.09 38.499L15.6707 38.264L15.4033 38.1014L15.0165 37.8556L14.7455 37.6749L14.384 37.4183C14.2901 37.3532 14.2033 37.2882 14.1129 37.2195C14.0226 37.1508 13.878 37.0424 13.7515 36.9484L13.4877 36.7352L13.1515 36.4496C13.0648 36.3737 12.978 36.2978 12.8949 36.2183L12.7901 36.1207L23.4524 25.1006V40.5049H23.3079H22.9753ZM24.544 42.9193V41.5892H24.7319L25.0933 41.5675L25.5777 41.5314L25.9391 41.4953L26.4198 41.4374C26.5391 41.4374 26.6584 41.4049 26.7812 41.3832L27.262 41.3001L27.6234 41.235L28.1077 41.123L28.4402 41.0435C28.6065 41.0001 28.7727 40.9531 28.939 40.9025C29.0402 40.8736 29.1414 40.8483 29.2426 40.8158C29.4269 40.7579 29.604 40.6965 29.792 40.6314L30.0342 40.5519C30.557 40.3591 31.0703 40.1435 31.5739 39.9049L31.8016 39.7893C31.9751 39.7062 32.163 39.6194 32.3184 39.5254C32.4124 39.4785 32.5028 39.4242 32.5967 39.37C32.6907 39.3158 32.8967 39.2038 33.0449 39.1134C33.1931 39.023 33.2401 38.9905 33.3377 38.9291C33.4353 38.8676 33.616 38.7556 33.7497 38.6652L34.0497 38.4592L34.44 38.1809L34.722 37.9749L35.0834 37.6785L35.3726 37.4363C35.4906 37.3351 35.6111 37.2303 35.734 37.1219L36.0123 36.8653L36.146 36.746L37.0677 37.6496C33.6908 40.8957 29.2261 42.7679 24.544 42.9012V42.9193ZM37.852 36.858L36.9303 35.9545C36.9701 35.9147 37.0062 35.8713 37.0424 35.828C37.0785 35.7846 37.2086 35.64 37.2918 35.546C37.3749 35.4521 37.4942 35.3147 37.5918 35.1846L37.8267 34.8918C37.9243 34.7726 38.0146 34.6497 38.1086 34.5304L38.3291 34.234C38.4158 34.1075 38.5062 33.981 38.5893 33.8726L38.7953 33.569L39.0592 33.1642L39.2471 32.8533C39.3266 32.7196 39.4025 32.5787 39.4748 32.4413C39.5471 32.304 39.5905 32.2389 39.6447 32.1341C39.6989 32.0293 39.7929 31.8413 39.8652 31.6931L40.0061 31.4004C40.082 31.2341 40.1543 31.0679 40.2266 30.898L40.3351 30.6486C40.4363 30.3956 40.5338 30.1426 40.6242 29.886L40.6459 29.8281C40.729 29.5896 40.8085 29.3474 40.8808 29.1053L40.9567 28.8306C41.0073 28.6571 41.0543 28.4691 41.0977 28.3137C41.1266 28.2053 41.1483 28.0969 41.1736 27.9884C41.1989 27.88 41.2459 27.6704 41.2784 27.5113C41.3109 27.3523 41.3218 27.28 41.3435 27.1499C41.3651 27.0198 41.4013 26.8427 41.423 26.6873C41.4447 26.5319 41.4591 26.4451 41.4736 26.3258C41.488 26.2066 41.5133 26.0222 41.5278 25.8704C41.5422 25.7186 41.5531 25.621 41.5639 25.509C41.5748 25.3969 41.5892 25.2054 41.5965 25.0536C41.6037 24.9018 41.5965 24.8006 41.5965 24.6705V24.4428H42.894C42.7928 29.0595 40.9984 33.478 37.852 36.858ZM37.4038 10.6902C40.7667 14.0616 42.7283 18.5814 42.894 23.3404H41.5892C41.5892 23.2753 41.5892 23.2139 41.5892 23.1488C41.5892 23.0223 41.5892 22.8958 41.5675 22.7874C41.5459 22.679 41.5422 22.4621 41.5278 22.3031C41.5133 22.144 41.5025 22.0501 41.488 21.9236C41.4736 21.7971 41.4483 21.6055 41.423 21.4465L41.3688 21.085C41.3398 20.9224 41.3109 20.7634 41.2784 20.6079C41.2459 20.4525 41.2314 20.3658 41.2061 20.2465C41.1808 20.1272 41.1338 19.9212 41.0941 19.7622L41.0073 19.4007C40.9603 19.2345 40.9133 19.0682 40.8627 18.902C40.8302 18.7971 40.8013 18.6923 40.7688 18.5875C40.7073 18.4032 40.6423 18.2261 40.5772 18.0381L40.4905 17.7887C40.3893 17.5249 40.2845 17.261 40.1724 17.0044C40.064 16.7514 39.9447 16.4984 39.811 16.2526C39.7712 16.1695 39.7278 16.0936 39.6881 16.0105C39.6013 15.8406 39.511 15.6707 39.4206 15.5045C39.3664 15.4069 39.3086 15.3129 39.2544 15.2189C39.1676 15.0671 39.0809 14.9189 38.9905 14.7708C38.9002 14.6226 38.8604 14.5756 38.799 14.4744C38.7375 14.3732 38.6182 14.1961 38.5206 14.0623C38.4231 13.9286 38.3797 13.8599 38.3074 13.7624C38.2351 13.6648 38.1195 13.4985 38.0183 13.3684L37.7869 13.0359C37.6857 12.9094 37.5845 12.7829 37.4797 12.6744L37.2303 12.3853C37.1267 12.2672 37.0183 12.1467 36.905 12.0239C36.8183 11.9299 36.7315 11.8359 36.6412 11.7456L36.5291 11.6118L37.3857 10.7299L37.4038 10.6902ZM24.544 5.0843C29.0153 5.21899 33.293 6.93954 36.6123 9.93838L36.5834 9.9709L35.7195 10.8673L35.5966 10.7624L35.322 10.5058L34.9605 10.2203L34.675 9.99621C34.5557 9.90585 34.4364 9.81549 34.3135 9.72874L34.0208 9.51911C33.8979 9.43237 33.775 9.34924 33.6593 9.26972L33.363 9.07455L32.9726 8.836L32.6762 8.66251C32.5389 8.58299 32.3979 8.51071 32.257 8.43481L31.9714 8.283C31.816 8.20349 31.6606 8.1312 31.5016 8.0553L31.2522 7.93603C31.0136 7.8276 30.7751 7.72639 30.5293 7.62881L30.457 7.60351C30.2329 7.51315 30.0016 7.4264 29.7703 7.34689L29.5065 7.26014C29.3402 7.20593 29.1776 7.15171 29.0113 7.10473L28.6968 7.01437C28.545 6.97461 28.3932 6.93124 28.2414 6.89509L27.9053 6.81558L27.4607 6.71799L27.0993 6.65293L26.6547 6.58065L26.2933 6.53004L25.8487 6.47583L25.4873 6.4433C25.3391 6.4433 25.1873 6.418 25.0391 6.41077H24.6777H24.5187L24.544 5.0843ZM7.5023 23.3404C7.5023 23.297 7.5023 23.25 7.5023 23.2066C7.5023 23.0982 7.5023 22.9898 7.52038 22.8814C7.53845 22.7729 7.54206 22.585 7.55652 22.4368L7.58905 22.1115C7.60712 21.9669 7.62519 21.8224 7.64688 21.6778C7.66856 21.5332 7.67579 21.4609 7.69386 21.3525L7.76977 20.9224C7.79145 20.814 7.80952 20.7091 7.83121 20.6007L7.9288 20.1706L8.0047 19.8634C8.04084 19.7152 8.08421 19.5706 8.12759 19.4224C8.17096 19.2742 8.17819 19.2309 8.21072 19.1369C8.2577 18.9779 8.31192 18.8188 8.36613 18.6598C8.39143 18.5803 8.41673 18.5008 8.44565 18.4213C8.52878 18.1899 8.61552 17.9658 8.70588 17.7381V17.7165C8.79986 17.4851 8.90106 17.2538 9.00949 17.0261C9.04202 16.9502 9.08177 16.8779 9.11792 16.802L9.34201 16.3502L9.48658 16.09C9.55887 15.9563 9.63477 15.8225 9.71067 15.6888L9.87332 15.4177L10.1082 15.0563C10.1661 14.9659 10.2275 14.8756 10.289 14.7852C10.3504 14.6949 10.4516 14.5431 10.5384 14.4238C10.6251 14.3045 10.6649 14.2467 10.7335 14.1599C10.8022 14.0732 10.907 13.925 10.9974 13.7985L11.2034 13.5419C11.2974 13.4262 11.395 13.3142 11.4925 13.1985L11.7022 12.96L11.7998 12.8552L22.491 23.3368L7.5023 23.3404ZM10.1046 11.1853L11.0299 12.0925L10.9215 12.2154L10.6829 12.4865C10.5817 12.6022 10.4805 12.7214 10.3829 12.8479L10.1589 13.1262L9.87693 13.4877C9.80464 13.5816 9.73597 13.6756 9.6673 13.7732C9.59863 13.8708 9.4902 14.0262 9.40345 14.1563L9.20828 14.4455C9.12153 14.5792 9.0384 14.7129 8.95527 14.8503C8.87214 14.9876 8.83961 15.0382 8.7854 15.1322C8.73118 15.2262 8.61914 15.4213 8.53962 15.5695C8.49264 15.6599 8.43842 15.7502 8.39143 15.8406C8.30469 16.0033 8.22517 16.1695 8.14566 16.3322C8.10952 16.4117 8.06976 16.4876 8.03361 16.5635C7.80591 17.0514 7.59989 17.5466 7.41917 18.0562C7.39026 18.1357 7.36496 18.2188 7.33604 18.302C7.27821 18.4755 7.22039 18.6634 7.16617 18.8188C7.13364 18.92 7.10834 19.0248 7.07943 19.126C7.05051 19.2273 6.98907 19.4405 6.94931 19.5959C6.90955 19.7513 6.89509 19.82 6.86618 19.9284C6.83726 20.0369 6.79751 20.232 6.76498 20.3838C6.73245 20.5356 6.71799 20.6152 6.6963 20.7453C6.67462 20.8754 6.64209 21.0489 6.61679 21.2007C6.59149 21.3525 6.58065 21.4356 6.56619 21.5621C6.55173 21.6886 6.52643 21.8657 6.50836 22.0139C6.49029 22.1621 6.48306 22.2561 6.4686 22.3754C6.45414 22.4946 6.4433 22.679 6.43607 22.8308C6.42884 22.9826 6.43607 23.0729 6.41439 23.1922V23.3548H5.10599C5.25166 18.8286 7.0267 14.5071 10.1046 11.1853ZM6.3927 24.4355C6.3927 24.515 6.3927 24.5946 6.3927 24.6741C6.3927 24.7536 6.3927 24.9343 6.41439 25.0644C6.43607 25.1945 6.41439 25.3716 6.44691 25.5271C6.47944 25.6825 6.4686 25.7837 6.48306 25.9138C6.49752 26.0439 6.5192 26.221 6.54089 26.3728C6.56257 26.5246 6.57342 26.6258 6.59149 26.7523C6.60956 26.8788 6.6457 27.0595 6.67462 27.215L6.73968 27.5764C6.77221 27.7354 6.81196 27.8908 6.84811 28.0463C6.88425 28.2017 6.89871 28.2776 6.92762 28.4077C6.971 28.5776 7.0216 28.7402 7.06858 28.9065C7.0975 29.0113 7.1228 29.1125 7.15533 29.2137C7.22279 29.4306 7.29508 29.6474 7.37219 29.8643C7.37219 29.9113 7.4011 29.9583 7.41917 30.0052C7.51315 30.2655 7.61435 30.5221 7.71917 30.7751C7.75531 30.8655 7.79868 30.9558 7.83844 31.0462C7.91073 31.2088 7.98301 31.3751 8.05891 31.5377C8.1059 31.6425 8.16012 31.7437 8.21072 31.8449C8.26132 31.9461 8.35891 32.1377 8.43481 32.2823C8.51071 32.4269 8.55047 32.4955 8.61191 32.6003C8.67335 32.7052 8.76371 32.875 8.84684 33.0124L9.04202 33.3304C9.12515 33.4606 9.20828 33.5943 9.29502 33.7244C9.38177 33.8545 9.43598 33.9304 9.50827 34.0352C9.58055 34.1401 9.68537 34.2882 9.77934 34.4147L10.007 34.7147C10.1046 34.8412 10.1986 34.9641 10.2998 35.0762C10.401 35.1882 10.4588 35.2713 10.542 35.3653C10.6251 35.4593 10.748 35.6075 10.8564 35.7268L11.1058 36.0051C11.1492 36.0484 11.1889 36.0954 11.2323 36.1424L10.336 37.0677C7.0643 33.6638 5.19006 29.1556 5.0843 24.4355H6.3927Z" fill="white"/>
        <path d="M31.4908 35.3906C31.4908 35.3147 31.4908 35.2388 31.4908 35.1593V35.1123C31.4908 35.022 31.4908 34.9316 31.4618 34.8376C31.3487 34.1187 30.9546 33.4741 30.3663 33.0458C29.778 32.6174 29.0435 32.4403 28.3246 32.5534C27.6056 32.6665 26.9611 33.0606 26.5327 33.6489C26.1043 34.2373 25.9272 34.9717 26.0403 35.6906C26.0548 35.7726 26.0728 35.8557 26.0945 35.94C26.2451 36.528 26.5865 37.0493 27.0654 37.4222C27.5442 37.795 28.1333 37.9983 28.7402 38.0002C28.8844 38.0006 29.0283 37.9885 29.1703 37.9641C29.2619 37.9496 29.3523 37.9315 29.4414 37.9098H29.4884C29.5611 37.8924 29.6324 37.8695 29.7017 37.8412C30.1966 37.6517 30.626 37.3228 30.9377 36.8943C31.2495 36.4658 31.4303 35.956 31.4582 35.4268L31.4908 35.3906ZM28.6932 36.8906C28.6217 36.8848 28.5505 36.8751 28.48 36.8617C28.4439 36.8617 28.4077 36.8617 28.3716 36.8617C28.3075 36.8443 28.2447 36.8226 28.1836 36.7966C28.1475 36.7966 28.1077 36.7749 28.0716 36.7569C27.9894 36.7181 27.9107 36.6722 27.8366 36.6195C27.7805 36.5801 27.7273 36.5367 27.6776 36.4894C27.6354 36.4574 27.5955 36.4224 27.5583 36.3846C27.497 36.317 27.4414 36.2445 27.3921 36.1677L27.3668 36.1352C27.321 36.0594 27.2823 35.9795 27.2511 35.8966C27.2401 35.8794 27.2304 35.8612 27.2222 35.8424C27.1889 35.7459 27.1635 35.6468 27.1463 35.5461C27.1447 35.5389 27.1447 35.5315 27.1463 35.5244C27.0774 35.0941 27.1817 34.6541 27.4364 34.3005C27.6911 33.947 28.0754 33.7086 28.5053 33.6377C28.6027 33.6287 28.7007 33.6287 28.7981 33.6377H28.8957C28.9613 33.6408 29.0266 33.6492 29.0908 33.663L29.1956 33.6883C29.2595 33.7062 29.3223 33.7279 29.3836 33.7533L29.4703 33.7895C29.5601 33.8325 29.646 33.8833 29.727 33.9413C29.9031 34.0689 30.0518 34.2307 30.1642 34.417C30.2766 34.6033 30.3504 34.8102 30.3811 35.0256C30.3997 35.1342 30.4057 35.2445 30.3992 35.3545C30.401 35.3737 30.401 35.3931 30.3992 35.4123C30.3931 35.5012 30.3798 35.5894 30.3595 35.6762C30.361 35.6833 30.361 35.6907 30.3595 35.6979C30.2507 36.0863 30.0023 36.421 29.6619 36.6376L29.6366 36.6593C29.5617 36.7021 29.4845 36.7408 29.4053 36.7749L29.3474 36.8002C29.2436 36.8405 29.1358 36.8696 29.0258 36.887C28.9152 36.8977 28.804 36.8989 28.6932 36.8906Z" fill="white"/>
        <path d="M10.889 30.1642C10.9297 30.2079 10.9732 30.249 11.0191 30.2871L11.0697 30.3269C11.1079 30.3602 11.1477 30.3915 11.189 30.4209C11.189 30.4209 11.189 30.4209 11.207 30.4209C11.3024 30.4866 11.4013 30.5469 11.5034 30.6016L11.5938 30.6486C11.6933 30.6975 11.7959 30.7398 11.901 30.7751L12.0058 30.8112C12.114 30.8432 12.2238 30.8698 12.3347 30.8907H12.4179C12.5335 30.8907 12.6528 30.916 12.7793 30.9196H12.7974C12.9413 30.9195 13.0851 30.9086 13.2275 30.8871C13.3214 30.8871 13.4118 30.851 13.4985 30.8293H13.5491L13.7624 30.7606C14.2579 30.5709 14.6876 30.2415 14.9994 29.8122C15.3113 29.383 15.4917 28.8724 15.519 28.3426C15.519 28.2667 15.519 28.1872 15.519 28.1077V28.0679C15.519 27.9739 15.519 27.8836 15.4901 27.7896C15.3754 27.0736 14.9816 26.4322 14.3949 26.006C13.8081 25.5799 13.0764 25.4037 12.36 25.5162C12.2697 25.5162 12.1793 25.5523 12.089 25.574H12.042L11.8287 25.6427C11.3332 25.8324 10.9035 26.1618 10.5917 26.5911C10.2799 27.0203 10.0994 27.5308 10.0721 28.0607C10.0721 28.1366 10.0721 28.2161 10.0721 28.292V28.3354C10.0721 28.4293 10.0721 28.5197 10.1011 28.6101C10.13 28.7004 10.1336 28.7836 10.1553 28.8667L10.1878 28.9715C10.1878 29.0185 10.2131 29.0655 10.2312 29.1125C10.2492 29.1594 10.2673 29.1992 10.2854 29.2462C10.3035 29.2932 10.3107 29.3112 10.3251 29.3402C10.3396 29.3691 10.3757 29.4377 10.401 29.4883L10.4408 29.5606C10.4697 29.6112 10.4986 29.6582 10.5312 29.7052L10.5745 29.7667L10.6794 29.9076L10.7263 29.9582C10.7631 30.0053 10.803 30.05 10.8456 30.0919L10.889 30.1642ZM12.7974 26.5499C13.1882 26.5511 13.5657 26.6915 13.8625 26.9458C14.1592 27.2001 14.3556 27.5518 14.4166 27.9378C14.4334 28.0466 14.4395 28.1567 14.4347 28.2667C14.4347 28.2667 14.4347 28.3028 14.4347 28.3209C14.429 28.4098 14.4157 28.4981 14.3949 28.5848C14.397 28.5931 14.397 28.6018 14.3949 28.6101C14.2888 29.0036 14.0419 29.3445 13.701 29.5679H13.6757C13.6015 29.6143 13.5227 29.653 13.4407 29.6835C13.4407 29.6835 13.4046 29.7052 13.3829 29.7124C13.2796 29.7499 13.1732 29.7777 13.0648 29.7956C12.9579 29.8063 12.8501 29.8063 12.7431 29.7956C12.6642 29.7903 12.5857 29.7794 12.5082 29.763H12.4215C12.3528 29.745 12.2841 29.7161 12.2118 29.6908C12.1823 29.6783 12.1522 29.6675 12.1215 29.6582C12.0356 29.6171 11.9534 29.5687 11.8757 29.5136C11.8215 29.4739 11.7709 29.4305 11.7203 29.3871C11.6697 29.3438 11.6408 29.3221 11.6082 29.2859C11.5469 29.2171 11.4912 29.1434 11.442 29.0655L11.4167 29.0329C11.3698 28.956 11.3298 28.8749 11.2974 28.7908C11.2974 28.7908 11.2974 28.7582 11.2721 28.7438C11.2346 28.6393 11.2068 28.5317 11.189 28.4221C11.1704 28.3135 11.1644 28.2032 11.1709 28.0932C11.1691 28.0752 11.1691 28.057 11.1709 28.039C11.1765 27.9501 11.1898 27.8618 11.2107 27.7751C11.2085 27.7668 11.2085 27.7581 11.2107 27.7498C11.3155 27.3557 11.5628 27.0145 11.9046 26.792C11.913 26.7904 11.9216 26.7904 11.9299 26.792C12.0041 26.7456 12.0828 26.7069 12.1649 26.6764L12.2191 26.6475C12.3235 26.6099 12.4312 26.5821 12.5407 26.5643C12.6262 26.5582 12.7121 26.5595 12.7974 26.568V26.5499Z" fill="white"/>
        <path d="M22.4079 35.8352C22.4079 35.7557 22.4079 35.6798 22.4079 35.6003C22.4079 35.6003 22.4079 35.575 22.4079 35.5605C22.3986 35.3748 22.3695 35.1906 22.3212 35.0111C22.3228 34.9991 22.3228 34.987 22.3212 34.975C22.3009 34.8991 22.2768 34.8243 22.2489 34.7509C22.0253 34.1635 21.6068 33.6706 21.0633 33.3548C20.5199 33.039 19.8845 32.9194 19.2634 33.016C19.1732 33.0301 19.0839 33.0494 18.996 33.0738C18.3847 33.2304 17.8476 33.5962 17.4779 34.1075C17.1605 34.544 16.9794 35.0646 16.9575 35.6039C16.9503 35.784 16.9612 35.9644 16.99 36.1424C16.99 36.2292 17.0189 36.3087 17.0406 36.3918C17.1913 36.9803 17.5333 37.5021 18.0129 37.875C18.4925 38.248 19.0824 38.4509 19.6899 38.452C19.8327 38.4518 19.9753 38.4409 20.1164 38.4194L20.3875 38.3616H20.4381C20.5103 38.3438 20.5815 38.322 20.6513 38.2966C21.1474 38.1066 21.5775 37.7766 21.8893 37.3467C22.2012 36.9167 22.3814 36.4054 22.4079 35.8749V35.8352ZM19.6032 37.3496C19.5635 37.3531 19.5236 37.3531 19.4839 37.3496C19.4169 37.3456 19.3504 37.3359 19.2851 37.3207C19.2482 37.3009 19.2132 37.2779 19.1803 37.252C19.1171 37.2358 19.0554 37.214 18.996 37.187C18.949 37.1653 18.9056 37.1327 18.8586 37.1074C18.7367 37.0357 18.6238 36.9495 18.5225 36.8508L18.4863 36.8183C18.4235 36.7498 18.3667 36.676 18.3165 36.5978L18.2912 36.5653C18.2454 36.4895 18.2067 36.4096 18.1755 36.3267C18.1755 36.3267 18.1755 36.2942 18.1502 36.2725C18.1094 36.1703 18.0815 36.0635 18.0671 35.9545C18.0331 35.7418 18.0414 35.5245 18.0915 35.315C18.1416 35.1056 18.2326 34.9081 18.3592 34.7338C18.4857 34.5596 18.6454 34.412 18.8291 34.2996C19.0128 34.1871 19.2169 34.112 19.4297 34.0786C19.5145 34.0644 19.6003 34.0571 19.6863 34.0569C20.0756 34.0606 20.4511 34.202 20.7462 34.456C21.0412 34.7101 21.2368 35.0604 21.2983 35.4448C21.365 35.875 21.2587 36.3141 21.0027 36.6663C20.7468 37.0184 20.3619 37.255 19.9321 37.3243C19.8235 37.3435 19.7134 37.3519 19.6032 37.3496Z" fill="white"/>
        <path d="M35.1991 16.1442C35.0289 16.1693 34.8618 16.2117 34.7003 16.2707H34.675C34.5244 16.3274 34.3792 16.3975 34.2413 16.4803L34.1979 16.502C33.895 16.691 33.6312 16.9364 33.4208 17.2249C33.2045 17.515 33.0484 17.8454 32.9615 18.1967C32.8746 18.548 32.8587 18.9131 32.9148 19.2706C32.9148 19.3574 32.9473 19.4441 32.969 19.5272C32.9907 19.6104 32.969 19.5959 32.9979 19.632L33.0413 19.7694L33.0955 19.9031L33.1389 20.0007C33.1606 20.0513 33.1859 20.0983 33.2112 20.1453L33.2509 20.2176C33.2799 20.2682 33.3124 20.3152 33.3449 20.3621C33.3774 20.4091 33.3702 20.4055 33.3847 20.4236L33.4931 20.5646L33.5401 20.6188L33.6557 20.7489L33.71 20.7995L33.8365 20.9188L33.8943 20.9657L34.0063 21.0561H34.028C34.1233 21.123 34.2222 21.1846 34.3244 21.2404L34.4148 21.2874C34.5147 21.3354 34.6172 21.3777 34.722 21.4139L34.8232 21.4465C34.9309 21.4802 35.0408 21.5067 35.1521 21.526H35.2352C35.3548 21.5447 35.4756 21.5544 35.5967 21.5549C35.7418 21.5548 35.8868 21.544 36.0304 21.5224C36.2971 21.4803 36.5564 21.4 36.8002 21.2838C37.2443 21.0671 37.6216 20.7344 37.892 20.3208C38.1624 19.9072 38.316 19.4282 38.3363 18.9345C38.3418 18.8454 38.3418 18.7561 38.3363 18.667C38.3321 18.5762 38.3224 18.4857 38.3074 18.3959C38.252 18.0411 38.127 17.7007 37.9398 17.3943C37.7525 17.0879 37.5066 16.8214 37.2162 16.6102C36.9257 16.399 36.5964 16.2472 36.2472 16.1635C35.898 16.0798 35.5356 16.0659 35.181 16.1225L35.1991 16.1442ZM36.952 19.8092C36.825 19.9859 36.6634 20.135 36.477 20.2475C36.2906 20.3599 36.0833 20.4334 35.8677 20.4633C35.5469 20.5155 35.2179 20.471 34.9225 20.3355C34.627 20.2 34.3786 19.9797 34.2089 19.7025C34.0391 19.4254 33.9556 19.104 33.9691 18.7793C33.9826 18.4545 34.0925 18.1412 34.2846 17.8791C34.4121 17.7024 34.5738 17.5531 34.76 17.4401C34.9463 17.3271 35.1534 17.2527 35.3689 17.2213C35.4651 17.2124 35.5619 17.2124 35.6581 17.2213C35.7087 17.2213 35.7557 17.2213 35.8027 17.2213C35.8497 17.2213 35.9075 17.2213 35.9581 17.243L36.1063 17.2827L36.2472 17.3333C36.2944 17.352 36.3402 17.3738 36.3846 17.3984L36.5219 17.4779L36.6376 17.561L36.7605 17.6695L36.8617 17.7707C36.8961 17.8104 36.9276 17.8527 36.9556 17.8972L37.0388 18.0164C37.0689 18.0688 37.0955 18.1232 37.1183 18.1791C37.1183 18.2152 37.1544 18.2514 37.1689 18.2911C37.2047 18.3884 37.2313 18.4889 37.2484 18.5911C37.2824 18.8037 37.2738 19.0208 37.2229 19.23C37.172 19.4391 37.0799 19.636 36.952 19.8092Z" fill="white"/>
        <path d="M11.7673 16.3502C11.125 16.5195 10.5663 16.9165 10.1953 17.4674C9.82426 18.0183 9.66626 18.6853 9.75076 19.344C9.83526 20.0028 10.1565 20.6083 10.6545 21.0477C11.1526 21.4871 11.7935 21.7303 12.4576 21.732C12.6006 21.7325 12.7433 21.7204 12.8841 21.6958C13.4188 21.6123 13.9165 21.3718 14.3144 21.005C14.7122 20.6382 14.9922 20.1615 15.1188 19.6354C15.2454 19.1093 15.2129 18.5574 15.0255 18.0497C14.838 17.5421 14.5041 17.1015 14.066 16.7839C13.7768 16.5702 13.4479 16.4163 13.0985 16.3313C12.749 16.2463 12.3862 16.2318 12.0311 16.2887C11.9516 16.3104 11.854 16.3285 11.7673 16.3502ZM12.4901 17.3586H12.5805C12.651 17.3627 12.7211 17.3723 12.7901 17.3875L12.8805 17.4092C12.9507 17.4301 13.0195 17.4555 13.0865 17.4851L13.1552 17.5104C13.3363 17.6003 13.4992 17.7228 13.6359 17.8718C13.6985 17.9418 13.7553 18.0168 13.8058 18.0959L13.8275 18.1248C13.8736 18.201 13.9135 18.2808 13.9467 18.3634L13.972 18.414C14.0095 18.5172 14.0373 18.6237 14.0552 18.7321C14.1079 19.0538 14.0636 19.3839 13.928 19.6804C13.7923 19.9768 13.5714 20.2262 13.2935 20.3966C13.0155 20.5669 12.6931 20.6507 12.3674 20.6371C12.0417 20.6235 11.7274 20.5132 11.4646 20.3202C11.2018 20.1272 11.0025 19.8603 10.892 19.5536C10.7816 19.2469 10.765 18.9142 10.8444 18.598C10.9238 18.2818 11.0955 17.9964 11.3378 17.7782C11.5801 17.5601 11.8818 17.419 12.2046 17.3731C12.3044 17.3641 12.4048 17.3641 12.5046 17.3731L12.4901 17.3586Z" fill="white"/>
        <path d="M37.5086 27.7824C37.5086 27.6921 37.4725 27.6017 37.4508 27.5114C37.4508 27.5114 37.4508 27.4861 37.4508 27.4716C37.4291 27.3957 37.4074 27.3234 37.3821 27.2511C37.1585 26.6637 36.74 26.1709 36.1966 25.8551C35.6531 25.5393 35.0177 25.4196 34.3966 25.5162C34.3063 25.5162 34.2159 25.5524 34.1292 25.5741H34.0786L33.8653 25.6427C33.3699 25.8324 32.9401 26.1619 32.6283 26.5911C32.3165 27.0204 32.136 27.5309 32.1088 28.0607C32.1088 28.1366 32.1088 28.2162 32.1088 28.2921V28.3354C32.1088 28.4294 32.1088 28.5198 32.1377 28.6101C32.2399 29.2531 32.5677 29.8387 33.0625 30.2619C33.5572 30.6851 34.1865 30.9183 34.8376 30.9197C34.9816 30.9196 35.1253 30.9087 35.2677 30.8872C35.9723 30.7639 36.6008 30.3704 37.0194 29.7904C37.438 29.2105 37.6135 28.4899 37.5086 27.7824ZM33.1714 28.4655C33.1379 28.2527 33.1467 28.0353 33.1973 27.8258C33.2478 27.6163 33.3391 27.4188 33.466 27.2447C33.5929 27.0705 33.7528 26.923 33.9367 26.8106C34.1205 26.6982 34.3247 26.6232 34.5376 26.5897C34.6224 26.5753 34.7082 26.568 34.7942 26.568C34.8887 26.5693 34.983 26.5777 35.0761 26.5933H35.1267C35.2004 26.6071 35.2729 26.6264 35.3436 26.6511L35.4123 26.6801C35.473 26.7053 35.5322 26.7343 35.5894 26.7668L35.6653 26.8138C35.7145 26.843 35.7616 26.8756 35.8062 26.9114L35.9255 27.0162C35.9611 27.0493 35.9949 27.0843 36.0267 27.121C36.0629 27.1608 36.0918 27.2041 36.1243 27.2475C36.1541 27.2858 36.1818 27.3256 36.2074 27.3668C36.2364 27.4174 36.258 27.4716 36.2833 27.5258C36.3032 27.5617 36.3201 27.5992 36.3339 27.6379C36.3697 27.7364 36.3964 27.838 36.4135 27.9415C36.4243 28.0508 36.4243 28.161 36.4135 28.2704C36.4135 28.2704 36.4135 28.3065 36.4135 28.3246C36.4078 28.4135 36.3945 28.5018 36.3737 28.5884C36.3758 28.5967 36.3758 28.6054 36.3737 28.6137C36.2689 29.0079 36.0216 29.3491 35.6797 29.5715H35.6544C35.5803 29.618 35.5015 29.6567 35.4195 29.6872L35.3653 29.7161C35.2607 29.7531 35.1531 29.7809 35.0436 29.7992C34.6212 29.8633 34.1904 29.7597 33.8433 29.5105C33.4962 29.2613 33.2602 28.8863 33.1858 28.4655H33.1714Z" fill="white"/>
        <path d="M31.0245 12.6527C30.9095 11.9451 30.5221 11.3106 29.9452 10.8851C29.3684 10.4595 28.6478 10.2767 27.9378 10.3757H27.8944C27.227 10.4952 26.6279 10.8587 26.2135 11.3954C25.7991 11.932 25.599 12.6036 25.6522 13.2796C25.7054 13.9556 26.008 14.5876 26.5012 15.0529C26.9944 15.5182 27.643 15.7835 28.3209 15.7972C28.4637 15.7971 28.6063 15.7863 28.7474 15.7647C29.4638 15.6517 30.1061 15.259 30.5331 14.6728C30.96 14.0865 31.1368 13.3547 31.0245 12.6382V12.6527ZM29.6619 14.0442C29.5337 14.2202 29.3718 14.3689 29.1857 14.4819C28.9995 14.5948 28.7928 14.6696 28.5776 14.702C28.4698 14.7171 28.361 14.7231 28.2523 14.7201C28.1793 14.7146 28.1068 14.7037 28.0354 14.6876C28.0018 14.6911 27.9679 14.6911 27.9342 14.6876C27.8662 14.6701 27.7997 14.6472 27.7354 14.6189L27.6342 14.5828C27.552 14.544 27.4734 14.4981 27.3993 14.4454C27.3387 14.4048 27.2818 14.3588 27.2294 14.3081C27.1916 14.2775 27.1554 14.2449 27.121 14.2105C27.0596 14.143 27.004 14.0704 26.9547 13.9936L26.9258 13.9575C26.8796 13.8801 26.8397 13.7991 26.8065 13.7153C26.8001 13.6993 26.7929 13.6836 26.7848 13.6683C26.7474 13.5651 26.7196 13.4586 26.7017 13.3503C26.6496 13.0272 26.6962 12.6959 26.8354 12.3997C26.9653 12.1073 27.1803 11.8608 27.4524 11.6925C27.7245 11.5242 28.0411 11.4419 28.3607 11.4564H28.4908L28.6679 11.4817L28.7944 11.5178C28.8486 11.5359 28.9065 11.5539 28.9571 11.5756L29.0763 11.6298L29.2245 11.7166L29.3293 11.7925C29.3763 11.8286 29.4161 11.8684 29.4595 11.9081C29.5028 11.9479 29.5209 11.966 29.5498 11.9985C29.5891 12.0443 29.6253 12.0926 29.6582 12.1431C29.6844 12.1753 29.7085 12.2091 29.7305 12.2443C29.7638 12.3024 29.7927 12.3628 29.8173 12.425C29.8173 12.4575 29.8498 12.4864 29.8643 12.519C29.8984 12.6193 29.925 12.7219 29.9438 12.8262C30.015 13.2535 29.9136 13.6917 29.6619 14.0442Z" fill="white"/>
    </g>
    <defs>
        <clipPath id="clip0_2017_2862">
            <rect width="40" height="40.0036" fill="white" transform="translate(4 4)"/>
        </clipPath>
    </defs>
</svg>
