<svg width="48" height="48" viewBox="0 0 48 48" fill="none" xmlns="http://www.w3.org/2000/svg">
    <g clip-path="url(#clip0_2017_2898)">
        <path d="M19.9786 4H7.55406C6.65291 4.00098 5.78896 4.35913 5.15175 4.99586C4.51454 5.6326 4.15613 6.49592 4.15515 7.3964V19.808C4.15808 20.7072 4.51736 21.5687 5.15435 22.2038C5.79135 22.8389 6.65419 23.1961 7.55406 23.197H19.9786C20.8797 23.1961 21.7437 22.8379 22.3809 22.2012C23.0181 21.5644 23.3765 20.7011 23.3775 19.8006V7.3964C23.3765 6.49592 23.0181 5.6326 22.3809 4.99586C21.7437 4.35913 20.8797 4.00098 19.9786 4V4ZM22.258 19.808C22.258 20.4125 22.018 20.9922 21.5906 21.42C21.1632 21.8477 20.5835 22.0885 19.9786 22.0895H7.55406C6.94916 22.0885 6.36938 21.8477 5.942 21.42C5.51462 20.9922 5.27457 20.4125 5.27457 19.808V7.3964C5.2736 7.09648 5.33182 6.79931 5.44589 6.5219C5.55997 6.24448 5.72766 5.99226 5.93938 5.77967C6.1511 5.56708 6.40269 5.39829 6.67975 5.28295C6.95682 5.16762 7.25392 5.10801 7.55406 5.10752H19.9786C20.2787 5.10801 20.5758 5.16762 20.8529 5.28295C21.1299 5.39829 21.3815 5.56708 21.5932 5.77967C21.805 5.99226 21.9726 6.24448 22.0867 6.5219C22.2008 6.79931 22.259 7.09648 22.258 7.3964V19.808Z" fill="white"/>
        <path d="M16.8568 9.67796L16.8051 9.64104C15.943 8.94876 14.8704 8.57108 13.7645 8.57043C12.4521 8.60595 11.2054 9.15187 10.2897 10.092C9.37406 11.0321 8.86169 12.2922 8.86169 13.6041C8.86169 14.916 9.37406 16.1761 10.2897 17.1163C11.2054 18.0564 12.4521 18.6023 13.7645 18.6378C15.089 18.6242 16.3538 18.0858 17.2814 17.141C18.2089 16.1961 18.7232 14.9221 18.7114 13.5986C18.7125 12.8486 18.5467 12.1077 18.2259 11.4296C17.9052 10.7515 17.4375 10.1532 16.8568 9.67796ZM11.8693 16.8178V10.2059C12.2797 9.96222 12.7341 9.80166 13.2066 9.73333V17.486C12.7233 17.4131 12.2589 17.2463 11.8397 16.995C11.858 16.9376 11.868 16.878 11.8693 16.8178ZM14.3445 9.73333C14.9279 9.82067 15.4824 10.0446 15.9627 10.3868V16.8178C15.4827 17.1612 14.9282 17.3863 14.3445 17.4749V9.73333ZM9.93705 13.5986C9.93646 12.7289 10.2221 11.8831 10.7498 11.1916V15.9908C10.2251 15.3033 9.93969 14.4632 9.93705 13.5986ZM17.0637 15.5811V11.6198C17.4123 12.2224 17.5958 12.9062 17.5958 13.6023C17.5958 14.2983 17.4123 14.9821 17.0637 15.5847V15.5811Z" fill="white"/>
        <path d="M40.2538 44C41.1549 43.999 42.0189 43.6409 42.6561 43.0041C43.2933 42.3674 43.6517 41.5041 43.6527 40.6036V28.1883C43.6517 27.2878 43.2933 26.4245 42.6561 25.7877C42.0189 25.151 41.1549 24.7928 40.2538 24.7919H27.833C26.9318 24.7928 26.0679 25.151 25.4307 25.7877C24.7935 26.4245 24.4351 27.2878 24.4341 28.1883V40.6036C24.4351 41.5041 24.7935 42.3674 25.4307 43.0041C26.0679 43.6409 26.9318 43.999 27.833 44H40.2538ZM25.5498 40.6036V28.1883C25.5508 27.5838 25.7918 27.0045 26.2198 26.5774C26.6479 26.1503 27.2281 25.9105 27.833 25.9105H40.2538C40.8587 25.9105 41.4389 26.1503 41.8669 26.5774C42.295 27.0045 42.536 27.5838 42.537 28.1883V40.6036C42.536 41.208 42.295 41.7874 41.8669 42.2145C41.4389 42.6415 40.8587 42.8814 40.2538 42.8814H27.833C27.2281 42.8814 26.6479 42.6415 26.2198 42.2145C25.7918 41.7874 25.5508 41.208 25.5498 40.6036Z" fill="white"/>
        <path d="M29.0966 34.3942C29.0966 35.7052 29.6177 36.9625 30.5455 37.8896C31.4732 38.8166 32.7315 39.3374 34.0434 39.3374C35.3554 39.3374 36.6137 38.8166 37.5414 37.8896C38.4692 36.9625 38.9903 35.7052 38.9903 34.3942C38.988 33.7707 38.8729 33.1529 38.6505 32.5704V32.5446C38.299 31.6104 37.6707 30.8055 36.8496 30.2373C36.0284 29.6691 35.0533 29.3647 34.0545 29.3647C33.0557 29.3647 32.0807 29.6691 31.2595 30.2373C30.4383 30.8055 29.8101 31.6104 29.4586 32.5446V32.5741C29.2281 33.1537 29.1054 33.7705 29.0966 34.3942ZM37.8746 34.3942C37.8732 34.7524 37.8235 35.1087 37.7268 35.4537H30.3601C30.2634 35.1087 30.2137 34.7524 30.2123 34.3942C30.2134 34.0332 30.2644 33.6742 30.3638 33.3272H37.7231C37.8225 33.6742 37.8735 34.0332 37.8746 34.3942ZM34.0434 38.3332C33.4091 38.3302 32.7855 38.1689 32.2294 37.8639C31.6733 37.559 31.2021 37.1201 30.8588 36.587H37.2281C36.885 37.1203 36.4139 37.5594 35.8577 37.8644C35.3015 38.1694 34.6779 38.3305 34.0434 38.3332ZM34.0434 30.4957C34.6751 30.499 35.296 30.6589 35.8505 30.9611C36.405 31.2633 36.8758 31.6983 37.2207 32.2271H30.8662C31.2089 31.6949 31.6788 31.2563 32.2334 30.9508C32.7881 30.6453 33.4101 30.4826 34.0434 30.4772V30.4957Z" fill="white"/>
        <path d="M28.1803 23.197H40.6011C41.5022 23.1961 42.3662 22.8379 43.0034 22.2012C43.6406 21.5644 43.999 20.7011 44 19.8006V7.3964C43.999 6.49592 43.6406 5.6326 43.0034 4.99586C42.3662 4.35913 41.5022 4.00098 40.6011 4H28.1803C27.2791 4.00098 26.4152 4.35913 25.778 4.99586C25.1408 5.6326 24.7823 6.49592 24.7814 7.3964V19.808C24.7833 20.7075 25.1423 21.5695 25.7795 22.2049C26.4167 22.8402 27.2801 23.197 28.1803 23.197ZM25.8971 7.3964C25.8961 7.09617 25.9545 6.7987 26.0688 6.52104C26.1831 6.24339 26.3511 5.991 26.5632 5.77836C26.7753 5.56573 27.0273 5.39701 27.3048 5.28189C27.5823 5.16678 27.8798 5.10752 28.1803 5.10752H40.6011C40.9009 5.10752 41.1978 5.16653 41.4748 5.28119C41.7518 5.39585 42.0035 5.5639 42.2155 5.77576C42.4275 5.98761 42.5957 6.23912 42.7105 6.51593C42.8252 6.79273 42.8843 7.08941 42.8843 7.38902V19.808C42.8843 20.1076 42.8252 20.4043 42.7105 20.6811C42.5957 20.9579 42.4275 21.2094 42.2155 21.4213C42.0035 21.6331 41.7518 21.8012 41.4748 21.9159C41.1978 22.0305 40.9009 22.0895 40.6011 22.0895H28.1803C27.5747 22.0895 26.994 21.8492 26.5658 21.4213C26.1377 20.9934 25.8971 20.4131 25.8971 19.808V7.3964Z" fill="white"/>
        <path d="M31.8452 18.3129H36.9361C37.5097 18.31 38.0589 18.0805 38.4638 17.6745C38.8687 17.2686 39.0964 16.719 39.0974 16.1459V11.0587C39.0955 10.4845 38.8663 9.93445 38.4601 9.52847C38.0538 9.12249 37.5033 8.89355 36.9288 8.8916H31.8452C31.2703 8.89258 30.7193 9.1212 30.3128 9.52739C29.9063 9.93358 29.6775 10.4842 29.6765 11.0587V16.1459C29.6765 16.4305 29.7326 16.7122 29.8416 16.9752C29.9506 17.2381 30.1103 17.477 30.3117 17.6782C30.5131 17.8794 30.7521 18.0391 31.0153 18.148C31.2784 18.2569 31.5604 18.3129 31.8452 18.3129ZM37.9891 16.1459C37.9891 16.4243 37.8786 16.6913 37.682 16.8885C37.4853 17.0858 37.2184 17.197 36.9398 17.198H31.8452C31.7053 17.1984 31.5668 17.1695 31.4388 17.1131L37.941 10.7744C37.9692 10.8666 37.9841 10.9623 37.9854 11.0587L37.9891 16.1459ZM30.7922 11.0587C30.7932 10.7802 30.9046 10.5136 31.1019 10.3171C31.2993 10.1205 31.5666 10.0102 31.8452 10.0102H36.9361C36.9927 10.0064 37.0495 10.0064 37.1061 10.0102L30.7959 16.1828C30.7959 16.1828 30.7959 16.1569 30.7959 16.1459L30.7922 11.0587Z" fill="white"/>
        <path d="M19.8197 24.6332H7.39891C6.49776 24.6342 5.63381 24.9923 4.9966 25.629C4.35939 26.2658 4.00098 27.1291 4 28.0296L4 40.4449C4.00098 41.3454 4.35939 42.2087 4.9966 42.8454C5.63381 43.4822 6.49776 43.8403 7.39891 43.8413H19.8197C20.7209 43.8403 21.5848 43.4822 22.222 42.8454C22.8592 42.2087 23.2176 41.3454 23.2186 40.4449V28.0296C23.2176 27.1291 22.8592 26.2658 22.222 25.629C21.5848 24.9923 20.7209 24.6342 19.8197 24.6332ZM22.1029 40.4449C22.1019 41.0494 21.8609 41.6287 21.4329 42.0558C21.0048 42.4828 20.4246 42.7227 19.8197 42.7227H15.4824L17.108 40.5741C17.1521 40.5157 17.1843 40.4492 17.2027 40.3783C17.2212 40.3074 17.2254 40.2337 17.2153 40.1612C17.2052 40.0887 17.1809 40.0189 17.1438 39.9557C17.1066 39.8926 17.0574 39.8374 16.999 39.7933C16.9405 39.7492 16.8739 39.717 16.803 39.6986C16.7321 39.6802 16.6583 39.6759 16.5857 39.6861C16.5132 39.6962 16.4433 39.7205 16.3801 39.7576C16.317 39.7946 16.2618 39.8438 16.2176 39.9022L14.3445 42.3941C14.2731 42.4889 14.2342 42.6041 14.2337 42.7227H9.17225C9.17636 42.6465 9.16433 42.5703 9.13696 42.499C9.10958 42.4278 9.06748 42.3631 9.01339 42.3092L6.79671 40.0942C6.69187 39.9894 6.54967 39.9306 6.4014 39.9306C6.25313 39.9306 6.11094 39.9894 6.0061 40.0942C5.90125 40.199 5.84235 40.341 5.84235 40.4892C5.84235 40.6374 5.90125 40.7795 6.0061 40.8842L7.85333 42.7301H7.39891C7.09815 42.7311 6.80015 42.6726 6.52205 42.5582C6.24395 42.4437 5.99121 42.2755 5.77837 42.0632C5.56552 41.8508 5.39676 41.5985 5.28178 41.3208C5.16679 41.0431 5.10785 40.7454 5.10834 40.4449V28.0296C5.10882 27.7297 5.16848 27.4328 5.2839 27.1559C5.39932 26.8791 5.56824 26.6277 5.78099 26.4161C5.99373 26.2045 6.24614 26.037 6.52376 25.923C6.80138 25.809 7.09877 25.7508 7.39891 25.7518H19.8197C20.4246 25.7518 21.0048 25.9916 21.4329 26.4187C21.8609 26.8458 22.1019 27.4251 22.1029 28.0296V40.4449Z" fill="white"/>
        <path d="M16.1548 29.5284H14.278L16.273 27.8598C16.3293 27.8127 16.3757 27.7551 16.4097 27.6901C16.4437 27.6252 16.4646 27.5541 16.4711 27.4811C16.4776 27.4081 16.4696 27.3345 16.4477 27.2646C16.4258 27.1946 16.3902 27.1297 16.3432 27.0734C16.2961 27.0172 16.2384 26.9708 16.1734 26.9368C16.1084 26.9028 16.0373 26.882 15.9643 26.8755C15.8912 26.869 15.8176 26.8769 15.7475 26.8988C15.6775 26.9208 15.6125 26.9563 15.5563 27.0033L13.1586 29.0079C13.0841 29.0706 13.0273 29.1515 12.9936 29.2428C12.9599 29.334 12.9506 29.4325 12.9664 29.5284H11.0638C10.4902 29.5294 9.94028 29.757 9.534 30.1616C9.12772 30.5662 8.89807 31.1149 8.89514 31.6881V36.779C8.89612 37.3535 9.12491 37.9041 9.5314 38.3103C9.93789 38.7165 10.4889 38.9451 11.0638 38.9461H12.2497C12.1963 38.9697 12.1466 39.0008 12.1019 39.0384L9.77073 41.1205C9.68606 41.1955 9.62621 41.2944 9.59912 41.4042C9.57204 41.514 9.579 41.6294 9.61908 41.7351C9.65915 41.8409 9.73046 41.9319 9.82353 41.9962C9.9166 42.0605 10.027 42.095 10.1402 42.0951C10.2768 42.094 10.4083 42.0427 10.5096 41.9511L12.8371 39.8727C12.9062 39.8105 12.9588 39.7322 12.9902 39.6448C13.0215 39.5573 13.0306 39.4634 13.0167 39.3716C13.0028 39.2797 12.9663 39.1928 12.9104 39.1185C12.8546 39.0442 12.7812 38.985 12.6967 38.9461H16.1548C16.4396 38.9461 16.7216 38.89 16.9847 38.7811C17.2478 38.6722 17.4869 38.5126 17.6882 38.3113C17.8896 38.1101 18.0494 37.8712 18.1583 37.6083C18.2673 37.3454 18.3234 37.0636 18.3234 36.779V31.6881C18.3215 31.1146 18.0921 30.5653 17.6856 30.1605C17.2791 29.7557 16.7287 29.5284 16.1548 29.5284ZM17.2077 36.779C17.2067 37.0578 17.0955 37.3248 16.8982 37.5219C16.701 37.719 16.4337 37.8302 16.1548 37.8312H11.0638C10.7852 37.8302 10.5183 37.7189 10.3217 37.5217C10.125 37.3245 10.0146 37.0574 10.0146 36.779V31.6881C10.0146 31.4097 10.125 31.1426 10.3217 30.9454C10.5183 30.7482 10.7852 30.6369 11.0638 30.636H16.1548C16.4337 30.6369 16.701 30.7481 16.8982 30.9452C17.0955 31.1423 17.2067 31.4094 17.2077 31.6881V36.779Z" fill="white"/>
        <path d="M6.80413 28.8602C6.86837 28.8599 6.93211 28.8487 6.99255 28.8269L9.94812 27.7674C10.0224 27.7476 10.0918 27.7126 10.1519 27.6647C10.2121 27.6168 10.2617 27.557 10.2975 27.489C10.3334 27.4211 10.3549 27.3464 10.3605 27.2698C10.3662 27.1932 10.3559 27.1162 10.3304 27.0437C10.3048 26.9712 10.2646 26.9048 10.2121 26.8486C10.1597 26.7924 10.0961 26.7476 10.0256 26.7172C9.95497 26.6867 9.87883 26.6711 9.80193 26.6714C9.72502 26.6717 9.64901 26.6879 9.57867 26.719L6.61571 27.7785C6.49238 27.8231 6.38871 27.9096 6.3229 28.023C6.25708 28.1363 6.23333 28.2692 6.25582 28.3983C6.27831 28.5274 6.3456 28.6445 6.44587 28.7289C6.54614 28.8134 6.67299 28.8599 6.80413 28.8602Z" fill="white"/>
        <path d="M8.48137 30.167C8.41256 30.1382 8.33869 30.1234 8.26408 30.1234C8.18946 30.1234 8.11561 30.1383 8.04681 30.1672C7.97802 30.1961 7.91568 30.2383 7.86343 30.2916C7.81117 30.3448 7.77005 30.4079 7.74248 30.4772L6.58611 33.3789C6.55674 33.4476 6.54149 33.5214 6.54126 33.5962C6.54103 33.6709 6.55583 33.7448 6.58478 33.8137C6.61373 33.8826 6.65624 33.9449 6.70978 33.9971C6.76332 34.0492 6.82679 34.0901 6.89644 34.1172C6.96176 34.1452 7.03227 34.1591 7.10333 34.1578C7.21703 34.1567 7.32765 34.1207 7.42018 34.0547C7.5127 33.9887 7.58266 33.8958 7.62056 33.7886L8.80279 30.8906C8.82955 30.8221 8.84246 30.7489 8.84077 30.6753C8.83908 30.6017 8.82282 30.5292 8.79294 30.4619C8.76306 30.3947 8.72014 30.334 8.66666 30.2833C8.61319 30.2327 8.55021 30.1932 8.48137 30.167Z" fill="white"/>
        <path d="M7.66864 36.0258L5.40763 38.1781C5.30034 38.2804 5.23811 38.4211 5.23465 38.5693C5.23119 38.7174 5.28676 38.8609 5.38916 38.9681C5.49155 39.0753 5.63237 39.1375 5.78064 39.141C5.92891 39.1444 6.07248 39.0889 6.17977 38.9866L8.4334 36.8306C8.5402 36.7283 8.60195 36.5877 8.60507 36.4399C8.60819 36.2921 8.55241 36.1491 8.45002 36.0424C8.34763 35.9357 8.207 35.874 8.05908 35.8709C7.91116 35.8677 7.76805 35.9235 7.66125 36.0258H7.66864Z" fill="white"/>
        <path d="M18.5746 37.8938C18.5226 37.9456 18.4813 38.0072 18.4531 38.075C18.4249 38.1428 18.4104 38.2154 18.4104 38.2888C18.4104 38.3622 18.4249 38.4349 18.4531 38.5027C18.4813 38.5705 18.5226 38.6321 18.5746 38.6839L20.7913 40.8989C20.8433 40.9506 20.905 40.9916 20.9728 41.0194C21.0406 41.0473 21.1133 41.0616 21.1866 41.0613C21.3344 41.0602 21.4761 41.002 21.5819 40.8989C21.634 40.8471 21.6753 40.7855 21.7035 40.7178C21.7317 40.65 21.7462 40.5773 21.7462 40.5039C21.7462 40.4305 21.7317 40.3578 21.7035 40.29C21.6753 40.2222 21.634 40.1607 21.5819 40.1089L19.3653 37.8938C19.3137 37.8414 19.2521 37.7997 19.1843 37.7712C19.1164 37.7428 19.0435 37.7281 18.9699 37.7281C18.8963 37.7281 18.8235 37.7428 18.7556 37.7712C18.6877 37.7997 18.6262 37.8414 18.5746 37.8938Z" fill="white"/>
        <path d="M19.2249 30.4291H19.3394C19.4666 30.4297 19.5901 30.3868 19.6896 30.3075C19.789 30.2283 19.8584 30.1175 19.8862 29.9935L20.5179 26.9367C20.5327 26.864 20.5331 26.7891 20.5189 26.7162C20.5047 26.6434 20.4763 26.5741 20.4353 26.5122C20.3943 26.4503 20.3415 26.3971 20.28 26.3556C20.2184 26.3141 20.1492 26.2852 20.0765 26.2704C20.0037 26.2556 19.9287 26.2553 19.8558 26.2694C19.7829 26.2836 19.7135 26.312 19.6516 26.3529C19.5897 26.3939 19.5364 26.4467 19.4949 26.5082C19.4534 26.5697 19.4244 26.6388 19.4096 26.7115L18.7779 29.7683C18.7634 29.841 18.7635 29.9159 18.7782 29.9886C18.7929 30.0614 18.8218 30.1304 18.8634 30.1919C18.905 30.2533 18.9583 30.3059 19.0204 30.3467C19.0824 30.3874 19.1519 30.4154 19.2249 30.4291Z" fill="white"/>
        <path d="M19.8419 31.9428L19.2101 35.0106C19.1955 35.0824 19.1953 35.1563 19.2093 35.2282C19.2233 35.3 19.2514 35.3684 19.2919 35.4294C19.3323 35.4904 19.3845 35.5429 19.4452 35.5838C19.506 35.6247 19.5742 35.6532 19.646 35.6678C19.7905 35.6972 19.9408 35.6683 20.0641 35.5874C20.1873 35.5065 20.2734 35.3801 20.3037 35.2358L20.9354 32.1754C20.9502 32.1027 20.9505 32.0277 20.9364 31.9549C20.9222 31.882 20.8938 31.8127 20.8528 31.7508C20.8118 31.6889 20.759 31.6357 20.6974 31.5943C20.6359 31.5528 20.5667 31.5238 20.4939 31.509C20.4212 31.4942 20.3462 31.4939 20.2733 31.5081C20.2004 31.5222 20.131 31.5506 20.0691 31.5916C19.944 31.6743 19.857 31.8033 19.8271 31.9502L19.8419 31.9428Z" fill="white"/>
    </g>
    <defs>
        <clipPath id="clip0_2017_2898">
            <rect width="40" height="40" fill="white" transform="translate(4 4)"/>
        </clipPath>
    </defs>
</svg>
