<svg width="48" height="48" viewBox="0 0 48 48" fill="none" xmlns="http://www.w3.org/2000/svg">
    <g clip-path="url(#clip0_2017_2917)">
        <path d="M43.9926 21.7218V21.6812C43.2171 17.1504 41.3744 14.082 38.5051 12.5644C34.9342 10.6747 30.8537 11.7613 29.1883 12.347C29.0974 9.41831 28.0438 6.60062 26.1898 4.32788C26.1022 4.23185 25.9829 4.17041 25.8537 4.15475C14.3618 2.70342 10.6912 11.9197 10.6469 12.0118C10.6289 12.068 10.6178 12.1261 10.6137 12.185C8.58197 11.8285 6.50807 11.7789 4.46154 12.0376C4.33054 12.0612 4.2122 12.1304 4.12765 12.233C4.04309 12.3356 3.99783 12.4648 3.99995 12.5975C4.09227 17.6551 4.8419 20.0862 5.51029 21.2503C5.40823 21.2671 5.31539 21.3192 5.2481 21.3976C5.19531 21.4583 5.1556 21.5292 5.13146 21.6059C5.10732 21.6826 5.09926 21.7634 5.10778 21.8433C5.79463 27.737 8.33156 35.4983 16.5258 39.0862C17.0428 39.3108 17.5561 39.5061 18.062 39.6792C17.9704 39.7803 17.9191 39.9113 17.918 40.0476V43.4438C17.918 43.5913 17.9767 43.7328 18.0813 43.8371C18.1859 43.9414 18.3277 44 18.4756 44H31.7326C31.806 44.0005 31.8787 43.9865 31.9466 43.9587C32.0144 43.9309 32.0761 43.89 32.128 43.8382C32.1798 43.7865 32.2209 43.725 32.2488 43.6573C32.2766 43.5896 32.2907 43.517 32.2902 43.4438V40.0476C32.2904 39.9744 32.2762 39.902 32.2483 39.8344C32.2204 39.7667 32.1794 39.7052 32.1277 39.6534C44.3951 35.421 44.0073 21.9133 43.9999 21.7586C43.9996 21.746 43.9971 21.7335 43.9926 21.7218ZM37.9734 13.5516C40.381 14.8261 41.9874 17.4046 42.7739 21.2134C40.6395 21.1913 33.7932 21.114 26.607 21.0624C28.3353 18.3144 29.048 15.7765 29.192 13.5479C30.2776 13.1169 34.4911 11.7061 37.9734 13.5516ZM25.5029 5.23404C27.2764 7.45012 28.2006 10.2238 28.11 13.058C28.1045 13.1082 28.1045 13.1588 28.11 13.209C28.0029 15.4633 27.2643 18.1008 25.3183 21.0035C25.3075 21.0195 25.2988 21.0368 25.2924 21.055H24.709L20.8316 21.0329C20.3618 19.1937 19.4592 17.4928 18.1986 16.0711C18.508 14.5232 19.1532 13.0616 20.0891 11.7889C21.0249 10.5162 22.2287 9.46324 23.6159 8.70398C23.6802 8.6689 23.7369 8.62155 23.7828 8.56462C23.8287 8.50769 23.8629 8.4423 23.8835 8.37218C23.904 8.30206 23.9106 8.22858 23.9027 8.15595C23.8948 8.08331 23.8726 8.01294 23.8375 7.94884C23.8023 7.88475 23.7548 7.82819 23.6978 7.78239C23.6407 7.7366 23.5751 7.70246 23.5048 7.68194C23.4345 7.66142 23.3609 7.65491 23.2881 7.66278C23.2153 7.67065 23.1447 7.69276 23.0804 7.72783C21.6519 8.50115 20.3978 9.55902 19.396 10.8358C18.3943 12.1126 17.6662 13.5811 17.257 15.1502C15.6557 13.809 13.7568 12.8682 11.7178 12.406C11.8471 12.0302 15.0967 4.02951 25.5029 5.23404ZM5.12624 13.0764C7.3936 12.8443 17.0132 12.3839 19.6388 20.9003L15.3478 21.0071C15.0893 20.532 12.8847 16.6863 9.07011 15.0692C8.93398 15.0116 8.78046 15.0102 8.64334 15.0655C8.50622 15.1208 8.39673 15.2281 8.33894 15.3639C8.28116 15.4997 8.27982 15.6528 8.33522 15.7896C8.39063 15.9264 8.49823 16.0356 8.63437 16.0932C11.4187 17.2609 13.3168 19.8726 14.0516 21.0145C10.0672 21.0145 7.92535 21.0587 6.75475 21.1176C6.35962 20.6609 5.28872 18.8928 5.12624 13.0764ZM31.175 40.6075V42.8876H19.0332V40.6075H21.8212C22.8977 40.7742 23.9852 40.8604 25.0745 40.8653C25.6912 40.8653 26.0679 40.8322 26.1159 40.8285C26.8175 40.7769 27.4933 40.7032 28.1432 40.6075H31.175ZM41.0125 30.345C38.59 35.502 34.2252 38.5704 28.0287 39.4913H21.9468C20.2164 39.2323 18.5278 38.7468 16.9246 38.0474C10.9017 35.3915 7.32343 30.0724 6.27838 22.2411H6.37809C6.41838 22.265 6.46034 22.2859 6.50364 22.3038C6.56841 22.3287 6.63732 22.3412 6.70674 22.3406L14.9416 22.1343C22.7592 22.1343 34.0997 22.2264 42.87 22.3332C42.7891 25.1002 42.1577 27.8236 41.0125 30.345Z" fill="white"/>
        <path d="M9.81604 24.6281C9.81604 24.7756 9.87479 24.9171 9.97936 25.0214C10.0839 25.1257 10.2258 25.1843 10.3736 25.1843H26.7252C26.8033 25.1933 26.8824 25.1858 26.9574 25.1621C27.0324 25.1385 27.1015 25.0992 27.1602 25.0471C27.2189 24.9949 27.2659 24.9309 27.2981 24.8593C27.3302 24.7878 27.3469 24.7102 27.3469 24.6318C27.3469 24.5533 27.3302 24.4758 27.2981 24.4042C27.2659 24.3326 27.2189 24.2687 27.1602 24.2165C27.1015 24.1643 27.0324 24.1251 26.9574 24.1015C26.8824 24.0778 26.8033 24.0702 26.7252 24.0792H10.3736C10.2273 24.0802 10.0871 24.1381 9.98299 24.2406C9.87883 24.3431 9.81893 24.4822 9.81604 24.6281Z" fill="white"/>
        <path d="M30.4364 25.2028L34.9009 25.177C34.9791 25.186 35.0582 25.1784 35.1332 25.1548C35.2081 25.1311 35.2773 25.0919 35.336 25.0397C35.3947 24.9876 35.4416 24.9236 35.4738 24.852C35.506 24.7804 35.5226 24.7029 35.5226 24.6245C35.5226 24.546 35.506 24.4685 35.4738 24.3969C35.4416 24.3253 35.3947 24.2613 35.336 24.2092C35.2773 24.157 35.2081 24.1178 35.1332 24.0941C35.0582 24.0705 34.9791 24.0629 34.9009 24.0719L30.4327 24.094C30.3013 24.1155 30.1819 24.1829 30.0957 24.2841C30.0095 24.3853 29.9622 24.5138 29.9622 24.6466C29.9622 24.7794 30.0095 24.9078 30.0957 25.0091C30.1819 25.1103 30.3013 25.1776 30.4327 25.1991L30.4364 25.2028Z" fill="white"/>
    </g>
    <defs>
        <clipPath id="clip0_2017_2917">
            <rect width="40" height="40" fill="white" transform="translate(4 4)"/>
        </clipPath>
    </defs>
</svg>
