<svg width="48" height="48" viewBox="0 0 48 48" fill="none" xmlns="http://www.w3.org/2000/svg">
    <g clip-path="url(#clip0_2017_2859)">
        <path fill-rule="evenodd" clip-rule="evenodd" d="M5.11111 4.56075C5.11111 4.25106 4.86238 4 4.55556 4C4.24873 4 4 4.25106 4 4.56075V43.4393C4 43.7489 4.24873 44 4.55556 44C4.86238 44 5.11111 43.7489 5.11111 43.4393V4.56075ZM13.2593 4H31.037C31.8552 4 32.5185 4.66328 32.5185 5.48148V23.6296C32.5185 24.4478 31.8552 25.1111 31.037 25.1111H13.2593C12.4411 25.1111 11.7778 24.4478 11.7778 23.6296V5.48148C11.7778 4.66328 12.4411 4 13.2593 4ZM13.2593 5.11111C13.0547 5.11111 12.8889 5.27693 12.8889 5.48148V23.6296C12.8889 23.8342 13.0547 24 13.2593 24H31.037C31.2416 24 31.4074 23.8342 31.4074 23.6296V5.48148C31.4074 5.27693 31.2416 5.11111 31.037 5.11111H13.2593ZM22.7037 42.8889C26.897 42.8889 30.2963 39.4896 30.2963 35.2963C30.2963 31.103 26.897 27.7037 22.7037 27.7037C18.5104 27.7037 15.1111 31.103 15.1111 35.2963C15.1111 39.4896 18.5104 42.8889 22.7037 42.8889ZM22.7037 44C27.5106 44 31.4074 40.1032 31.4074 35.2963C31.4074 30.4894 27.5106 26.5926 22.7037 26.5926C17.8968 26.5926 14 30.4894 14 35.2963C14 40.1032 17.8968 44 22.7037 44ZM7.14815 4C7.45497 4 7.7037 4.25106 7.7037 4.56075V43.4393C7.7037 43.7489 7.45497 44 7.14815 44C6.84132 44 6.59259 43.7489 6.59259 43.4393V4.56075C6.59259 4.25106 6.84132 4 7.14815 4ZM38.0623 20.1131C37.5584 20.449 37.3333 20.8521 37.3333 21.2222C37.3333 21.5923 37.5584 21.9954 38.0623 22.3313C38.5623 22.6647 39.285 22.8889 40.1111 22.8889C40.9372 22.8889 41.66 22.6647 42.16 22.3313C42.6637 21.9954 42.8889 21.5923 42.8889 21.2222C42.8889 20.8521 42.6637 20.449 42.16 20.1131C41.66 19.7798 40.9372 19.5556 40.1111 19.5556C39.285 19.5556 38.5623 19.7798 38.0623 20.1131ZM37.4459 19.1886C36.7434 19.657 36.2222 20.365 36.2222 21.2222V26.2222C36.2222 27.2734 36.6863 28.0916 37.4611 28.6257C38.2111 29.1427 39.2146 29.3704 40.2963 29.3704C41.4004 29.3704 42.3363 29.0857 43.0019 28.4895C43.6756 27.8857 44 27.0277 44 26.037V21.2222C44 20.365 43.4789 19.657 42.7763 19.1886C42.07 18.7177 41.1259 18.4444 40.1111 18.4444C39.0963 18.4444 38.1523 18.7177 37.4459 19.1886ZM37.3333 26.2222C37.3333 26.9037 37.6143 27.3817 38.0917 27.7109C38.5938 28.057 39.3496 28.2593 40.2963 28.2593C41.2204 28.2593 41.8589 28.0214 42.2604 27.6619C42.6533 27.3099 42.8889 26.779 42.8889 26.037V23.1776C42.8519 23.2043 42.8144 23.2304 42.7763 23.2558C42.07 23.7268 41.1259 24 40.1111 24C39.0963 24 38.1523 23.7268 37.4459 23.2558C37.4079 23.2304 37.3703 23.2043 37.3333 23.1776V26.2222ZM41.2222 21.2222C41.2222 21.6313 40.7248 21.963 40.1111 21.963C39.4974 21.963 39 21.6313 39 21.2222C39 20.8131 39.4974 20.4815 40.1111 20.4815C40.7248 20.4815 41.2222 20.8131 41.2222 21.2222ZM37.3333 6.77778C37.3333 6.40767 37.5584 6.00461 38.0623 5.66868C38.5623 5.33534 39.285 5.11111 40.1111 5.11111C40.9372 5.11111 41.66 5.33534 42.16 5.66868C42.6637 6.00461 42.8889 6.40767 42.8889 6.77778C42.8889 7.14788 42.6637 7.55095 42.16 7.88689C41.66 8.22022 40.9372 8.44444 40.1111 8.44444C39.285 8.44444 38.5623 8.22022 38.0623 7.88689C37.5584 7.55095 37.3333 7.14788 37.3333 6.77778ZM36.2222 6.77778C36.2222 5.92058 36.7434 5.21254 37.4459 4.74418C38.1523 4.27323 39.0963 4 40.1111 4C41.1259 4 42.07 4.27323 42.7763 4.74418C43.4789 5.21254 44 5.92058 44 6.77778V11.5926C44 12.5833 43.6756 13.4413 43.0019 14.045C42.3363 14.6412 41.4004 14.9259 40.2963 14.9259C39.2146 14.9259 38.2111 14.6983 37.4611 14.1812C36.6863 13.6472 36.2222 12.829 36.2222 11.7778V6.77778ZM38.0917 13.2664C37.6143 12.9373 37.3333 12.4593 37.3333 11.7778V8.73311C37.3703 8.75989 37.4079 8.786 37.4459 8.81137C38.1523 9.28233 39.0963 9.55556 40.1111 9.55556C41.1259 9.55556 42.07 9.28233 42.7763 8.81137C42.8144 8.786 42.8519 8.75989 42.8889 8.73311V11.5926C42.8889 12.3346 42.6533 12.8654 42.2604 13.2174C41.8589 13.577 41.2204 13.8148 40.2963 13.8148C39.3496 13.8148 38.5938 13.6125 38.0917 13.2664ZM40.1111 7.51852C40.7248 7.51852 41.2222 7.18688 41.2222 6.77778C41.2222 6.36868 40.7248 6.03704 40.1111 6.03704C39.4974 6.03704 39 6.36868 39 6.77778C39 7.18688 39.4974 7.51852 40.1111 7.51852ZM38.0623 34.5576C37.5584 34.8935 37.3333 35.2966 37.3333 35.6667C37.3333 36.0368 37.5584 36.4398 38.0623 36.7758C38.5623 37.1091 39.285 37.3333 40.1111 37.3333C40.9372 37.3333 41.66 37.1091 42.16 36.7758C42.6637 36.4398 42.8889 36.0368 42.8889 35.6667C42.8889 35.2966 42.6637 34.8935 42.16 34.5576C41.66 34.2242 40.9372 34 40.1111 34C39.285 34 38.5623 34.2242 38.0623 34.5576ZM37.4459 33.6331C36.7434 34.1014 36.2222 34.8095 36.2222 35.6667V40.6667C36.2222 41.7178 36.6863 42.5359 37.4611 43.07C38.2111 43.587 39.2146 43.8148 40.2963 43.8148C41.4004 43.8148 42.3363 43.53 43.0019 42.9341C43.6756 42.3304 44 41.4722 44 40.4815V35.6667C44 34.8095 43.4789 34.1014 42.7763 33.6331C42.07 33.1621 41.1259 32.8889 40.1111 32.8889C39.0963 32.8889 38.1523 33.1621 37.4459 33.6331ZM37.3333 40.6667C37.3333 41.3481 37.6143 41.8263 38.0917 42.1552C38.5938 42.5015 39.3496 42.7037 40.2963 42.7037C41.2204 42.7037 41.8589 42.4659 42.2604 42.1063C42.6533 41.7544 42.8889 41.2233 42.8889 40.4815V37.622C42.8519 37.6488 42.8144 37.6749 42.7763 37.7003C42.07 38.1712 41.1259 38.4444 40.1111 38.4444C39.0963 38.4444 38.1523 38.1712 37.4459 37.7003C37.4079 37.6749 37.3703 37.6488 37.3333 37.622V40.6667ZM41.2222 35.6667C41.2222 36.0758 40.7248 36.4074 40.1111 36.4074C39.4974 36.4074 39 36.0758 39 35.6667C39 35.2576 39.4974 34.9259 40.1111 34.9259C40.7248 34.9259 41.2222 35.2576 41.2222 35.6667ZM22.7879 29.8192C22.9316 29.6736 23.1661 29.672 23.3117 29.8157L24.0716 30.5657C24.2172 30.7094 24.2188 30.9439 24.0751 31.0895L23.3251 31.8494C23.1814 31.995 22.9469 31.9966 22.8013 31.8529L22.0413 31.1029C21.8957 30.9593 21.8942 30.7247 22.0379 30.5791L22.7879 29.8192ZM26.9296 9.74556C27.0344 9.45722 26.8857 9.13844 26.5973 9.03359C26.309 8.92874 25.9902 9.07752 25.8854 9.36585C25.233 11.16 25.2995 12.7738 25.4123 13.8401C25.0701 13.7353 24.7116 13.6675 24.3417 13.6416C24.1271 12.841 24.0429 11.4454 24.4331 10.082C24.4649 9.992 24.4984 9.88715 24.5309 9.77041C24.9364 8.58759 25.714 7.49328 27.0847 6.85467C27.5503 7.24962 28.0861 8.12867 28.2977 9.51441C28.5154 10.9403 28.375 12.8444 27.4839 15.121C27.2172 14.8416 26.9173 14.5941 26.5904 14.3851C26.5911 14.3576 26.5897 14.3297 26.5862 14.3016L26.5801 14.2529C26.4561 13.263 26.2497 11.6152 26.9296 9.74556ZM23.2114 13.6939C21.2849 14.0113 19.7439 15.4723 19.3086 17.3564C19.2687 17.4063 19.2367 17.4641 19.2153 17.5283C18.9263 18.397 17.9737 19.0787 17.0102 19.239C16.5399 19.3173 16.133 19.2584 15.8451 19.0953C15.5782 18.9441 15.3567 18.6729 15.2861 18.1804C15.1761 17.4126 15.5593 16.7744 16.2103 16.2809C16.871 15.78 17.7176 15.5067 18.28 15.4809C18.5555 15.4683 18.78 15.2555 18.8074 14.9811C18.8348 14.7068 18.6569 14.4538 18.3893 14.387C17.629 14.1969 16.4886 13.5779 15.7705 12.7194C15.4172 12.2971 15.1906 11.8462 15.1339 11.3873C15.0788 10.9407 15.1777 10.4343 15.568 9.87007C15.9329 9.34256 16.3044 9.07248 16.6383 8.944C16.9726 8.81537 17.3132 8.81178 17.644 8.8907C17.9793 8.97063 18.2971 9.13418 18.5602 9.32593C18.8284 9.52137 19.007 9.72181 19.0829 9.84515C19.2131 10.0569 19.4681 10.1563 19.7073 10.0886C19.9464 10.0209 20.1116 9.80256 20.1116 9.554C20.1116 8.96774 20.3212 8.06218 20.7607 7.4123C20.976 7.09399 21.2255 6.86766 21.5002 6.74987C21.7633 6.63703 22.097 6.60281 22.5361 6.7492C22.9717 6.89437 23.2213 7.12461 23.3729 7.37659C23.5313 7.63999 23.6049 7.96578 23.6148 8.32093C23.6264 8.74089 23.548 9.15041 23.4683 9.44422C23.4343 9.545 23.4027 9.64596 23.3733 9.74689C23.3531 9.80207 23.3365 9.8417 23.326 9.86263C23.2802 9.95426 23.2621 10.0525 23.2685 10.1478C22.9594 11.4721 23.0126 12.7847 23.2114 13.6939ZM19.2694 19.3456C19.6913 21.574 21.6488 23.2593 24 23.2593C26.6591 23.2593 28.8148 21.1036 28.8148 18.4444C28.8148 17.6246 28.6099 16.8526 28.2485 16.1769C29.4377 13.4637 29.6689 11.1337 29.3961 9.3467C29.1254 7.57371 28.3397 6.25753 27.4215 5.73857C27.2748 5.65564 27.0983 5.6438 26.9418 5.7064C25.9317 6.11047 25.1635 6.7074 24.5882 7.40204C24.5266 7.19859 24.4411 6.99685 24.325 6.80384C24.031 6.31506 23.5631 5.92029 22.8875 5.6951C22.2155 5.47111 21.5991 5.49845 21.0623 5.7287C20.5369 5.95401 20.1363 6.35232 19.8404 6.78983C19.5131 7.27379 19.2885 7.84259 19.1545 8.385C18.8081 8.1423 18.3798 7.92389 17.9017 7.80989C17.3913 7.68815 16.8173 7.68458 16.2392 7.907C15.6607 8.12963 15.122 8.56174 14.6542 9.23796C14.124 10.0044 13.9396 10.7807 14.0312 11.5234C14.1213 12.2536 14.4715 12.8983 14.9182 13.4323C15.3781 13.9821 15.9657 14.4454 16.5601 14.7972C16.2049 14.9553 15.8555 15.1555 15.539 15.3954C14.696 16.0345 13.999 17.0318 14.1863 18.3381C14.3015 19.1419 14.7063 19.7271 15.2974 20.0621C15.8674 20.385 16.5502 20.442 17.1926 20.335C17.9147 20.2149 18.6705 19.8712 19.2694 19.3456ZM17.3333 35.4815C17.3333 35.2769 17.4991 35.1111 17.7037 35.1111H18.8148C19.0194 35.1111 19.1852 35.2769 19.1852 35.4815V36.5926C19.1852 36.7971 19.0194 36.963 18.8148 36.963H17.7037C17.4991 36.963 17.3333 36.7971 17.3333 36.5926V35.4815ZM25.446 37.6027C25.2611 37.6901 25.1819 37.9108 25.2692 38.0958L25.7509 39.1163C25.8383 39.3013 26.059 39.3805 26.244 39.2932L27.2645 38.8114C27.4495 38.7241 27.5287 38.5034 27.4414 38.3184L26.9596 37.2979C26.8723 37.1129 26.6516 37.0337 26.4666 37.121L25.446 37.6027ZM26.9021 32.5183C27.1261 32.728 27.1377 33.0796 26.928 33.3036L25.1561 35.1962C24.9464 35.4202 24.5948 35.4318 24.3709 35.2221C24.1469 35.0124 24.1353 34.6608 24.345 34.4368L26.1169 32.5442C26.3266 32.3202 26.6781 32.3086 26.9021 32.5183ZM21.8165 40.8043C21.9419 41.0844 22.2705 41.21 22.5506 41.0844C22.8306 40.9592 22.956 40.6306 22.8307 40.3505L21.7718 37.984C21.6464 37.704 21.3178 37.5785 21.0377 37.7038C20.7577 37.8292 20.6323 38.1578 20.7576 38.4379L21.8165 40.8043ZM18.8151 32.5184C18.9269 32.2326 19.2492 32.0916 19.5349 32.2034L20.4094 32.5455C20.6951 32.6573 20.8361 32.9795 20.7244 33.2653C20.6126 33.551 20.2904 33.692 20.0046 33.5802L19.1301 33.2381C18.8444 33.1264 18.7034 32.8041 18.8151 32.5184ZM27.7037 18.4444C27.7037 20.49 26.0455 22.1481 24 22.1481C21.9545 22.1481 20.2963 20.49 20.2963 18.4444C20.2963 16.399 21.9545 14.7407 24 14.7407C26.0455 14.7407 27.7037 16.399 27.7037 18.4444Z" fill="white"/>
    </g>
    <defs>
        <clipPath id="clip0_2017_2859">
            <rect width="40" height="40" fill="white" transform="translate(4 4)"/>
        </clipPath>
    </defs>
</svg>
