<svg width="48" height="48" viewBox="0 0 48 48" fill="none" xmlns="http://www.w3.org/2000/svg">
    <g clip-path="url(#clip0_2017_2949)">
        <path d="M38.8595 16.1546H34.8079C34.6851 16.1553 34.5659 16.1965 34.4689 16.2718C34.3718 16.3471 34.3022 16.4523 34.2709 16.571L33.3612 20.144L35.345 11.3066C35.3645 11.2258 35.3651 11.1415 35.3467 11.0604C35.3283 10.9793 35.2915 10.9036 35.239 10.839C35.1867 10.7752 35.121 10.7238 35.0464 10.6884C34.9719 10.653 34.8904 10.6346 34.8079 10.6344H31.6478L32.437 5.61113C32.4493 5.53201 32.4442 5.45116 32.4221 5.3742C32.4 5.29723 32.3615 5.22599 32.3091 5.16543C32.2577 5.10409 32.1934 5.0549 32.1208 5.02142C32.0481 4.98794 31.969 4.97099 31.889 4.97181H29.1344C29.0092 4.9721 28.8879 5.01493 28.7903 5.09326C28.6927 5.1716 28.6247 5.28078 28.5973 5.4029L27.136 11.8546L26.7707 6.94094C26.7614 6.80202 26.6996 6.67185 26.5978 6.57685C26.496 6.48186 26.3619 6.42916 26.2227 6.42947H23.4644C23.3886 6.43004 23.3135 6.44585 23.2439 6.47597C23.1742 6.5061 23.1113 6.54992 23.0589 6.60483C23.0075 6.6599 22.968 6.72498 22.9428 6.79601C22.9177 6.86704 22.9075 6.9425 22.9128 7.01766L23.5594 17.3784L21.5647 10.397C21.5444 10.3233 21.5089 10.2546 21.4604 10.1955C21.412 10.1364 21.3517 10.088 21.2834 10.0536C21.2151 10.0202 21.1406 10.0011 21.0646 9.9973C20.9887 9.99353 20.9127 10.0052 20.8414 10.0316L18.2293 11.0034C18.1064 11.0501 18.0041 11.1389 17.9405 11.254C17.877 11.369 17.8563 11.5029 17.8822 11.6318L18.5471 14.8613H18.4521L18.211 14.9197L15.0765 4.39459C15.0568 4.32448 15.023 4.25914 14.9771 4.20259C14.9313 4.14605 14.8743 4.09949 14.8098 4.06579C14.6809 3.99678 14.53 3.98105 14.3896 4.02195L11.1492 4.99373C11.0184 5.03743 10.9086 5.12821 10.8411 5.2484C10.7735 5.3686 10.7531 5.50961 10.7838 5.64401L12.278 12.3369L11.8141 11.3066C11.7576 11.1791 11.6553 11.0775 11.5273 11.022C11.3994 10.9665 11.2553 10.9612 11.1236 11.0071L8.36535 11.9715C8.29524 11.996 8.23088 12.0345 8.17622 12.0848C8.12156 12.1351 8.07776 12.196 8.04751 12.2638C8.01858 12.332 8.00366 12.4053 8.00366 12.4793C8.00366 12.5534 8.01858 12.6267 8.04751 12.6949L12.2817 23.611H11.3063C11.227 23.6105 11.1485 23.6274 11.0763 23.6602C11.0041 23.6931 10.94 23.7412 10.8882 23.8013C10.8365 23.8614 10.7984 23.932 10.7766 24.0083C10.7548 24.0845 10.7498 24.1646 10.7619 24.243L13.6846 43.5324C13.6983 43.621 13.7335 43.7048 13.7869 43.7768C13.8404 43.8487 13.9106 43.9065 13.9914 43.9452C14.0668 43.981 14.1491 43.9997 14.2326 44C14.3297 43.9991 14.4252 43.974 14.5102 43.927C14.6088 43.8685 24.7175 38.1584 34.534 43.927C34.6124 43.9737 34.7013 44.0003 34.7926 44.0042C34.8839 44.0081 34.9747 43.9893 35.0569 43.9495C35.1391 43.9097 35.2101 43.85 35.2636 43.776C35.3171 43.7019 35.3513 43.6157 35.3633 43.5251L37.9571 24.2539L39.4184 16.8122C39.4347 16.7322 39.433 16.6497 39.4133 16.5705C39.3937 16.4913 39.3566 16.4175 39.3048 16.3545C39.253 16.2915 39.1877 16.2408 39.1139 16.2063C39.04 16.1717 38.9593 16.154 38.8777 16.1546H38.8595ZM34.1102 11.7487L31.4433 23.611H29.6166L31.4725 11.7487H34.1102ZM29.5764 6.0751H31.246L28.5023 23.611H28.0274L27.4246 15.6139L29.5764 6.0751ZM24.049 7.53642H25.7076L26.9205 23.611H25.3386L24.7687 21.6126C24.8651 21.5018 24.9137 21.3573 24.9038 21.2107L24.049 7.53642ZM20.6697 11.2738L24.1878 23.611H21.4844L19.0732 11.8729L20.6697 11.2738ZM20.3043 23.611H17.2356L15.2591 16.6989C16.1542 16.5564 17.473 16.2532 18.211 16.0742L20.3043 23.611ZM14.1778 5.2385L17.1333 15.1901C16.2791 15.4075 15.4113 15.5674 14.5358 15.6687C14.3996 15.6715 14.2694 15.7249 14.1704 15.8185L11.9602 5.90705L14.1778 5.2385ZM9.27502 12.8228L11.0067 12.2127L15.9752 23.611H13.48L9.27502 12.8228ZM34.3696 42.5679C25.7697 37.9794 17.1406 41.4208 14.6417 42.6081L11.9346 24.7069H36.7698L34.3696 42.5679ZM36.9269 23.611H33.617L35.2354 17.2579H38.1873L36.9269 23.611Z" fill="white"/>
        <path d="M26.2666 26.1172H13.5202C13.4429 26.1082 13.3646 26.1157 13.2904 26.1392C13.2163 26.1627 13.1479 26.2015 13.0898 26.2533C13.0317 26.3051 12.9853 26.3685 12.9534 26.4395C12.9216 26.5105 12.9052 26.5874 12.9052 26.6652C12.9052 26.743 12.9216 26.8199 12.9534 26.8909C12.9853 26.9618 13.0317 27.0253 13.0898 27.077C13.1479 27.1288 13.2163 27.1677 13.2904 27.1911C13.3646 27.2146 13.4429 27.2221 13.5202 27.2132H26.2666C26.3438 27.2221 26.4221 27.2146 26.4963 27.1911C26.5705 27.1677 26.6388 27.1288 26.6969 27.077C26.755 27.0253 26.8015 26.9618 26.8333 26.8909C26.8651 26.8199 26.8816 26.743 26.8816 26.6652C26.8816 26.5874 26.8651 26.5105 26.8333 26.4395C26.8015 26.3685 26.755 26.3051 26.6969 26.2533C26.6388 26.2015 26.5705 26.1627 26.4963 26.1392C26.4221 26.1157 26.3438 26.1082 26.2666 26.1172Z" fill="white"/>
        <path d="M31.5967 26.1171H28.6119C28.4775 26.1326 28.3535 26.197 28.2634 26.2981C28.1734 26.3991 28.1237 26.5297 28.1237 26.6651C28.1237 26.8004 28.1734 26.931 28.2634 27.032C28.3535 27.1331 28.4775 27.1975 28.6119 27.2131H31.5967C31.7311 27.1975 31.8551 27.1331 31.9452 27.032C32.0352 26.931 32.0849 26.8004 32.0849 26.6651C32.0849 26.5297 32.0352 26.3991 31.9452 26.2981C31.8551 26.197 31.7311 26.1326 31.5967 26.1171Z" fill="white"/>
    </g>
    <defs>
        <clipPath id="clip0_2017_2949">
            <rect width="31.4111" height="40" fill="white" transform="translate(8 4)"/>
        </clipPath>
    </defs>
</svg>
