<svg width="48" height="48" viewBox="0 0 48 48" fill="none" xmlns="http://www.w3.org/2000/svg">
    <g clip-path="url(#clip0_2017_2875)">
        <path d="M25.2416 13.0973C25.2926 13.1626 25.3579 13.2154 25.4324 13.2517C25.5069 13.2881 25.5888 13.3069 25.6717 13.3069C25.793 13.3074 25.9111 13.2681 26.0078 13.1949C26.0646 13.151 26.1121 13.0964 26.1478 13.0341C26.1834 12.9718 26.2064 12.9031 26.2155 12.832C26.2245 12.7608 26.2195 12.6886 26.2006 12.6193C26.1817 12.5501 26.1494 12.4853 26.1054 12.4286C26.0512 12.3527 24.7356 10.6215 26.0403 9.36366C26.2962 9.13804 26.5 8.85966 26.6379 8.54768C26.7758 8.2357 26.8445 7.89754 26.8391 7.55648C26.8066 6.16496 25.5235 5.02644 25.4693 4.98307C25.4154 4.9356 25.3527 4.89921 25.2848 4.87598C25.2168 4.85274 25.145 4.84312 25.0733 4.84765C24.9286 4.8568 24.7935 4.92306 24.6976 5.03186C24.6017 5.14066 24.553 5.28308 24.5622 5.4278C24.5713 5.57251 24.6376 5.70767 24.7464 5.80352C24.7464 5.80352 25.7223 6.68181 25.744 7.57817C25.743 7.76635 25.7011 7.95207 25.6213 8.12245C25.5414 8.29284 25.4254 8.4438 25.2813 8.56489C23.6693 10.1191 24.5512 12.2082 25.2416 13.0973Z" fill="white"/>
        <path d="M19.6285 18.1828C19.717 18.2964 19.8468 18.3704 19.9897 18.3886C20.1325 18.4069 20.2768 18.368 20.3911 18.2804C20.5055 18.1917 20.5803 18.0615 20.5992 17.918C20.6182 17.7746 20.5798 17.6294 20.4923 17.5141C20.4345 17.4382 19.1225 15.7069 20.4273 14.4491C20.6819 14.2227 20.8847 13.9441 21.0219 13.6323C21.1591 13.3204 21.2275 12.9826 21.2224 12.642C21.1899 11.2541 19.9068 10.1119 19.8526 10.0686C19.7433 9.9727 19.6004 9.92418 19.4554 9.93367C19.3103 9.94315 19.175 10.0099 19.0791 10.1192C18.9832 10.2284 18.9347 10.3713 18.9442 10.5164C18.9537 10.6614 19.0204 10.7968 19.1297 10.8926C19.4044 11.1312 20.1128 11.9191 20.1273 12.6709C20.126 12.8581 20.0843 13.0429 20.0051 13.2126C19.9259 13.3822 19.811 13.5328 19.6682 13.654C18.0526 15.2045 18.9345 17.2936 19.6285 18.1828Z" fill="white"/>
        <path d="M15.0708 12.2443C15.1218 12.3097 15.1871 12.3625 15.2616 12.3988C15.3362 12.4351 15.418 12.454 15.5009 12.454C15.6228 12.4549 15.7414 12.4141 15.837 12.3383C15.9454 12.2491 16.0152 12.1217 16.0321 11.9823C16.0489 11.843 16.0114 11.7026 15.9274 11.5901C15.8695 11.5179 14.5575 9.78297 15.8623 8.52879C16.1181 8.30318 16.322 8.02479 16.4599 7.71281C16.5978 7.40083 16.6664 7.06267 16.6611 6.72162C16.6502 5.31563 15.3527 4.18073 15.2985 4.13374C15.1892 4.03788 15.0463 3.98936 14.9013 3.99885C14.7562 4.00834 14.6209 4.07506 14.525 4.18434C14.4292 4.29362 14.3806 4.4365 14.3901 4.58156C14.3996 4.72661 14.4663 4.86195 14.5756 4.95781C14.5756 4.95781 15.5659 5.83249 15.5659 6.73246C15.5667 6.92056 15.5259 7.1065 15.4466 7.27705C15.3672 7.4476 15.2513 7.59856 15.1069 7.71918C13.4985 9.26612 14.3804 11.3552 15.0708 12.2443Z" fill="white"/>
        <path d="M31.2956 43.3964C31.3679 43.395 31.4392 43.3792 31.5053 43.35C31.5715 43.3209 31.6312 43.2788 31.6809 43.2263C31.7307 43.1739 31.7696 43.1121 31.7952 43.0445C31.8209 42.9768 31.8329 42.9048 31.8305 42.8325V40.6386C34.0306 40.1002 36.064 39.0276 37.7508 37.5158C42.6735 33.2401 43.8735 26.7451 44 22.05C44.0014 21.9773 43.9884 21.905 43.9617 21.8373C43.9349 21.7696 43.895 21.7079 43.8442 21.6558C43.7935 21.6037 43.7328 21.5622 43.6659 21.5337C43.5989 21.5052 43.527 21.4903 43.4542 21.4898H35.4448L42.0844 13.0792C42.3455 12.7569 42.5452 12.3894 42.6735 11.9949C42.9771 11.0299 42.9663 10.2311 42.641 9.62391C42.4928 9.35749 42.2905 9.125 42.0471 8.94138C41.8037 8.75776 41.5247 8.62706 41.2278 8.55767C40.5716 8.38388 39.8787 8.40742 39.2359 8.62536C38.593 8.84329 38.0287 9.24594 37.6134 9.78294L28.2161 21.4934H4.54575C4.47333 21.4929 4.40154 21.5069 4.33463 21.5347C4.26772 21.5624 4.20703 21.6032 4.15616 21.6547C4.10528 21.7063 4.06525 21.7675 4.03843 21.8348C4.01161 21.9021 3.99854 21.974 3.99999 22.0464C3.99999 22.191 4.40479 36.3882 16.4695 40.4796V42.8253C16.4661 42.8988 16.4776 42.9722 16.5032 43.0411C16.5289 43.11 16.5682 43.1731 16.6189 43.2264C16.6695 43.2797 16.7304 43.3223 16.7979 43.3515C16.8654 43.3807 16.9381 43.396 17.0116 43.3964H31.2956ZM30.7498 42.3121H17.561V40.6892H30.7462L30.7498 42.3121ZM38.4447 10.5058C38.7299 10.1372 39.1162 9.85952 39.5565 9.70676C39.9968 9.55401 40.472 9.53275 40.9242 9.64559C41.0735 9.67809 41.2146 9.74069 41.3389 9.82955C41.4631 9.91842 41.568 10.0317 41.647 10.1624C41.8278 10.4986 41.8133 11.0299 41.6037 11.6913C41.5202 11.9474 41.3931 12.1871 41.2278 12.3997L34.0352 21.4898H29.5823L38.4447 10.5058ZM5.12766 22.5813H42.8868C42.2506 37.1544 32.4738 39.3989 31.6281 39.5688H17.1707C6.84809 36.3014 5.34091 25.2018 5.12766 22.5813Z" fill="white"/>
        <path d="M25.7909 25.6644C25.7914 25.5926 25.7776 25.5214 25.7503 25.4549C25.7231 25.3885 25.6829 25.3282 25.6321 25.2774C25.5814 25.2266 25.521 25.1864 25.4546 25.1592C25.3881 25.1319 25.3169 25.1181 25.2451 25.1186H7.80952C7.73307 25.1098 7.65561 25.1172 7.58223 25.1404C7.50885 25.1636 7.44121 25.2021 7.38375 25.2533C7.32629 25.3045 7.2803 25.3672 7.24881 25.4375C7.21733 25.5077 7.20105 25.5838 7.20105 25.6608C7.20105 25.7377 7.21733 25.8138 7.24881 25.884C7.2803 25.9543 7.32629 26.017 7.38375 26.0682C7.44121 26.1194 7.50885 26.1579 7.58223 26.1811C7.65561 26.2043 7.73307 26.2118 7.80952 26.2029H25.2451C25.3886 26.2029 25.5264 26.1464 25.6285 26.0456C25.7307 25.9448 25.789 25.8079 25.7909 25.6644Z" fill="white"/>
        <path d="M28.9823 25.968H33.9629C34.0959 25.9526 34.2186 25.8889 34.3077 25.7889C34.3967 25.6889 34.446 25.5597 34.446 25.4258C34.446 25.2919 34.3967 25.1627 34.3077 25.0628C34.2186 24.9628 34.0959 24.8991 33.9629 24.8837H28.9823C28.8493 24.8991 28.7266 24.9628 28.6376 25.0628C28.5485 25.1627 28.4993 25.2919 28.4993 25.4258C28.4993 25.5597 28.5485 25.6889 28.6376 25.7889C28.7266 25.8889 28.8493 25.9526 28.9823 25.968Z" fill="white"/>
    </g>
    <defs>
        <clipPath id="clip0_2017_2875">
            <rect width="40" height="39.3783" fill="white" transform="translate(4 4)"/>
        </clipPath>
    </defs>
</svg>
