<svg width="48" height="48" viewBox="0 0 48 48" fill="none" xmlns="http://www.w3.org/2000/svg">
    <g clip-path="url(#clip0_2017_2925)">
        <path d="M5.84505 18.314V19.7909C5.84505 20.564 6.15215 21.3054 6.6988 21.852C7.24545 22.3987 7.98686 22.7058 8.75994 22.7058H32.5376C33.3107 22.7058 34.0521 22.3987 34.5988 21.852C35.1454 21.3054 35.4525 20.564 35.4525 19.7909V18.5006C36.149 18.4173 36.7969 18.1009 37.2908 17.6028C37.943 16.9321 38.3047 16.0315 38.2974 15.096V11.9246C38.2819 7.55227 34.9822 4 30.9325 4H10.334C6.29589 4 3.00012 7.55227 3.00012 11.9168V14.9094C2.97923 15.7258 3.25657 16.5218 3.78022 17.1485C4.30387 17.7752 5.03795 18.1895 5.84505 18.314ZM34.2788 19.7909C34.2778 20.2524 34.094 20.6946 33.7677 21.021C33.4414 21.3473 32.9991 21.531 32.5376 21.5321H26.5096C26.5007 21.3947 26.4428 21.265 26.3464 21.1667L24.8695 19.686C24.7592 19.5757 24.6097 19.5137 24.4537 19.5137C24.2977 19.5137 24.1481 19.5757 24.0378 19.686C23.9275 19.7963 23.8656 19.9458 23.8656 20.1018C23.8656 20.2578 23.9275 20.4074 24.0378 20.5177L25.0483 21.5321H9.05531L10.2601 20.0241C10.3133 19.9647 10.3538 19.8952 10.3793 19.8196C10.4047 19.7441 10.4144 19.6642 10.4079 19.5847C10.4015 19.5053 10.3789 19.428 10.3415 19.3576C10.3042 19.2872 10.2529 19.2251 10.1908 19.1752C10.1287 19.1252 10.0571 19.0885 9.98031 19.0671C9.90353 19.0457 9.8232 19.0402 9.74423 19.0509C9.66526 19.0616 9.58929 19.0883 9.52096 19.1293C9.45263 19.1704 9.39337 19.2249 9.3468 19.2895L7.79219 21.2328C7.55405 21.0749 7.35852 20.8607 7.22293 20.6092C7.08735 20.3577 7.01589 20.0766 7.01489 19.7909V13.0711C7.01592 12.61 7.19982 12.1681 7.52624 11.8424C7.85266 11.5168 8.29494 11.3338 8.75605 11.3339H16.292C16.292 11.3533 16.3192 11.3766 16.3348 11.3999L17.9321 13.5181C17.9786 13.5798 18.0367 13.6318 18.1033 13.6711C18.1698 13.7104 18.2434 13.7362 18.3199 13.747C18.3964 13.7578 18.4743 13.7535 18.5492 13.7342C18.624 13.7149 18.6943 13.6811 18.7561 13.6347C18.8178 13.5882 18.8698 13.5301 18.9091 13.4635C18.9484 13.397 18.9742 13.3234 18.985 13.2468C18.9958 13.1703 18.9915 13.0924 18.9722 13.0176C18.9529 12.9428 18.9191 12.8725 18.8726 12.8107L17.7689 11.3339H29.168L28.4335 13.211C28.3768 13.3564 28.3801 13.5183 28.4428 13.6611C28.5055 13.804 28.6224 13.9161 28.7677 13.9728C28.913 14.0295 29.075 14.0261 29.2178 13.9634C29.3607 13.9008 29.4728 13.7839 29.5295 13.6386L30.4272 11.3339H32.5376C32.9987 11.3338 33.441 11.5168 33.7674 11.8424C34.0939 12.1681 34.2778 12.61 34.2788 13.0711V19.7909ZM4.16608 11.9168C4.16608 8.20132 6.94493 5.16595 10.3495 5.16595H30.948C34.3526 5.16595 37.1237 8.19355 37.1237 11.9129V15.0882C37.1291 15.3969 37.0731 15.7036 36.959 15.9905C36.8449 16.2774 36.675 16.5387 36.4591 16.7594C36.1868 17.037 35.8376 17.2266 35.4564 17.3035V13.0711C35.4554 12.2984 35.1479 11.5575 34.6015 11.0111C34.0551 10.4647 33.3143 10.1573 32.5415 10.1562H8.75994C7.98718 10.1573 7.24636 10.4647 6.69994 11.0111C6.15351 11.5575 5.84608 12.2984 5.84505 13.0711V17.1248C5.35368 17.0039 4.91876 16.7178 4.61311 16.3145C4.30746 15.9113 4.14964 15.4152 4.16608 14.9094V11.9168Z" fill="white"/>
        <path d="M30.2056 18.279L28.4567 20.0591C28.4023 20.1139 28.3593 20.179 28.3301 20.2505C28.3009 20.322 28.286 20.3985 28.2864 20.4757C28.2867 20.553 28.3023 20.6294 28.3322 20.7006C28.3621 20.7718 28.4057 20.8364 28.4606 20.8908C28.5154 20.9451 28.5805 20.9882 28.652 21.0174C28.7235 21.0466 28.8 21.0615 28.8772 21.0611C28.9545 21.0607 29.0309 21.0452 29.1021 21.0153C29.1733 20.9854 29.2379 20.9418 29.2923 20.8869L31.0529 19.103C31.107 19.0474 31.1496 18.9816 31.1783 18.9095C31.207 18.8374 31.2212 18.7604 31.2201 18.6828C31.219 18.6052 31.2027 18.5286 31.172 18.4573C31.1413 18.386 31.0969 18.3215 31.0412 18.2674C30.9856 18.2133 30.9198 18.1707 30.8477 18.142C30.7756 18.1133 30.6986 18.0991 30.621 18.1002C30.5434 18.1012 30.4668 18.1176 30.3955 18.1483C30.3243 18.179 30.2597 18.2234 30.2056 18.279Z" fill="white"/>
        <path d="M25.1299 13.0011L23.0856 14.9677C22.9759 15.0783 22.9144 15.2278 22.9144 15.3836C22.9144 15.5393 22.9759 15.6888 23.0856 15.7994C23.1979 15.9123 23.35 15.9765 23.5092 15.9782C23.6613 15.9787 23.8076 15.9202 23.9173 15.815L25.9305 13.8484C26.0429 13.7402 26.1076 13.5917 26.1105 13.4358C26.1135 13.2798 26.0543 13.129 25.9461 13.0167C25.8378 12.9043 25.6894 12.8396 25.5334 12.8367C25.3775 12.8337 25.2267 12.8929 25.1144 13.0011H25.1299Z" fill="white"/>
        <path d="M11.667 13.417L9.99584 15.4186C9.89663 15.5384 9.84874 15.6926 9.86257 15.8476C9.87639 16.0026 9.95082 16.1459 10.0697 16.2464C10.1782 16.3378 10.3165 16.3862 10.4583 16.3824C10.5443 16.3828 10.6293 16.3642 10.7073 16.328C10.7852 16.2917 10.8542 16.2386 10.9092 16.1725L12.5881 14.171C12.6881 14.0514 12.7365 13.897 12.7227 13.7418C12.7088 13.5865 12.6339 13.4431 12.5143 13.3432C12.3947 13.2432 12.2403 13.1948 12.0851 13.2086C11.9298 13.2225 11.7865 13.2974 11.6865 13.417H11.667Z" fill="white"/>
        <path d="M17.695 16.6001C17.6434 16.4532 17.5356 16.3328 17.3953 16.2654C17.255 16.198 17.0937 16.1891 16.9468 16.2406C16.7999 16.2922 16.6795 16.3999 16.6121 16.5402C16.5447 16.6806 16.5358 16.8419 16.5873 16.9888L17.3646 19.243C17.4061 19.357 17.4817 19.4554 17.5812 19.525C17.6806 19.5945 17.799 19.6317 17.9204 19.6316C17.9867 19.6313 18.0524 19.6195 18.1147 19.5966C18.2615 19.5455 18.382 19.4382 18.4498 19.2983C18.5175 19.1584 18.527 18.9973 18.4761 18.8504L17.695 16.6001Z" fill="white"/>
        <path d="M37.6134 39.6665L35.8994 41.3999C35.7898 41.5105 35.7283 41.66 35.7283 41.8158C35.7283 41.9715 35.7898 42.121 35.8994 42.2316C36.0093 42.3396 36.1574 42.3996 36.3114 42.3987C36.3887 42.3998 36.4654 42.3853 36.5369 42.3559C36.6083 42.3265 36.6731 42.2829 36.7273 42.2277L38.4412 40.4943C38.551 40.3835 38.6123 40.2337 38.6115 40.0777C38.6108 39.9217 38.5481 39.7724 38.4373 39.6626C38.3265 39.5529 38.1766 39.4916 38.0207 39.4923C37.8647 39.493 37.7154 39.5557 37.6056 39.6665H37.6134Z" fill="white"/>
        <path d="M31.2589 35.8927L29.852 37.2452C29.7423 37.3559 29.6808 37.5053 29.6808 37.6611C29.6808 37.8169 29.7423 37.9663 29.852 38.0769C29.9063 38.1348 29.9719 38.1809 30.0448 38.2123C30.1177 38.2437 30.1962 38.2598 30.2756 38.2596C30.4214 38.2542 30.56 38.1946 30.6642 38.0925L32.075 36.74C32.1307 36.6864 32.1752 36.6224 32.2061 36.5516C32.237 36.4808 32.2536 36.4046 32.2551 36.3274C32.2565 36.2501 32.2427 36.1734 32.2145 36.1015C32.1863 36.0296 32.1442 35.9639 32.0906 35.9083C32.037 35.8526 31.973 35.8081 31.9022 35.7772C31.8314 35.7463 31.7552 35.7297 31.678 35.7283C31.6007 35.7268 31.524 35.7406 31.4521 35.7688C31.3802 35.797 31.3145 35.8391 31.2589 35.8927Z" fill="white"/>
        <path d="M19.3468 35.2243L17.9515 36.8877C17.8523 37.0076 17.8044 37.1618 17.8183 37.3168C17.8321 37.4718 17.9065 37.6151 18.0254 37.7156C18.1335 37.8081 18.2717 37.8578 18.414 37.8555C18.4998 37.8548 18.5845 37.8358 18.6623 37.7996C18.7401 37.7634 18.8091 37.7109 18.8649 37.6456L20.2601 35.9822C20.3112 35.923 20.35 35.8543 20.3745 35.7801C20.399 35.7058 20.4087 35.6275 20.4029 35.5496C20.3971 35.4716 20.376 35.3955 20.3409 35.3257C20.3057 35.2559 20.2571 35.1937 20.1979 35.1427C20.1387 35.0916 20.0701 35.0528 19.9958 35.0283C19.9216 35.0038 19.8433 34.9941 19.7653 34.9999C19.6874 35.0057 19.6113 35.0268 19.5415 35.0619C19.4717 35.0971 19.4095 35.1457 19.3584 35.2049L19.3468 35.2243Z" fill="white"/>
        <path d="M26.1171 39.8881C26.0916 39.8151 26.0519 39.7479 26.0004 39.6902C25.9489 39.6325 25.8865 39.5856 25.8169 39.552C25.7472 39.5185 25.6716 39.4989 25.5944 39.4946C25.5173 39.4902 25.44 39.5011 25.367 39.5266C25.294 39.5522 25.2267 39.5918 25.1691 39.6433C25.1114 39.6948 25.0645 39.7572 25.0309 39.8268C24.9973 39.8965 24.9778 39.9721 24.9735 40.0493C24.9691 40.1265 24.98 40.2038 25.0055 40.2767L25.6507 42.1228C25.6917 42.2372 25.7672 42.336 25.8668 42.4056C25.9663 42.4752 26.085 42.5122 26.2065 42.5115C26.2725 42.5123 26.3383 42.5018 26.4008 42.4804C26.5479 42.4284 26.6684 42.3204 26.7361 42.1798C26.8038 42.0393 26.8132 41.8777 26.7622 41.7303L26.1171 39.8881Z" fill="white"/>
        <path d="M13.9212 36.6701V41.1512C13.9212 41.9068 14.2214 42.6314 14.7556 43.1656C15.2899 43.6999 16.0145 44 16.77 44H39.8792C40.6345 43.999 41.3585 43.6985 41.8925 43.1645C42.4266 42.6305 42.727 41.9065 42.7281 41.1512V35.7101L44.9434 35.5624C45.0925 35.5535 45.2325 35.4876 45.3345 35.3784C45.4365 35.2692 45.4926 35.125 45.4914 34.9756C45.4924 33.8297 45.2677 32.6949 44.8302 31.636C44.3926 30.577 43.7508 29.6145 42.9413 28.8036C42.1318 27.9927 41.1705 27.3491 40.1123 26.9097C39.0541 26.4703 37.9197 26.2436 36.7739 26.2426H21.2978C15.5147 26.2426 12.1645 28.5745 9.73155 34.2604L8.5656 37.2997C8.48486 37.3034 8.40581 37.3241 8.33352 37.3602C8.26122 37.3963 8.1973 37.4472 8.14586 37.5096L4.03004 42.4765C3.95921 42.5609 3.91357 42.6635 3.89834 42.7727C3.8831 42.8818 3.8989 42.993 3.94391 43.0936C3.98892 43.1941 4.06133 43.28 4.15285 43.3413C4.24437 43.4026 4.35132 43.437 4.46144 43.4404L8.82211 43.5764C9.62662 43.9651 11.2395 44.0078 11.7448 44.0078C11.8889 44.0078 12.0281 43.9547 12.1356 43.8586C12.2431 43.7626 12.3115 43.6303 12.3277 43.487L13.0351 38.0887L13.9212 36.6701ZM41.5543 41.1512C41.5533 41.5948 41.3764 42.0199 41.0623 42.3332C40.7483 42.6465 40.3228 42.8224 39.8792 42.8224H33.9951C33.9904 42.6764 33.9307 42.5376 33.8279 42.4338L32.3588 40.9608C32.2485 40.8505 32.099 40.7885 31.943 40.7885C31.787 40.7885 31.6374 40.8505 31.5271 40.9608C31.4168 41.0711 31.3549 41.2207 31.3549 41.3766C31.3549 41.5326 31.4168 41.6822 31.5271 41.7925L32.5609 42.8263H17.0887L17.9593 41.7459C18.0567 41.6242 18.1018 41.4689 18.0847 41.314C18.0676 41.1591 17.9896 41.0174 17.868 40.92C17.7463 40.8226 17.591 40.7775 17.4361 40.7946C17.2812 40.8117 17.1395 40.8897 17.0421 41.0113L15.8256 42.5271C15.6017 42.3741 15.4185 42.1689 15.2919 41.9291C15.1652 41.6894 15.099 41.4224 15.0988 41.1512V34.618C15.0999 34.1744 15.2768 33.7493 15.5908 33.436C15.9049 33.1227 16.3303 32.9468 16.7739 32.9468H24.0844C24.0947 32.9671 24.1064 32.9865 24.1194 33.0051L25.2854 34.5597C25.3401 34.6326 25.4111 34.6917 25.4928 34.7322C25.5745 34.7727 25.6645 34.7935 25.7557 34.7929C25.8828 34.7918 26.0065 34.7511 26.1093 34.6763C26.2329 34.5815 26.3141 34.4418 26.3352 34.2875C26.3563 34.1332 26.3156 33.9768 26.222 33.8524L25.5419 32.9468H36.5796L35.8412 34.8434C35.8098 34.9159 35.7935 34.994 35.7932 35.073C35.793 35.152 35.8088 35.2302 35.8397 35.3029C35.8706 35.3756 35.9159 35.4412 35.973 35.4959C36.03 35.5505 36.0976 35.593 36.1715 35.6207C36.2395 35.6479 36.312 35.6624 36.3853 35.6635C36.5054 35.6626 36.6224 35.6248 36.7204 35.5553C36.8184 35.4858 36.8927 35.3879 36.9333 35.2748L37.8427 32.9429H39.8792C40.3228 32.9429 40.7483 33.1189 41.0623 33.4322C41.3764 33.7455 41.5533 34.1705 41.5543 34.6141V41.1512ZM10.8198 34.7035C13.4004 28.6561 16.875 27.4163 21.3134 27.4163H36.7739C38.6791 27.4189 40.5129 28.1411 41.9082 29.4384C43.3034 30.7356 44.1571 32.5121 44.2982 34.412L42.7242 34.5169C42.698 33.7797 42.3869 33.0814 41.8563 32.5689C41.3257 32.0564 40.6169 31.7697 39.8792 31.7692H16.77C16.0467 31.7706 15.3509 32.0467 14.8235 32.5417C14.296 33.0367 13.9763 33.7135 13.929 34.4353L12.1412 37.2958H9.8326L10.8198 34.7035ZM8.87652 38.4618C8.90758 38.4636 8.93873 38.4636 8.9698 38.4618H9.87147L8.55005 42.3755L5.72067 42.2939L8.87652 38.4618ZM11.2084 42.8108C10.7007 42.7939 10.1952 42.7367 9.69657 42.6398L11.1229 38.4734H11.7992L11.2084 42.8108Z" fill="white"/>
    </g>
    <defs>
        <clipPath id="clip0_2017_2925">
            <rect width="42.4913" height="40" fill="white" transform="translate(3 4)"/>
        </clipPath>
    </defs>
</svg>
