<svg width="48" height="48" viewBox="0 0 48 48" fill="none" xmlns="http://www.w3.org/2000/svg">
    <g clip-path="url(#clip0_2017_2967)">
        <path d="M37.8634 16.4415C38.5182 14.8924 40.1085 10.4883 38.043 8.10101C36.5463 6.33861 33.463 6.13281 28.913 7.48361C28.1347 6.39848 25.6052 3.36761 22.1104 4.11597C18.2675 4.95414 14.6716 6.159 12.8868 11.5435C11.5845 11.5612 10.316 11.9606 9.23851 12.6922C7.65947 13.8335 6.75021 15.4499 6.7315 17.13C6.72842 17.923 6.90631 18.7062 7.25161 19.42C6.26814 20.1246 5.49262 21.0811 5.00652 22.1889C3.88398 24.7409 3.71934 27.0084 4.49389 29.3283C4.80358 30.1956 5.31482 30.9769 5.98552 31.6079C6.65622 32.2389 7.4672 32.7016 8.3517 32.9579C8.7327 33.0498 9.12348 33.0951 9.51541 33.0926C10.9523 33.0926 12.4415 32.5612 13.695 32.116C14.1815 31.9401 14.6454 31.7755 15.0421 31.667L15.1206 31.6408L15.9289 33.7287C20.1571 43.6632 20.6174 43.8054 20.8943 43.8989C21.5633 43.9937 22.2397 44.0276 22.9148 44C24.1309 44 25.6351 43.9626 26.7128 43.9289C26.818 43.9249 26.9199 43.8916 27.0072 43.8327C27.0945 43.7739 27.1636 43.6919 27.2067 43.5959L32.4939 31.9139H32.5276C33.1745 32.1633 33.8623 32.2902 34.5556 32.2881C35.8829 32.2476 37.1828 31.9005 38.3536 31.2741C38.4017 31.2512 38.4459 31.2209 38.4845 31.1843C38.7016 30.9859 43.7792 26.2563 42.9186 21.6651C42.5033 19.4724 40.8045 17.71 37.8634 16.4415ZM13.2984 31.0346C11.8466 31.551 10.0393 32.1945 8.60241 31.8466C7.90471 31.634 7.26583 31.2626 6.73602 30.7613C6.20621 30.2601 5.79991 29.6427 5.54908 28.9579C4.87182 26.9336 5.02149 24.9242 6.02804 22.6454C6.41851 21.7551 7.03354 20.9815 7.81288 20.4004C8.41747 21.2747 9.15036 22.0531 9.98688 22.7091C9.75488 23.4574 9.42186 25.0814 10.3311 26.3461C11.2404 27.6108 12.913 28.0711 15.435 27.8802C15.6437 28.0466 15.8401 28.2279 16.0224 28.4228C16.217 28.6174 16.4378 28.8381 16.6847 29.0627L16.1758 29.5266L15.4761 30.159C15.2627 30.3526 15.0061 30.4924 14.7278 30.5669C14.2862 30.6978 13.8073 30.8699 13.2984 31.0496V31.0346ZM26.3236 42.7914C24.202 42.855 21.942 42.8812 21.3583 42.825C20.767 41.9569 18.4771 36.8381 16.9654 33.2946L16.116 31.1057L17.0963 30.2189L20.2544 36.2395C20.3121 36.3488 20.4042 36.4363 20.5164 36.4883C20.6286 36.5404 20.7548 36.5542 20.8756 36.5276C20.9964 36.502 21.1053 36.4371 21.1852 36.3429C21.2651 36.2488 21.3115 36.1308 21.3171 36.0075L21.5865 31.2366L21.9607 31.2142C22.4032 31.2171 22.8456 31.1934 23.2853 31.1431L24.2245 31.0907C24.2794 31.0871 24.3336 31.0757 24.3854 31.057L25.1562 30.7801C25.9307 30.569 26.6906 30.3078 27.4312 29.9981V33.5229C27.43 33.6499 27.4717 33.7736 27.5494 33.874C27.6271 33.9744 27.7364 34.0457 27.8596 34.0764C27.9828 34.1071 28.1128 34.0954 28.2286 34.0432C28.3443 33.991 28.4391 33.9013 28.4976 33.7886L30.3087 30.3723C30.6525 30.7567 31.0435 31.0961 31.4724 31.3826L26.3236 42.7914ZM18.4658 30.3349C19.0934 30.672 19.7664 30.9165 20.464 31.0608L20.3068 33.8971L18.4658 30.3349ZM29.4293 29.0739C29.478 29.1599 29.5341 29.2572 29.594 29.3545L28.5949 31.2254V29.5004C28.8531 29.3695 29.13 29.2348 29.4144 29.0888L29.4293 29.0739ZM37.7886 30.2974C35.9476 31.1992 34.3236 31.3901 32.9616 30.8625C32.8157 30.8063 32.6772 30.739 32.5425 30.6716L31.0458 29.4331C30.6999 29.0358 30.4126 28.591 30.1927 28.1122C30.1639 28.0378 30.1197 27.9703 30.0629 27.9142C30.0062 27.8581 29.9382 27.8146 29.8634 27.7867C29.8004 27.7614 29.733 27.7487 29.6651 27.7493C29.5711 27.7494 29.4786 27.7726 29.3957 27.8166C28.7858 28.1459 28.2095 28.4303 27.6557 28.6772L24.782 29.7175C24.2898 29.8466 23.7899 29.9441 23.2853 30.0093L21.927 30.0842C19.1992 30.0168 17.7661 28.5874 16.8194 27.637C16.2918 27.1019 15.9064 26.7203 15.4013 26.7614C13.3059 26.9298 11.8653 26.5631 11.2479 25.7025C10.4247 24.58 11.1543 22.7876 11.173 22.754C11.2225 22.6381 11.232 22.509 11.2002 22.3871C11.1683 22.2652 11.0969 22.1574 10.9972 22.0804C8.9242 20.4864 7.83533 18.7764 7.85778 17.1412C7.88024 15.2703 9.28342 14.043 9.88211 13.6052C11.3152 12.5575 13.2497 12.6772 13.2497 12.6772C13.3776 12.6868 13.5049 12.6523 13.6104 12.5794C13.7159 12.5066 13.7933 12.3998 13.8297 12.2769C15.4013 7.12813 18.6192 6.03552 22.3349 5.22729C25.7025 4.47893 28.1571 8.40409 28.1796 8.44151C28.2455 8.5488 28.3453 8.63101 28.4633 8.67507C28.5813 8.71913 28.7106 8.72253 28.8307 8.68473C33.0701 7.36761 35.9401 7.41625 37.1712 8.8344C39.1543 11.1431 36.6099 16.4415 36.5874 16.4939C36.5536 16.564 36.5345 16.6403 36.5314 16.7181C36.5283 16.7959 36.5411 16.8735 36.5692 16.9461C36.5972 17.0187 36.6399 17.0848 36.6945 17.1402C36.7492 17.1957 36.8146 17.2393 36.8868 17.2685C39.7792 18.391 41.4293 19.9551 41.7923 21.8859C42.507 25.6239 38.3124 29.796 37.7736 30.3124L37.7886 30.2974Z" fill="white"/>
        <path d="M25.0589 6.93353C22.492 6.34606 20.3629 6.59302 18.724 7.68189C17.3559 8.62274 16.3967 10.0487 16.0412 11.6707C16.0277 11.7434 16.0287 11.8181 16.0442 11.8905C16.0596 11.9628 16.0893 12.0314 16.1313 12.0922C16.1734 12.1531 16.2271 12.205 16.2893 12.2451C16.3516 12.2851 16.4211 12.3124 16.4939 12.3255C16.5275 12.3292 16.5614 12.3292 16.5949 12.3255C16.7279 12.325 16.8565 12.2779 16.9583 12.1925C17.0602 12.107 17.1289 11.9886 17.1525 11.8578C17.462 10.5376 18.2482 9.3783 19.3601 8.60238C20.7259 7.70434 22.5594 7.50977 24.8082 8.02614C24.9546 8.05938 25.1082 8.03312 25.2352 7.95312C25.3622 7.87313 25.4522 7.74595 25.4855 7.59957C25.5187 7.45319 25.4925 7.2996 25.4125 7.17259C25.3325 7.04558 25.2053 6.95555 25.0589 6.9223V6.93353Z" fill="white"/>
        <path d="M16.4415 14.1291C12.8419 12.8082 10.7091 14.7427 10.6193 14.825C10.5375 14.9019 10.4805 15.0012 10.4554 15.1106C10.4304 15.2199 10.4384 15.3342 10.4786 15.4389C10.5187 15.5437 10.5891 15.6341 10.6808 15.6987C10.7725 15.7633 10.8813 15.7991 10.9934 15.8017C11.1317 15.7998 11.2646 15.748 11.3676 15.6557C11.435 15.5921 13.1076 14.1216 16.0299 15.1917C16.1674 15.2285 16.3136 15.212 16.4394 15.1455C16.5653 15.0791 16.6614 14.9677 16.7086 14.8335C16.7559 14.6993 16.7508 14.5522 16.6943 14.4217C16.6379 14.2911 16.5342 14.1866 16.4041 14.1291H16.4415Z" fill="white"/>
    </g>
    <defs>
        <clipPath id="clip0_2017_2967">
            <rect width="39.0159" height="40" fill="white" transform="translate(4 4)"/>
        </clipPath>
    </defs>
</svg>
