<svg width="48" height="48" viewBox="0 0 48 48" fill="none" xmlns="http://www.w3.org/2000/svg">
    <g clip-path="url(#clip0_2017_2940)">
        <path d="M40.2572 25.4446H38.4146C35.7391 18.2473 31.5158 15.7929 28.4275 14.9932C24.6906 14.035 20.9132 15.0153 18.2561 16.6258L13.3437 4.36853C13.3194 4.29696 13.2808 4.23108 13.2302 4.17492C13.1796 4.11876 13.1181 4.07349 13.0495 4.04188C12.9808 4.01026 12.9065 3.99296 12.8309 3.99103C12.7553 3.9891 12.6802 4.00258 12.61 4.03065C12.5398 4.05872 12.4761 4.10079 12.4227 4.15429C12.3694 4.2078 12.3274 4.27161 12.2995 4.34185C12.2716 4.41209 12.2583 4.48728 12.2604 4.56283C12.2625 4.63838 12.28 4.71271 12.3118 4.78128L17.309 17.267C17.1321 17.3997 16.9405 17.536 16.7931 17.6724L8.98397 8.37443C8.88623 8.26105 8.74746 8.19114 8.59817 8.18009C8.44889 8.16903 8.30133 8.21772 8.18795 8.31546C8.07457 8.4132 8.00467 8.55198 7.99361 8.70126C7.98255 8.85054 8.03125 8.99811 8.12899 9.11148L15.9749 18.4279C14.1604 20.3435 12.9106 22.7233 12.3634 25.3046C9.52571 25.3562 9.41515 25.4667 9.28616 25.6252C9.23254 25.6847 9.19203 25.7549 9.16727 25.831C9.1425 25.9072 9.13405 25.9878 9.14244 26.0674C10.248 35.5976 15.6359 39.2939 20.073 40.7127C20.0112 40.8042 19.9779 40.9119 19.9772 41.0223V43.4325C19.9757 43.5062 19.9889 43.5794 20.016 43.648C20.043 43.7165 20.0835 43.779 20.1349 43.8318C20.1863 43.8846 20.2477 43.9267 20.3155 43.9555C20.3834 43.9844 20.4562 43.9995 20.5299 44H30.0527C30.1267 44 30.2 43.9853 30.2682 43.9566C30.3365 43.928 30.3983 43.886 30.4502 43.8331C30.502 43.7803 30.5427 43.7176 30.57 43.6488C30.5973 43.58 30.6106 43.5065 30.6092 43.4325V41.0112C30.6079 40.9284 30.5891 40.8467 30.5539 40.7717C41.1417 37.5655 40.799 26.1117 40.799 25.979C40.7934 25.8378 40.7343 25.704 40.6337 25.6048C40.5331 25.5055 40.3985 25.4483 40.2572 25.4446ZM17.368 18.6416C17.4859 18.5384 17.6112 18.4352 17.7365 18.3357L19.7081 23.2703C19.7464 23.377 19.8163 23.4694 19.9085 23.5352C20.0007 23.6011 20.1108 23.6372 20.2241 23.6388C20.2948 23.6382 20.3648 23.6245 20.4304 23.5983C20.4999 23.5712 20.5633 23.5304 20.6168 23.4784C20.6703 23.4265 20.7129 23.3643 20.7421 23.2957C20.7713 23.227 20.7864 23.1532 20.7867 23.0786C20.787 23.004 20.7724 22.9301 20.7437 22.8613L18.6873 17.6761C20.6946 16.419 23.0115 15.7441 25.3798 15.7266C26.3169 15.7243 27.2506 15.8407 28.1585 16.073C32.0722 17.0791 35.1605 20.2558 37.1763 25.2862H22.8038C18.4293 25.2641 15.4959 25.2641 13.5205 25.2862C13.8227 23.9705 14.7883 20.897 17.368 18.6416ZM29.4925 42.887H21.0938V41.5898H29.4925V42.887ZM38.2193 32.8742C36.0744 37.4771 32.0243 40.0236 26.1721 40.44C26.1205 40.44 25.9731 40.4585 25.7409 40.4658H24.8565C21.3628 40.3589 12.0206 38.9033 10.318 26.4618C10.8156 26.4323 11.6816 26.4139 12.813 26.3991H22.8222C28.269 26.4323 34.534 26.4802 39.6934 26.5539C39.6169 28.7364 39.1162 30.883 38.2193 32.8742Z" fill="white"/>
        <path d="M25.0407 18.0925C25.2508 18.0703 30.2001 17.5655 33.2662 23.3219C33.3008 23.3865 33.3478 23.4436 33.4045 23.4901C33.4612 23.5365 33.5265 23.5714 33.5967 23.5926C33.6668 23.6138 33.7405 23.621 33.8134 23.6137C33.8863 23.6065 33.9571 23.585 34.0217 23.5504C34.0863 23.5157 34.1435 23.4688 34.1899 23.4121C34.2364 23.3554 34.2712 23.2901 34.2924 23.2199C34.3136 23.1498 34.3208 23.0761 34.3136 23.0032C34.3063 22.9303 34.2848 22.8595 34.2502 22.7949C30.8192 16.3456 25.1476 16.9574 24.908 16.9869C24.7614 17.0045 24.6278 17.0796 24.5366 17.1957C24.4453 17.3118 24.404 17.4594 24.4216 17.606C24.4392 17.7526 24.5143 17.8862 24.6304 17.9775C24.7465 18.0687 24.8941 18.1101 25.0407 18.0925Z" fill="white"/>
        <path d="M11.7185 28.0022C11.5874 28.0237 11.4682 28.0911 11.3821 28.1924C11.2961 28.2936 11.2489 28.4222 11.2489 28.555C11.2489 28.6879 11.2961 28.8164 11.3821 28.9177C11.4682 29.019 11.5874 29.0863 11.7185 29.1078H27.1635C27.2436 29.121 27.3257 29.1165 27.404 29.0948C27.4822 29.073 27.5548 29.0345 27.6167 28.9819C27.6786 28.9294 27.7284 28.8639 27.7625 28.7902C27.7966 28.7165 27.8142 28.6363 27.8142 28.555C27.8142 28.4738 27.7966 28.3936 27.7625 28.3198C27.7284 28.2461 27.6786 28.1807 27.6167 28.1281C27.5548 28.0755 27.4822 28.037 27.404 28.0153C27.3257 27.9936 27.2436 27.9891 27.1635 28.0022H11.7185Z" fill="white"/>
        <path d="M29.3525 29.1188H33.7748C33.906 29.0973 34.0252 29.0299 34.1112 28.9287C34.1972 28.8274 34.2444 28.6989 34.2444 28.566C34.2444 28.4332 34.1972 28.3046 34.1112 28.2034C34.0252 28.1021 33.906 28.0347 33.7748 28.0132H29.3525C29.2724 28.0001 29.1903 28.0046 29.112 28.0263C29.0338 28.048 28.9612 28.0865 28.8993 28.1391C28.8374 28.1917 28.7877 28.2571 28.7535 28.3308C28.7194 28.4045 28.7018 28.4848 28.7018 28.566C28.7018 28.6472 28.7194 28.7275 28.7535 28.8012C28.7877 28.8749 28.8374 28.9403 28.8993 28.9929C28.9612 29.0455 29.0338 29.084 29.112 29.1058C29.1903 29.1275 29.2724 29.1319 29.3525 29.1188Z" fill="white"/>
    </g>
    <defs>
        <clipPath id="clip0_2017_2940">
            <rect width="32.81" height="40" fill="white" transform="translate(8 4)"/>
        </clipPath>
    </defs>
</svg>
