<svg width="51" height="40" viewBox="0 0 51 40" fill="none" xmlns="http://www.w3.org/2000/svg">
    <rect width="51" height="40" rx="20" fill="white"/>
    <path d="M36.176 24.56C36.8693 24.56 37.4187 24.368 37.824 23.984C38.2293 23.5893 38.432 23.072 38.432 22.432C38.432 22.1013 38.368 21.808 38.24 21.552C38.1227 21.296 37.9627 21.0827 37.76 20.912C37.568 20.7307 37.3387 20.592 37.072 20.496C36.8053 20.4 36.528 20.352 36.24 20.352C35.5573 20.352 34.9653 20.5387 34.464 20.912L33.248 20.656L33.792 14.512H39.136V16.128H34.944L34.704 19.152C34.9707 19.0027 35.2373 18.896 35.504 18.832C35.7707 18.7573 36.08 18.72 36.432 18.72C36.9333 18.72 37.3973 18.816 37.824 19.008C38.2507 19.1893 38.6187 19.4453 38.928 19.776C39.248 20.096 39.4933 20.48 39.664 20.928C39.8453 21.3653 39.936 21.8453 39.936 22.368C39.936 22.88 39.8453 23.3653 39.664 23.824C39.4827 24.2827 39.2267 24.688 38.896 25.04C38.5653 25.392 38.1653 25.6747 37.696 25.888C37.2373 26.0907 36.72 26.192 36.144 26.192C35.76 26.192 35.3867 26.1387 35.024 26.032C34.672 25.936 34.3467 25.8027 34.048 25.632C33.7493 25.4613 33.4933 25.2693 33.28 25.056C33.0773 24.8427 32.9333 24.624 32.848 24.4L33.296 22.992C33.6373 23.5253 34.0533 23.92 34.544 24.176C35.0347 24.432 35.5787 24.56 36.176 24.56Z" fill="#212529"/>
    <path d="M26.2893 17.6492C26.2369 17.4949 26.1405 17.3593 26.0119 17.2592C25.8834 17.1591 25.7283 17.0988 25.5659 17.0858L20.8151 16.7083L18.7593 12.1575C18.6938 12.0109 18.5873 11.8864 18.4526 11.799C18.318 11.7117 18.1609 11.6651 18.0004 11.665C17.8398 11.6649 17.6827 11.7113 17.548 11.7985C17.4132 11.8858 17.3066 12.0102 17.2409 12.1567L15.1851 16.7083L10.4343 17.0858C10.2746 17.0985 10.1221 17.1568 9.99473 17.2539C9.86741 17.351 9.77076 17.4828 9.71635 17.6334C9.66193 17.7839 9.65205 17.947 9.68789 18.1031C9.72373 18.2591 9.80377 18.4016 9.91844 18.5133L13.4293 21.9358L12.1876 27.3125C12.1499 27.4752 12.162 27.6456 12.2223 27.8014C12.2826 27.9572 12.3883 28.0912 12.5258 28.1862C12.6632 28.2811 12.826 28.3326 12.9931 28.3339C13.1601 28.3351 13.3237 28.2862 13.4626 28.1933L18.0001 25.1683L22.5376 28.1933C22.6795 28.2876 22.847 28.3361 23.0173 28.3324C23.1876 28.3286 23.3528 28.2728 23.4904 28.1724C23.6281 28.0721 23.7317 27.9319 23.7874 27.7709C23.8431 27.6099 23.8481 27.4356 23.8018 27.2717L22.2776 21.9383L26.0576 18.5367C26.3051 18.3133 26.3959 17.965 26.2893 17.6492Z" fill="#E6332A"/>
</svg>
