<svg width="40" height="40" viewBox="0 0 40 40" fill="none" xmlns="http://www.w3.org/2000/svg">
    <circle cx="20" cy="20" r="19.4" transform="matrix(-1 0 0 1 40 0)" stroke="#CCDADD" stroke-width="1.2"/>
    <path d="M22.674 14.333C22.7612 14.4223 22.8101 14.5422 22.8101 14.667C22.8101 14.7918 22.7612 14.9117 22.674 15.001L17.801 20L22.674 24.998C22.7612 25.0873 22.8101 25.2072 22.8101 25.332C22.8101 25.4568 22.7612 25.5767 22.674 25.666C22.6316 25.7095 22.5809 25.7441 22.5249 25.7678C22.4689 25.7914 22.4088 25.8036 22.348 25.8036C22.2872 25.8036 22.2271 25.7914 22.1711 25.7678C22.1151 25.7441 22.0644 25.7095 22.022 25.666L16.84 20.349C16.749 20.2556 16.6981 20.1304 16.6981 20C16.6981 19.8696 16.749 19.7444 16.84 19.651L22.022 14.334C22.0644 14.2905 22.1151 14.2558 22.1711 14.2322C22.2271 14.2086 22.2872 14.1964 22.348 14.1964C22.4088 14.1964 22.4689 14.2086 22.5249 14.2322C22.5809 14.2558 22.6316 14.2905 22.674 14.334V14.333Z"
          fill="currentColor"/>
</svg>
