<svg width="40" height="40" viewBox="0 0 40 40" fill="none" xmlns="http://www.w3.org/2000/svg">
    <circle cx="20" cy="20" r="19.4" stroke="#CCDADD" stroke-width="1.2"/>
    <path d="M17.326 14.333C17.2388 14.4223 17.1899 14.5422 17.1899 14.667C17.1899 14.7918 17.2388 14.9117 17.326 15.001L22.199 20L17.326 24.998C17.2388 25.0873 17.1899 25.2072 17.1899 25.332C17.1899 25.4568 17.2388 25.5767 17.326 25.666C17.3684 25.7095 17.4191 25.7441 17.4751 25.7678C17.5311 25.7914 17.5912 25.8036 17.652 25.8036C17.7128 25.8036 17.7729 25.7914 17.8289 25.7678C17.8849 25.7441 17.9356 25.7095 17.978 25.666L23.16 20.349C23.251 20.2556 23.3019 20.1304 23.3019 20C23.3019 19.8696 23.251 19.7444 23.16 19.651L17.978 14.334C17.9356 14.2905 17.8849 14.2558 17.8289 14.2322C17.7729 14.2086 17.7128 14.1964 17.652 14.1964C17.5912 14.1964 17.5311 14.2086 17.4751 14.2322C17.4191 14.2558 17.3684 14.2905 17.326 14.334V14.333Z"
          fill="currentColor"/>
</svg>
