<svg width="84.000000" height="92.000000" viewBox="0 0 84 92" fill="none" xmlns="http://www.w3.org/2000/svg" xmlns:xlink="http://www.w3.org/1999/xlink">
	<desc>
			Created with Pixso.
	</desc>
	<defs>
		<clipPath id="clip325_2031">
			<rect id="Frame" rx="0.000000" width="83.000000" height="91.000000" transform="translate(0.500000 0.500000)" fill="white" fill-opacity="0"/>
		</clipPath>
	</defs>
	<rect id="Frame" rx="0.000000" width="83.000000" height="91.000000" transform="translate(0.500000 0.500000)" fill="#FFFFFF" fill-opacity="0"/>
	<g clip-path="url(#clip325_2031)">
		<path id="Vector" d="M28.77 66.97C29.29 66.83 29.82 66.8 30.27 66.8C30.44 65.76 30.44 64.75 30.16 63.75C30.51 62.81 29.78 61.87 30.09 60.94C29.33 57.43 28.35 53.96 26.44 50.87C25.74 49.66 24.91 48.58 23.94 47.57C22.4 45.49 20.21 44.59 17.85 43.9C17.22 43.72 16.87 43.9 16.52 44.49C14.92 47.3 14.51 50.25 14.99 53.4C15.03 53.96 15.06 54.51 15.44 54.97C15.44 54.97 15.41 54.97 15.41 55C15.34 55.24 15.41 55.49 15.58 55.69C17.46 60.41 21.46 65.62 25.5 68.95C26.72 67.56 28.25 67.11 28.77 66.97Z" fill="#DC4814" fill-opacity="1.000000" fill-rule="nonzero"/>
		<path id="Vector" d="M24.67 70.13C25.54 68.54 26.86 67.7 27.83 67.32C27.62 66.9 27.42 66.49 27.21 66.07C26.55 64.3 25.19 62.12 24 60.62C22.96 59.1 21.78 57.74 20.35 56.53C19.97 56.11 19.79 55.97 19.24 55.63C19.13 55.52 18.99 55.42 18.89 55.31C18.65 55.1 18.4 54.93 18.16 54.72C15.41 52.26 12.21 50.87 8.49 50.8C8.38 50.77 8.28 50.77 8.14 50.77C7.27 50.59 6.4 50.28 5.95 51.6C5.91 51.91 5.91 52.05 5.95 52.26C5.63 53.92 5.91 55.49 6.61 57.01C6.64 57.26 6.68 57.46 6.71 57.71C7.02 58.54 7.27 59.37 7.96 59.96C8 60.07 8.03 60.17 8.1 60.28C8.49 61.04 8.83 61.39 9.29 61.91C9.63 62.46 9.95 62.74 10.5 63.12C10.78 63.4 11.06 63.71 11.34 63.99C12.38 64.93 13.39 65.9 14.75 66.38C14.99 66.56 15.27 66.77 15.51 66.94C17.43 68.22 19.45 69.33 21.57 70.2C22.3 70.48 23 70.76 23.73 71.03C23.9 71.07 24.07 71.14 24.25 71.17C24.35 70.79 24.49 70.44 24.67 70.13Z" fill="#C7B06A" fill-opacity="1.000000" fill-rule="nonzero"/>
		<path id="Vector" d="M24.67 70.13C25.15 69.19 25.85 68.54 26.51 68.05C26.37 67.98 26.27 67.88 26.13 67.81C25.78 67.42 25.36 67.22 24.88 67.08C23.07 65.76 21.05 64.82 18.89 64.16C17.92 63.78 17.05 63.54 16.04 63.19C14.92 62.77 13.71 62.67 12.52 62.53C12.21 62.43 12.14 62.43 11.79 62.39C10.5 61.8 9.11 62.12 7.79 61.98C7.75 62.01 7.75 62.05 7.72 62.05C7.72 62.01 7.75 61.98 7.79 61.98C6.57 61.94 6.08 62.05 5.39 62.18C4.69 62.25 4 62.5 3.34 62.74C3.3 62.77 3.23 62.81 3.2 62.81C-0.94 64.37 -0.63 64.3 1.87 68.01C2.29 68.6 2.71 69.23 3.41 69.54C3.61 69.72 3.82 69.92 4 70.1C7.02 72.63 10.61 73.6 14.4 73.98C17.64 74.3 20.87 74.47 24.07 74.19C23.8 72.87 23.97 71.42 24.67 70.13Z" fill="#1F1C1C" fill-opacity="1.000000" fill-rule="nonzero"/>
		<path id="Vector" d="M26.16 71.35C25.22 73.12 25.4 75.34 26.55 76.83C27.83 78.5 29.78 78.67 30.34 78.67C31.83 78.7 33.3 78.11 34.34 77C34.51 76.79 34.69 76.62 34.83 76.38C36.32 74.16 35.7 71.28 34.3 69.89C34.1 69.68 33.82 69.47 33.54 69.3C33.16 69.09 32.29 68.67 31.14 68.6C30.69 68.57 30.16 68.6 29.61 68.74C29.05 68.88 27.17 69.44 26.16 71.35Z" fill="#1F1C1C" fill-opacity="1.000000" fill-rule="nonzero"/>
		<path id="Vector" d="M28.7 73.57C29.4 73.39 30.13 73.84 30.3 74.57C30.48 75.27 30.02 76 29.29 76.17C28.6 76.34 27.87 75.89 27.69 75.16C27.52 74.43 27.97 73.74 28.7 73.57Z" fill="#FFFFFF" fill-opacity="1.000000" fill-rule="nonzero"/>
		<path id="Vector" d="M63.22 0.03C62.8 -0.04 62.18 0.24 61.59 0.45C59.67 1.35 30.16 14.02 27.35 15.47C27.35 15.47 23.59 18.7 25.61 22.1C32.84 34.35 39.25 47.05 46.07 59.51C47.15 61.49 48.26 63.47 49.37 65.41C49.62 65.83 49.82 66.21 50.07 66.63C51.29 69.09 52.19 69.61 54.1 69.54C56.92 69.47 59.71 69.13 62.49 68.88C63.36 68.67 63.85 68.57 64.54 68.43C64.72 68.43 64.82 68.47 64.96 68.6C67.54 74.78 70.53 80.82 72.76 87.14C73.94 90.57 81.25 89.91 81.84 89.67C84.06 88.84 84.52 87.55 83.44 85.23C80.93 78.53 78.25 71.9 75.19 65.45C74.81 64.58 75.05 64.82 74.84 64.58C76.37 62.11 78.85 60.62 80.93 58.75C83.75 56.18 83.89 55.21 82.92 51.43C82.22 48.79 71.47 14.92 68.55 3.88C67.68 0.9 64.23 -0.18 63.22 0.03Z" fill="#C7B06A" fill-opacity="1.000000" fill-rule="nonzero"/>
		<path id="Vector" d="M77.04 69.51C79.68 75.27 82.81 83.15 83.86 86.44C84.27 87.73 83.68 89.11 82.43 89.64L77.42 91.79C76.13 92.34 74.7 91.79 74.5 91.27C73.17 88.25 69.8 79.64 67.22 73.84C70.49 72.46 73.76 70.96 77.04 69.51Z" fill="#1F1C1C" fill-opacity="1.000000" fill-rule="nonzero"/>
		<path id="Vector" d="M71.99 50.52C72.83 52.47 72.62 54.27 71.89 56.08C71.75 56.42 71.61 56.49 71.26 56.35C69.55 55.69 68.09 54.83 67.29 53.09C67.12 52.74 67.01 52.78 66.77 53.06C65.55 54.45 63.95 55.35 62.35 56.22C61.93 56.42 61.72 56.35 61.69 55.9C61.38 53.27 62.18 49.69 64.79 48.09C65.1 47.92 65.41 47.68 65.73 47.61C66.94 47.37 67.99 46.78 69.07 46.15C71.26 44.9 73.45 45.46 75.5 46.64C76.44 47.16 77.28 47.85 77.98 48.68C78.29 49.07 78.18 49.24 77.77 49.38C75.92 50.07 74.08 50.63 71.99 50.52Z" fill="#1F1C1C" fill-opacity="1.000000" fill-rule="nonzero"/>
		<path id="Vector" d="M70.49 53.37C70.49 53.47 70.56 53.58 70.46 53.61C70.32 53.68 70.25 53.58 70.18 53.51C69.17 52.47 68.44 51.29 68.3 49.83C68.3 49.69 68.23 49.45 68.44 49.38C68.61 49.34 70.42 50.77 70.49 53.37Z" fill="#FFFFFF" fill-opacity="1.000000" fill-rule="nonzero"/>
		<path id="Vector" d="M74.98 48.55C75.05 48.62 75.16 48.62 75.16 48.75C75.12 48.89 75.02 48.89 74.88 48.89C73.45 48.96 72.06 48.79 70.84 47.96C70.7 47.89 70.49 47.78 70.6 47.57C70.67 47.37 72.93 46.91 74.98 48.55Z" fill="#FFFFFF" fill-opacity="1.000000" fill-rule="nonzero"/>
		<path id="Vector" d="M63.71 53.82C63.67 53.86 63.64 53.89 63.6 53.92C63.57 53.96 63.53 53.96 63.46 53.96C63.33 53.89 63.36 53.79 63.4 53.68C63.67 52.26 64.2 50.98 65.31 50.04C65.41 49.93 65.55 49.76 65.76 49.9C65.9 49.97 65.8 52.26 63.71 53.82Z" fill="#FFFFFF" fill-opacity="1.000000" fill-rule="nonzero"/>
		<path id="Vector" d="M43.74 39.45C43.8 39.21 44.12 39.14 44.22 38.9C44.64 38.52 45.09 38.2 45.65 38C45.79 37.96 45.86 37.96 45.82 37.75C45.68 36.92 45.68 36.09 45.89 35.29C46.21 34.18 46.97 33.35 47.84 32.62C48.02 32.44 48.22 32.34 48.47 32.27C48.57 32.23 48.64 32.17 48.75 32.13C48.88 32.13 48.99 31.99 49.16 31.99C49.75 31.85 50.35 31.82 50.94 31.85C52.26 31.92 53.34 32.51 54.28 33.38C54.38 33.48 54.42 33.73 54.66 33.59C54.77 33.45 54.97 33.41 55.08 33.28C55.15 33.24 55.25 33.17 55.32 33.14C55.46 33 55.6 32.89 55.81 32.86C56.33 32.76 56.82 32.58 57.34 32.62C58.63 32.72 59.74 33.17 60.54 34.21C60.61 34.32 60.72 34.39 60.79 34.46C61.03 34.77 61.2 35.12 61.34 35.5C61.59 36.64 61.52 37.75 61.13 38.9C62.04 39.25 62.7 39.8 63.12 40.67C63.43 41.4 63.53 42.13 63.4 42.92C63.26 43.86 62.84 44.59 62.18 45.25C61.86 45.56 61.48 45.8 61.1 46.05C60.79 46.12 60.58 46.36 60.26 46.43C59.15 46.88 58 47.05 56.82 46.91C56.47 46.88 56.33 46.95 56.3 47.33C56.23 47.96 55.98 48.48 55.6 48.96C55.53 49.14 55.36 49.24 55.25 49.34C55.08 49.66 54.77 49.76 54.52 49.93C54.17 50.18 53.79 50.39 53.41 50.52C51.95 50.94 50.49 51.08 49.09 50.35C48.54 50.07 48.08 49.62 47.77 49.1C47.53 48.79 47.35 48.44 47.21 48.06C47.11 47.78 46.97 47.5 47.04 47.19C47.08 47.02 46.97 46.98 46.83 47.02C45.54 47.05 44.5 46.5 43.6 45.63C43.39 45.42 43.18 45.21 43.04 44.94C42.76 44.66 42.73 44.28 42.59 43.93C42.24 42.65 42.48 41.47 43.04 40.32C43.11 40.22 43.18 40.15 43.25 40.04C43.32 39.94 43.39 39.84 43.46 39.77C43.53 39.66 43.63 39.59 43.74 39.45Z" fill="#FFFFFF" fill-opacity="1.000000" fill-rule="nonzero"/>
		<path id="Vector" d="M52.89 39.8C52.99 40.01 52.96 40.22 52.75 40.36C52.54 40.49 52.33 40.39 52.23 40.18C52.09 39.97 52.16 39.77 52.4 39.66C52.57 39.56 52.75 39.59 52.89 39.8Z" fill="#DC4814" fill-opacity="1.000000" fill-rule="nonzero"/>
		<path id="Vector" d="M52.36 42.4C52.47 42.61 52.47 42.78 52.26 42.92C52.05 43.06 51.88 43.03 51.77 42.82C51.67 42.61 51.63 42.4 51.84 42.26C52.05 42.13 52.23 42.23 52.36 42.4Z" fill="#DC4814" fill-opacity="1.000000" fill-rule="nonzero"/>
		<path id="Vector" d="M52.43 43.41C52.57 43.65 52.5 43.83 52.33 43.93C52.12 44.07 51.95 43.96 51.81 43.79C51.67 43.58 51.74 43.41 51.95 43.27C52.16 43.17 52.33 43.2 52.43 43.41Z" fill="#DC4814" fill-opacity="1.000000" fill-rule="nonzero"/>
		<path id="Vector" d="M51.29 39.94C51.53 39.84 51.7 39.87 51.81 40.08C51.91 40.25 51.88 40.46 51.67 40.56C51.46 40.67 51.25 40.63 51.15 40.39C51.04 40.18 51.15 40.04 51.29 39.94Z" fill="#DC4814" fill-opacity="1.000000" fill-rule="nonzero"/>
		<path id="Vector" d="M53.41 40.74C53.51 40.95 53.44 41.12 53.27 41.22C53.1 41.33 52.89 41.33 52.78 41.15C52.64 40.95 52.71 40.77 52.92 40.67C53.1 40.53 53.27 40.6 53.41 40.74Z" fill="#DC4814" fill-opacity="1.000000" fill-rule="nonzero"/>
		<path id="Vector" d="M53.86 39.07C53.97 39.25 53.93 39.42 53.72 39.49C53.51 39.59 53.34 39.56 53.2 39.35C53.1 39.18 53.13 38.97 53.34 38.9C53.55 38.79 53.72 38.86 53.86 39.07Z" fill="#DC4814" fill-opacity="1.000000" fill-rule="nonzero"/>
		<path id="Vector" d="M53.51 43.17C53.58 43.34 53.55 43.48 53.37 43.58C53.16 43.69 52.99 43.69 52.85 43.48C52.71 43.27 52.85 43.1 53.03 42.99C53.23 42.92 53.37 42.99 53.51 43.17Z" fill="#DC4814" fill-opacity="1.000000" fill-rule="nonzero"/>
		<path id="Vector" d="M52.19 39.04C52.29 39.25 52.23 39.42 52.05 39.52C51.88 39.63 51.67 39.59 51.56 39.38C51.49 39.21 51.42 39 51.63 38.9C51.88 38.79 52.09 38.86 52.19 39.04Z" fill="#DC4814" fill-opacity="1.000000" fill-rule="nonzero"/>
		<path id="Vector" d="M54.63 39.8C54.42 39.87 54.24 39.87 54.14 39.66C54.03 39.42 54.14 39.28 54.35 39.18C54.52 39.07 54.7 39.14 54.77 39.31C54.9 39.49 54.8 39.66 54.63 39.8Z" fill="#DC4814" fill-opacity="1.000000" fill-rule="nonzero"/>
		<path id="Vector" d="M52.54 41.15C52.61 41.33 52.61 41.5 52.43 41.6C52.26 41.71 52.09 41.74 51.95 41.54C51.81 41.33 51.84 41.15 52.05 41.02C52.23 40.91 52.4 41.02 52.54 41.15Z" fill="#DC4814" fill-opacity="1.000000" fill-rule="nonzero"/>
		<path id="Vector" d="M53.37 42.65C53.16 42.75 52.99 42.68 52.89 42.51C52.78 42.33 52.82 42.16 53.03 42.06C53.2 41.95 53.37 41.99 53.48 42.2C53.58 42.33 53.55 42.51 53.37 42.65Z" fill="#DC4814" fill-opacity="1.000000" fill-rule="nonzero"/>
		<path id="Vector" d="M54.07 40.01C54.14 40.18 54.1 40.36 53.93 40.46C53.76 40.56 53.55 40.53 53.44 40.36C53.34 40.18 53.37 39.97 53.58 39.9C53.79 39.77 53.97 39.84 54.07 40.01Z" fill="#DC4814" fill-opacity="1.000000" fill-rule="nonzero"/>
		<path id="Vector" d="M54.31 41.29C54.42 41.47 54.38 41.64 54.21 41.74C54 41.85 53.83 41.85 53.69 41.64C53.58 41.47 53.58 41.29 53.79 41.15C54 41.05 54.17 41.12 54.31 41.29Z" fill="#DC4814" fill-opacity="1.000000" fill-rule="nonzero"/>
		<path id="Vector" d="M51.32 42.06C51.11 42.16 50.94 42.13 50.83 41.92C50.73 41.74 50.76 41.57 50.94 41.47C51.11 41.36 51.29 41.36 51.43 41.54C51.56 41.74 51.53 41.92 51.32 42.06Z" fill="#DC4814" fill-opacity="1.000000" fill-rule="nonzero"/>
		<path id="Vector" d="M54.87 40.39C54.97 40.6 54.9 40.74 54.73 40.84C54.56 40.95 54.38 40.88 54.31 40.7C54.21 40.49 54.28 40.36 54.45 40.25C54.63 40.18 54.77 40.22 54.87 40.39Z" fill="#DC4814" fill-opacity="1.000000" fill-rule="nonzero"/>
		<path id="Vector" d="M54.38 42.44C54.45 42.61 54.45 42.78 54.28 42.89C54.1 42.99 53.93 42.96 53.83 42.78C53.72 42.61 53.76 42.4 53.93 42.3C54.14 42.2 54.28 42.26 54.38 42.44Z" fill="#DC4814" fill-opacity="1.000000" fill-rule="nonzero"/>
		<path id="Vector" d="M52.92 38.52C53.03 38.72 52.92 38.9 52.75 38.97C52.57 39.07 52.4 39 52.33 38.83C52.23 38.66 52.29 38.48 52.47 38.38C52.64 38.27 52.82 38.38 52.92 38.52Z" fill="#DC4814" fill-opacity="1.000000" fill-rule="nonzero"/>
		<path id="Vector" d="M51.01 39.52C51.11 39.73 51.04 39.87 50.87 39.94C50.69 40.01 50.52 39.97 50.42 39.8C50.31 39.63 50.38 39.45 50.52 39.35C50.73 39.28 50.9 39.31 51.01 39.52Z" fill="#DC4814" fill-opacity="1.000000" fill-rule="nonzero"/>
		<path id="Vector" d="M55.18 42.33C55.01 42.44 54.84 42.44 54.77 42.23C54.66 42.06 54.7 41.88 54.87 41.74C55.04 41.64 55.18 41.67 55.32 41.85C55.43 42.06 55.39 42.19 55.18 42.33Z" fill="#DC4814" fill-opacity="1.000000" fill-rule="nonzero"/>
		<path id="Vector" d="M51.01 40.7C51.08 40.88 51.04 41.05 50.87 41.15C50.69 41.26 50.52 41.15 50.45 40.98C50.35 40.81 50.38 40.63 50.59 40.56C50.76 40.46 50.9 40.49 51.01 40.7Z" fill="#DC4814" fill-opacity="1.000000" fill-rule="nonzero"/>
		<path id="Vector" d="M55.64 40.74C55.74 40.95 55.67 41.08 55.5 41.19C55.36 41.26 55.18 41.26 55.08 41.12C54.97 40.95 55.01 40.77 55.18 40.67C55.36 40.53 55.5 40.6 55.64 40.74Z" fill="#DC4814" fill-opacity="1.000000" fill-rule="nonzero"/>
		<path id="Vector" d="M50.9 42.47C51.08 42.37 51.25 42.4 51.36 42.58C51.46 42.75 51.42 42.89 51.25 42.99C51.08 43.1 50.9 43.06 50.8 42.89C50.73 42.75 50.76 42.58 50.9 42.47Z" fill="#DC4814" fill-opacity="1.000000" fill-rule="nonzero"/>
		<path id="Vector" d="M49.96 41.26C50.14 41.19 50.28 41.22 50.38 41.4C50.45 41.54 50.49 41.71 50.31 41.81C50.17 41.92 50 41.88 49.89 41.71C49.75 41.54 49.79 41.36 49.96 41.26Z" fill="#DC4814" fill-opacity="1.000000" fill-rule="nonzero"/>
		<path id="Vector" d="M50.21 40.67C50.07 40.74 49.93 40.74 49.82 40.56C49.75 40.43 49.79 40.29 49.93 40.18C50.07 40.08 50.21 40.11 50.31 40.25C50.42 40.43 50.35 40.56 50.21 40.67Z" fill="#DC4814" fill-opacity="1.000000" fill-rule="nonzero"/>
		<path id="Vector" d="M45.75 15.85C45.86 15.54 46.21 15.47 46.34 15.23C46.83 14.81 47.39 14.43 48.01 14.19C48.19 14.15 48.26 14.15 48.22 13.91C48.05 12.94 48.05 11.97 48.33 11C48.71 9.68 49.58 8.71 50.62 7.87C50.83 7.66 51.08 7.56 51.36 7.46C51.46 7.39 51.56 7.35 51.67 7.28C51.84 7.28 51.95 7.11 52.16 7.11C52.85 6.97 53.55 6.9 54.24 6.94C55.81 7.01 57.06 7.73 58.18 8.74C58.28 8.84 58.35 9.16 58.63 8.98C58.73 8.81 58.98 8.81 59.12 8.64C59.22 8.57 59.32 8.53 59.39 8.46C59.57 8.29 59.74 8.19 59.99 8.15C60.58 8.01 61.17 7.8 61.79 7.84C63.29 7.94 64.61 8.5 65.55 9.71C65.62 9.82 65.73 9.92 65.83 10.02C66.11 10.41 66.35 10.82 66.49 11.24C66.77 12.59 66.7 13.91 66.25 15.23C67.29 15.65 68.13 16.31 68.58 17.31C68.96 18.15 69.07 19.05 68.89 19.98C68.72 21.06 68.23 21.96 67.47 22.73C67.08 23.11 66.67 23.39 66.21 23.63C65.87 23.7 65.59 24.01 65.24 24.08C63.95 24.6 62.59 24.81 61.2 24.67C60.79 24.63 60.61 24.7 60.58 25.16C60.51 25.88 60.19 26.51 59.74 27.06C59.67 27.27 59.46 27.38 59.32 27.55C59.15 27.9 58.77 28.04 58.49 28.24C58.07 28.52 57.65 28.76 57.17 28.97C55.46 29.46 53.76 29.6 52.09 28.76C51.42 28.42 50.9 27.93 50.56 27.27C50.28 26.89 50.03 26.47 49.89 26.06C49.75 25.71 49.62 25.4 49.69 25.02C49.72 24.81 49.58 24.81 49.44 24.81C47.91 24.88 46.69 24.18 45.65 23.18C45.41 22.93 45.16 22.66 44.99 22.38C44.67 22.03 44.6 21.58 44.43 21.2C44.01 19.71 44.33 18.28 44.99 16.93C45.06 16.79 45.16 16.72 45.23 16.62C45.3 16.51 45.37 16.41 45.47 16.27C45.54 16.1 45.68 15.99 45.75 15.85Z" fill="#DC4814" fill-opacity="1.000000" fill-rule="nonzero"/>
		<path id="Vector" d="M56.54 16.24C56.68 16.48 56.61 16.72 56.4 16.9C56.16 17.03 55.91 16.93 55.77 16.69C55.6 16.44 55.71 16.2 55.98 16.06C56.19 15.92 56.4 15.99 56.54 16.24Z" fill="#FFFFFF" fill-opacity="1.000000" fill-rule="nonzero"/>
		<path id="Vector" d="M55.91 19.33C56.05 19.57 56.02 19.78 55.81 19.95C55.57 20.09 55.36 20.05 55.22 19.81C55.08 19.57 55.04 19.33 55.32 19.15C55.57 18.98 55.77 19.08 55.91 19.33Z" fill="#FFFFFF" fill-opacity="1.000000" fill-rule="nonzero"/>
		<path id="Vector" d="M56.02 20.47C56.19 20.75 56.09 20.96 55.88 21.1C55.64 21.23 55.43 21.16 55.29 20.92C55.15 20.68 55.22 20.47 55.43 20.33C55.67 20.23 55.91 20.26 56.02 20.47Z" fill="#FFFFFF" fill-opacity="1.000000" fill-rule="nonzero"/>
		<path id="Vector" d="M54.66 16.41C54.94 16.31 55.15 16.34 55.29 16.58C55.39 16.79 55.36 17 55.11 17.14C54.87 17.28 54.63 17.21 54.49 16.97C54.38 16.72 54.49 16.51 54.66 16.41Z" fill="#FFFFFF" fill-opacity="1.000000" fill-rule="nonzero"/>
		<path id="Vector" d="M57.13 17.35C57.24 17.59 57.2 17.8 56.99 17.94C56.78 18.08 56.57 18.08 56.4 17.83C56.26 17.59 56.33 17.38 56.57 17.24C56.82 17.1 56.99 17.17 57.13 17.35Z" fill="#FFFFFF" fill-opacity="1.000000" fill-rule="nonzero"/>
		<path id="Vector" d="M57.69 15.37C57.79 15.58 57.76 15.75 57.55 15.89C57.31 16.03 57.1 15.96 56.96 15.72C56.85 15.51 56.85 15.3 57.1 15.16C57.34 15.06 57.55 15.13 57.69 15.37Z" fill="#FFFFFF" fill-opacity="1.000000" fill-rule="nonzero"/>
		<path id="Vector" d="M57.27 20.23C57.38 20.44 57.34 20.61 57.1 20.71C56.85 20.82 56.64 20.82 56.51 20.57C56.37 20.33 56.51 20.12 56.71 20.02C56.96 19.92 57.13 19.98 57.27 20.23Z" fill="#FFFFFF" fill-opacity="1.000000" fill-rule="nonzero"/>
		<path id="Vector" d="M55.74 15.37C55.88 15.61 55.81 15.82 55.6 15.92C55.39 16.06 55.15 15.99 55.04 15.79C54.94 15.58 54.9 15.33 55.15 15.23C55.39 15.06 55.6 15.16 55.74 15.37Z" fill="#FFFFFF" fill-opacity="1.000000" fill-rule="nonzero"/>
		<path id="Vector" d="M58.59 16.24C58.35 16.31 58.14 16.31 58.04 16.06C57.9 15.79 58.07 15.61 58.28 15.47C58.49 15.33 58.66 15.44 58.77 15.65C58.91 15.89 58.8 16.06 58.59 16.24Z" fill="#FFFFFF" fill-opacity="1.000000" fill-rule="nonzero"/>
		<path id="Vector" d="M56.12 17.83C56.23 18.04 56.19 18.25 55.98 18.35C55.77 18.46 55.57 18.49 55.39 18.28C55.25 18.04 55.29 17.83 55.53 17.69C55.77 17.56 55.98 17.66 56.12 17.83Z" fill="#FFFFFF" fill-opacity="1.000000" fill-rule="nonzero"/>
		<path id="Vector" d="M57.13 19.57C56.89 19.67 56.68 19.6 56.58 19.39C56.47 19.19 56.51 18.98 56.71 18.84C56.92 18.74 57.13 18.77 57.27 19.01C57.38 19.22 57.31 19.43 57.13 19.57Z" fill="#FFFFFF" fill-opacity="1.000000" fill-rule="nonzero"/>
		<path id="Vector" d="M57.97 16.48C58.04 16.69 58.04 16.86 57.79 17C57.58 17.1 57.38 17.07 57.24 16.86C57.1 16.65 57.17 16.41 57.38 16.31C57.58 16.2 57.83 16.27 57.97 16.48Z" fill="#FFFFFF" fill-opacity="1.000000" fill-rule="nonzero"/>
		<path id="Vector" d="M58.21 18.01C58.31 18.21 58.28 18.42 58.07 18.53C57.83 18.67 57.62 18.63 57.48 18.39C57.38 18.18 57.34 17.97 57.58 17.83C57.86 17.73 58.07 17.8 58.21 18.01Z" fill="#FFFFFF" fill-opacity="1.000000" fill-rule="nonzero"/>
		<path id="Vector" d="M54.73 18.87C54.49 18.98 54.31 18.94 54.17 18.74C54.07 18.53 54.07 18.35 54.28 18.21C54.49 18.08 54.7 18.08 54.84 18.32C54.97 18.53 54.94 18.74 54.73 18.87Z" fill="#FFFFFF" fill-opacity="1.000000" fill-rule="nonzero"/>
		<path id="Vector" d="M58.91 16.93C59.01 17.17 58.94 17.35 58.73 17.45C58.52 17.56 58.35 17.52 58.21 17.28C58.11 17.03 58.14 16.86 58.38 16.72C58.59 16.69 58.77 16.72 58.91 16.93Z" fill="#FFFFFF" fill-opacity="1.000000" fill-rule="nonzero"/>
		<path id="Vector" d="M58.31 19.36C58.38 19.57 58.42 19.78 58.18 19.88C57.97 19.98 57.76 19.98 57.65 19.78C57.55 19.57 57.58 19.33 57.79 19.19C58.04 19.05 58.21 19.15 58.31 19.36Z" fill="#FFFFFF" fill-opacity="1.000000" fill-rule="nonzero"/>
		<path id="Vector" d="M56.58 14.74C56.68 15.02 56.58 15.16 56.4 15.26C56.19 15.37 55.98 15.3 55.88 15.09C55.77 14.88 55.81 14.67 56.02 14.57C56.3 14.47 56.47 14.57 56.58 14.74Z" fill="#FFFFFF" fill-opacity="1.000000" fill-rule="nonzero"/>
		<path id="Vector" d="M54.35 15.89C54.45 16.1 54.38 16.31 54.17 16.38C53.97 16.48 53.76 16.44 53.65 16.24C53.55 16.03 53.58 15.82 53.79 15.72C54 15.61 54.21 15.68 54.35 15.89Z" fill="#FFFFFF" fill-opacity="1.000000" fill-rule="nonzero"/>
		<path id="Vector" d="M59.25 19.22C59.05 19.33 58.87 19.33 58.73 19.12C58.63 18.91 58.66 18.7 58.87 18.56C59.08 18.42 59.25 18.49 59.39 18.7C59.57 18.91 59.46 19.08 59.25 19.22Z" fill="#FFFFFF" fill-opacity="1.000000" fill-rule="nonzero"/>
		<path id="Vector" d="M54.35 17.31C54.42 17.52 54.38 17.73 54.17 17.83C53.97 17.94 53.79 17.83 53.69 17.62C53.58 17.42 53.62 17.24 53.83 17.14C54.03 17.03 54.24 17.03 54.35 17.31Z" fill="#FFFFFF" fill-opacity="1.000000" fill-rule="nonzero"/>
		<path id="Vector" d="M59.78 17.35C59.88 17.59 59.81 17.76 59.64 17.9C59.46 18.01 59.25 18.01 59.15 17.8C59.05 17.59 59.08 17.42 59.29 17.28C59.46 17.1 59.64 17.17 59.78 17.35Z" fill="#FFFFFF" fill-opacity="1.000000" fill-rule="nonzero"/>
		<path id="Vector" d="M54.21 19.39C54.42 19.29 54.63 19.33 54.73 19.5C54.87 19.67 54.8 19.88 54.63 19.98C54.42 20.12 54.24 20.09 54.1 19.88C54.03 19.71 54.03 19.5 54.21 19.39Z" fill="#FFFFFF" fill-opacity="1.000000" fill-rule="nonzero"/>
		<path id="Vector" d="M53.1 17.94C53.3 17.83 53.48 17.9 53.58 18.08C53.69 18.25 53.69 18.46 53.51 18.56C53.34 18.67 53.13 18.63 53.03 18.46C52.89 18.28 52.92 18.08 53.1 17.94Z" fill="#FFFFFF" fill-opacity="1.000000" fill-rule="nonzero"/>
		<path id="Vector" d="M53.41 17.28C53.23 17.35 53.06 17.35 52.96 17.14C52.89 16.97 52.89 16.79 53.06 16.69C53.23 16.58 53.41 16.62 53.51 16.76C53.65 16.97 53.58 17.14 53.41 17.28Z" fill="#FFFFFF" fill-opacity="1.000000" fill-rule="nonzero"/>
	</g>
</svg>
