<svg width="63.000000" height="94.000000" viewBox="0 0 63 94" fill="none" xmlns="http://www.w3.org/2000/svg" xmlns:xlink="http://www.w3.org/1999/xlink">
	<desc>
			Created with Pixso.
	</desc>
	<defs>
		<clipPath id="clip325_1880">
			<rect id="Frame" rx="0.000000" width="62.000000" height="93.000000" transform="translate(0.500000 0.500000)" fill="white" fill-opacity="0"/>
		</clipPath>
	</defs>
	<rect id="Frame" rx="0.000000" width="62.000000" height="93.000000" transform="translate(0.500000 0.500000)" fill="#FFFFFF" fill-opacity="0"/>
	<g clip-path="url(#clip325_1880)">
		<path id="Vector" d="M38.18 3.88C30.96 3.78 28.77 8.36 27.94 15.5C27.83 16.27 28.08 17.11 27.97 17.88C27.87 18.83 27.14 19.15 26.24 19.15C25.4 19.15 24.88 18.69 24.88 17.88C24.88 12.28 25.58 6.79 30.23 3.08C33.94 0.14 39.15 -1.02 43.35 1.01C48.56 3.64 49.91 9.66 50.5 14.56C50.67 16.03 51.92 18.79 49.28 19.01C47.79 18.79 47.97 17.74 47.51 14.8C46.61 9.34 45.5 5.18 41.02 4.16C39.95 3.85 38.87 3.95 38.18 3.88Z" fill="#DC4814" fill-opacity="1.000000" fill-rule="nonzero"/>
		<path id="Vector" d="M1.9 47.47C1.7 40.26 0.27 33.11 0.83 26.11C0.93 24.82 2.32 24.4 3.15 23.66C10.23 19.36 8.43 16.97 26.62 16.8C36.02 16.31 58.9 17.78 60.77 17.88C60.74 18.87 59.18 34.51 59 40.85C58.9 44.28 56.85 45.82 53.31 46.28C46.72 47.08 40.09 46.87 33.46 47.12C24.5 47.47 15.55 47.78 6.59 48.17C5.1 48.27 3.74 47.61 1.9 47.47Z" fill="#C7B06A" fill-opacity="1.000000" fill-rule="nonzero"/>
		<path id="Vector" d="M61.71 18.34C61.54 17.92 61.26 17.5 60.88 17.22C60.67 17.08 60.08 16.87 59.94 16.87C55.64 16.69 18.08 15.08 13.36 16.8C12.98 16.9 3.6 19.53 0.65 24.89C0.38 25.38 0.55 26.01 1.04 26.25C1.21 26.36 1.38 26.39 1.56 26.39C1.9 26.39 2.22 26.22 2.42 25.87C4.99 21.25 13.84 18.76 14.02 18.73C17.73 17.36 48.38 18.37 59.87 18.87C60.08 18.87 62.2 23.45 62.51 23.35C62.44 21.35 61.99 19.04 61.71 18.34Z" fill="#1F1C1C" fill-opacity="1.000000" fill-rule="nonzero"/>
		<path id="Vector" d="M39.39 27.44C39.53 23.14 39.43 15.78 35.19 11.65C33.98 10.39 31.44 9.97 29.67 10.01C22.56 10.15 19.33 12.7 17.45 19.95C17.04 21.63 16.62 23.38 16.86 25.17C17.04 26.36 16.41 27.02 15.16 27.06C13.95 27.09 13.43 26.53 13.29 25.31C12.8 19.6 16.93 8.82 24.15 6.89C29.88 5.35 35.09 5.35 39.36 10.53C41.37 13.4 41.96 16.83 42.38 20.44C42.55 21.84 42.72 23.24 42.93 24.61C43.31 26.95 41.96 27.93 39.39 27.44Z" fill="#DC4814" fill-opacity="1.000000" fill-rule="nonzero"/>
		<path id="Vector" d="M1.42 24.89C5.76 25.24 8.92 24.68 12.87 25.1C15.96 25.45 19.19 25.17 22.35 25.41C29.71 26.01 37.07 25.31 44.46 25.83C49.67 26.22 54.56 24.54 57.86 19.88C59.39 17.36 59.39 17.36 60.36 17.36C61.36 17.36 62.4 19.36 62.44 23.38C62.47 25.41 62.58 59.69 62.89 73.93C62.96 76.67 62.93 79.08 62.96 81.46C63 84.65 60.01 87.34 58.17 89.72C54.11 95.01 50.08 93.96 44.7 93.75C43.77 93.71 27.45 92.84 20.23 92.63C16.73 92.42 14.57 92.52 8.4 91.96C7.8 91.96 4.13 91.54 2.42 91.16C1.49 90.95 0.03 90.32 0 87.9C-0.11 82.51 -0.11 81.92 0.17 75.51C0.34 69.31 0.1 62.07 0.34 55.38C0.62 46.56 0.41 37.77 0.31 28.98C0.48 24.4 0.48 24.4 1.42 24.89Z" fill="#1F1C1C" fill-opacity="1.000000" fill-rule="nonzero"/>
		<path id="Vector" d="M49.08 59.44C48.97 72.74 40.64 83 25.92 82.3C15.44 81.81 6.21 72.29 6.66 61.37C7.28 45.54 15.65 38.26 28.74 38.05C40.81 37.88 49.11 46.35 49.08 59.44ZM28.01 79.01C38.7 80.03 45.57 70.5 45.92 61.19C46.44 46.73 39.22 41.97 28.7 41.66C18.01 41.34 9.47 49.36 9.71 60.95C9.99 72.29 15.75 78.45 28.01 79.01Z" fill="#FFFFFF" fill-opacity="1.000000" fill-rule="nonzero"/>
		<path id="Vector" d="M23.98 51.25C25.26 51.84 26.03 52.33 26.24 52.75C26.27 52.51 26.41 52.3 26.69 52.19C26.86 52.12 27.03 52.05 27.24 52.05L27.31 52.05C27.66 52.05 27.9 52.12 28.08 52.3L34.91 51.88C34.98 51.88 35.05 51.88 35.12 51.88C36.13 51.88 36.65 52.26 36.68 53.1C36.68 53.17 36.68 53.24 36.68 53.28L36.34 58.18C36.3 58.67 35.99 58.92 35.37 58.95C34.71 58.95 34.36 58.74 34.29 58.29L28.74 58.57C28.6 58.88 28.28 59.06 27.8 59.06C27.17 59.06 26.83 58.81 26.79 58.32L26.31 53.31C26.13 53.66 25.85 53.87 25.44 53.87C25.13 53.87 24.85 53.73 24.57 53.42C24.4 53.24 24.22 53.03 24.05 52.86L24.15 58.29C24.15 58.46 24.08 58.64 23.95 58.78C23.74 58.95 23.46 59.06 23.11 59.06C22.66 59.06 22.35 58.92 22.18 58.67C22.11 58.57 22.07 58.46 22.07 58.32L22 53.31C21.48 53.77 21 54.15 20.54 54.43C20.23 54.64 19.95 54.75 19.71 54.75C19.5 54.75 19.33 54.68 19.19 54.57C19.05 54.47 18.98 54.33 18.98 54.19C18.98 54.05 19.05 53.91 19.16 53.73C19.22 53.66 19.4 53.49 19.68 53.24C21.06 52.05 22.11 50.93 22.8 49.88C22.94 49.71 22.97 49.57 22.97 49.53C22.97 49.46 22.9 49.43 22.77 49.43C22.73 49.43 22.7 49.43 22.66 49.43L20.3 49.78C20.2 49.78 20.13 49.81 20.06 49.81C19.57 49.81 19.26 49.64 19.12 49.25C19.09 49.15 19.09 49.08 19.09 48.94C19.09 48.45 19.36 48.17 19.92 48.1L24.19 47.57C24.29 47.57 24.43 47.54 24.54 47.54C25.37 47.54 25.79 47.78 25.82 48.34C25.82 48.83 25.23 49.78 24.01 51.21L23.98 51.25ZM21.31 44.56C21.48 44.56 21.65 44.6 21.86 44.63C23.7 45.12 24.61 45.68 24.61 46.28C24.61 46.42 24.57 46.56 24.47 46.7C24.29 47.01 23.95 47.19 23.49 47.19C23.18 47.19 22.9 47.08 22.59 46.84C22.21 46.52 21.69 46.21 21.06 45.86C20.68 45.65 20.47 45.4 20.47 45.19C20.47 45.05 20.51 44.95 20.61 44.81C20.79 44.67 21 44.56 21.31 44.56ZM34.81 46.28L27.35 46.84L27.28 46.84C27.07 46.84 26.86 46.8 26.69 46.66C26.51 46.52 26.41 46.31 26.41 46.07C26.41 45.58 26.69 45.3 27.24 45.26L34.67 44.7C34.71 44.7 34.74 44.7 34.74 44.7C35.05 44.7 35.3 44.81 35.47 45.02C35.57 45.16 35.64 45.3 35.64 45.47C35.64 45.79 35.5 46 35.26 46.17C35.12 46.24 34.98 46.28 34.81 46.28ZM34.95 49.71C35.19 49.81 35.3 49.99 35.3 50.23C35.3 50.65 35.05 50.9 34.53 50.93L29.29 51.28C29.12 51.49 28.77 51.6 28.28 51.63C27.73 51.63 27.45 51.42 27.38 50.97L27 48.34C27 48.31 27 48.24 27 48.2C27 47.68 27.35 47.43 28.04 47.4C28.35 47.4 28.56 47.47 28.77 47.61L33.63 47.22C33.8 47.22 33.91 47.19 33.98 47.19C34.88 47.19 35.33 47.47 35.33 48.03C35.33 48.17 35.3 48.34 35.26 48.52L34.95 49.71ZM30.44 54.57L30.44 53.52L28.39 53.66L28.49 54.68L30.44 54.57ZM30.47 55.87L28.6 55.97L28.7 57.1L30.51 56.99L30.47 55.87ZM33.04 49.71L33.18 48.9C33.18 48.87 33.18 48.87 33.18 48.83C33.18 48.66 33.07 48.59 32.8 48.59L29.12 48.9L29.29 49.99L33.04 49.71ZM32.31 54.43L34.5 54.29L34.53 53.59C34.53 53.35 34.43 53.24 34.19 53.24C34.15 53.24 34.15 53.24 34.15 53.24L34.12 53.24L32.31 53.38L32.31 54.43ZM32.35 56.92L34.32 56.82L34.39 55.62L32.31 55.76L32.35 56.92Z" fill="#FFFFFF" fill-opacity="1.000000" fill-rule="nonzero"/>
		<path id="Vector" d="M24.15 63.33L24.22 67.42C24.22 67.6 24.15 67.77 24.01 67.91C23.81 68.09 23.49 68.19 23.15 68.19C22.7 68.19 22.38 68.09 22.18 67.81C22.11 67.7 22.07 67.6 22.07 67.46L22.04 64.94C21.55 65.25 21.13 65.5 20.79 65.67C20.51 65.81 20.27 65.88 20.06 65.88C19.81 65.88 19.64 65.81 19.47 65.67C19.33 65.53 19.26 65.43 19.26 65.25C19.26 65.08 19.33 64.9 19.54 64.73C19.57 64.69 19.71 64.59 19.95 64.41C21.06 63.64 22.24 62.56 23.49 61.19C23.77 60.88 24.12 60.7 24.5 60.7C24.74 60.7 24.99 60.77 25.2 60.88C25.47 61.02 25.58 61.23 25.61 61.51C25.61 61.72 25.51 61.96 25.33 62.21C25.13 62.49 24.78 62.8 24.33 63.22L24.15 63.33ZM28.39 69.77C28.39 69.98 28.25 70.19 28.04 70.36C27.73 70.61 27.1 70.96 26.17 71.41L26.2 73.41C26.69 73.34 27.45 73.09 28.53 72.74C28.77 72.67 29.01 72.6 29.19 72.6C29.46 72.6 29.67 72.67 29.81 72.88C29.88 72.99 29.92 73.13 29.92 73.27C29.92 73.51 29.67 73.76 29.19 73.97C28.11 74.42 27 74.81 25.92 75.09C25.54 75.19 25.23 75.26 25.06 75.26C24.85 75.26 24.6 75.16 24.33 74.95C24.08 74.77 23.98 74.49 23.98 74.18L23.95 72.39C22.94 72.81 21.9 73.16 20.86 73.48C20.61 73.55 20.44 73.58 20.27 73.58C19.78 73.58 19.5 73.37 19.5 72.92C19.5 72.71 19.61 72.53 19.88 72.39C19.95 72.36 20.34 72.22 21.06 71.97C22.14 71.59 23.6 70.92 25.44 69.98L21.34 70.26C21.13 70.26 20.93 70.26 20.79 70.19C20.51 70.05 20.37 69.84 20.37 69.56C20.37 69.24 20.51 69 20.79 68.86C20.89 68.79 21.03 68.75 21.2 68.75L26.9 68.37L26.86 67.25C26.86 66.72 27.24 66.44 28.04 66.44C28.8 66.44 29.19 66.69 29.19 67.21L29.19 68.23L34.39 67.88C34.43 67.88 34.46 67.88 34.46 67.88C34.64 67.88 34.81 67.91 34.98 67.98C35.23 68.12 35.37 68.3 35.37 68.58C35.37 68.89 35.23 69.1 34.98 69.24C34.84 69.31 34.71 69.35 34.57 69.38L28.39 69.77ZM30.44 62.59L33.04 62.28C33.07 62.28 33.11 62.28 33.18 62.28C33.49 62.28 33.73 62.38 33.91 62.59C34.01 62.73 34.05 62.87 34.05 63.05C34.05 63.5 33.8 63.75 33.28 63.82L31.48 64.06C32.17 64.76 33.04 65.32 34.12 65.67C34.39 65.78 34.6 65.81 34.74 65.81C34.91 65.81 35.02 65.74 35.09 65.6C35.16 65.43 35.23 65.15 35.3 64.8C35.33 64.45 35.57 64.27 35.96 64.27C36.34 64.27 36.55 64.41 36.65 64.73C36.72 64.94 36.75 65.29 36.75 65.85C36.75 66.37 36.72 66.72 36.61 66.93C36.44 67.35 36.02 67.56 35.4 67.56C34.46 67.56 33.39 67.28 32.14 66.69C30.89 66.09 29.88 65.32 29.19 64.34L25.92 64.76C25.85 64.76 25.82 64.76 25.79 64.76C25.54 64.76 25.37 64.73 25.2 64.59C24.99 64.45 24.88 64.24 24.85 63.96C24.85 63.5 25.13 63.26 25.68 63.19L28.18 62.87C27.69 61.89 27.42 61.26 27.42 61.02C27.42 60.67 27.62 60.46 28.01 60.32C28.15 60.28 28.28 60.25 28.46 60.25C28.91 60.25 29.22 60.39 29.43 60.74C29.46 60.81 29.53 60.91 29.6 61.12C29.88 61.54 30.12 62.03 30.44 62.59ZM31.1 71.31C31.89 70.82 32.59 70.33 33.14 69.84C33.39 69.63 33.63 69.52 33.91 69.52C34.15 69.52 34.39 69.59 34.6 69.73C34.91 69.94 35.09 70.15 35.09 70.43C35.09 70.75 34.88 70.99 34.5 71.2C34.01 71.45 33.39 71.73 32.55 72.01C33.94 72.6 35.33 73.02 36.68 73.34C37.17 73.44 37.41 73.58 37.41 73.79C37.41 73.97 37.17 74.11 36.72 74.21C35.57 74.49 34.81 74.63 34.39 74.63C34.15 74.63 33.87 74.6 33.63 74.49C32.69 74.11 31.69 73.55 30.58 72.85C29.64 72.25 28.91 71.73 28.39 71.27C28.21 71.1 28.11 70.92 28.11 70.78C28.11 70.61 28.18 70.47 28.32 70.36C28.49 70.22 28.67 70.15 28.84 70.15C29.05 70.15 29.29 70.26 29.6 70.47C30.16 70.78 30.64 71.06 31.1 71.31ZM33.53 60.28C33.91 60.28 34.5 60.53 35.33 61.05C35.99 61.44 36.3 61.82 36.3 62.17C36.3 62.42 36.2 62.59 35.96 62.77C35.75 62.91 35.5 63.01 35.26 63.01C34.91 63.01 34.57 62.84 34.29 62.49C34.08 62.21 33.7 61.86 33.14 61.37C32.94 61.19 32.83 60.98 32.8 60.81C32.8 60.67 32.87 60.53 33 60.39C33.14 60.35 33.32 60.28 33.53 60.28Z" fill="#FFFFFF" fill-opacity="1.000000" fill-rule="nonzero"/>
	</g>
</svg>
