<svg width="20.000000" height="20.000000" viewBox="0 0 20 20" fill="none" xmlns="http://www.w3.org/2000/svg"
     xmlns:xlink="http://www.w3.org/1999/xlink">
    <rect id="carbon:trash-can" rx="0.000000" width="19.000000" height="19.000000"
          transform="translate(0.500000 0.500000)" fill="#FFFFFF" fill-opacity="0"/>
    <g clip-path="url(#clip325_4762)">
        <path id="Vector" d="M7.5 7.5L8.75 7.5L8.75 15L7.5 15L7.5 7.5Z" fill="#97A3A6" fill-opacity="1.000000"
              fill-rule="nonzero"/>
        <path id="Vector" d="M11.25 7.5L12.5 7.5L12.5 15L11.25 15L11.25 7.5Z" fill="#97A3A6" fill-opacity="1.000000"
              fill-rule="nonzero"/>
        <path id="Vector"
              d="M2.5 3.75L2.5 5L3.75 5L3.75 17.5C3.75 17.83 3.88 18.14 4.11 18.38C4.35 18.61 4.66 18.75 5 18.75L15 18.75C15.33 18.75 15.64 18.61 15.88 18.38C16.11 18.14 16.25 17.83 16.25 17.5L16.25 5L17.5 5L17.5 3.75L2.5 3.75ZM5 17.5L5 5L15 5L15 17.5L5 17.5Z"
              fill="#97A3A6" fill-opacity="1.000000" fill-rule="nonzero"/>
        <path id="Vector" d="M7.5 1.25L12.5 1.25L12.5 2.5L7.5 2.5L7.5 1.25Z" fill="#97A3A6" fill-opacity="1.000000"
              fill-rule="nonzero"/>
    </g>
</svg>
