<svg width="97.000000" height="84.000000" viewBox="0 0 97 84" fill="none" xmlns="http://www.w3.org/2000/svg" xmlns:xlink="http://www.w3.org/1999/xlink">
	<desc>
			Created with Pixso.
	</desc>
	<defs>
		<filter id="filter_325_2105_dd" x="0.000000" y="0.000000" width="97.000000" height="84.000000" filterUnits="userSpaceOnUse" color-interpolation-filters="sRGB">
			<feFlood flood-opacity="0" result="BackgroundImageFix"/>
			<feColorMatrix in="SourceAlpha" type="matrix" values="0 0 0 0 0 0 0 0 0 0 0 0 0 0 0 0 0 0 127 0" result="hardAlpha"/>
			<feOffset dx="0" dy="4"/>
			<feGaussianBlur stdDeviation="1.33333"/>
			<feComposite in2="hardAlpha" operator="out" k2="-1" k3="1"/>
			<feColorMatrix type="matrix" values="0 0 0 0 0 0 0 0 0 0 0 0 0 0 0 0 0 0 0.25 0"/>
			<feBlend mode="normal" in2="BackgroundImageFix" result="effect_dropShadow_1"/>
			<feBlend mode="normal" in="SourceGraphic" in2="effect_dropShadow_1" result="shape"/>
		</filter>
		<clipPath id="clip325_2105">
			<rect id="Frame" rx="0.000000" width="88.000000" height="75.000000" transform="translate(4.500000 0.500000)" fill="white" fill-opacity="0"/>
		</clipPath>
	</defs>
	<g filter="url(#filter_325_2105_dd)">
		<rect id="Frame" rx="0.000000" width="88.000000" height="75.000000" transform="translate(4.500000 0.500000)" fill="#FFFFFF" fill-opacity="0"/>
		<g clip-path="url(#clip325_2105)">
			<path id="Vector" d="M27.29 9.34C26.94 10.1 25.88 10.79 26.44 11.74C26.82 12.38 27.86 12.63 28.67 12.85C33.77 14.12 31.69 5.89 30.78 4.05C30.21 2.94 29.37 1.42 28.17 0.57C26.79 -0.42 26.72 1.86 26.98 2.59C28.23 6.52 28.08 7.66 27.29 9.34Z" fill="#C7B06A" fill-opacity="1.000000" fill-rule="nonzero"/>
			<path id="Vector" d="M87.71 25.17C81.36 17.29 67.44 16.75 53.98 18.55C49.3 19.18 48.54 18.11 46.69 14.78C44.36 10.64 38.67 7.12 34.05 6.23C30.03 5.44 25.97 6.17 21.98 6.87C19.9 7.21 17.83 7.56 15.72 7.66C14.65 7.72 13.55 7.69 12.48 7.63C10.85 7.5 9.28 7.94 8.24 10.38C6.45 14.56 3.15 19.79 5.32 23.33C9.62 30.4 13.71 31.79 17.39 36.19C23.83 43.89 26.35 53.67 28.17 59.59C29.81 64.94 34.33 72.04 37.44 74.82C38.29 75.58 39.43 76 40.59 76L51.15 76C52.47 76 53.57 74.92 53.54 73.56C53.54 69.57 53.73 65.48 59.45 65.48C65.58 65.48 65.93 69.6 66.02 73.59C66.05 74.92 67.12 75.96 68.41 75.96L78.31 75.96C79.57 75.96 80.73 75.33 81.39 74.29C85.36 68.17 88.28 60.76 90.67 54.08C94.72 42.71 93.4 32.26 87.71 25.17Z" fill="#1F1C1C" fill-opacity="1.000000" fill-rule="nonzero"/>
			<path id="Vector" d="M33.64 8.99C33.39 9.78 32.45 10.6 33.14 11.46C33.61 12.03 34.68 12.19 35.5 12.28C40.75 12.95 37.48 5.03 36.28 3.32C35.56 2.28 34.52 0.85 33.17 0.15C31.66 -0.64 31.94 1.61 32.29 2.31C34.14 6.08 34.18 7.25 33.64 8.99Z" fill="#C7B06A" fill-opacity="1.000000" fill-rule="nonzero"/>
			<path id="Vector" d="M14.37 7.82C14.4 7.75 14.4 7.69 14.4 7.63C13.77 7.63 13.14 7.6 12.51 7.56C10.88 7.44 9.09 7.53 8.05 9.62C4.78 16.05 2.39 19.57 5.32 23.33C9.37 21.05 12.61 14.4 14.37 7.82Z" fill="#C7B06A" fill-opacity="1.000000" fill-rule="nonzero"/>
			<path id="Vector" d="M76.02 18.65C79.32 28.65 78.06 49.52 77.78 53.7C77.75 54.15 77.4 54.46 76.99 54.49C71.24 54.87 56.62 54.78 52.85 54.75C52.35 54.75 51.97 54.34 52 53.83C52.72 43.09 53.01 30.68 51.97 18.71C64.1 16.27 75.99 18.52 76.02 18.65Z" fill="#C7B06A" fill-opacity="1.000000" fill-rule="nonzero"/>
			<path id="Vector" d="M56.02 51.93C58.92 51.96 69.54 52.09 73.82 51.74C74.16 51.71 74.45 51.42 74.48 51.07C74.67 47.37 75.58 27.86 73.19 18.14C69.51 17.67 62.63 17.13 55.24 18.14C55.99 29.41 55.84 41.07 55.3 51.17C55.3 51.58 55.62 51.93 56.02 51.93Z" fill="#DC4814" fill-opacity="1.000000" fill-rule="nonzero"/>
			<path id="Vector" d="M92.15 42.94C91.77 42.84 91.39 43.09 91.3 43.47C90.51 47.02 87.56 52.78 85.14 55.16C84 54.53 82.18 55.79 81.39 56.52C80.45 57.38 79.51 58.23 78.53 59.09C79.19 59.12 79.85 59.09 80.48 59.05C79.23 60.48 77.65 61.59 75.92 62.28C77.24 62.89 78.79 62.95 80.17 62.57C81.58 62.19 82.84 61.4 83.88 60.38C84.7 59.59 86.08 57.79 85.89 56.39C88.63 53.86 91.8 47.65 92.65 43.82C92.77 43.41 92.52 43.03 92.15 42.94Z" fill="#C7B06A" fill-opacity="1.000000" fill-rule="nonzero"/>
			<path id="Vector" d="M38.7 23.56C36.28 23.56 33.92 22.86 32.82 20.86C32.7 20.64 32.79 20.36 33.01 20.23C33.23 20.1 33.51 20.2 33.64 20.42C35.12 23.18 40.02 22.95 43.04 21.88C42.91 20.29 42.32 17.48 39.93 16.11C38.61 15.35 36.53 14.85 35.09 15.32C34.84 15.42 34.58 15.26 34.49 15.01C34.4 14.75 34.55 14.5 34.8 14.4C36.6 13.8 38.99 14.44 40.43 15.26C42.47 16.43 43.76 18.74 44.05 21.75C44.08 22.19 43.83 22.61 43.42 22.76C42.1 23.21 40.4 23.56 38.7 23.56Z" fill="#C7B06A" fill-opacity="1.000000" fill-rule="nonzero"/>
			<path id="Vector" d="M40.9 20.55C41.09 20.48 41.19 20.29 41.15 20.1C40.46 17.16 35.37 15.16 34.49 17.51C33.36 20.39 39.3 21.18 40.9 20.55Z" fill="#C7B06A" fill-opacity="1.000000" fill-rule="nonzero"/>
			<path id="Vector" d="M7.89 18.52C7.77 18.39 7.58 18.36 7.39 18.36C7.3 18.36 7.23 18.39 7.14 18.43C7.08 18.43 7.04 18.46 6.98 18.46C6.79 18.49 6.6 18.46 6.45 18.39C6.2 18.3 6.01 18.08 5.79 17.86C5.72 17.79 5.66 17.7 5.63 17.6C5.54 17.44 5.47 17.29 5.32 17.19C5.25 17.16 5.19 17.16 5.13 17.19C5.06 17.22 5.03 17.29 5.03 17.38C5.03 17.44 5.06 17.54 5.06 17.6L5.06 17.73C5.13 18.36 5.47 18.93 5.94 19.31C6.23 19.53 6.57 19.66 6.92 19.66C6.98 19.66 7.04 19.66 7.11 19.66C7.2 19.66 7.26 19.63 7.36 19.63C7.55 19.6 7.96 19.37 8.05 19.03C8.08 18.84 8.05 18.68 7.89 18.52Z" fill="#1F1C1C" fill-opacity="1.000000" fill-rule="nonzero"/>
			<path id="Vector" d="M10.16 9.75C10.28 9.81 10.41 9.88 10.47 10.1C10.57 10.41 10.25 10.67 10.06 10.76C9.78 10.89 9.56 10.86 9.15 10.73C8.96 10.67 8.81 10.48 8.9 10.29C9.18 9.72 9.59 9.46 10.16 9.75Z" fill="#1F1C1C" fill-opacity="1.000000" fill-rule="nonzero"/>
			<path id="Vector" d="M21.03 13.61C20.59 14.34 19.81 14.56 19.24 14.09C18.68 13.64 18.58 12.69 19.02 12C19.46 11.3 20.25 11.05 20.81 11.52C21.38 11.97 21.47 12.88 21.03 13.61Z" fill="#FFFFFF" fill-opacity="1.000000" fill-rule="nonzero"/>
			<path id="Vector" d="M53.42 14.75C53.07 15.23 52.72 15.67 52.35 16.15C52.35 16.15 52.35 16.15 52.35 16.18L52.94 17.13L53.45 17.92C53.92 17.6 54.39 17.32 54.83 16.97L54.42 16.34L53.42 14.75Z" fill="#DC4814" fill-opacity="1.000000" fill-rule="nonzero"/>
			<path id="Vector" d="M49.83 12.25C49.83 11.3 49.89 10.38 50.02 9.46L49.3 8.35L47.1 4.9C46.97 5.76 46.94 6.61 46.97 7.47C46.97 7.56 46.97 7.69 46.97 7.78L47.82 9.15L49.83 12.25Z" fill="#DC4814" fill-opacity="1.000000" fill-rule="nonzero"/>
			<path id="Vector" d="M51.12 17.35C50.84 17.6 50.55 17.86 50.27 18.11C50.18 17.67 50.08 17.32 50.05 16.97C50.02 16.49 49.99 16.02 49.96 15.54L47.16 11.21C47.28 12.41 47.44 13.58 47.72 14.78C47.79 15 47.82 15.23 47.88 15.45L49.96 18.71L50.46 19.5C50.9 19.28 51.37 19.06 51.81 18.84C51.87 18.8 51.91 18.77 51.97 18.74L51.43 17.92L51.12 17.35Z" fill="#DC4814" fill-opacity="1.000000" fill-rule="nonzero"/>
			<path id="Vector" d="M49.83 13.23C49.83 12.92 49.83 12.6 49.83 12.28L47.82 9.18L46.97 7.82C47 8.96 47.06 10.1 47.16 11.24L49.96 15.58C49.89 14.78 49.86 13.99 49.83 13.23Z" fill="#FFFFFF" fill-opacity="1.000000" fill-rule="nonzero"/>
			<path id="Vector" d="M52.31 16.15C51.94 16.56 51.53 16.97 51.12 17.38L51.47 17.89L52 18.71C52.5 18.46 52.97 18.14 53.45 17.86L52.94 17.06L52.31 16.15Z" fill="#FFFFFF" fill-opacity="1.000000" fill-rule="nonzero"/>
			<path id="Vector" d="M47.88 15.45C48.23 16.84 48.67 18.24 49.45 19.5C49.67 19.85 49.67 19.85 50.05 19.66C50.18 19.6 50.33 19.53 50.46 19.47L49.96 18.68L47.88 15.45Z" fill="#FFFFFF" fill-opacity="1.000000" fill-rule="nonzero"/>
			<path id="Vector" d="M56.09 15.83C56.53 15.45 56.94 15.07 57.31 14.66L55.43 11.74C55.33 11.87 55.27 12 55.21 12.16C54.96 12.54 54.7 12.92 54.45 13.3L55.87 15.48L56.09 15.83Z" fill="#DC4814" fill-opacity="1.000000" fill-rule="nonzero"/>
			<path id="Vector" d="M57.31 14.69C57.72 14.28 58.1 13.83 58.48 13.42L56.37 10.13C56.09 10.7 55.77 11.24 55.43 11.78L57.31 14.69Z" fill="#FFFFFF" fill-opacity="1.000000" fill-rule="nonzero"/>
			<path id="Vector" d="M55.84 15.48L54.42 13.3C54.08 13.8 53.73 14.28 53.38 14.75L54.36 16.27L54.77 16.91C55.08 16.65 55.4 16.4 55.71 16.15C55.84 16.05 55.93 15.92 56.06 15.83L55.84 15.48Z" fill="#FFFFFF" fill-opacity="1.000000" fill-rule="nonzero"/>
			<path id="Vector" d="M59.61 12.03L57.22 8.29C57.22 8.32 57.19 8.35 57.19 8.39C56.97 8.96 56.68 9.53 56.4 10.06L58.51 13.36C58.89 12.95 59.23 12.5 59.61 12.03Z" fill="#DC4814" fill-opacity="1.000000" fill-rule="nonzero"/>
			<path id="Vector" d="M50.02 9.46C50.11 8.67 50.27 7.85 50.46 7.09L47.79 2.94C47.69 2.94 47.6 2.91 47.5 2.91C47.47 3.03 47.44 3.1 47.41 3.16C47.25 3.73 47.16 4.33 47.06 4.94L49.27 8.39L50.02 9.46Z" fill="#FFFFFF" fill-opacity="1.000000" fill-rule="nonzero"/>
			<path id="Vector" d="M51.09 3.86C50.77 3.76 50.49 3.67 50.18 3.57C49.67 3.41 49.17 3.22 48.64 3.1C48.35 3 48.07 2.97 47.76 2.94L50.43 7.09C50.62 6.39 50.81 5.7 51.09 5C51.18 4.78 51.25 4.56 51.34 4.33C51.47 4.05 51.43 3.95 51.09 3.86Z" fill="#DC4814" fill-opacity="1.000000" fill-rule="nonzero"/>
			<path id="Vector" d="M60.65 10.6L57.94 6.39C57.69 7.03 57.44 7.69 57.19 8.32L59.58 12.06C59.95 11.59 60.3 11.08 60.65 10.6Z" fill="#FFFFFF" fill-opacity="1.000000" fill-rule="nonzero"/>
			<path id="Vector" d="M62.56 5.92C62.22 5.85 61.87 5.79 61.49 5.73C60.74 5.6 59.99 5.44 59.23 5.32C58.98 5.28 58.76 5.22 58.51 5.19C58.26 5.16 58.13 5.22 58.13 5.51C58.13 5.76 58.07 6.01 57.97 6.27C57.94 6.33 57.94 6.36 57.91 6.42L60.61 10.64C60.96 10.13 61.31 9.62 61.62 9.12L61.65 9.08C61.97 8.54 62.25 7.94 62.5 7.37C62.63 7.12 62.72 6.83 62.85 6.58C63 6.2 62.88 5.98 62.56 5.92Z" fill="#DC4814" fill-opacity="1.000000" fill-rule="nonzero"/>
			<path id="Vector" d="M27.54 39.2L28.71 43.25C29.59 42.93 30.43 42.55 31.25 42.17L30.09 38.09C29.27 38.47 28.42 38.85 27.54 39.2Z" fill="#DC4814" fill-opacity="1.000000" fill-rule="nonzero"/>
			<path id="Vector" d="M22.39 40.97L23.49 44.84C24.4 44.61 25.28 44.39 26.13 44.14L25 40.18C24.15 40.43 23.27 40.72 22.39 40.97Z" fill="#DC4814" fill-opacity="1.000000" fill-rule="nonzero"/>
			<path id="Vector" d="M25 40.15L26.13 44.11C27.01 43.85 27.89 43.54 28.71 43.22L27.54 39.17C26.72 39.55 25.88 39.86 25 40.15Z" fill="#FFFFFF" fill-opacity="1.000000" fill-rule="nonzero"/>
			<path id="Vector" d="M20.94 41.35L22.76 44.99C23.01 44.93 23.27 44.87 23.52 44.84L22.42 40.97C21.91 41.1 21.41 41.23 20.94 41.35Z" fill="#FFFFFF" fill-opacity="1.000000" fill-rule="nonzero"/>
			<path id="Vector" d="M32.54 36.79L33.74 40.94C34.58 40.47 35.37 39.99 36.16 39.48L34.96 35.27C34.18 35.78 33.39 36.29 32.54 36.79Z" fill="#DC4814" fill-opacity="1.000000" fill-rule="nonzero"/>
			<path id="Vector" d="M34.96 35.27L36.16 39.48C36.97 38.95 37.76 38.37 38.51 37.8L37.29 33.5C36.56 34.1 35.78 34.7 34.96 35.27Z" fill="#FFFFFF" fill-opacity="1.000000" fill-rule="nonzero"/>
			<path id="Vector" d="M30.09 38.09L31.25 42.18C32.1 41.8 32.92 41.35 33.74 40.91L32.54 36.76C31.75 37.24 30.94 37.68 30.09 38.09Z" fill="#FFFFFF" fill-opacity="1.000000" fill-rule="nonzero"/>
			<path id="Vector" d="M39.55 31.44C38.83 32.14 38.1 32.83 37.29 33.5L38.51 37.81C39.3 37.2 40.09 36.57 40.81 35.91L39.9 32.71L39.55 31.44Z" fill="#DC4814" fill-opacity="1.000000" fill-rule="nonzero"/>
			<path id="Vector" d="M43.04 33.72C43.8 32.9 44.52 32.07 45.18 31.25L45.18 31.22L43.8 26.34C43.17 27.29 42.47 28.21 41.75 29.1L42.57 31.98L43.04 33.72Z" fill="#DC4814" fill-opacity="1.000000" fill-rule="nonzero"/>
			<path id="Vector" d="M45.15 31.25C45.9 30.3 46.56 29.35 47.16 28.4L45.68 23.18C45.08 24.25 44.42 25.3 43.73 26.34L45.12 31.22L45.15 31.25Z" fill="#FFFFFF" fill-opacity="1.000000" fill-rule="nonzero"/>
			<path id="Vector" d="M42.54 31.95L41.72 29.07C41.03 29.89 40.34 30.68 39.55 31.44L39.93 32.71L40.84 35.91C41.63 35.21 42.35 34.48 43.07 33.72L42.54 31.95Z" fill="#FFFFFF" fill-opacity="1.000000" fill-rule="nonzero"/>
			<path id="Vector" d="M49.08 25.01L47.54 19.57C46.97 20.8 46.37 22 45.71 23.18L47.19 28.4C47.91 27.26 48.51 26.12 49.08 25.01Z" fill="#DC4814" fill-opacity="1.000000" fill-rule="nonzero"/>
			<path id="Vector" d="M51.25 18.55C51.25 18.55 50.59 18.27 49.89 17.95L50.71 20.8C50.93 20.04 51.12 19.28 51.25 18.55Z" fill="#DC4814" fill-opacity="1.000000" fill-rule="nonzero"/>
			<path id="Vector" d="M50.71 20.8L49.89 17.95C49.33 17.7 48.73 17.38 48.54 17.19C48.2 17.98 47.88 18.77 47.5 19.57L49.05 25.01C49.77 23.59 50.3 22.16 50.71 20.8Z" fill="#FFFFFF" fill-opacity="1.000000" fill-rule="nonzero"/>
			<path id="Vector" d="M69.13 27.55C68.57 27.61 68.06 27.51 67.59 27.32C67.37 27.23 67.22 27.1 67.03 26.98C66.93 26.91 66.81 26.82 66.68 26.75L67.15 25.65L66.59 25.39L66.12 26.47C66.05 26.44 66.02 26.44 65.96 26.41C65.49 26.25 65.11 26.15 64.76 26.18C64.45 26.18 64.17 26.28 63.95 26.37L63.41 25.23L62.85 25.49L63.38 26.63C63.16 26.75 62.97 26.88 62.81 26.94C62.75 27.01 62.66 27.04 62.63 27.07C62.06 27.39 61.37 27.55 60.61 27.55C60.46 27.55 60.3 27.67 60.3 27.86C60.3 28.02 60.43 28.18 60.61 28.18C61.46 28.18 62.25 27.99 62.91 27.64C62.97 27.61 63.07 27.55 63.16 27.48C63.32 27.36 63.54 27.23 63.82 27.1C64.1 26.98 64.42 26.85 64.76 26.82C65.08 26.82 65.46 26.91 65.71 27.01C66.15 27.17 66.37 27.32 66.62 27.51C66.81 27.64 67 27.77 67.31 27.89C67.75 28.08 68.22 28.18 68.76 28.18C68.88 28.18 69.01 28.18 69.13 28.15C69.29 28.15 69.42 27.99 69.42 27.8C69.45 27.67 69.29 27.55 69.13 27.55Z" fill="#FFFFFF" fill-opacity="1.000000" fill-rule="nonzero"/>
			<path id="Vector" d="M68 26.03C68.41 25.99 68.82 25.84 69.13 25.58C69.32 25.46 69.48 25.3 69.54 25.11C69.61 24.95 69.64 24.79 69.61 24.6C69.57 24.13 69.2 23.37 68.44 23.11C67.53 22.83 66.93 23.3 66.93 23.3C67.15 23.14 67 22.23 66.49 21.72C65.93 21.12 64.98 21.15 64.42 21.34C63.92 21.5 63.48 21.85 63.29 22.16C63.04 22.61 63.07 23.05 63.07 23.05C63.07 23.27 63 23.3 63.07 23.37L63.1 23.4C63.1 23.4 62.94 23.24 62.63 23.14C62.44 23.08 62.19 23.05 62.03 23.05C61.93 23.05 61.71 23.05 61.46 23.18C61.34 23.24 61.21 23.3 61.18 23.37C61.18 23.37 61.12 23.43 61.05 23.46C60.9 23.59 60.77 23.78 60.68 23.94C60.58 24.13 60.33 24.7 60.58 25.27C60.74 25.65 61.05 25.84 61.15 25.9C61.4 26.03 61.62 26.06 61.75 26.09C62.28 25.8 63.16 25.42 64.32 25.33C66.12 25.14 67.44 25.74 68 26.03Z" fill="#1F1C1C" fill-opacity="1.000000" fill-rule="nonzero"/>
			<path id="Vector" d="M67.78 25.3C67.72 25.3 67.69 25.27 67.66 25.23C67.62 25.17 67.62 25.08 67.72 25.04L68.69 24.44C68.76 24.41 68.85 24.41 68.88 24.51C68.91 24.57 68.91 24.66 68.82 24.7L67.84 25.3C67.84 25.27 67.81 25.3 67.78 25.3Z" fill="#C7B06A" fill-opacity="1.000000" fill-rule="nonzero"/>
			<path id="Vector" d="M62.34 25.33C62.31 25.33 62.28 25.33 62.25 25.3L61.27 24.66C61.21 24.63 61.18 24.54 61.24 24.47C61.27 24.41 61.37 24.38 61.43 24.44L62.41 25.08C62.47 25.11 62.5 25.2 62.44 25.27C62.44 25.3 62.41 25.33 62.34 25.33Z" fill="#C7B06A" fill-opacity="1.000000" fill-rule="nonzero"/>
			<path id="Vector" d="M66.08 22.83C66.02 22.76 65.93 22.8 65.86 22.86L65.24 23.65L65.2 22.42C65.2 22.32 65.14 22.29 65.05 22.26C64.95 22.26 64.89 22.32 64.89 22.42L64.92 23.65L64.17 22.83C64.1 22.76 64.01 22.76 63.95 22.83C63.88 22.89 63.88 22.99 63.95 23.05L64.92 24.09L64.92 24.47C64.92 24.57 64.98 24.63 65.08 24.63C65.17 24.63 65.24 24.57 65.24 24.47L65.24 24.09C65.24 24.09 65.27 24.09 65.27 24.06L66.08 23.02C66.15 22.95 66.15 22.86 66.08 22.83Z" fill="#C7B06A" fill-opacity="1.000000" fill-rule="nonzero"/>
			<path id="Vector" d="M67 24.82C66.96 24.82 66.9 24.79 66.9 24.76C66.84 24.7 66.84 24.6 66.9 24.54L68.06 23.49C68.13 23.43 68.22 23.43 68.29 23.49C68.35 23.56 68.35 23.65 68.29 23.71L67.12 24.76C67.09 24.82 67.03 24.82 67 24.82Z" fill="#C7B06A" fill-opacity="1.000000" fill-rule="nonzero"/>
			<path id="Vector" d="M62.94 24.79C62.91 24.79 62.88 24.79 62.85 24.76L61.81 23.94C61.75 23.87 61.75 23.78 61.78 23.71C61.84 23.65 61.93 23.65 62 23.68L63.03 24.51C63.1 24.57 63.1 24.66 63.07 24.73C63.03 24.76 62.97 24.79 62.94 24.79Z" fill="#C7B06A" fill-opacity="1.000000" fill-rule="nonzero"/>
			<path id="Vector" d="M69.79 36.19C69.76 36.51 69.51 36.92 69.26 36.89C68.79 36.79 68.57 36.66 68.57 36.16C68.57 35.87 68.82 35.62 69.13 35.62C69.51 35.62 69.79 35.87 69.79 36.19Z" fill="#C7B06A" fill-opacity="1.000000" fill-rule="nonzero"/>
			<path id="Vector" d="M71.37 34.99C71.33 35.3 71.08 35.72 70.83 35.68C70.36 35.59 70.14 35.46 70.14 34.96C70.14 34.67 70.39 34.42 70.71 34.42C71.08 34.45 71.37 34.67 71.37 34.99Z" fill="#C7B06A" fill-opacity="1.000000" fill-rule="nonzero"/>
			<path id="Vector" d="M71.71 36.19C72.03 36.16 72.28 36.35 72.31 36.66C72.34 36.98 72.12 37.36 71.87 37.39C71.49 37.42 71.11 37.14 71.11 36.76C71.11 36.63 71.27 36.48 71.33 36.35C71.43 36.19 71.59 36.19 71.71 36.19Z" fill="#C7B06A" fill-opacity="1.000000" fill-rule="nonzero"/>
			<path id="Vector" d="M70.49 38.15C70.49 38.12 70.61 37.84 70.89 37.77C71.08 37.74 71.21 37.81 71.27 37.84C71.3 37.87 71.49 38 71.59 38.25C71.65 38.44 71.4 38.79 71.18 38.82C71.15 38.82 71.08 38.82 71.05 38.82C70.67 38.82 70.55 38.69 70.55 38.28C70.49 38.22 70.49 38.18 70.49 38.15Z" fill="#C7B06A" fill-opacity="1.000000" fill-rule="nonzero"/>
			<path id="Vector" d="M69.64 39.55C69.64 39.29 69.83 39.07 70.08 39.07C70.3 39.07 70.52 39.33 70.52 39.58C70.52 39.8 70.23 40.02 69.98 40.02C69.83 40.02 69.64 39.77 69.64 39.55Z" fill="#C7B06A" fill-opacity="1.000000" fill-rule="nonzero"/>
			<path id="Vector" d="M69.13 37.87C69.13 38.15 69.01 38.28 68.69 38.28C68.47 38.28 68.25 38.09 68.25 37.9C68.25 37.58 68.44 37.43 68.76 37.43C69.04 37.43 69.17 37.55 69.13 37.87Z" fill="#C7B06A" fill-opacity="1.000000" fill-rule="nonzero"/>
			<path id="Vector" d="M69.61 39.07C69.45 39.33 69.26 39.55 68.98 39.83C68.88 39.96 68.73 40.09 68.54 39.96C68.38 39.86 68.41 39.67 68.51 39.52C68.69 39.23 68.76 39.04 68.91 38.91C69.2 38.6 69.35 38.28 69.54 37.96C69.64 37.8 69.98 37.11 70.05 36.76C70.05 36.76 70.08 36.63 70.17 36.48C70.27 36.32 70.39 36.25 70.55 36.32C70.61 36.35 70.67 36.38 70.71 36.44C70.77 36.54 70.77 36.66 70.74 36.76C70.61 37.3 70.08 38.25 70.08 38.25C69.95 38.5 69.79 38.79 69.61 39.07Z" fill="#FFFFFF" fill-opacity="1.000000" fill-rule="nonzero"/>
			<path id="Vector" d="M64.92 29.95C65.24 29.89 65.39 30.17 65.61 30.3C65.96 30.52 65.99 30.87 65.99 31.25C65.99 31.25 65.99 31.25 65.99 31.28C65.99 31.47 66.05 31.66 65.86 31.82C65.58 32.04 65.27 32.23 64.89 32.2C64.67 32.2 64.45 32.04 64.26 31.98C63.98 31.88 64.01 31.63 63.95 31.41C63.82 31.06 63.92 30.68 64.07 30.43C64.2 30.11 64.54 29.92 64.92 29.95Z" fill="#FFFFFF" fill-opacity="1.000000" fill-rule="nonzero"/>
			<path id="Vector" d="M65.83 32.55C65.9 32.17 65.93 31.82 66.3 31.69C66.46 31.63 66.62 31.5 66.78 31.47C67.12 31.41 67.62 31.63 67.78 32.11C67.91 32.49 67.78 32.83 67.66 33.18C67.56 33.37 67.12 33.53 66.9 33.5C66.49 33.43 66.15 33.25 65.93 32.87C65.9 32.74 65.86 32.61 65.83 32.55Z" fill="#FFFFFF" fill-opacity="1.000000" fill-rule="nonzero"/>
			<path id="Vector" d="M64.17 32.64C64.14 33.21 63.76 33.59 63.32 33.56C63.1 33.56 62.88 33.66 62.72 33.43C62.53 33.18 62.31 32.9 62.31 32.55C62.34 32.01 62.78 31.57 63.19 31.6C63.7 31.66 64.2 32.17 64.17 32.64Z" fill="#FFFFFF" fill-opacity="1.000000" fill-rule="nonzero"/>
			<path id="Vector" d="M65.39 34.23C65.42 33.78 65.8 33.5 66.37 33.53C66.59 33.53 66.87 33.97 66.87 34.23C66.84 34.7 66.52 34.99 66.02 34.99C65.77 34.96 65.39 34.51 65.39 34.23Z" fill="#FFFFFF" fill-opacity="1.000000" fill-rule="nonzero"/>
			<path id="Vector" d="M64.26 33.59C64.73 33.63 65.02 33.91 65.02 34.29C65.02 34.54 64.67 34.86 64.51 34.89C64.2 34.92 63.95 34.83 63.76 34.61C63.66 34.48 63.6 34.29 63.6 34.13C63.54 33.78 63.88 33.56 64.26 33.59Z" fill="#FFFFFF" fill-opacity="1.000000" fill-rule="nonzero"/>
			<path id="Vector" d="M65.74 33.02C65.71 33.15 65.71 33.34 65.61 33.43C65.52 33.53 65.33 33.63 65.2 33.63C64.51 33.53 64.42 33.5 64.42 32.83C64.42 32.49 64.7 32.26 65.08 32.3C65.52 32.3 65.74 32.58 65.74 33.02Z" fill="#C7B06A" fill-opacity="1.000000" fill-rule="nonzero"/>
			<path id="Vector" d="M61.59 37.39C61.59 37.81 61.31 38.15 60.99 38.12C60.14 38 60.05 37.96 60.08 37.17C60.08 36.76 60.39 36.51 60.87 36.51C61.34 36.54 61.62 36.86 61.59 37.39Z" fill="#C7B06A" fill-opacity="1.000000" fill-rule="nonzero"/>
			<path id="Vector" d="M60.65 34.1C61.21 34.13 61.78 34.7 61.71 35.27C61.68 35.49 61.68 35.78 61.56 35.91C61.31 36.19 60.96 36.32 60.58 36.32C60.02 36.32 59.55 35.78 59.61 35.18C59.7 34.48 59.99 34.07 60.65 34.1Z" fill="#FFFFFF" fill-opacity="1.000000" fill-rule="nonzero"/>
			<path id="Vector" d="M61.59 36.89C61.59 36.35 61.93 36.06 62.34 35.87C62.66 35.72 63.1 35.78 63.35 36.06C63.66 36.44 63.7 36.86 63.51 37.3C63.29 37.84 62.66 38.03 62.19 37.62C62.03 37.49 61.87 37.36 61.75 37.24C61.65 37.17 61.62 37.01 61.59 36.89Z" fill="#FFFFFF" fill-opacity="1.000000" fill-rule="nonzero"/>
			<path id="Vector" d="M59.92 36.92C59.89 37.49 59.55 37.96 59.11 37.93C58.89 37.93 58.6 37.93 58.48 37.81C58.26 37.58 58.04 37.3 58.04 36.95C58.04 36.44 58.48 35.97 58.89 36C59.36 36 59.92 36.54 59.92 36.92Z" fill="#FFFFFF" fill-opacity="1.000000" fill-rule="nonzero"/>
			<path id="Vector" d="M61.15 38.6C61.18 38.15 61.56 37.9 62.12 37.9C62.34 37.9 62.66 38.34 62.63 38.63C62.59 39.07 62.31 39.33 61.81 39.33C61.53 39.36 61.15 38.91 61.15 38.6Z" fill="#FFFFFF" fill-opacity="1.000000" fill-rule="nonzero"/>
			<path id="Vector" d="M60.02 38.09C60.46 38.12 60.77 38.41 60.74 38.79C60.71 39.14 60.33 39.42 59.95 39.39C59.64 39.39 59.26 38.95 59.29 38.6C59.33 38.28 59.64 38.06 60.02 38.09Z" fill="#FFFFFF" fill-opacity="1.000000" fill-rule="nonzero"/>
			<path id="Vector" d="M70.27 44.27C69.95 43.19 69.29 42.11 68.38 41.45C67.59 40.88 66.65 40.78 65.71 40.75C65.46 40.75 65.24 40.75 64.98 40.75C64.73 40.75 64.51 40.75 64.26 40.75C63.32 40.78 62.37 40.88 61.59 41.45C60.68 42.11 60.02 43.19 59.7 44.27C59.64 44.52 59.7 44.61 59.99 44.58C61.05 44.49 62.09 44.36 63.1 43.92C63.29 43.82 63.35 43.85 63.35 44.08C63.38 45.18 63.95 46.01 64.7 46.77C64.8 46.86 64.89 46.89 64.95 46.86C65.05 46.89 65.11 46.86 65.2 46.77C65.96 46.01 66.56 45.18 66.56 44.08C66.56 43.85 66.65 43.85 66.81 43.92C67.78 44.39 68.85 44.49 69.92 44.58C70.27 44.61 70.33 44.52 70.27 44.27Z" fill="#1F1C1C" fill-opacity="1.000000" fill-rule="nonzero"/>
			<path id="Vector" d="M65.11 44.99C65.08 45.03 65.08 45.12 65.02 45.12C64.92 45.12 64.92 45.06 64.89 44.99C64.61 44.2 64.51 43.38 64.8 42.56C64.83 42.46 64.86 42.33 64.98 42.37C65.11 42.37 65.71 43.57 65.11 44.99Z" fill="#C7B06A" fill-opacity="1.000000" fill-rule="nonzero"/>
			<path id="Vector" d="M68.69 43.41C68.73 43.47 68.79 43.5 68.73 43.57C68.69 43.63 68.6 43.6 68.54 43.6C67.75 43.31 67.06 42.87 66.62 42.14C66.59 42.08 66.49 41.95 66.59 41.89C66.65 41.76 67.97 42.05 68.69 43.41Z" fill="#C7B06A" fill-opacity="1.000000" fill-rule="nonzero"/>
			<path id="Vector" d="M61.43 43.63C61.4 43.63 61.37 43.66 61.37 43.66C61.34 43.66 61.31 43.66 61.31 43.63C61.24 43.57 61.31 43.51 61.34 43.44C61.81 42.75 62.41 42.18 63.22 41.92C63.32 41.89 63.41 41.83 63.51 41.95C63.51 42.05 62.91 43.28 61.43 43.63Z" fill="#C7B06A" fill-opacity="1.000000" fill-rule="nonzero"/>
		</g>
	</g>
</svg>
