<svg width="20.000000" height="20.000000" viewBox="0 0 20 20" fill="none" xmlns="http://www.w3.org/2000/svg">
    <rect id="carbon:calendar" rx="0.000000" width="19.000000" height="19.000000"
          transform="translate(0.500000 0.500000)" fill="#FFFFFF" fill-opacity="0"/>
    <g clip-path="url(#clip325_3130)">
        <path id="Vector"
              d="M16.25 2.5L13.75 2.5L13.75 1.25L12.5 1.25L12.5 2.5L7.5 2.5L7.5 1.25L6.25 1.25L6.25 2.5L3.75 2.5C3.06 2.5 2.5 3.06 2.5 3.75L2.5 16.25C2.5 16.93 3.06 17.5 3.75 17.5L16.25 17.5C16.93 17.5 17.5 16.93 17.5 16.25L17.5 3.75C17.5 3.06 16.93 2.5 16.25 2.5ZM16.25 16.25L3.75 16.25L3.75 7.5L16.25 7.5L16.25 16.25ZM16.25 6.25L3.75 6.25L3.75 3.75L6.25 3.75L6.25 5L7.5 5L7.5 3.75L12.5 3.75L12.5 5L13.75 5L13.75 3.75L16.25 3.75L16.25 6.25Z"
              fill="currentColor" fill-opacity="1.000000" fill-rule="nonzero"/>
    </g>
</svg>
