<svg width="17.030289" height="12.734375" viewBox="0 0 17.0303 12.7344" fill="none" xmlns="http://www.w3.org/2000/svg">
    <path id="Vector"
          d="M16.91 5.86C15.06 1.96 12.26 0 8.51 0C4.76 0 1.96 1.96 0.11 5.86C0.03 6.02 0 6.19 0 6.36C0 6.54 0.03 6.71 0.11 6.87C1.96 10.77 4.76 12.73 8.51 12.73C12.26 12.73 15.06 10.77 16.91 6.86C17.06 6.55 17.06 6.18 16.91 5.86ZM8.51 11.32C5.36 11.32 3.05 9.73 1.43 6.36C3.05 3 5.36 1.4 8.51 1.4C11.66 1.4 13.97 3 15.59 6.36C13.97 9.73 11.66 11.32 8.51 11.32ZM8.43 2.92C6.53 2.92 4.99 4.46 4.99 6.36C4.99 8.26 6.53 9.8 8.43 9.8C10.33 9.8 11.87 8.26 11.87 6.36C11.87 4.46 10.33 2.92 8.43 2.92ZM8.43 8.55C7.22 8.55 6.24 7.57 6.24 6.36C6.24 5.15 7.22 4.17 8.43 4.17C9.64 4.17 10.62 5.15 10.62 6.36C10.62 7.57 9.64 8.55 8.43 8.55Z"
          fill="currentColor" fill-opacity="1.000000" fill-rule="nonzero"/>
</svg>
