<svg width="78.000000" height="88.000000" viewBox="0 0 78 88" fill="none" xmlns="http://www.w3.org/2000/svg" xmlns:xlink="http://www.w3.org/1999/xlink">
	<desc>
			Created with Pixso.
	</desc>
	<defs>
		<clipPath id="clip325_1894">
			<rect id="Frame" rx="0.000000" width="77.000000" height="87.000000" transform="matrix(-1 0 0 1 78.5 0.5)" fill="white" fill-opacity="0"/>
		</clipPath>
	</defs>
	<rect id="Frame" rx="0.000000" width="77.000000" height="87.000000" transform="matrix(-1 0 0 1 78.5 0.5)" fill="#FFFFFF" fill-opacity="0"/>
	<g clip-path="url(#clip325_1894)">
		<path id="Vector" d="M3.95 34.18C3.19 32.03 2.48 29.87 2.44 27.53C2.44 25.98 2.97 25.63 4.51 25.94C6.92 26.39 9.36 26.81 11.77 27.19C12 27.22 12.26 27.03 12.56 26.96C11.96 25.86 11.43 24.92 10.91 23.93C9.93 22.08 8.91 20.19 7.93 18.3C7.45 17.39 7.6 16.48 8.2 15.65C8.84 14.78 9.4 13.8 10.19 13.08C12.71 10.81 15.35 8.66 18.58 7.52C20.58 6.8 22.61 6.39 24.68 6.01C28.14 5.37 31.6 5.33 35.06 5.63C36.72 5.78 38.34 6.08 39.95 6.46C39.99 6.31 40.03 6.16 40.07 5.97C40.82 3.7 45.37 1.36 47.37 0.52C48.08 0.22 48.83 -0.04 49.59 0C50.53 0.03 51.39 0.56 52.22 1.05C61.78 7.1 69.6 15.84 74.53 26.05C76.3 29.76 77.73 33.69 77.96 37.81C78.11 40.19 77.77 42.65 76.94 44.88C77.09 46.09 77.24 47.34 77.43 48.55C77.88 51.43 77.69 54.22 76.83 57.02C76.11 59.29 75.51 61.6 74.8 63.87C74.42 65.08 74.72 70.07 70.13 78.92C70.13 78.92 68.81 82.25 63.02 87.54C62.87 87.65 62.57 87.92 62.12 88C61.85 88.03 61.55 88 61.18 87.81C58.69 84.86 57.6 81.49 58.39 77.6C58.39 77.52 58.32 77.44 58.24 77.44C56.51 77.67 54.74 77.86 52.86 78.01C51.09 78.16 49.36 78.28 47.71 78.31C46.61 78.28 45.71 78.2 45 78.12C44.47 78.09 42.96 77.9 41.5 77.26C41.23 77.14 40.97 76.99 40.78 76.73C40.67 76.54 40.52 76.2 40.86 74.91C41.05 74.23 41.31 73.59 41.69 72.94C42.02 72.34 42.33 71.81 42.59 71.39C43.53 70.07 45.79 67.54 49.59 65.61C51.92 64.44 54.52 64.21 57.19 64.06C60.69 63.79 61.93 64.81 63.89 63.53C64.49 63.3 64.37 62.54 63.92 62.51C63.09 62.43 62.23 62.36 61.4 62.36C60.42 62.36 59.41 62.51 58.43 62.47C55.16 62.39 51.84 62.28 48.57 62.13C46.73 62.05 44.88 61.86 43 61.71C39.92 61.41 37.32 60.96 35.14 60.43C35.51 61.37 35.85 62.32 36.19 63.26C36.53 64.25 36.23 64.59 35.18 64.55C31.53 63.98 27.84 62.32 26.63 61.64C25.77 61.15 24.9 60.62 24.15 59.97C22.61 58.65 22.53 56.72 22.23 54.91C19.56 53.43 17.27 51.43 15.05 49.38C13.47 47.91 12 46.32 10.53 44.77C7.75 41.67 5.38 38.23 3.95 34.18Z" fill="#1F1C1C" fill-opacity="1.000000" fill-rule="nonzero"/>
		<path id="Vector" d="M29.38 40.53C30.81 42.05 32.5 44.32 33.82 45.83C35.18 47.38 36.49 48.29 38.3 49.04C41.65 50.41 46.28 47.34 47.55 43.98C47.82 43.3 48.04 42.61 48.19 41.9C48.61 40.12 48.46 38.53 47.33 36.87C45.67 34.45 43.3 33.16 40.93 31.76C40.29 31.38 39.58 31.08 38.9 30.78C38.07 30.44 37.7 29.87 37.96 29C39.13 25.52 39.39 21.93 38.9 18.3C38.79 17.54 37.7 17.66 37.62 18C37.47 18.49 37.4 19.05 37.36 19.62C37.17 22.19 36.83 24.77 36.04 27.26C34.54 32.03 31.71 35.77 27.69 38.57C25.02 40.42 22.08 41.86 18.88 42.65C17.79 42.92 17.3 43.52 17.45 44.28C17.6 45.07 18.36 45.41 19.52 45.15C22.87 44.39 25.84 42.8 28.7 41.03C28.89 40.88 29.04 40.76 29.38 40.53Z" fill="#C7B06A" fill-opacity="1.000000" fill-rule="nonzero"/>
		<path id="Vector" d="M8.99 26.16C7.18 25.63 5.38 25.07 3.53 24.58C2.93 24.42 2.29 24.35 1.65 24.39C0.56 24.42 0.15 24.88 0 25.94C-0.12 26.88 0.37 27.64 1.16 28.06C2.7 28.85 4.36 28.66 5.98 28.81C7.75 29 9.51 28.93 11.28 28.89C12.56 28.89 12.9 28.51 12.64 27.3C11.85 23.56 10.64 20 8.57 16.75C8.27 16.26 7.86 15.8 7.45 15.42C6.65 14.67 6.05 14.74 5.34 15.61C4.36 16.86 4.32 18.11 5.34 19.74C6.28 21.25 7.33 22.69 8.31 24.16C8.65 24.69 8.95 25.29 9.25 25.9C9.18 25.94 9.1 26.05 8.99 26.16Z" fill="#C7B06A" fill-opacity="1.000000" fill-rule="nonzero"/>
		<path id="Vector" d="M63.85 80.28C63.88 79.3 64.22 78.39 64.52 77.44C64.94 76.27 69.68 68.14 69.42 71.05C69.08 74.8 66.97 78.62 65.84 80.32C65.62 80.62 65.43 80.96 65.09 81.15C64.75 81.34 64.3 81.34 64.04 81.07C63.85 80.89 63.81 80.55 63.85 80.28Z" fill="#C7B06A" fill-opacity="1.000000" fill-rule="nonzero"/>
		<path id="Vector" d="M59.93 75.06C60.12 74.31 60.54 73.62 60.95 72.94C61.48 72.07 66.63 66.4 65.95 68.67C65.09 71.54 62.76 74.23 61.59 75.4C61.36 75.63 61.14 75.86 60.84 75.93C60.54 76.04 60.16 75.97 59.97 75.7C59.86 75.52 59.9 75.29 59.93 75.06Z" fill="#C7B06A" fill-opacity="1.000000" fill-rule="nonzero"/>
		<path id="Vector" d="M52.33 70.07C52.97 69.35 53.8 68.82 54.63 68.29C55.68 67.65 64.41 64.17 62.42 66.36C58.17 71.02 53.16 71.58 52.79 71.54C52.41 71.51 52.03 71.2 52 70.83C52 70.52 52.15 70.26 52.33 70.07Z" fill="#C7B06A" fill-opacity="1.000000" fill-rule="nonzero"/>
		<path id="Vector" d="M50.41 7.03C49.81 8.2 49.1 9.3 48.35 10.36C47.74 11.19 46.39 10.36 46.99 9.52C47.74 8.47 48.46 7.37 49.06 6.2C49.55 5.29 50.9 6.12 50.41 7.03Z" fill="#C7B06A" fill-opacity="1.000000" fill-rule="nonzero"/>
		<path id="Vector" d="M60.91 15.2C60.12 15.99 59.33 16.75 58.5 17.54C57.75 18.26 56.66 17.09 57.41 16.37C58.2 15.58 58.99 14.82 59.82 14.03C60.54 13.31 61.63 14.48 60.91 15.2Z" fill="#C7B06A" fill-opacity="1.000000" fill-rule="nonzero"/>
		<path id="Vector" d="M67.72 22.46C66.97 23.06 66.22 23.67 65.5 24.27C64.71 24.92 63.58 23.74 64.41 23.1C65.16 22.5 65.92 21.89 66.63 21.29C67.42 20.64 68.51 21.78 67.72 22.46Z" fill="#C7B06A" fill-opacity="1.000000" fill-rule="nonzero"/>
		<path id="Vector" d="M73.03 32.33C72.54 32.63 72.09 32.93 71.6 33.24C70.73 33.8 69.98 32.37 70.85 31.84C71.34 31.53 71.79 31.23 72.28 30.93C73.14 30.36 73.89 31.76 73.03 32.33Z" fill="#C7B06A" fill-opacity="1.000000" fill-rule="nonzero"/>
		<path id="Vector" d="M45.03 25.71C48.53 23.9 49.78 21.21 50.19 19.62C50.26 19.28 50.75 19.28 50.87 19.62C53.12 26.69 47.63 26.73 45.15 26.39C44.81 26.32 44.73 25.86 45.03 25.71Z" fill="#C7B06A" fill-opacity="1.000000" fill-rule="nonzero"/>
		<path id="Vector" d="M48.87 48.06C53.5 47.64 54.14 43.75 54.44 42.39C54.48 42.24 54.7 42.2 54.78 42.35C60.35 52.71 48.01 48.14 48.87 48.06Z" fill="#C7B06A" fill-opacity="1.000000" fill-rule="nonzero"/>
		<path id="Vector" d="M51.28 33.88C55.8 33.31 56.51 29.23 56.85 27.75C56.89 27.6 57.11 27.56 57.15 27.71C62.34 38.45 50.45 33.95 51.28 33.88Z" fill="#C7B06A" fill-opacity="1.000000" fill-rule="nonzero"/>
		<path id="Vector" d="M35.67 55.02C39.24 54.79 40.59 52.33 41.12 50.75C41.23 50.41 41.76 50.41 41.84 50.78C43.42 57.55 38.45 56.76 35.55 55.74C35.18 55.62 35.25 55.06 35.67 55.02Z" fill="#C7B06A" fill-opacity="1.000000" fill-rule="nonzero"/>
		<path id="Vector" d="M64.22 46.81C67.91 45.9 68.81 43.48 68.93 41.93C68.96 41.67 69.3 41.59 69.42 41.82C72.8 48.59 66.86 47.91 64.22 47.34C63.96 47.27 63.96 46.85 64.22 46.81Z" fill="#C7B06A" fill-opacity="1.000000" fill-rule="nonzero"/>
		<path id="Vector" d="M59.26 39.89C62.91 38.83 63.7 36.37 63.77 34.79C63.77 34.52 64.15 34.45 64.26 34.67C67.91 41.33 61.93 40.88 59.29 40.38C58.99 40.35 58.99 39.97 59.26 39.89Z" fill="#C7B06A" fill-opacity="1.000000" fill-rule="nonzero"/>
		<path id="Vector" d="M55.61 54.94C58.62 53.92 59.82 51.84 60.27 50.18C60.42 49.65 61.06 49.57 61.25 50.06C63.36 56.64 58.62 56.61 55.61 56C55.08 55.93 55.08 55.09 55.61 54.94Z" fill="#C7B06A" fill-opacity="1.000000" fill-rule="nonzero"/>
		<path id="Vector" d="M64.37 57.25C67.12 56.49 68.17 54.79 68.51 53.43C68.63 52.98 69.23 52.94 69.38 53.35C71.52 58.88 67.16 58.72 64.37 58.12C63.92 58.08 63.89 57.4 64.37 57.25Z" fill="#C7B06A" fill-opacity="1.000000" fill-rule="nonzero"/>
		<path id="Vector" d="M44.7 55.93C48.08 55.55 49.66 53.13 50.34 51.69C50.49 51.39 50.94 51.43 50.98 51.77C52.3 58.91 46.95 57.63 44.58 56.61C44.24 56.46 44.32 56 44.7 55.93Z" fill="#C7B06A" fill-opacity="1.000000" fill-rule="nonzero"/>
		<path id="Vector" d="M44.06 39.85C44.62 40.01 45.22 39.82 45.6 39.32C46.01 38.68 45.86 37.81 45.22 37.4L39.35 33.35C38.71 32.9 37.85 33.08 37.43 33.73C37.02 34.37 37.17 35.24 37.81 35.66L43.68 39.7C43.79 39.74 43.94 39.82 44.06 39.85Z" fill="#1F1C1C" fill-opacity="1.000000" fill-rule="nonzero"/>
		<path id="Vector" d="M41.87 44.28C42.4 44.43 42.96 44.28 43.34 43.82C43.83 43.22 43.72 42.35 43.15 41.86L36.53 36.45C35.93 35.96 35.06 36.07 34.57 36.64C34.08 37.24 34.2 38.11 34.76 38.61L41.38 44.01C41.53 44.17 41.72 44.24 41.87 44.28Z" fill="#1F1C1C" fill-opacity="1.000000" fill-rule="nonzero"/>
		<path id="Vector" d="M38.07 46.81C38.56 46.96 39.09 46.81 39.47 46.43C39.99 45.87 39.95 45 39.39 44.47L34.31 39.66C33.75 39.14 32.88 39.17 32.35 39.7C31.83 40.27 31.86 41.14 32.43 41.67L37.51 46.51C37.7 46.66 37.89 46.77 38.07 46.81Z" fill="#1F1C1C" fill-opacity="1.000000" fill-rule="nonzero"/>
		<path id="Vector" d="M18.77 13.19C19.3 12.93 20.09 12.55 20.84 12.4C23.47 11.83 25.62 13.23 26.56 13.76C26.63 13.8 26.75 13.87 26.82 13.91C27.39 14.33 28.67 15.31 28.93 16.97C29.08 17.73 29.01 18.41 28.93 18.83C28.4 21.59 26.48 22.69 24 23.1C23.81 23.14 23.66 23.14 23.47 23.14C22.76 23.14 21.63 23.03 20.43 22.42C19.6 22 19.15 21.63 18.77 21.25C18.7 21.17 18.58 21.06 18.51 20.98C18.09 20.64 17.42 20.11 17.04 19.24C16.85 18.79 16.59 18.18 16.55 17.88C16.44 17.5 16.48 16.71 16.7 15.88C17.19 14.37 18.54 13.31 18.77 13.19Z" fill="#C7B06A" fill-opacity="1.000000" fill-rule="nonzero"/>
		<path id="Vector" d="M17.45 17.84C17.49 18.03 17.98 18.94 18.39 19.24C21.03 21.17 22.98 20.45 24.15 19.21C24.98 18.3 24.94 17.35 24.53 16.37C24.3 15.92 24.04 15.5 23.74 15.2C22.8 14.29 21.63 14.14 21.14 14.06C20.84 14.03 20.43 13.99 19.9 14.06C19.26 14.14 18.66 14.4 18.21 14.82C18.09 14.93 17.94 15.08 17.83 15.24C17.08 16.41 17.42 17.66 17.45 17.84Z" fill="#1F1C1C" fill-opacity="1.000000" fill-rule="nonzero"/>
		<path id="Vector" d="M21.22 17.35C20.92 17.96 20.2 18.22 19.64 17.96C19.07 17.66 18.85 16.94 19.15 16.33C19.45 15.73 20.16 15.46 20.73 15.73C21.29 16.03 21.52 16.75 21.22 17.35Z" fill="#FFFFFF" fill-opacity="1.000000" fill-rule="nonzero"/>
	</g>
</svg>
