<svg width="114.000000" height="81.000000" viewBox="0 0 114 81" fill="none" xmlns="http://www.w3.org/2000/svg" xmlns:xlink="http://www.w3.org/1999/xlink">
	<desc>
			Created with Pixso.
	</desc>
	<defs>
		<clipPath id="clip325_1934">
			<rect id="Frame" rx="0.000000" width="113.000000" height="80.000000" transform="translate(0.500000 0.500000)" fill="white" fill-opacity="0"/>
		</clipPath>
	</defs>
	<rect id="Frame" rx="0.000000" width="113.000000" height="80.000000" transform="translate(0.500000 0.500000)" fill="#FFFFFF" fill-opacity="0"/>
	<g clip-path="url(#clip325_1934)">
		<path id="Vector" d="M30.77 1.7C24.64 1.7 19.41 5.45 17.15 10.78C16.81 11.55 16.09 12.06 15.28 12.15C9.53 12.66 4.34 16.45 2.46 22.29C0.55 28.13 2.51 34.27 6.85 38.07C7.44 38.62 7.74 39.43 7.57 40.24C6.25 45.87 8.3 52.01 13.23 55.63C18.21 59.25 24.6 59.3 29.58 56.31C30.3 55.89 31.2 55.89 31.88 56.31C36.82 59.3 43.25 59.25 48.23 55.63C53.21 52.01 55.21 45.87 53.93 40.24C53.76 39.43 54.06 38.62 54.65 38.07C59 34.27 60.95 28.13 59.04 22.29C57.12 16.45 51.97 12.61 46.23 12.1C45.42 12.02 44.69 11.51 44.35 10.74C42.1 5.45 36.9 1.74 30.77 1.7Z" fill="#1F1C1C" fill-opacity="1.000000" fill-rule="nonzero"/>
		<path id="Vector" d="M55.21 48.81C54.14 52.05 52.1 54.95 49.2 57.04C44.1 60.75 37.37 61.17 31.88 58.32C31.16 57.93 30.3 57.93 29.54 58.32C24 61.17 17.32 60.79 12.21 57.04C7.06 53.28 4.59 47.02 5.66 40.84C5.78 40.07 5.53 39.3 4.98 38.75C0.55 34.36 -1.15 27.83 0.8 21.78C2.76 15.73 8 11.42 14.17 10.53C14.94 10.4 15.62 9.93 15.92 9.25C18.73 3.62 24.39 0 30.77 0C37.12 0 42.82 3.62 45.59 9.25C45.93 9.93 46.57 10.44 47.33 10.53C53.5 11.42 58.74 15.73 60.7 21.78C62.66 27.83 60.95 34.36 56.48 38.75C55.93 39.3 55.68 40.07 55.8 40.84C56.27 43.56 56.06 46.29 55.21 48.81ZM9.53 39.51C7.74 44.97 9.66 50.9 14.26 54.22C18.85 57.59 25.07 57.55 29.71 54.14L30.73 53.41L31.75 54.14C36.39 57.55 42.61 57.59 47.2 54.22C51.8 50.85 53.72 44.93 51.93 39.47L51.55 38.28L52.57 37.55C57.25 34.19 59.21 28.26 57.42 22.85C55.68 17.43 50.61 13.77 44.86 13.81L43.59 13.81L43.2 12.61C41.46 7.11 36.43 3.45 30.77 3.45C25.11 3.45 20.09 7.11 18.3 12.57L18.3 12.61L17.92 13.81L16.64 13.81C10.89 13.81 5.83 17.43 4.08 22.85C2.34 28.26 4.25 34.19 8.93 37.55L9.96 38.28L9.53 39.51Z" fill="#C7B06A" fill-opacity="1.000000" fill-rule="nonzero"/>
		<path id="Vector" d="M36.69 25.02C36.18 25.32 35.92 25.83 35.88 26.34C35.84 27.02 35.37 27.62 34.77 27.96L31.54 29.92C31.28 30.09 30.94 29.88 30.94 29.58L30.86 25.83C30.86 25.06 31.24 24.42 31.79 23.91C32.13 23.57 32.35 23.14 32.35 22.63C32.35 21.65 31.54 20.88 30.56 20.93C29.58 20.93 28.81 21.74 28.86 22.72C28.86 23.23 29.11 23.66 29.45 24C30.01 24.51 30.43 25.11 30.43 25.87L30.52 29.62C30.52 29.92 30.18 30.14 29.92 29.97L26.64 28.13C26.05 27.79 25.58 27.24 25.49 26.55C25.41 26.04 25.11 25.53 24.64 25.28C23.79 24.81 22.73 25.11 22.26 25.96C21.79 26.81 22.09 27.88 22.94 28.35C23.37 28.6 23.88 28.6 24.34 28.47C25.07 28.22 25.79 28.17 26.47 28.56L29.75 30.39C30.01 30.52 30.01 30.9 29.75 31.07L26.52 33.03C25.92 33.38 25.2 33.5 24.6 33.25C24.09 33.03 23.54 33.03 23.02 33.33C22.17 33.84 21.92 34.91 22.43 35.76C22.94 36.62 24 36.87 24.86 36.36C25.37 36.06 25.62 35.55 25.66 35.04C25.71 34.36 26.17 33.76 26.77 33.42L30.01 31.46C30.26 31.29 30.6 31.5 30.6 31.8L30.69 35.55C30.69 36.32 30.3 36.96 29.75 37.47C29.41 37.81 29.2 38.24 29.2 38.75C29.2 39.73 30.01 40.5 30.99 40.45C31.96 40.45 32.73 39.64 32.69 38.66C32.69 38.15 32.43 37.72 32.09 37.38C31.5 36.91 31.07 36.27 31.07 35.51L30.99 31.76C30.99 31.46 31.33 31.24 31.58 31.41L34.86 33.25C35.46 33.59 35.92 34.14 36.01 34.83C36.09 35.34 36.39 35.85 36.86 36.1C37.71 36.57 38.78 36.27 39.24 35.42C39.71 34.57 39.41 33.5 38.56 33.03C38.14 32.78 37.63 32.78 37.16 32.91C36.43 33.16 35.71 33.21 35.03 32.82L31.75 30.99C31.5 30.86 31.5 30.48 31.75 30.31L34.99 28.35C35.58 28 36.31 27.88 36.9 28.13C37.41 28.35 37.97 28.35 38.48 28.05C39.33 27.54 39.58 26.47 39.07 25.62C38.61 24.76 37.54 24.51 36.69 25.02Z" fill="#FFFFFF" fill-opacity="1.000000" fill-rule="nonzero"/>
		<path id="Vector" d="M88.45 31.8C83.3 31.71 78.88 34.83 76.92 39.26C76.62 39.9 76.02 40.32 75.34 40.37C70.49 40.75 66.1 43.86 64.44 48.77C62.78 53.67 64.36 58.83 67.94 62.07C68.45 62.54 68.7 63.22 68.53 63.9C67.38 68.63 69 73.79 73.13 76.9C77.26 80.01 82.66 80.1 86.88 77.67C87.47 77.33 88.2 77.37 88.79 77.71C92.92 80.27 98.33 80.31 102.54 77.33C106.76 74.34 108.55 69.23 107.53 64.45C107.4 63.77 107.65 63.09 108.16 62.66C111.87 59.51 113.57 54.39 112.04 49.45C110.5 44.5 106.21 41.26 101.4 40.75C100.71 40.67 100.12 40.24 99.86 39.6C97.95 35.08 93.6 31.84 88.45 31.8Z" fill="#FFFFFF" fill-opacity="1.000000" fill-rule="nonzero"/>
		<path id="Vector" d="M108.46 71.62C107.53 74.3 105.78 76.73 103.35 78.48C99.01 81.55 93.39 81.81 88.75 79.33C88.16 78.99 87.43 78.99 86.79 79.29C82.11 81.63 76.49 81.21 72.23 78.01C67.94 74.81 65.98 69.48 66.91 64.33C67.04 63.69 66.83 63.05 66.36 62.58C62.66 58.87 61.29 53.33 63.04 48.25C64.79 43.18 69.21 39.64 74.41 38.96C75.04 38.88 75.6 38.49 75.9 37.89C78.28 33.21 83.09 30.22 88.45 30.31C93.82 30.39 98.54 33.5 100.8 38.28C101.1 38.88 101.61 39.26 102.25 39.39C107.44 40.2 111.78 43.86 113.36 48.98C114.93 54.09 113.44 59.55 109.61 63.18C109.14 63.64 108.93 64.28 109.01 64.92C109.4 67.23 109.19 69.53 108.46 71.62ZM70.19 63.3C68.62 67.86 70.15 72.85 73.98 75.71C77.81 78.57 83.05 78.65 86.96 75.84L87.82 75.24L88.67 75.88C92.54 78.78 97.73 78.91 101.65 76.14C105.57 73.36 107.23 68.42 105.78 63.77L105.48 62.75L106.33 62.15C110.29 59.38 111.99 54.44 110.59 49.87C109.19 45.31 104.97 42.2 100.16 42.12L99.1 42.12L98.8 41.09C97.39 36.45 93.22 33.29 88.45 33.25C83.69 33.16 79.43 36.19 77.9 40.75L77.9 40.79L77.56 41.82L76.49 41.82C71.64 41.73 67.38 44.72 65.85 49.28C64.32 53.8 65.89 58.78 69.77 61.68L70.62 62.32L70.19 63.3Z" fill="#C7B06A" fill-opacity="1.000000" fill-rule="nonzero"/>
		<path id="Vector" d="M93.14 52.18C92.63 52.47 92.37 53.03 92.46 53.58C92.5 53.88 92.33 54.14 92.11 54.31L89.73 55.76C88.96 56.23 88.33 55.84 88.33 55.25L88.28 52.22C88.28 51.92 88.45 51.62 88.71 51.45C89.18 51.2 89.52 50.73 89.52 50.13C89.52 49.32 88.84 48.68 88.03 48.68C87.22 48.68 86.58 49.36 86.58 50.17C86.58 50.77 86.92 51.24 87.43 51.45C87.73 51.58 87.9 51.88 87.9 52.18L87.94 55.2C87.94 55.8 87.3 56.18 86.79 55.89L84.11 54.44C83.86 54.31 83.69 54.01 83.73 53.75C83.77 53.2 83.52 52.65 83 52.35C82.28 51.96 81.39 52.22 81 52.94C80.62 53.67 80.88 54.56 81.6 54.95C82.11 55.25 82.71 55.16 83.18 54.82C83.39 54.65 83.73 54.65 83.98 54.78L86.67 56.23C87.18 56.52 87.22 57.25 86.71 57.59L84.11 59.17C83.86 59.34 83.56 59.34 83.3 59.17C82.83 58.87 82.24 58.83 81.73 59.13C81.05 59.55 80.79 60.45 81.22 61.17C81.64 61.85 82.54 62.11 83.26 61.68C83.9 61.3 84.11 60.49 83.81 59.85C83.81 59.85 85.64 58.74 86.92 57.97C87.43 57.68 88.07 58.02 88.11 58.61L88.16 61.64C88.16 61.94 87.99 62.24 87.73 62.41C87.26 62.66 86.92 63.13 86.92 63.73C86.92 64.54 87.6 65.18 88.41 65.18C89.22 65.18 89.86 64.5 89.86 63.69C89.86 63.09 89.52 62.62 89.01 62.41C88.71 62.28 88.54 61.98 88.54 61.68L88.5 58.66C88.5 58.06 89.13 57.68 89.65 57.97L92.33 59.42C92.58 59.55 92.75 59.85 92.71 60.11C92.67 60.66 92.92 61.21 93.43 61.51C94.16 61.9 95.05 61.64 95.43 60.92C95.82 60.19 95.56 59.3 94.84 58.91C94.33 58.61 93.73 58.7 93.26 59.04C92.97 59.04 92.75 59.08 92.46 59.08L89.77 57.63C89.26 57.33 89.22 56.61 89.73 56.27L92.33 54.69C92.58 54.52 92.88 54.52 93.14 54.69C93.6 54.99 94.2 55.03 94.71 54.73C95.39 54.31 95.65 53.41 95.22 52.69C94.75 52.01 93.86 51.75 93.14 52.18Z" fill="#DC4814" fill-opacity="1.000000" fill-rule="nonzero"/>
	</g>
</svg>
