<svg width="40.000000" height="40.000000" viewBox="0 0 40 40" fill="none" xmlns="http://www.w3.org/2000/svg"
     xmlns:xlink="http://www.w3.org/1999/xlink">
    <rect id="Rectangle 2342" rx="12.000000" width="40.000000" height="40.000000" fill="#F1F5F6"
          fill-opacity="1.000000"/>
    <path id="Vector"
          d="M15.46 9.06C16.63 9.01 17.01 9 20 9C22.98 9 23.36 9.01 24.53 9.06C25.7 9.11 26.5 9.3 27.2 9.57C27.93 9.85 28.6 10.28 29.15 10.84C29.71 11.39 30.14 12.06 30.42 12.79C30.69 13.49 30.88 14.29 30.93 15.46C30.98 16.63 31 17.01 31 20C31 22.98 30.98 23.36 30.93 24.53C30.88 25.7 30.69 26.5 30.42 27.2C30.14 27.93 29.71 28.6 29.15 29.15C28.6 29.71 27.93 30.14 27.2 30.42C26.5 30.69 25.7 30.87 24.53 30.93C23.36 30.98 22.98 31 20 31C17.01 31 16.63 30.98 15.46 30.93C14.29 30.88 13.49 30.69 12.79 30.42C12.06 30.14 11.39 29.71 10.84 29.15C10.28 28.6 9.85 27.93 9.57 27.2C9.3 26.5 9.12 25.7 9.06 24.53C9.01 23.36 9 22.98 9 20C9 17.01 9.01 16.63 9.06 15.46C9.11 14.29 9.3 13.49 9.57 12.79C9.85 12.06 10.28 11.39 10.84 10.84C11.39 10.28 12.06 9.85 12.79 9.57C13.49 9.3 14.29 9.12 15.46 9.06L15.46 9.06ZM24.44 11.04C23.28 10.99 22.93 10.98 20 10.98C17.06 10.98 16.71 10.99 15.55 11.04C14.48 11.09 13.9 11.27 13.51 11.42C12.99 11.62 12.63 11.86 12.24 12.24C11.88 12.6 11.6 13.03 11.42 13.51C11.27 13.89 11.09 14.48 11.04 15.55C10.99 16.71 10.98 17.06 10.98 20C10.98 22.93 10.99 23.28 11.04 24.44C11.09 25.51 11.27 26.1 11.42 26.48C11.6 26.96 11.88 27.39 12.24 27.75C12.6 28.11 13.03 28.39 13.51 28.57C13.9 28.72 14.48 28.9 15.55 28.95C16.71 29 17.06 29.01 20 29.01C22.93 29.01 23.28 29 24.44 28.95C25.51 28.9 26.1 28.72 26.48 28.57C27 28.37 27.36 28.13 27.75 27.75C28.11 27.39 28.39 26.96 28.57 26.48C28.72 26.1 28.9 25.51 28.95 24.44C29 23.28 29.01 22.93 29.01 20C29.01 17.06 29 16.71 28.95 15.55C28.9 14.48 28.72 13.89 28.57 13.51C28.37 12.99 28.13 12.63 27.75 12.24C27.39 11.88 26.96 11.6 26.48 11.42C26.1 11.27 25.51 11.09 24.44 11.04ZM18.59 23.39C19.37 23.71 20.25 23.76 21.06 23.51C21.88 23.26 22.58 22.74 23.05 22.04C23.52 21.33 23.74 20.48 23.65 19.64C23.57 18.79 23.19 18 22.59 17.4C22.21 17.02 21.74 16.72 21.23 16.54C20.72 16.36 20.18 16.29 19.64 16.34C19.1 16.4 18.57 16.57 18.11 16.85C17.64 17.13 17.25 17.51 16.94 17.96C16.64 18.41 16.45 18.92 16.37 19.46C16.29 19.99 16.33 20.54 16.48 21.06C16.64 21.58 16.91 22.06 17.28 22.46C17.64 22.86 18.09 23.18 18.59 23.39ZM16 16C16.52 15.47 17.15 15.06 17.83 14.77C18.52 14.49 19.25 14.34 20 14.34C20.74 14.34 21.47 14.49 22.16 14.77C22.84 15.06 23.47 15.47 23.99 16C24.52 16.52 24.93 17.15 25.22 17.83C25.5 18.52 25.65 19.25 25.65 20C25.65 20.74 25.5 21.47 25.22 22.16C24.93 22.84 24.52 23.47 23.99 23.99C22.93 25.05 21.49 25.65 20 25.65C18.5 25.65 17.06 25.05 16 23.99C14.94 22.93 14.34 21.49 14.34 20C14.34 18.5 14.94 17.06 16 16ZM26.9 15.18C27.03 15.06 27.14 14.91 27.21 14.75C27.28 14.59 27.32 14.41 27.32 14.23C27.33 14.05 27.29 13.87 27.22 13.71C27.16 13.54 27.06 13.39 26.93 13.27C26.8 13.14 26.65 13.04 26.49 12.97C26.32 12.9 26.14 12.87 25.97 12.87C25.79 12.88 25.61 12.91 25.45 12.99C25.28 13.06 25.14 13.16 25.01 13.29C24.77 13.55 24.64 13.88 24.65 14.23C24.65 14.58 24.79 14.91 25.04 15.16C25.29 15.4 25.62 15.54 25.97 15.55C26.31 15.55 26.65 15.42 26.9 15.18Z"
          fill="#1F1C1C" fill-opacity="1.000000" fill-rule="evenodd"/>
</svg>
