<svg width="34.999756" height="27.000000" viewBox="0 0 34.9998 27" fill="none" xmlns="http://www.w3.org/2000/svg" xmlns:xlink="http://www.w3.org/1999/xlink">
	<path id="Vector" d="M6.36 26.85L6.36 25.06C6.37 24.91 6.35 24.76 6.3 24.62C6.25 24.47 6.16 24.35 6.06 24.24C5.95 24.13 5.82 24.05 5.68 23.99C5.54 23.94 5.39 23.92 5.23 23.93C5.04 23.91 4.84 23.95 4.66 24.04C4.48 24.13 4.33 24.27 4.22 24.43C4.13 24.27 3.99 24.14 3.82 24.05C3.65 23.96 3.47 23.92 3.28 23.93C3.11 23.92 2.95 23.95 2.8 24.03C2.65 24.1 2.53 24.21 2.43 24.35L2.43 24L1.81 24L1.81 26.85L2.44 26.85L2.44 25.28C2.43 25.18 2.44 25.08 2.46 24.99C2.49 24.89 2.55 24.81 2.61 24.74C2.68 24.66 2.76 24.61 2.85 24.57C2.95 24.53 3.04 24.52 3.14 24.52C3.56 24.52 3.77 24.79 3.77 25.27L3.77 26.86L4.4 26.86L4.4 25.28C4.39 25.18 4.4 25.08 4.42 24.99C4.45 24.89 4.51 24.81 4.57 24.74C4.64 24.66 4.72 24.61 4.81 24.57C4.9 24.53 5 24.52 5.1 24.52C5.53 24.52 5.73 24.79 5.73 25.27L5.73 26.86L6.36 26.85ZM15.7 24L14.67 24L14.67 23.13L14.04 23.13L14.04 24L13.47 24L13.47 24.56L14.05 24.56L14.05 25.87C14.05 26.54 14.31 26.93 15.05 26.93C15.33 26.93 15.6 26.85 15.83 26.71L15.65 26.18C15.48 26.28 15.29 26.33 15.1 26.34C14.8 26.34 14.68 26.15 14.68 25.86L14.68 24.56L15.7 24.56L15.7 24ZM21.03 23.93C20.88 23.92 20.73 23.96 20.59 24.03C20.46 24.1 20.35 24.21 20.27 24.34L20.27 24L19.65 24L19.65 26.85L20.28 26.85L20.28 25.25C20.28 24.78 20.48 24.52 20.88 24.52C21.01 24.51 21.14 24.54 21.27 24.59L21.46 23.99C21.32 23.94 21.17 23.91 21.02 23.91L21.03 23.93ZM12.97 24.22C12.62 24.02 12.21 23.91 11.8 23.93C11.07 23.93 10.6 24.27 10.6 24.84C10.6 25.3 10.95 25.59 11.59 25.68L11.89 25.72C12.23 25.77 12.39 25.86 12.39 26.02C12.39 26.24 12.17 26.36 11.74 26.36C11.4 26.37 11.06 26.27 10.78 26.07L10.48 26.55C10.85 26.8 11.28 26.93 11.73 26.92C12.56 26.92 13.04 26.53 13.04 25.99C13.04 25.45 12.66 25.23 12.03 25.14L11.73 25.09C11.46 25.06 11.25 25 11.25 24.81C11.25 24.62 11.45 24.48 11.79 24.48C12.11 24.48 12.42 24.57 12.69 24.72L12.97 24.22ZM29.71 23.93C29.56 23.92 29.4 23.96 29.27 24.03C29.14 24.1 29.03 24.21 28.95 24.34L28.95 24L28.33 24L28.33 26.85L28.96 26.85L28.96 25.25C28.96 24.78 29.16 24.52 29.56 24.52C29.69 24.51 29.82 24.54 29.95 24.59L30.14 23.99C30 23.94 29.85 23.91 29.7 23.91L29.71 23.93ZM21.66 25.42C21.65 25.62 21.68 25.82 21.76 26C21.83 26.19 21.95 26.36 22.09 26.5C22.23 26.64 22.41 26.75 22.6 26.82C22.78 26.89 22.99 26.92 23.19 26.91C23.56 26.92 23.93 26.8 24.22 26.57L23.92 26.07C23.71 26.23 23.44 26.32 23.17 26.32C22.94 26.3 22.72 26.2 22.57 26.03C22.41 25.86 22.32 25.64 22.32 25.41C22.32 25.18 22.41 24.96 22.57 24.79C22.72 24.62 22.94 24.52 23.17 24.5C23.44 24.5 23.71 24.59 23.92 24.75L24.22 24.25C23.93 24.02 23.56 23.89 23.19 23.91C22.99 23.9 22.78 23.93 22.6 24C22.41 24.07 22.23 24.18 22.09 24.32C21.95 24.46 21.83 24.63 21.76 24.82C21.68 25 21.65 25.2 21.66 25.4L21.66 25.42ZM27.51 25.42L27.51 24L26.88 24L26.88 24.34C26.78 24.21 26.64 24.1 26.48 24.03C26.33 23.95 26.16 23.92 25.98 23.93C25.58 23.93 25.2 24.08 24.92 24.36C24.64 24.64 24.48 25.02 24.48 25.42C24.48 25.81 24.64 26.19 24.92 26.47C25.2 26.75 25.58 26.91 25.98 26.91C26.16 26.91 26.33 26.88 26.48 26.8C26.64 26.73 26.78 26.62 26.88 26.49L26.88 26.83L27.51 26.83L27.51 25.42ZM25.18 25.42C25.19 25.25 25.25 25.09 25.35 24.95C25.45 24.82 25.59 24.71 25.75 24.66C25.91 24.6 26.08 24.59 26.25 24.63C26.41 24.67 26.56 24.75 26.68 24.87C26.8 25 26.87 25.15 26.9 25.31C26.93 25.48 26.91 25.65 26.85 25.8C26.78 25.96 26.67 26.09 26.53 26.18C26.39 26.28 26.22 26.33 26.05 26.33C25.94 26.33 25.82 26.31 25.71 26.26C25.6 26.21 25.5 26.15 25.42 26.06C25.34 25.98 25.27 25.87 25.23 25.76C25.19 25.65 25.18 25.53 25.18 25.42ZM17.64 23.93C17.24 23.93 16.86 24.09 16.59 24.38C16.31 24.66 16.16 25.04 16.16 25.44C16.17 25.83 16.33 26.21 16.62 26.48C16.9 26.76 17.29 26.91 17.68 26.91C18.12 26.93 18.54 26.79 18.88 26.52L18.58 26.06C18.34 26.25 18.05 26.35 17.74 26.36C17.53 26.37 17.33 26.31 17.17 26.18C17.01 26.05 16.91 25.86 16.88 25.66L19.02 25.66C19.02 25.58 19.02 25.5 19.02 25.42C19.02 24.53 18.46 23.93 17.65 23.93L17.64 23.93ZM17.64 24.48C17.74 24.48 17.83 24.49 17.92 24.53C18 24.56 18.08 24.61 18.15 24.68C18.22 24.74 18.27 24.82 18.31 24.9C18.35 24.99 18.37 25.08 18.37 25.17L16.87 25.17C16.88 24.98 16.96 24.8 17.11 24.67C17.25 24.54 17.44 24.47 17.63 24.48L17.64 24.48ZM33.3 25.42L33.3 22.85L32.7 22.85L32.7 24.34C32.59 24.21 32.45 24.1 32.3 24.03C32.14 23.95 31.97 23.92 31.8 23.93C31.4 23.93 31.02 24.08 30.73 24.36C30.45 24.64 30.29 25.02 30.29 25.42C30.29 25.81 30.45 26.19 30.73 26.47C31.02 26.75 31.4 26.91 31.8 26.91C31.97 26.91 32.14 26.88 32.3 26.8C32.45 26.73 32.59 26.62 32.7 26.49L32.7 26.83L33.3 26.83L33.3 25.42ZM34.34 26.43C34.38 26.43 34.42 26.44 34.45 26.45C34.49 26.47 34.52 26.49 34.55 26.51C34.57 26.54 34.6 26.57 34.61 26.6C34.63 26.64 34.63 26.67 34.63 26.71C34.63 26.75 34.63 26.79 34.61 26.82C34.6 26.86 34.57 26.89 34.55 26.91C34.52 26.94 34.49 26.96 34.45 26.97C34.42 26.99 34.38 27 34.34 27C34.28 26.99 34.23 26.98 34.18 26.95C34.13 26.92 34.09 26.87 34.07 26.82C34.05 26.79 34.05 26.75 34.05 26.71C34.05 26.67 34.05 26.64 34.07 26.6C34.09 26.57 34.11 26.54 34.13 26.51C34.16 26.49 34.19 26.47 34.23 26.45C34.27 26.44 34.31 26.43 34.35 26.43L34.34 26.43ZM34.34 26.94C34.37 26.94 34.4 26.93 34.43 26.92C34.45 26.91 34.48 26.89 34.5 26.87C34.53 26.83 34.56 26.78 34.56 26.72C34.56 26.67 34.53 26.61 34.5 26.57C34.48 26.55 34.45 26.54 34.43 26.52C34.4 26.51 34.37 26.51 34.34 26.51C34.31 26.51 34.28 26.51 34.25 26.52C34.23 26.54 34.2 26.55 34.18 26.57C34.14 26.61 34.12 26.67 34.12 26.72C34.12 26.78 34.14 26.83 34.18 26.87C34.2 26.89 34.23 26.91 34.25 26.92C34.28 26.93 34.32 26.94 34.35 26.94L34.34 26.94ZM34.36 26.58C34.39 26.58 34.41 26.59 34.44 26.6C34.45 26.61 34.45 26.62 34.46 26.63C34.46 26.64 34.46 26.66 34.46 26.67C34.46 26.68 34.46 26.69 34.46 26.7C34.46 26.71 34.45 26.71 34.44 26.72C34.43 26.74 34.4 26.75 34.38 26.75L34.47 26.85L34.4 26.85L34.32 26.75L34.29 26.75L34.29 26.85L34.23 26.85L34.23 26.58L34.36 26.58ZM34.29 26.63L34.29 26.7L34.36 26.7C34.37 26.71 34.38 26.71 34.39 26.7C34.4 26.7 34.4 26.69 34.4 26.69C34.4 26.68 34.4 26.68 34.39 26.68C34.4 26.67 34.4 26.67 34.4 26.66C34.4 26.66 34.4 26.65 34.39 26.65C34.38 26.65 34.37 26.65 34.36 26.65L34.29 26.63ZM30.99 25.42C31 25.25 31.06 25.09 31.16 24.96C31.26 24.82 31.4 24.72 31.56 24.66C31.72 24.61 31.89 24.6 32.05 24.63C32.22 24.67 32.37 24.76 32.48 24.88C32.6 25 32.68 25.15 32.71 25.32C32.74 25.49 32.72 25.66 32.65 25.81C32.59 25.96 32.48 26.1 32.33 26.19C32.19 26.28 32.03 26.33 31.86 26.33C31.74 26.33 31.62 26.31 31.51 26.27C31.4 26.22 31.3 26.15 31.22 26.07C31.14 25.98 31.08 25.88 31.04 25.77C31 25.66 30.98 25.54 30.99 25.42ZM9.89 25.42L9.89 24L9.26 24L9.26 24.34C9.16 24.21 9.02 24.1 8.86 24.03C8.71 23.95 8.53 23.92 8.36 23.93C7.96 23.93 7.58 24.08 7.3 24.36C7.02 24.64 6.86 25.02 6.86 25.42C6.86 25.81 7.02 26.19 7.3 26.47C7.58 26.75 7.96 26.91 8.36 26.91C8.53 26.91 8.71 26.88 8.86 26.8C9.02 26.73 9.16 26.62 9.26 26.49L9.26 26.83L9.89 26.83L9.89 25.42ZM7.56 25.42C7.57 25.25 7.63 25.09 7.73 24.96C7.83 24.82 7.97 24.72 8.13 24.66C8.29 24.61 8.46 24.6 8.63 24.63C8.79 24.67 8.94 24.76 9.06 24.88C9.18 25 9.25 25.15 9.28 25.32C9.31 25.49 9.29 25.66 9.23 25.81C9.16 25.96 9.05 26.1 8.91 26.19C8.77 26.28 8.6 26.33 8.43 26.33C8.31 26.34 8.2 26.31 8.09 26.27C7.98 26.22 7.88 26.15 7.79 26.07C7.71 25.98 7.65 25.88 7.61 25.77C7.57 25.66 7.55 25.54 7.56 25.42L7.56 25.42Z" fill="#FFFFFF" fill-opacity="1.000000" fill-rule="nonzero"/>
	<path id="Vector" d="M12.76 2.29L22.23 2.29L22.23 19.16L12.76 19.16L12.76 2.29Z" fill="#FF5F00" fill-opacity="1.000000" fill-rule="evenodd"/>
	<path id="&lt;Path&gt;" d="M13.36 10.73C13.36 9.1 13.73 7.5 14.45 6.03C15.16 4.57 16.2 3.29 17.49 2.29C15.9 1.05 13.98 0.27 11.96 0.06C9.95 -0.16 7.91 0.2 6.08 1.08C4.26 1.95 2.72 3.33 1.64 5.03C0.57 6.74 0 8.71 0 10.72C0 12.74 0.57 14.71 1.64 16.41C2.72 18.12 4.26 19.49 6.08 20.37C7.91 21.25 9.95 21.6 11.96 21.39C13.98 21.17 15.9 20.4 17.49 19.16C16.21 18.15 15.16 16.87 14.45 15.41C13.73 13.95 13.36 12.35 13.36 10.73Z" fill="#EB001B" fill-opacity="1.000000" fill-rule="nonzero"/>
	<path id="Vector" d="M34.99 10.73C34.99 12.74 34.42 14.71 33.35 16.42C32.27 18.12 30.73 19.49 28.91 20.37C27.08 21.25 25.04 21.61 23.02 21.39C21.01 21.18 19.09 20.4 17.49 19.16C18.78 18.15 19.82 16.87 20.54 15.41C21.26 13.95 21.63 12.35 21.63 10.72C21.63 9.1 21.26 7.5 20.54 6.03C19.82 4.57 18.78 3.29 17.49 2.29C19.09 1.05 21.01 0.27 23.02 0.06C25.04 -0.16 27.08 0.19 28.91 1.07C30.73 1.95 32.27 3.32 33.35 5.03C34.42 6.74 34.99 8.71 34.99 10.72L34.99 10.73Z" fill="#F79E1B" fill-opacity="1.000000" fill-rule="nonzero"/>
	<path id="Vector" d="M33.96 17.37L33.96 17.02L34.1 17.02L34.1 16.95L33.75 16.95L33.75 17.02L33.9 17.02L33.9 17.37L33.96 17.37ZM34.66 17.37L34.66 16.95L34.55 16.95L34.42 17.25L34.29 16.95L34.2 16.95L34.2 17.37L34.28 17.37L34.28 17.06L34.39 17.33L34.48 17.33L34.59 17.06L34.59 17.37L34.66 17.37Z" fill="#F79E1B" fill-opacity="1.000000" fill-rule="nonzero"/>
</svg>
