<svg width="149" height="108" viewBox="0 0 149 108" fill="none" xmlns="http://www.w3.org/2000/svg">
    <g clip-path="url(#clip0_325_2882)">
        <path d="M83.4634 101.308C83.4634 101.21 83.0961 101.7 83.8798 101.725C83.8063 101.651 83.9288 101.235 83.4634 101.308Z" fill="#E6332A"/>
        <path d="M74.9408 100.328L76.0184 100.818L75.8959 100.646L74.9408 100.328Z" fill="#E6332A"/>
        <path d="M72.7122 100.254C72.3938 100.279 72.051 100.23 71.6836 100.156C71.3407 100.058 70.9734 99.9601 70.6305 99.862C69.9448 99.6659 69.3325 99.5434 68.9407 99.7885C69.0876 99.7885 69.2101 99.813 69.3815 99.8375C69.5284 99.862 69.6999 99.8865 69.8713 99.911C70.2142 99.9846 70.606 100.083 70.9979 100.181C71.1938 100.23 71.3897 100.303 71.6101 100.352C71.8061 100.401 72.0265 100.45 72.2224 100.499C72.6387 100.597 73.0306 100.671 73.3979 100.744L72.9081 100.132L72.7122 100.254Z" fill="#E6332A"/>
        <path d="M64.9242 100.328C65.2916 100.401 65.4875 100.45 65.6345 100.499C65.6834 100.499 65.7079 100.475 65.8059 100.475C64.1895 99.8865 65.2181 100.132 64.9242 100.328Z" fill="#E6332A"/>
        <path d="M65.6345 100.524C65.0957 100.597 66.3691 100.744 65.6345 100.524V100.524Z" fill="#E6332A"/>
        <path d="M61.765 99.4699C61.7405 99.5434 61.9119 99.715 62.3772 99.9356C62.1078 99.715 62.965 99.9601 63.2099 99.8866L62.3282 99.3473C62.0099 99.3718 61.7895 99.3718 61.765 99.4699Z" fill="#E6332A"/>
        <path d="M62.0589 98.808L61.618 98.5383C61.814 98.808 61.9609 98.8325 62.0589 98.808Z" fill="#E6332A"/>
        <path d="M63.0385 99.3718C62.6467 99.0777 62.4997 98.8325 62.5242 99.0532C62.4262 98.808 62.3528 98.7345 62.3038 98.7345C62.2303 98.7345 62.1813 98.7835 62.0834 98.8325C62.2303 98.9306 62.4018 99.0286 62.5732 99.1022L63.0385 99.3718Z" fill="#E6332A"/>
        <path d="M64.9977 99.4943C64.8998 99.4453 64.7773 99.3718 64.6304 99.2982C64.4834 99.2247 64.2875 99.1511 64.0671 99.0531C64.9243 99.5924 64.2385 99.4698 63.6508 99.4208C64.5324 99.7885 65.0957 99.813 65.1937 99.7149C65.2426 99.6904 65.1692 99.6169 64.9977 99.4943Z" fill="#E6332A"/>
        <path d="M70.0672 99.2982L69.5039 98.9551L68.7692 99.0041C68.7202 99.1021 68.9896 99.1512 69.2835 99.1757C69.4305 99.2002 69.6019 99.2002 69.7488 99.2247C69.8713 99.2247 69.9937 99.2492 70.0672 99.2982Z" fill="#E6332A"/>
        <path d="M56.475 97.1902C56.6219 97.0186 57.3077 97.2637 57.675 97.3373L57.0872 96.847C56.9403 96.9941 56.475 97.0431 56.475 97.1902Z" fill="#E6332A"/>
        <path d="M56.2301 96.1362L57.0873 96.8471C57.2097 96.749 57.1118 96.5529 56.2301 96.1362Z" fill="#E6332A"/>
        <path d="M63.2344 98.8326L62.4752 98.2933L61.7405 97.7295L61.4221 97.6069L62.3038 98.2442C62.5977 98.4403 62.916 98.6365 63.2344 98.8326Z" fill="#E6332A"/>
        <path d="M52.4341 94.739C52.6545 95.0822 52.8749 95.4254 53.1198 95.7686C52.9974 95.5725 52.8749 95.3518 52.7525 95.1312L52.4341 94.739Z" fill="#E6332A"/>
        <path d="M50.4503 93.5379C50.034 93.3909 49.6911 93.2193 49.3727 93.0232C49.2993 92.9742 49.2258 92.9251 49.1523 92.8761C49.0788 92.8271 49.0299 92.7781 48.9564 92.729C48.8339 92.631 48.7115 92.5084 48.6135 92.3859C48.687 92.5084 48.785 92.6555 48.8829 92.8026C48.9319 92.8761 48.9809 92.9496 49.0299 93.0232C49.0788 93.0967 49.1278 93.1702 49.1768 93.2193C49.3972 93.4889 49.6421 93.7585 49.936 94.0037C49.6421 93.5624 50.6707 94.0527 50.4503 93.5379Z" fill="#E6332A"/>
        <path d="M48.6135 92.3859C48.4176 92.0672 48.2217 91.7731 48.0258 91.528C48.1972 91.8466 48.3931 92.1408 48.6135 92.3859Z" fill="#E6332A"/>
        <path d="M53.6096 95.2293C54.1974 95.4499 54.4423 95.3273 54.5647 95.3028C54.4423 95.2293 54.2954 95.1557 54.1974 95.1067L53.6096 95.2293Z" fill="#E6332A"/>
        <path d="M53.6341 94.8125C53.5117 94.7389 53.4137 94.6899 53.3647 94.6654C53.4382 94.6654 53.5362 94.7389 53.6341 94.8125C53.8056 94.9105 53.977 94.9841 54.1729 95.1066H54.1974C53.9525 94.9595 53.7811 94.8615 53.6341 94.8125Z" fill="#E6332A"/>
        <path d="M54.5647 95.3027C54.5892 95.3273 54.6137 95.3273 54.6627 95.3518C54.6382 95.2782 54.6137 95.2782 54.5647 95.3027Z" fill="#E6332A"/>
        <path d="M58.7037 95.9646C58.5322 95.9401 58.4098 95.9401 58.3118 95.9401C58.2139 95.9401 58.1649 95.9646 58.1159 95.9891C58.0424 96.0381 58.0669 96.1362 58.1404 96.2587C58.3118 96.4793 58.7037 96.798 58.9486 97.0186C58.2383 96.2832 58.9976 96.4058 58.7037 95.9646Z" fill="#E6332A"/>
        <path d="M56.426 95.6215C56.2546 95.548 56.0587 95.4744 55.8872 95.4009L55.3729 95.1558L55.8382 95.597C55.9852 95.7441 56.1566 95.8666 56.3281 96.0137C56.0831 95.7686 56.3525 95.7195 56.426 95.6215Z" fill="#E6332A"/>
        <path d="M54.9812 94.9842L55.373 95.1558L54.9567 94.7635L54.9812 94.9842Z" fill="#E6332A"/>
        <path d="M49.6177 92.1162C49.7157 92.2142 49.7892 92.3123 49.8626 92.4348C50.4259 92.8515 50.328 92.5084 50.328 92.3368C49.7892 91.9691 49.2259 91.5769 48.6626 91.2338C48.9075 91.4299 49.1279 91.626 49.3238 91.822C49.4218 91.9201 49.5198 92.0181 49.6177 92.1162Z" fill="#E6332A"/>
        <path d="M51.8708 93.6849C51.8953 93.7095 51.9198 93.734 51.9443 93.7585C52.0178 93.7094 51.9443 93.6849 51.8708 93.6849Z" fill="#E6332A"/>
        <path d="M44.1808 87.2874C44.1808 87.2629 44.2053 87.2383 44.2053 87.2138C44.1564 87.2138 44.1319 87.2138 44.0829 87.1893L44.1808 87.2874Z" fill="#E6332A"/>
        <path d="M50.4748 92.3368C50.3524 92.2387 50.3279 92.2632 50.3279 92.3368C50.6707 92.5819 50.9891 92.827 51.2585 93.0721C51.1116 92.827 50.9157 92.5819 50.4748 92.3368Z" fill="#E6332A"/>
        <path d="M47.634 90.67C47.3646 90.5229 47.0952 90.3759 46.8258 90.2778C46.8258 90.4249 47.3646 90.621 47.634 90.67Z" fill="#E6332A"/>
        <path d="M51.7239 93.734C51.6994 93.7094 51.6994 93.7095 51.6749 93.6849C51.577 93.7095 51.528 93.734 51.7239 93.734Z" fill="#E6332A"/>
        <path d="M51.8708 93.685C51.6994 93.5134 51.479 93.3173 51.2585 93.0967C51.381 93.2928 51.479 93.4889 51.6504 93.685C51.7239 93.6605 51.7973 93.6605 51.8708 93.685Z" fill="#E6332A"/>
        <path d="M44.5972 88.3168C45.3319 88.5864 45.6993 88.7335 46.1401 89.0522C46.0421 88.9296 45.9197 88.807 45.8217 88.6845L45.8952 88.8316C45.3319 88.3168 44.7441 87.8021 44.1808 87.2628C44.1319 87.4099 44.1564 87.6305 44.5972 88.3168Z" fill="#E6332A"/>
        <path d="M47.7074 90.6945C47.7319 90.67 47.7074 90.6455 47.7319 90.621C47.6094 90.4494 47.2176 90.0817 47.7564 90.4249C47.7564 90.4984 47.7564 90.5474 47.7319 90.621C47.7319 90.621 47.7564 90.6455 47.7564 90.67C47.8543 90.719 47.8054 90.719 47.7074 90.6945C47.6829 90.6945 47.6584 90.6945 47.6339 90.67C47.9768 90.8416 48.3197 91.0377 48.6625 91.2338C48.3931 90.9887 48.0748 90.7435 47.7809 90.4004C48.4911 90.8171 48.3197 90.4984 48.1972 90.2778C48.0748 90.0572 47.9768 89.9101 48.834 90.621C48.2952 89.9592 48.8095 89.9837 47.8054 89.0767C46.9972 88.9787 47.7319 89.8366 47.7319 90.4004C46.9727 89.6895 46.5319 89.2728 46.14 89.0277L47.7074 90.6945Z" fill="#E6332A"/>
        <path d="M57.7975 94.9841C57.3322 94.788 57.2832 94.5919 57.1608 94.4694C56.8179 94.4939 56.573 94.5674 56.3526 94.6164C56.1812 94.6655 56.0097 94.739 55.8628 94.8125C55.9852 94.8125 56.1567 94.8125 56.4016 94.837C56.8179 94.8615 57.3322 94.9351 57.7486 95.0821L57.871 95.2047C58.8261 95.4498 58.2139 94.9351 57.9935 94.69C57.871 94.8125 58.2384 95.0821 57.7975 94.9841Z" fill="#E6332A"/>
        <path d="M55.7403 94.8615C55.7647 94.837 55.8137 94.837 55.8382 94.8125C55.7647 94.837 55.7158 94.837 55.7403 94.8615Z" fill="#E6332A"/>
        <path d="M51.0137 91.3809C51.479 91.7731 51.9198 92.1898 52.3851 92.582C52.3606 92.3613 52.7035 92.2878 51.8219 91.7485L51.9933 91.6015L51.0137 91.3809Z" fill="#E6332A"/>
        <path d="M43.3726 86.4784L43.6664 87.6795L43.8134 87.1893L43.3726 86.4784Z" fill="#E6332A"/>
        <path d="M41.7073 85.0813L41.9522 85.7186L42.1726 85.4L41.7073 85.0813Z" fill="#E6332A"/>
        <path d="M33.1845 27.9191C32.8417 27.6495 32.9641 28.7035 32.9641 29.586C33.0376 29.2183 33.1601 28.8016 33.4539 28.3359L33.1845 27.9191Z" fill="#E6332A"/>
        <path d="M62.3772 4.82891C62.4261 4.75537 62.4751 4.68184 62.5486 4.63281C62.2792 4.63281 62.0098 4.63281 61.7649 4.63281C61.9608 4.70635 62.1567 4.75537 62.3772 4.82891Z" fill="#E6332A"/>
        <path d="M64.4345 5.58875L63.6018 6.15252C63.9937 5.93191 64.263 5.73582 64.4345 5.58875Z" fill="#E6332A"/>
        <path d="M30.0253 62.0154C30.1722 62.4811 30.3681 62.9959 30.6865 63.6332C30.9559 63.3145 30.4661 62.7753 30.0253 62.0154Z" fill="#E6332A"/>
        <path d="M95.7822 3.84839C95.6842 3.92192 95.8311 4.069 96.1006 4.26509C96.1495 4.19156 96.0516 4.04448 95.7822 3.84839Z" fill="#E6332A"/>
        <path d="M29.658 61.0839C29.707 61.2555 29.7559 61.4026 29.8049 61.5742C29.8784 61.7212 29.9274 61.8683 30.0253 62.0154C29.9764 61.8683 29.9519 61.7212 29.9274 61.5742C29.9029 61.4271 29.8784 61.3045 29.8539 61.1575C29.8294 60.8878 29.8049 60.6427 29.7804 60.3731C29.7315 60.2505 29.6825 60.1525 29.609 60.0299C29.5355 60.3976 29.56 60.7653 29.658 61.0839Z" fill="#E6332A"/>
        <path d="M90.2229 99.4699C90.7127 99.3963 90.9821 99.3473 91.1291 99.2493C90.8107 99.3718 90.4433 99.4454 90.2229 99.4699Z" fill="#E6332A"/>
        <path d="M36.2214 77.6296C36.2214 77.7277 36.4663 78.0954 36.2214 77.6296V77.6296Z" fill="#E6332A"/>
        <path d="M36.4908 77.8747C36.4173 77.8012 36.3683 77.7276 36.3193 77.7031C36.4663 77.8992 36.6132 78.0708 36.7602 78.1934C36.7112 78.1198 36.6377 78.0708 36.5887 78.0218C36.5642 77.9728 36.5397 77.9237 36.4908 77.8747Z" fill="#E6332A"/>
        <path d="M36.8336 78.5856C36.7601 78.4875 36.6622 78.365 36.5642 78.2179C36.7356 78.6591 36.8091 78.6836 36.8336 78.5856Z" fill="#E6332A"/>
        <path d="M36.2214 77.6296C36.2214 77.6051 36.2704 77.6296 36.3439 77.7031C36.1724 77.4825 36.0255 77.2619 35.8785 76.9923C36.05 77.311 36.1479 77.5071 36.2214 77.6296Z" fill="#E6332A"/>
        <path d="M119.783 75.8893C119.783 75.9383 119.783 75.9628 119.807 76.0118C119.807 75.9628 119.783 75.9383 119.783 75.8893Z" fill="#E6332A"/>
        <path d="M115.252 82.483C115.717 81.8212 116.109 81.1348 116.55 80.522C116.648 80.375 116.771 80.2034 116.868 80.0563C116.917 79.9828 116.991 79.9092 117.04 79.8357C117.089 79.7622 117.138 79.6886 117.211 79.6151C117.432 79.3209 117.652 79.0513 117.897 78.7817C118.118 77.8747 117.211 78.5856 117.726 77.5561C117.701 77.9973 117.824 78.0708 118.02 77.9238C118.069 77.8992 118.118 77.8502 118.191 77.7767C118.24 77.7277 118.313 77.6541 118.362 77.5561C118.485 77.409 118.607 77.2129 118.73 77.0168C118.999 76.6246 119.244 76.2324 119.44 76.0118C119.538 75.8893 119.611 75.8157 119.685 75.8157C119.734 75.8157 119.758 75.8402 119.783 75.8893C119.709 75.1784 120.101 74.296 120.371 73.5361C120.64 72.7272 120.762 72.0899 120.077 72.0654C120.567 70.7908 121.056 71.2565 120.983 71.6732C121.571 70.178 122.036 68.9769 122.82 67.8493C122.82 67.7268 122.869 67.5307 122.942 67.2855C122.967 67.163 123.016 67.0159 123.065 66.8688C123.114 66.7218 123.163 66.5502 123.212 66.3541C123.309 65.9864 123.432 65.5942 123.579 65.153C123.652 64.9324 123.726 64.7118 123.775 64.4912C123.824 64.2706 123.897 64.0254 123.946 63.8048C124.069 63.3391 124.167 62.8734 124.265 62.4076C124.289 62.2851 124.314 62.187 124.314 62.0645C124.338 61.9419 124.338 61.8439 124.363 61.7213C124.387 61.5007 124.412 61.2801 124.436 61.084C124.461 60.6673 124.485 60.2996 124.461 59.9809C124.461 59.8094 124.436 59.6623 124.412 59.5397C124.387 59.4172 124.338 59.2946 124.289 59.1966C124.779 60.2506 124.632 59.1721 125.024 58.2896L125.465 59.2211L125.587 58.1425C125.636 57.7749 125.661 57.4317 125.685 57.064C125.783 56.6228 125.759 56.5002 125.71 56.5002C125.71 56.1326 125.391 56.5493 125.318 55.6178C125.367 54.907 125.44 54.5148 125.563 54.2206C125.685 53.9265 125.832 53.7059 126.003 53.3137L126.077 53.5343L126.175 52.5538C126.175 52.1861 126.003 52.8234 125.832 53.2647C125.636 53.7059 125.416 53.902 125.342 52.7254C125.391 52.7254 125.465 52.6273 125.563 52.4803C125.661 52.3332 125.734 52.1371 125.832 51.9165C125.979 51.4753 126.077 50.985 125.857 50.6664C125.881 51.892 125.489 51.7204 125.342 51.2792L125.318 50.4458C125.318 50.1761 125.318 49.882 125.293 49.6124L125.661 49.882L126.028 50.1516C126.028 49.8575 126.003 49.5388 125.979 49.2447C125.954 48.9505 125.93 48.6319 125.905 48.3132C125.881 47.9946 125.856 47.7004 125.832 47.3818C125.808 47.0631 125.759 46.769 125.71 46.4503C125.612 45.8375 125.538 45.2247 125.44 44.5874C125.318 43.9746 125.195 43.3618 125.073 42.749C124.975 42.1362 124.779 41.5234 124.656 40.9106C124.51 40.2978 124.363 39.685 124.191 39.0722C124.02 38.4594 123.848 37.8466 123.677 37.2338C123.481 36.621 123.285 36.0082 123.114 35.3954C122.967 35.4689 122.844 35.2728 122.697 34.9787C122.55 34.6845 122.379 34.2678 122.232 33.8756C122.06 33.4834 121.889 33.0912 121.718 32.8706C121.546 32.6255 121.35 32.552 121.203 32.7481L121.35 32.8951C121.522 33.5079 121.326 33.4834 121.056 33.1893C120.934 33.0422 120.762 32.8216 120.616 32.601C120.469 32.3559 120.346 32.1108 120.273 31.8656C120.616 32.3069 120.64 31.7676 120.714 31.4244C120.787 31.0813 120.934 30.9097 121.497 32.0863L121.326 31.0813L121.228 30.5665L121.179 30.3214L121.13 30.0763C121.399 29.635 121.399 29.1203 121.203 28.532C121.154 28.3849 121.105 28.2379 121.032 28.0663C120.958 27.9192 120.885 27.7476 120.787 27.6006C120.616 27.2819 120.395 26.9632 120.15 26.6201C119.93 26.2769 119.685 25.9337 119.44 25.5906C119.171 25.2474 118.926 24.9042 118.681 24.5611C118.558 24.3895 118.436 24.2179 118.313 24.0218C118.191 23.8502 118.093 23.6541 117.971 23.4825C117.75 23.1394 117.554 22.7717 117.407 22.404C117.481 22.6246 117.432 22.7227 117.383 22.7717C117.26 22.453 117.089 22.1344 116.917 21.8157C116.844 21.6686 116.746 21.4971 116.624 21.35C116.526 21.2029 116.428 21.0558 116.305 20.9088C116.085 20.6146 115.864 20.345 115.644 20.0754C115.522 19.9528 115.424 19.8057 115.301 19.6832C115.179 19.5606 115.056 19.438 114.958 19.34C114.493 18.8988 114.077 18.5066 113.758 18.1634C113.611 17.9918 113.464 17.8693 113.366 17.7467C113.268 17.6242 113.195 17.5261 113.17 17.4526L112.656 17.5751C112.411 17.0114 112.215 16.5701 112.044 16.2025C111.848 15.8348 111.652 15.5406 111.432 15.271C111.211 15.0014 110.966 14.7317 110.623 14.4131C110.281 14.1189 109.84 13.7758 109.301 13.3591C109.276 13.4326 109.423 13.7513 109.032 13.5306C108.909 13.163 108.787 12.7953 108.493 12.4031C108.346 12.207 108.15 11.9864 107.905 11.7413C107.783 11.6187 107.636 11.4961 107.489 11.3491C107.342 11.2265 107.17 11.0794 106.974 10.9324L106.95 11.104L105.799 10.148L105.211 9.68225L104.623 9.24104C104.403 9.53518 104.084 9.46165 103.668 9.19201C103.472 9.04494 103.252 8.87336 103.007 8.65275C102.762 8.45665 102.517 8.21153 102.248 7.99092C101.978 7.77032 101.709 7.5252 101.44 7.30459C101.317 7.20654 101.17 7.10849 101.023 7.01044C100.876 6.9124 100.754 6.83886 100.607 6.76532C100.068 6.49569 99.5782 6.37313 99.1864 6.61825C99.1374 6.54471 99.0884 6.44667 99.0149 6.34862C98.9415 6.25057 98.819 6.15252 98.7211 6.05447C98.5006 5.85838 98.2068 5.63777 97.8884 5.41716C97.7414 5.31911 97.57 5.19655 97.4231 5.0985C97.2761 5.00046 97.1047 4.8779 96.9577 4.80436C96.6639 4.60826 96.3945 4.43668 96.1741 4.28961C96.1496 4.33863 96.0516 4.38766 95.8802 4.38766C95.7087 4.09351 95.4149 3.8729 95.072 3.70132C94.7291 3.55425 94.3128 3.43169 93.8719 3.35815C93.4556 3.28461 93.0148 3.21108 92.6229 3.13754C92.2311 3.08852 91.8637 3.01498 91.5698 2.89242C90.8351 2.45121 91.2515 2.32865 91.6923 2.18157C91.4719 2.18157 91.2515 2.15706 91.0066 2.10804C90.8841 2.08353 90.7617 2.05901 90.6637 2.00999C90.5413 1.98548 90.4188 1.93645 90.2963 1.88743C89.8065 1.71584 89.3167 1.47072 88.8514 1.2256C88.729 1.15207 88.631 1.10304 88.5085 1.05402C88.3861 1.005 88.2881 0.955971 88.1902 0.882435C87.9698 0.784387 87.7738 0.686339 87.6024 0.612803C87.235 0.441219 86.9656 0.343171 86.7942 0.392195C86.5003 0.343171 86.3044 0.343171 86.1819 0.392195C86.0595 0.441219 86.035 0.514755 86.0105 0.588291C85.986 0.759875 86.035 0.980483 85.8391 1.12756C84.9819 0.906947 85.1044 0.588291 85.1289 0.343171C85.1778 0.0980503 85.1044 -0.0735339 83.8554 0.0245142C84.1247 0.147074 84.639 0.269635 84.4186 0.318659C84.1737 0.318659 83.9043 0.392195 83.586 0.514755C83.2676 0.661827 82.9247 0.833411 82.5819 0.980484C82.239 1.15207 81.9206 1.29914 81.6022 1.37268C81.4553 1.4217 81.3083 1.44621 81.1859 1.44621C81.0634 1.44621 80.941 1.4217 80.8185 1.37268L81.1124 1.25012C81.2104 1.20109 81.3083 1.17658 81.4308 1.15207C81.2349 1.07853 81.0145 1.05402 80.794 1.02951C80.5736 1.02951 80.3532 1.02951 80.1328 1.05402C79.692 1.10304 79.2267 1.20109 78.8348 1.29914C78.0266 1.51975 77.4144 1.66682 77.2919 1.15207L77.4389 0.686339C77.0715 0.759875 76.8021 0.808899 76.5572 0.857923C76.4347 0.882435 76.3368 0.882435 76.2388 0.906947C76.1409 0.931459 76.0674 0.931459 75.9939 0.931459C75.7 0.955971 75.5531 0.955971 75.4061 0.931459C75.2592 0.906947 75.0878 0.882435 74.7939 0.906947C74.5 0.931459 74.0592 0.980484 73.3489 1.20109L73.3979 1.27463C72.7612 1.29914 72.2959 1.47072 71.904 1.54426C71.806 1.56877 71.7081 1.56877 71.6101 1.59328C71.5122 1.59328 71.4387 1.59328 71.3407 1.59328C71.1693 1.56877 70.9979 1.49524 70.8264 1.32365L71.2428 1.15207C70.4591 1.25012 70.0427 1.29914 69.6264 1.37268C69.406 1.4217 69.2101 1.44621 68.9407 1.49524C68.6958 1.54426 68.3774 1.6178 68.01 1.71584C67.8141 1.69133 67.0304 1.74036 66.859 1.93645C66.761 1.6178 65.8304 1.81389 64.8507 2.05901C64.7283 2.08352 64.6058 2.13255 64.4834 2.15706C64.3609 2.18157 64.2385 2.2306 64.116 2.27962C63.8711 2.35316 63.6507 2.45121 63.4548 2.52474C63.0385 2.69633 62.6956 2.81889 62.5486 2.89242C63.7732 2.59828 63.2834 3.03949 63.0385 3.38266C62.818 3.30913 62.6221 3.28461 62.4507 3.2601C62.2793 3.23559 62.0833 3.2601 61.9364 3.30913C61.5935 3.40717 61.2751 3.60327 60.8588 3.97095C60.6629 3.62778 60.418 3.28461 60.0016 3.11303C59.7812 3.03949 59.5363 2.96596 59.1935 3.01498C58.8751 3.06401 58.4832 3.16205 57.9934 3.35815C58.3363 3.33364 58.8261 3.18657 58.7036 3.43169C58.5812 3.6523 58.0669 3.70132 57.8955 3.70132C57.773 3.92193 58.4342 3.77485 58.3363 4.11802C57.9444 4.09351 57.6016 4.11802 57.2832 4.21607C56.9648 4.31412 56.6954 4.46119 56.4015 4.65729C56.1077 4.82887 55.7893 5.02497 55.4464 5.22107C55.275 5.31911 55.0791 5.41716 54.8831 5.51521C54.6872 5.61326 54.4668 5.71131 54.2219 5.80935C54.8831 5.68679 54.4913 6.1035 54.4178 6.44667C54.2709 6.27508 54.0749 6.32411 53.8545 6.44667C53.7566 6.5202 53.6341 6.61825 53.5362 6.7163C53.4872 6.76532 53.4382 6.81435 53.3647 6.86337C53.3157 6.9124 53.2668 6.98593 53.2178 7.03496C52.8259 7.47617 52.5076 7.81934 52.532 7.133C52.1647 7.47617 51.7484 7.79483 51.332 8.138C50.9157 8.48117 50.4748 8.84885 50.034 9.19201C49.5687 9.53518 49.1279 9.90286 48.687 10.2705C48.4666 10.4421 48.2462 10.6382 48.0258 10.8098C47.9278 10.9079 47.8054 10.9814 47.7074 11.0794C47.6095 11.1775 47.5115 11.251 47.389 11.3491C46.9727 11.7168 46.5809 12.0599 46.2135 12.4031C46.1155 12.4766 46.0421 12.5747 45.9441 12.6482C45.8706 12.7463 45.7727 12.8198 45.6992 12.8933C45.5278 13.0649 45.3808 13.212 45.2339 13.3836C44.94 13.7022 44.6951 13.9719 44.5237 14.2415C44.4257 14.3641 44.3522 14.4866 44.2788 14.6092C44.2053 14.7317 44.1563 14.8298 44.1318 14.9278C44.1073 15.1975 43.8134 15.4181 43.4706 15.6632C43.2991 15.7858 43.1032 15.9083 42.9318 16.0064C42.7604 16.1289 42.6134 16.2515 42.491 16.374L42.8338 16.5701C41.9522 17.0604 41.6583 17.3055 41.3399 17.5751C41.2664 17.6487 41.1685 17.7222 41.095 17.7957C40.997 17.8693 40.8991 17.9673 40.7766 18.0654C40.5317 18.2615 40.2133 18.5066 39.7235 18.8498C40.6542 18.384 40.5807 18.8498 40.3113 19.7812C40.0419 19.9038 39.797 20.0263 39.5521 20.1489L38.6949 20.5901L39.0133 21.1784C38.8664 21.2764 38.7439 21.3745 38.646 21.4971C38.597 21.5461 38.5235 21.6196 38.4745 21.6932C38.4255 21.7667 38.3766 21.8402 38.3276 21.9138C38.1561 22.2079 38.0092 22.5266 37.8623 22.8207C37.6908 22.8452 37.5194 22.9433 37.3235 23.0903C37.201 23.1884 37.0541 23.3109 36.9316 23.458C36.8092 23.6051 36.6867 23.7522 36.5398 23.8992C36.05 24.512 35.5846 25.1739 35.2908 25.2719C35.4867 25.7621 35.2173 26.1543 34.9724 26.522C34.7275 26.8897 34.4826 27.2329 34.703 27.6251C34.5071 27.7721 34.3111 28.0173 34.0907 28.2624C33.9193 27.7966 33.6009 27.527 33.503 28.1643C33.4785 28.2134 33.454 28.2379 33.4295 28.2869L33.7479 28.7281C33.5764 28.9977 33.405 29.2674 33.258 29.537C33.1111 29.8066 33.0131 30.0518 32.9152 30.2479C32.9397 30.0518 32.9642 29.8066 32.9397 29.537C32.8907 29.8311 32.8907 30.1008 32.8662 30.3459C32.8417 30.4194 32.7927 30.5175 32.7927 30.5665C32.8172 30.542 32.8417 30.493 32.8662 30.4439C32.8172 30.8607 32.7193 31.2528 32.3764 31.6941C32.3764 31.8411 32.3519 31.9882 32.3274 32.1353C32.3029 32.2824 32.2784 32.4294 32.2295 32.5765C32.156 32.8706 32.058 33.1403 31.9356 33.4344C31.8131 33.704 31.6662 33.9982 31.5437 34.2678C31.4213 34.562 31.2743 34.8316 31.1274 35.1257C30.9804 35.4199 30.858 35.714 30.711 36.0082C30.6376 36.1553 30.5886 36.3023 30.5396 36.4494C30.4906 36.5965 30.4416 36.7681 30.3927 36.9151C30.2212 37.5279 30.1478 38.1897 30.2457 38.8271C30.2457 38.4349 30.3192 37.9201 30.5151 37.8221C30.4416 38.0672 30.3927 38.3368 30.3437 38.5819C30.3192 38.7045 30.2947 38.8271 30.2702 38.9496C30.2457 39.0722 30.2457 39.1947 30.2212 39.3418C30.1723 39.8566 30.1478 40.3468 30.1233 40.8125C30.0988 41.0577 30.0988 41.2783 30.0743 41.4989C30.0743 41.7195 30.0498 41.9401 30.0253 42.1362C29.9763 42.5284 29.9029 42.8961 29.7804 43.2147L29.3641 43.0676C29.1437 43.803 29.0212 44.4648 28.8987 45.1021C28.7763 45.7395 28.6783 46.3277 28.6783 46.9405L28.1885 46.9896C28.213 47.4553 28.164 48.0191 28.1151 48.6564C28.0906 48.8035 28.0906 48.975 28.0906 49.1466C28.0906 49.3182 28.0661 49.4653 28.0661 49.6369C28.0416 49.98 28.0171 50.3232 28.0171 50.6419C28.0171 50.8134 28.0171 50.985 28.0171 51.1321C28.0171 51.3037 28.0171 51.4508 28.0171 51.6223C28.0416 51.941 28.0661 52.2351 28.1151 52.5048C28.213 53.044 28.3844 53.4853 28.6538 53.7549C28.4579 54 28.5559 54.6128 28.6783 55.2991C28.8008 55.9855 28.9722 56.7454 28.9967 57.2356L29.413 57.4317C29.56 58.069 29.6579 58.6083 29.6824 59.074C29.7314 59.5397 29.7559 59.9319 29.7804 60.3486C29.9518 60.6673 30.0743 60.9614 30.1967 61.2801C30.2457 61.4272 30.2947 61.5987 30.3682 61.7458C30.4172 61.8929 30.4661 62.0645 30.5151 62.2115C30.711 62.8243 30.8335 63.4371 30.9559 64.0499C31.0784 64.6627 31.2009 65.2756 31.3233 65.8638C31.3968 66.158 31.4458 66.4521 31.5192 66.7463C31.5927 67.0404 31.6907 67.3101 31.7886 67.5797L31.8866 67.5552C32.058 68.3396 32.2295 69.1239 32.4744 69.8838C32.5478 69.173 32.4254 70.3986 32.7927 71.0359C32.8172 71.232 32.8662 71.4526 32.9642 71.6732C33.0621 71.8938 33.1601 72.1144 33.2825 72.3595C33.5274 72.8253 33.8213 73.2665 34.1397 73.6096C34.3846 74.0509 34.6295 74.4921 34.8499 74.9578C34.5805 74.1489 34.703 74.1244 34.9724 74.2715C35.2173 74.4185 35.6091 74.7617 35.8295 74.6882C35.8785 75.0313 35.9275 75.3745 35.9765 75.6932C36.3438 75.9138 35.9765 74.9823 36.3928 75.5461C36.4418 75.8893 36.7357 76.453 36.9806 77.0413C37.2255 77.6296 37.4704 78.1934 37.4459 78.5856C37.299 78.5611 37.0786 78.4385 36.8581 78.2424C36.8337 78.1689 36.8337 78.1689 36.8337 78.2179C36.8092 78.1934 36.8092 78.1934 36.7847 78.1689C36.8092 78.1934 36.8092 78.1934 36.8337 78.2179C36.8337 78.316 36.8581 78.463 36.8337 78.5366C37.5684 79.4925 37.1765 79.2229 37.0051 79.2964C37.6663 79.6886 37.9847 80.1053 38.3521 80.4485C38.6704 80.7672 38.9643 81.0613 39.5031 81.2574C39.2582 81.1839 39.2092 81.2819 39.2827 81.4535C39.3317 81.5515 39.4052 81.6986 39.5031 81.8457C39.6011 81.9928 39.748 82.1643 39.8705 82.3114C40.4093 82.9732 40.9725 83.6841 40.3848 83.6105C40.6787 83.7086 40.8501 83.7821 40.9725 83.8557C41.095 83.9292 41.144 83.9782 41.1685 84.0273C41.2419 84.1253 41.2909 84.1988 41.7317 84.2479C41.5848 84.1253 41.4624 84.0027 41.3644 83.8557C41.3154 83.7821 41.2419 83.7331 41.193 83.6596C41.144 83.586 41.095 83.5125 41.046 83.439C40.8501 83.1448 40.7032 82.8262 40.5562 82.5075C40.4093 82.1889 40.2868 81.8702 40.1644 81.576C40.0419 81.2574 39.9684 80.9633 39.846 80.6936L40.1889 80.9387C40.4827 81.3064 40.7766 81.6496 41.0705 81.9928C41.0215 81.9928 40.9725 81.9928 40.9481 82.0173C41.3154 82.7526 41.6828 83.5125 41.9522 82.9977C41.9767 83.0223 42.0011 83.0468 42.0256 83.0958C42.0256 83.0958 42.0256 83.0958 42.0256 83.1203C42.6869 83.8557 43.3971 84.591 44.1073 85.2774C44.0828 85.3264 44.0094 85.3509 43.9114 85.3264C44.1073 85.4244 44.2298 85.4735 44.3522 85.5225C44.7441 85.9147 45.1604 86.2824 45.5523 86.65C45.6257 86.9197 45.3319 86.8216 44.9645 86.65C44.5482 86.4294 44.0339 86.0618 43.8134 85.9882C44.4257 86.9687 44.3277 87.0667 44.2298 87.2138C44.3767 87.2383 44.5237 87.2628 44.6706 87.2628C44.8175 87.2628 44.9645 87.2628 45.1114 87.2383C45.4053 87.2138 45.6747 87.1403 45.8706 87.0177C45.8951 87.0177 45.8951 86.9932 45.9196 86.9932C49.4952 90.1308 53.5606 92.729 57.9444 94.69C65.4875 98.0481 74.0347 99.4453 82.8268 98.3668C84.1737 98.1952 85.4717 97.9746 86.7697 97.705C86.5983 97.9991 86.3289 98.3423 86.0595 98.6364C85.9615 98.7835 85.8391 98.9061 85.7656 99.0041C85.6921 99.1267 85.6187 99.2247 85.5942 99.3473C85.5207 99.5679 85.5942 99.7395 85.937 99.8865L85.0309 99.9111C85.1289 100.058 85.3493 100.107 85.6432 100.083C85.7901 100.083 85.9615 100.058 86.1085 100.058C86.2799 100.034 86.4513 99.9846 86.6473 99.9601C87.3575 99.813 88.1167 99.6659 88.4351 99.9356C88.6555 99.8375 88.8759 99.715 89.0963 99.6169L89.7331 99.2737L90.3698 98.9306C90.5902 98.808 90.7862 98.71 91.0066 98.5874C90.9821 98.8325 91.5209 99.0286 91.1045 99.2492C91.7903 99.0531 92.378 98.8815 91.5943 99.4943C91.9862 99.2737 92.3535 99.0531 92.7454 98.857L93.3332 98.5629C93.5291 98.4648 93.725 98.3423 93.8964 98.2442C94.6556 97.8275 95.4393 97.4844 96.1985 97.0922C96.5904 96.8961 96.9577 96.7245 97.3496 96.5284C97.5455 96.4303 97.7414 96.3323 97.9129 96.2343L98.4762 95.9401C98.868 95.744 99.2354 95.5479 99.6272 95.3763L100.754 94.7635L101.317 94.4694C101.513 94.3713 101.709 94.2733 101.88 94.1507C102.248 93.9301 102.615 93.7095 102.982 93.4889C103.717 93.0722 104.427 92.5574 105.113 92.0672L105.627 91.6995C105.799 91.577 105.97 91.4299 106.117 91.3073C106.436 91.0377 106.778 90.7681 107.097 90.4984C107.415 90.2288 107.709 89.9347 108.003 89.616C108.297 89.3219 108.591 89.0032 108.86 88.6845C109.227 88.4394 109.178 88.7581 109.154 88.9787C109.301 88.66 109.423 88.4639 109.546 88.3414C109.668 88.2188 109.815 88.1698 109.938 88.1453C110.207 88.0963 110.501 88.1698 110.77 87.9737C110.893 87.655 111.015 87.3609 111.113 87.0422L111.432 86.0863C112.117 85.7431 111.921 86.3314 112.068 86.4049C112.215 86.2579 112.387 86.1108 112.534 85.9392C112.681 85.7921 112.828 85.6451 112.975 85.4735C113.244 85.1548 113.513 84.8116 113.758 84.4685C113.881 84.2969 114.003 84.1253 114.15 83.9782C114.224 83.9047 114.273 83.8066 114.346 83.7331L114.517 83.4635C114.811 83.1448 115.032 82.8017 115.252 82.483ZM37.8867 22.8207C38.0582 22.5756 38.0092 22.7472 38.0827 22.8207C38.0092 22.8207 37.9357 22.8207 37.8867 22.8207ZM125.514 56.6718C125.367 56.8679 125.22 57.064 125.416 56.3287L125.514 56.6718ZM60.369 6.44667C60.6874 6.15252 61.0547 6.02996 61.3731 5.93191C61.2017 6.1035 61.0057 6.22606 60.8588 6.32411C60.6629 6.42215 60.5159 6.47118 60.369 6.44667ZM61.4956 6.83886L62.1323 6.47118L62.2303 6.59374C61.9854 6.66727 61.7405 6.76532 61.4956 6.83886ZM89.7331 5.46619L90.8596 6.17703C91.0555 6.07899 90.1984 5.83387 90.8106 5.83387C90.9576 5.95643 91.2025 6.15252 91.4229 6.34862C91.4719 6.39764 91.4964 6.42215 91.5454 6.47118C90.9576 6.27508 90.3453 6.1035 89.7331 5.93191C89.5126 5.73582 89.4637 5.53972 89.7331 5.46619ZM87.8718 5.46619C87.7248 5.44167 87.5779 5.39265 87.431 5.36814C87.5044 5.36814 87.5779 5.36814 87.6514 5.39265C87.7493 5.39265 87.8228 5.41716 87.8718 5.46619ZM85.3493 4.92692C85.3248 4.92692 85.3248 4.92692 85.3493 4.92692C85.3248 4.92692 85.3248 4.92692 85.3493 4.92692C85.3248 4.92692 85.3248 4.92692 85.3493 4.92692ZM75.6021 3.99546C76.0429 4.069 76.4103 4.11802 76.7776 4.21607C76.2633 4.21607 75.7245 4.24058 75.2102 4.24058C75.1367 4.19156 75.2102 4.09351 75.6021 3.99546ZM74.5 4.11802L74.8184 4.2651C74.6714 4.2651 74.5245 4.28961 74.3775 4.28961C74.3531 4.21607 74.3286 4.11802 74.5 4.11802ZM69.1366 4.43668C69.5284 4.53473 69.9448 4.53473 70.3611 4.43668C70.7774 4.33863 71.1693 4.16705 71.5366 3.97095C71.6346 3.92193 71.7081 3.8729 71.806 3.84839C71.904 3.79937 71.9775 3.77486 72.0509 3.75034C72.2224 3.67681 72.3693 3.62778 72.4918 3.57876C72.7612 3.50522 72.9571 3.50522 73.0551 3.67681C73.6673 3.70132 73.8143 3.84839 73.8877 3.99546C73.9612 4.11802 73.9857 4.24058 74.2061 4.31412C73.2265 4.36314 72.2224 4.46119 71.2428 4.58375C70.5815 4.65729 69.8958 4.75534 69.2345 4.8779C69.1366 4.73082 68.8917 4.63278 69.1366 4.43668ZM61.2996 4.19156L62.2793 3.99546L63.2834 3.84839C63.0874 3.99546 62.8425 4.28961 62.5486 4.63278C63.2099 4.65729 63.8956 4.70631 64.312 4.82887C64.7283 4.95143 64.8752 5.19655 64.4344 5.56423L65.0712 5.14753L65.7079 4.75534C66.6141 4.8779 66.9814 4.92692 67.3978 4.92692C67.6672 4.95143 67.961 4.95143 68.4019 4.97594C66.3202 5.36814 64.2875 5.88289 62.3282 6.5202L62.4752 5.85838C62.6466 5.88289 62.7935 5.9074 62.8915 5.9074C62.9895 5.9074 63.063 5.9074 63.0874 5.88289C63.1119 5.80935 63.014 5.73582 62.867 5.68679C63.1364 5.63777 63.3813 5.63777 63.5283 5.66228C63.5283 5.46619 63.3813 5.31911 63.1609 5.17204C63.0629 5.09851 62.9405 5.04948 62.7935 4.97594C62.7201 4.95143 62.6466 4.92692 62.5976 4.8779C62.5242 4.85338 62.4507 4.82887 62.3772 4.80436C62.2058 5.00046 62.0343 5.22107 61.8629 5.41716C61.2751 5.27009 60.8098 5.04948 61.3731 4.58375C61.4711 4.58375 61.618 4.58375 61.7649 4.60826C61.3731 4.51022 61.1037 4.38766 61.2996 4.19156ZM54.0749 8.67726C54.1484 8.65275 54.2219 8.60373 54.3198 8.57921C54.3933 8.5547 54.4668 8.53019 54.5648 8.48116C54.8831 8.3586 55.177 8.28507 55.4709 8.18702C56.0587 8.03995 56.5975 7.91739 57.1118 7.86836C57.6261 7.81934 58.1159 7.79483 58.6057 7.79483C58.7281 7.79483 58.8506 7.79483 58.973 7.79483H58.9975C58.1649 8.138 57.3322 8.50568 56.4995 8.89787C56.2791 8.97141 56.0342 9.04494 55.8138 9.11848C55.4954 9.21653 55.226 9.31457 55.0056 9.46165C54.8342 9.55969 54.6872 9.70677 54.5892 9.87835C54.5648 9.90286 54.5158 9.92738 54.4913 9.92738C54.2219 9.46165 54.4668 8.92238 53.6341 8.89787C53.7566 8.82433 53.928 8.7508 54.0749 8.67726ZM51.7728 11.5452C51.6259 11.6432 51.5034 11.7168 51.3565 11.8148C51.332 11.7903 51.332 11.7658 51.332 11.7658C51.4545 11.7168 51.6014 11.6432 51.7728 11.5452ZM50.7198 12.2315C50.5238 12.3786 50.3034 12.5011 50.1075 12.6482C50.2789 12.4276 50.4993 12.305 50.7198 12.2315ZM40.4093 19.7567C41.1685 19.5361 41.9032 19.3155 42.6379 19.0949C42.1971 19.5851 41.7562 20.0508 41.3154 20.5656C41.0215 20.1979 40.7521 19.8057 40.4093 19.7567ZM31.3233 37.6995L31.6907 36.9641C31.8131 36.719 31.9601 36.4739 32.0825 36.2288L31.8866 35.7385C32.009 35.4934 32.156 35.2728 32.3274 35.0522C32.4988 34.8316 32.6703 34.6355 32.8907 34.4394C32.9397 34.3904 32.9887 34.3414 33.0621 34.2923C32.6948 35.1993 32.3764 36.1307 32.0825 37.0622C31.7886 37.3318 31.5192 37.5524 31.3233 37.6995ZM30.2212 44.6364C30.2457 44.6119 30.2947 44.5874 30.3437 44.5629C30.3192 44.6854 30.2947 44.8325 30.2947 44.9551C30.2457 44.7835 30.2212 44.6609 30.2212 44.6364ZM33.9193 72.4331C33.9193 72.4576 33.9193 72.4576 33.9193 72.4821C33.5764 71.9919 33.3805 71.7467 33.9193 72.4331ZM34.4336 72.1389C34.2132 71.8448 34.0417 71.5751 33.9193 71.3545C33.8948 71.3055 33.8703 71.232 33.8213 71.1829C33.7968 71.1339 33.7723 71.0604 33.7479 71.0114C33.6989 70.9133 33.6744 70.7908 33.6499 70.6927C33.5764 70.4476 33.5764 70.2025 33.5764 69.9819C33.9193 70.7662 34.2622 71.5506 34.654 72.3105C34.5805 72.2615 34.5071 72.2125 34.4336 72.1389ZM39.2827 80.0563C38.7194 79.4925 38.3766 78.8307 38.1317 78.2179V78.1934C38.548 78.8062 38.9888 79.419 39.4541 80.0318L39.2827 80.0563Z" fill="#E6332A"/>
        <path d="M63.5282 5.68677C63.5282 5.78482 63.5282 5.85835 63.4792 5.98091C63.7242 5.80933 63.6997 5.71128 63.5282 5.68677Z" fill="#E6332A"/>
        <path d="M38.9888 82.0908C38.9888 82.1153 39.0133 82.1644 39.0378 82.1889L38.9888 82.0908Z" fill="#E6332A"/>
        <path d="M39.1847 81.9437C38.9643 81.7721 38.7684 81.6741 38.4745 81.2084L38.9643 82.0908C38.9153 81.9437 39.1112 81.9927 39.1847 81.9437Z" fill="#E6332A"/>
        <path d="M42.0991 83.2919C42.344 83.635 42.442 84.0517 42.5644 83.8311C42.393 83.6595 42.2461 83.4634 42.0991 83.2919Z" fill="#E6332A"/>
        <path d="M35.6337 76.0118C35.5357 75.7667 35.4622 75.6196 35.4133 75.5216C35.3643 75.4235 35.3153 75.3745 35.2908 75.3745C35.2173 75.3745 35.2173 75.5706 35.2418 75.7912C35.2908 76.257 35.4622 76.8452 35.5847 76.5511C35.3153 76.453 35.9031 76.2815 35.6337 76.0118Z" fill="#E6332A"/>
        <path d="M85.6676 101.21C86.0105 101.088 86.3288 100.99 86.6472 100.842L86.2554 100.793L85.6676 101.21Z" fill="#E6332A"/>
        <path d="M83.7574 100.622L84.4432 101.088L84.5901 100.426C84.4432 100.597 83.9779 100.597 83.7574 100.622Z" fill="#E6332A"/>
        <path d="M39.3807 107.338C39.993 105.941 40.7767 104.642 41.5359 103.22C41.4134 103.294 41.3399 103.318 41.2665 103.367C40.5562 104.005 39.8215 104.642 39.1358 105.279C38.9399 105.475 38.695 105.549 38.4501 105.549C36.3439 105.549 34.2377 105.549 32.107 105.549C30.858 105.549 29.5845 105.524 28.3355 105.451C27.7967 105.426 27.3559 105.524 26.8906 105.745C26.3273 106.015 25.764 106.235 25.1762 106.505C25.1028 106.309 25.2252 106.186 25.3477 106.064C25.5191 105.892 25.715 105.745 25.8865 105.573C25.9354 105.524 25.9844 105.451 26.0579 105.353C25.715 105.328 25.4456 105.279 25.1762 105.279C22.8496 105.157 20.523 105.157 18.172 105.206C17.4372 105.23 16.727 105.279 15.9923 105.353C15.7229 105.377 15.429 105.475 15.1596 105.549C14.9882 105.598 14.8413 105.647 14.6698 105.647C15.1351 105.01 15.7964 104.568 16.2862 103.956C16.2127 103.98 16.1148 104.005 16.0413 104.054C15.9188 104.127 15.7964 104.176 15.6739 104.274C14.8413 104.838 13.9351 105.255 13.0045 105.598C11.5595 106.113 10.1881 106.823 8.8166 107.559C8.66966 107.632 8.5472 107.706 8.37577 107.755C8.66966 107.436 9.01252 107.191 9.35539 106.922C9.72275 106.652 10.0901 106.382 10.433 106.088C10.7513 105.794 11.0697 105.475 11.3636 105.157C11.6575 104.838 11.9514 104.519 12.2208 104.152C12.1228 104.176 12.0004 104.201 11.9024 104.25C11.3146 104.47 10.7269 104.691 10.1146 104.936C9.82071 105.059 9.50233 105.132 9.15947 105.108C7.88596 105.034 6.63695 104.936 5.36344 104.887C4.38382 104.863 3.4287 104.887 2.44908 105.059C2.10621 105.108 1.78783 105.23 1.44497 105.328C1.3715 105.353 1.29803 105.353 1.12659 105.377C1.39599 104.936 1.68987 104.642 1.98376 104.323C2.27764 104.029 2.57153 103.735 2.84092 103.441C3.13481 103.147 3.4287 102.853 3.69809 102.509C2.47357 103.024 1.22455 103.514 3.07374e-05 104.029C-0.0244597 104.005 -0.0244597 104.005 -0.0489502 103.98C-0.0244597 103.931 0.0245212 103.858 0.0490117 103.808C1.00414 102.779 1.95927 101.725 2.9144 100.695C3.1593 100.45 3.4287 100.23 3.69809 100.009C5.68182 98.3668 7.69004 96.749 9.60029 95.0087C10.3595 94.3223 11.1432 93.7095 11.9024 93.0232C13.8127 91.3564 15.6984 89.6405 17.6332 87.9982C19.3965 86.503 21.2578 85.1548 23.1925 83.8802C23.8782 83.4145 24.6374 83.0713 25.3722 82.7036C27.3804 81.7477 29.3151 80.6201 31.1519 79.3455C32.303 78.5611 33.405 77.6787 34.5561 76.8943C35.5112 76.2325 36.4908 75.5951 37.4704 74.9578C37.8133 74.7372 38.2296 74.6147 38.6215 74.4921C39.5521 74.1734 40.4828 73.9283 41.3889 73.5852C42.6869 73.1194 43.8869 72.4576 45.1115 71.8203C45.9686 71.3791 46.8013 70.9133 47.6585 70.4966C48.785 69.9329 49.8136 69.271 50.7688 68.4621C51.577 67.7758 52.4586 67.114 53.3403 66.5012C53.928 66.0845 54.5893 65.7903 55.226 65.4226C55.9852 64.9814 56.7444 64.5402 57.5036 64.099C57.6506 64.0255 57.773 63.9029 57.8955 63.7803C58.9241 62.7508 59.9527 61.6968 61.0058 60.6673C61.716 59.981 62.4752 59.3191 63.2099 58.6573C63.3814 58.5103 63.5773 58.4122 63.7732 58.3142C64.5569 57.971 65.3406 57.5788 66.1733 57.2846C67.7407 56.7209 69.1856 55.912 70.5326 54.9315C70.9734 54.6128 71.4142 54.2942 71.8551 53.9755C72.4183 53.5588 73.0551 53.3137 73.7653 53.2647C73.9857 53.2402 74.2061 53.3137 74.4266 53.3382C74.9409 53.4363 75.4552 53.5343 75.945 53.6569C76.2634 53.7304 76.5572 53.6569 76.8511 53.5098C77.1695 53.3627 77.4879 53.2156 77.8063 53.0686C78.1001 52.946 78.4185 52.9705 78.7124 53.0686C79.1042 53.2156 79.5206 53.3382 79.9124 53.4853C80.3043 53.6569 80.6961 53.6569 81.088 53.6078C81.5288 53.5588 81.9941 53.5343 82.4349 53.4608C82.9248 53.3627 83.4146 53.4117 83.9044 53.5343C84.4677 53.6814 85.0554 53.7304 85.6432 53.7304C86.133 53.7304 86.6228 53.7549 87.1126 53.8039C87.3085 53.8285 87.48 53.902 87.6514 54C88.3861 54.3922 88.9739 54.956 89.5127 55.5688C90.4923 56.6718 91.5454 57.7259 92.7454 58.5838C94.3863 59.7359 95.7822 61.133 97.0557 62.6528C97.3986 63.045 97.6925 63.4617 97.9864 63.9029C98.5007 64.6873 99.1619 65.2756 99.9211 65.7903C100.631 66.2806 101.342 66.7708 102.052 67.2856C103.301 68.1925 104.623 68.9524 105.946 69.6877C106.656 70.0799 107.293 70.5457 107.807 71.2075C108.15 71.6732 108.566 72.0899 108.958 72.5311C109.13 72.7272 109.325 72.8988 109.521 73.0704C109.791 73.3155 110.036 73.5606 110.33 73.7813C111.089 74.3695 111.97 74.7127 112.803 75.1784C113.293 75.4481 113.807 75.7177 114.297 76.0364C115.889 77.0904 117.481 78.1934 118.95 79.3945C119.758 80.0563 120.616 80.6936 121.473 81.2819C122.085 81.6986 122.771 82.0173 123.432 82.4095C124.387 82.9733 125.269 83.6106 126.077 84.3705C127.13 85.3754 128.257 86.3069 129.53 87.0913C129.971 87.3609 130.461 87.5815 130.853 87.9737C131.073 88.1943 131.367 88.3414 131.636 88.4885C133.179 89.3954 134.551 90.4985 135.873 91.6996C137.22 92.9252 138.543 94.1998 139.865 95.4499C140.134 95.695 140.379 95.9646 140.624 96.2343C141.702 97.4354 142.926 98.4894 144.175 99.4944C144.91 100.083 145.645 100.671 146.404 101.259C146.82 101.578 147.261 101.897 147.678 102.215C148.045 102.509 148.363 102.828 148.608 103.245C148.633 103.294 148.657 103.367 148.706 103.416C149.074 103.686 148.976 104.029 148.853 104.397C148.829 104.446 148.804 104.495 148.804 104.544C148.682 105.01 148.608 105.083 148.118 105.083C147.041 105.083 145.939 105.083 144.861 105.083C138.053 105.083 131.244 105.108 124.436 105.108C121.056 105.108 117.677 105.132 114.297 105.157C114.175 105.157 114.052 105.157 113.856 105.181C113.93 105.304 113.979 105.377 114.028 105.426C114.419 105.941 114.787 106.48 115.179 106.995C115.35 107.216 115.595 107.387 115.791 107.583C115.938 107.73 116.085 107.853 116.305 108.049C116.134 108.025 116.036 108.049 115.987 108.025C115.644 107.902 115.301 107.779 114.983 107.632C114.517 107.412 114.101 107.167 113.636 106.946C113.17 106.725 112.681 106.554 112.191 106.358C110.893 105.818 109.595 105.23 108.346 104.568C107.881 104.323 107.391 104.103 106.901 103.907C107.93 104.887 109.081 105.745 110.183 106.75C110.036 106.701 109.938 106.701 109.864 106.676C109.325 106.431 108.787 106.186 108.248 105.941C108.15 105.892 108.027 105.843 107.93 105.794C107.489 105.622 107.048 105.475 106.607 105.328C106.387 105.255 106.142 105.181 105.897 105.181C97.8884 105.181 89.8556 105.206 81.8472 105.206C78.9573 105.206 76.0674 105.206 73.1775 105.255C71.6836 105.279 70.1897 105.353 68.7203 105.402C67.2998 105.451 65.9039 105.5 64.4834 105.5C63.8467 105.5 63.2099 105.402 62.5977 105.328C62.3528 105.304 62.1079 105.23 61.8874 105.108C61.6425 104.961 61.3976 104.936 61.1527 104.936C59.6343 104.985 58.1159 104.985 56.5975 105.059C55.2995 105.108 54.0015 105.255 52.679 105.328C49.8136 105.475 46.9238 105.524 44.0584 105.524C43.4216 105.524 42.7849 105.524 42.1481 105.524C41.9767 105.524 41.8297 105.573 41.6828 105.671C40.9481 106.186 40.1644 106.75 39.3807 107.338Z" fill="white"/>
        <path d="M39.3807 107.338C39.993 105.941 40.7767 104.642 41.5359 103.22C41.4134 103.294 41.3399 103.318 41.2665 103.367C40.5562 104.005 39.8215 104.642 39.1358 105.279C38.9399 105.475 38.695 105.549 38.4501 105.549C36.3439 105.549 34.2377 105.549 32.107 105.549C30.858 105.549 29.5845 105.524 28.3355 105.451C27.7967 105.426 27.3559 105.524 26.8906 105.745C26.3273 106.015 25.764 106.235 25.1762 106.505C25.1028 106.309 25.2252 106.186 25.3477 106.064C25.5191 105.892 25.715 105.745 25.8865 105.573C25.9354 105.524 25.9844 105.451 26.0579 105.353C25.715 105.328 25.4456 105.279 25.1762 105.279C22.8496 105.157 20.523 105.157 18.172 105.206C17.4372 105.23 16.727 105.279 15.9923 105.353C15.7229 105.377 15.429 105.475 15.1596 105.549C14.9882 105.598 14.8413 105.647 14.6698 105.647C15.1351 105.01 15.7964 104.568 16.2862 103.956C16.2127 103.98 16.1148 104.005 16.0413 104.054C15.9188 104.127 15.7964 104.176 15.6739 104.274C14.8413 104.838 13.9351 105.255 13.0045 105.598C11.5595 106.113 10.1881 106.823 8.8166 107.559C8.66966 107.632 8.5472 107.706 8.37577 107.755C8.66966 107.436 9.01252 107.191 9.35539 106.922C9.72275 106.652 10.0901 106.382 10.433 106.088C10.7513 105.794 11.0697 105.475 11.3636 105.157C11.6575 104.838 11.9514 104.519 12.2208 104.152C12.1228 104.176 12.0004 104.201 11.9024 104.25C11.3146 104.47 10.7269 104.691 10.1146 104.936C9.82071 105.059 9.50233 105.132 9.15947 105.108C7.88596 105.034 6.63695 104.936 5.36344 104.887C4.38382 104.863 3.4287 104.887 2.44908 105.059C2.10621 105.108 1.78783 105.23 1.44497 105.328C1.3715 105.353 1.29803 105.353 1.12659 105.377C1.39599 104.936 1.68987 104.642 1.98376 104.323C2.27764 104.029 2.57153 103.735 2.84092 103.441C3.13481 103.147 3.4287 102.853 3.69809 102.509C2.47357 103.024 1.22455 103.514 3.07374e-05 104.029C-0.0244597 104.005 -0.0244597 104.005 -0.0489502 103.98C-0.0244597 103.931 0.0245212 103.858 0.0490117 103.808C1.00414 102.779 1.95927 101.725 2.9144 100.695C3.1593 100.45 3.4287 100.23 3.69809 100.009C5.68182 98.3668 7.69004 96.749 9.60029 95.0087C10.3595 94.3223 11.1432 93.7095 11.9024 93.0232C13.8127 91.3564 15.6984 89.6405 17.6332 87.9982C19.3965 86.503 21.2578 85.1548 23.1925 83.8802C23.8782 83.4145 24.6374 83.0713 25.3722 82.7036C27.3804 81.7477 29.3151 80.6201 31.1519 79.3455C32.303 78.5611 33.405 77.6787 34.5561 76.8943C35.5112 76.2325 36.4908 75.5951 37.4704 74.9578C37.8133 74.7372 38.2296 74.6147 38.6215 74.4921C39.5521 74.1734 40.4828 73.9283 41.3889 73.5852C42.6869 73.1194 43.8869 72.4576 45.1115 71.8203C45.9686 71.3791 46.8013 70.9133 47.6585 70.4966C48.785 69.9329 49.8136 69.271 50.7688 68.4621C51.577 67.7758 52.4586 67.114 53.3403 66.5012C53.928 66.0845 54.5893 65.7903 55.226 65.4226C55.9852 64.9814 56.7444 64.5402 57.5036 64.099C57.6506 64.0255 57.773 63.9029 57.8955 63.7803C58.9241 62.7508 59.9527 61.6968 61.0058 60.6673C61.716 59.981 62.4752 59.3191 63.2099 58.6573C63.3814 58.5103 63.5773 58.4122 63.7732 58.3142C64.5569 57.971 65.3406 57.5788 66.1733 57.2846C67.7407 56.7209 69.1856 55.912 70.5326 54.9315C70.9734 54.6128 71.4142 54.2942 71.8551 53.9755C72.4183 53.5588 73.0551 53.3137 73.7653 53.2647C73.9857 53.2402 74.2061 53.3137 74.4266 53.3382C74.9409 53.4363 75.4552 53.5343 75.945 53.6569C76.2634 53.7304 76.5572 53.6569 76.8511 53.5098C77.1695 53.3627 77.4879 53.2156 77.8063 53.0686C78.1001 52.946 78.4185 52.9705 78.7124 53.0686C79.1042 53.2156 79.5206 53.3382 79.9124 53.4853C80.3043 53.6569 80.6961 53.6569 81.088 53.6078C81.5288 53.5588 81.9941 53.5343 82.4349 53.4608C82.9248 53.3627 83.4146 53.4117 83.9044 53.5343C84.4677 53.6814 85.0554 53.7304 85.6432 53.7304C86.133 53.7304 86.6228 53.7549 87.1126 53.8039C87.3085 53.8285 87.48 53.902 87.6514 54C88.3861 54.3922 88.9739 54.956 89.5127 55.5688C90.4923 56.6718 91.5454 57.7259 92.7454 58.5838C94.3863 59.7359 95.7822 61.133 97.0557 62.6528C97.3986 63.045 97.6925 63.4617 97.9864 63.9029C98.5007 64.6873 99.1619 65.2756 99.9211 65.7903C100.631 66.2806 101.342 66.7708 102.052 67.2856C103.301 68.1925 104.623 68.9524 105.946 69.6877C106.656 70.0799 107.293 70.5457 107.807 71.2075C108.15 71.6732 108.566 72.0899 108.958 72.5311C109.13 72.7272 109.325 72.8988 109.521 73.0704C109.791 73.3155 110.036 73.5606 110.33 73.7813C111.089 74.3695 111.97 74.7127 112.803 75.1784C113.293 75.4481 113.807 75.7177 114.297 76.0364C115.889 77.0904 117.481 78.1934 118.95 79.3945C119.758 80.0563 120.616 80.6936 121.473 81.2819C122.085 81.6986 122.771 82.0173 123.432 82.4095C124.387 82.9733 125.269 83.6106 126.077 84.3705C127.13 85.3754 128.257 86.3069 129.53 87.0913C129.971 87.3609 130.461 87.5815 130.853 87.9737C131.073 88.1943 131.367 88.3414 131.636 88.4885C133.179 89.3954 134.551 90.4985 135.873 91.6996C137.22 92.9252 138.543 94.1998 139.865 95.4499C140.134 95.695 140.379 95.9646 140.624 96.2343C141.702 97.4354 142.926 98.4894 144.175 99.4944C144.91 100.083 145.645 100.671 146.404 101.259C146.82 101.578 147.261 101.897 147.678 102.215C148.045 102.509 148.363 102.828 148.608 103.245C148.633 103.294 148.657 103.367 148.706 103.416C149.074 103.686 148.976 104.029 148.853 104.397C148.829 104.446 148.804 104.495 148.804 104.544C148.682 105.01 148.608 105.083 148.118 105.083C147.041 105.083 145.939 105.083 144.861 105.083C138.053 105.083 131.244 105.108 124.436 105.108C121.056 105.108 117.677 105.132 114.297 105.157C114.175 105.157 114.052 105.157 113.856 105.181C113.93 105.304 113.979 105.377 114.028 105.426C114.419 105.941 114.787 106.48 115.179 106.995C115.35 107.216 115.595 107.387 115.791 107.583C115.938 107.73 116.085 107.853 116.305 108.049C116.134 108.025 116.036 108.049 115.987 108.025C115.644 107.902 115.301 107.779 114.983 107.632C114.517 107.412 114.101 107.167 113.636 106.946C113.17 106.725 112.681 106.554 112.191 106.358C110.893 105.818 109.595 105.23 108.346 104.568C107.881 104.323 107.391 104.103 106.901 103.907C107.93 104.887 109.081 105.745 110.183 106.75C110.036 106.701 109.938 106.701 109.864 106.676C109.325 106.431 108.787 106.186 108.248 105.941C108.15 105.892 108.027 105.843 107.93 105.794C107.489 105.622 107.048 105.475 106.607 105.328C106.387 105.255 106.142 105.181 105.897 105.181C97.8884 105.181 89.8556 105.206 81.8472 105.206C78.9573 105.206 76.0674 105.206 73.1775 105.255C71.6836 105.279 70.1897 105.353 68.7203 105.402C67.2998 105.451 65.9039 105.5 64.4834 105.5C63.8467 105.5 63.2099 105.402 62.5977 105.328C62.3528 105.304 62.1079 105.23 61.8874 105.108C61.6425 104.961 61.3976 104.936 61.1527 104.936C59.6343 104.985 58.1159 104.985 56.5975 105.059C55.2995 105.108 54.0015 105.255 52.679 105.328C49.8136 105.475 46.9238 105.524 44.0584 105.524C43.4216 105.524 42.7849 105.524 42.1481 105.524C41.9767 105.524 41.8297 105.573 41.6828 105.671C40.9481 106.186 40.1644 106.75 39.3807 107.338ZM104.452 81.8457C104.476 81.9192 104.501 82.0173 104.55 82.0908C104.966 82.8997 105.383 83.7331 105.823 84.542C106.068 84.9832 106.338 85.449 106.656 85.8657C107.734 87.2629 108.909 88.611 110.207 89.8366C110.746 90.3269 111.211 90.8661 111.726 91.4054C112.142 91.8466 112.534 92.3124 112.975 92.7536C113.758 93.587 114.542 94.3959 115.35 95.2293C115.571 95.4499 115.791 95.6705 116.011 95.8666C116.55 96.3568 117.138 96.8226 117.677 97.3373C118.681 98.2688 119.709 99.1757 120.909 99.8866C121.497 100.23 122.012 100.646 122.55 101.088C123.236 101.651 123.946 102.166 124.73 102.583C125.734 103.147 126.861 103.392 127.963 103.858C127.914 103.759 127.889 103.735 127.865 103.71C127.301 103.245 126.738 102.754 126.126 102.338C124.681 101.333 123.481 100.083 122.232 98.8816C121.497 98.1707 120.787 97.4354 120.077 96.7C120.003 96.6265 119.881 96.5774 119.807 96.5039C119.832 96.4794 119.856 96.4304 119.881 96.4059C119.979 96.4794 120.077 96.5284 120.199 96.602C120.763 96.9696 121.326 97.3618 121.889 97.705C122.673 98.1952 123.432 98.71 124.142 99.2983C124.779 99.813 125.416 100.279 126.052 100.769C126.248 100.916 126.493 101.039 126.738 101.137C127.669 101.553 128.599 101.946 129.555 102.362C129.995 102.558 130.412 102.754 130.853 102.926C130.828 102.804 130.755 102.754 130.681 102.705C129.848 102.142 129.016 101.578 128.159 101.014C127.155 100.352 126.175 99.6414 125.244 98.8816C124.314 98.1217 123.481 97.2638 122.452 96.651C120.714 95.597 119.342 94.0772 117.922 92.68C118.044 92.7291 118.142 92.8026 118.24 92.8761C118.705 93.1948 119.146 93.5379 119.611 93.8321C120.885 94.69 122.158 95.5234 123.432 96.3568C124.51 97.0677 125.612 97.7785 126.689 98.4649C127.963 99.2983 129.261 100.132 130.559 100.941C130.755 101.063 130.975 101.161 131.171 101.259C132.004 101.602 132.836 101.946 133.596 102.46C134.061 102.779 134.6 102.951 135.138 103.073C135.555 103.171 135.996 103.294 136.412 103.367C136.706 103.441 137 103.49 137.294 103.539C137.906 103.637 138.518 103.735 139.13 103.833C139.228 103.858 139.326 103.858 139.498 103.858C139.375 103.735 139.326 103.686 139.253 103.637C138.445 103 137.636 102.338 136.804 101.725C136.069 101.186 135.334 100.671 134.6 100.132C134.453 100.034 134.33 99.9356 134.183 99.8375C133.4 99.1757 132.591 98.5139 131.832 97.8276C130.436 96.5774 129.065 95.3273 127.669 94.0772C127.644 94.0527 127.62 94.0282 127.595 94.0037C127.693 94.0037 127.767 94.0527 127.84 94.1017C128.379 94.4694 128.918 94.8126 129.457 95.2048C132.053 97.1657 134.869 98.7835 137.734 100.279C139.302 101.088 140.894 101.848 142.461 102.656C143.073 102.975 143.735 103.196 144.371 103.416C144.445 103.441 144.518 103.441 144.641 103.465C143.441 102.681 142.265 101.946 141.139 101.161C140.012 100.377 138.91 99.5434 137.783 98.7345C137.783 98.71 137.808 98.6855 137.808 98.661C137.93 98.71 138.053 98.7345 138.151 98.7835C139.522 99.4454 140.869 100.107 142.241 100.769C143.22 101.235 144.224 101.725 145.229 102.191C145.302 102.215 145.375 102.215 145.498 102.264C145.4 102.166 145.375 102.117 145.326 102.068C143.979 100.794 142.633 99.5434 141.286 98.2688C141.139 98.1217 140.992 97.9746 140.845 97.8276C139.718 96.6265 138.543 95.4744 137.318 94.3714C136.534 93.6605 135.775 92.9252 135.016 92.2143C134.918 92.1163 134.82 92.0427 134.698 91.9692C135.432 92.9497 136.24 93.8566 136.926 94.8616C137.563 95.7685 138.396 96.5039 139.179 97.2638C139.571 97.6315 139.914 98.0727 140.257 98.4894C139.669 98.2933 139.081 98.1217 138.567 97.7785C138.004 97.4109 137.441 97.0432 136.853 96.7245C135.555 95.9892 134.208 95.3273 132.983 94.4939C132.542 94.1753 132.077 93.8811 131.612 93.6115C130.681 93.0722 129.897 92.3614 129.163 91.6015C128.648 91.0622 128.11 90.523 127.571 90.0082C126.934 89.3954 126.248 88.8316 125.587 88.2434C125.171 87.8757 124.779 87.459 124.363 87.1158C123.799 86.6256 123.212 86.1598 122.795 85.498C122.746 85.4245 122.673 85.3509 122.624 85.3019C121.84 84.5175 121.056 83.7577 120.273 82.9733C120.224 82.9242 120.175 82.8507 120.126 82.8017C120.248 82.8262 120.346 82.8752 120.42 82.9242C122.158 84.1744 123.873 85.449 125.612 86.6991C126.126 87.0668 126.689 87.4345 127.204 87.8021C127.62 88.1208 128.036 88.464 128.453 88.8071C129.677 89.7876 130.951 90.7191 132.053 91.8221C132.298 92.0672 132.567 92.2388 132.836 92.4594C132.861 92.4104 132.861 92.3859 132.861 92.3859C132.298 91.6996 131.734 90.9887 131.146 90.3514C130.387 89.5425 129.579 88.7826 128.795 88.0227C128.526 87.7531 128.257 87.508 127.963 87.2629C127.155 86.5765 126.297 85.9392 125.514 85.2039C124.73 84.444 123.873 83.8312 122.942 83.2919C121.963 82.7281 120.934 82.2134 120.028 81.5025C119.416 81.0123 118.803 80.5466 118.191 80.0808C116.207 78.5121 114.199 77.0168 111.946 75.8893C111.603 75.7177 111.26 75.5461 110.917 75.35C109.987 74.7862 109.13 74.1244 108.37 73.34C107.954 72.8988 107.562 72.4576 107.195 71.9919C106.729 71.4036 106.166 70.9869 105.529 70.6437C104.697 70.178 103.889 69.6877 103.08 69.222C103.007 69.173 102.909 69.1485 102.836 69.0995C103.203 69.5652 103.595 69.9574 103.987 70.3741C104.085 70.4721 104.133 70.6192 104.231 70.7663C104.378 70.9869 104.427 71.3055 104.746 71.3546C105.138 71.4281 105.26 71.7958 105.529 72.0164C105.554 72.0409 105.554 72.1389 105.554 72.2125C105.505 72.4821 105.627 72.6782 105.823 72.8743C106.093 73.1439 106.362 73.4136 106.754 73.4871C106.803 73.5116 106.876 73.5361 106.925 73.5852C107.219 73.9528 107.513 74.345 107.881 74.7862C107.758 74.7372 107.709 74.7372 107.685 74.7127C105.897 73.7812 104.207 72.7272 102.64 71.4281C102.517 71.33 102.395 71.232 102.297 71.1094C101.219 69.7368 99.9211 68.5847 98.6721 67.3591C98.5986 67.2856 98.5252 67.212 98.4517 67.114C98.7701 67.261 99.064 67.4326 99.3334 67.6287C99.6273 67.8248 99.8967 68.0454 100.191 68.2415C100.46 68.4376 100.705 68.6827 101.048 68.7808C100.974 68.6582 100.852 68.5602 100.754 68.4621C99.4803 67.2365 98.3537 65.9129 97.3251 64.4912C96.7619 63.7068 96.1986 62.9469 95.5129 62.2606C94.5577 61.3046 93.6271 60.2996 92.4515 59.5643C92.3781 59.5152 92.3046 59.4907 92.2311 59.4662C92.2066 59.4907 92.2066 59.4907 92.1822 59.5152C92.3536 59.8339 92.525 60.1526 92.6964 60.4467C92.672 60.4712 92.6475 60.4712 92.623 60.4957C92.2801 60.2506 91.9128 60.0545 91.6434 59.7359C91.1536 59.1231 90.6637 58.5348 90.2229 57.8974C89.6351 57.0395 88.9004 56.3042 88.2147 55.5443C88.0678 55.3727 87.8963 55.2501 87.7004 55.1276C87.5045 54.956 87.2841 54.8334 86.9902 54.8825C86.8187 54.907 86.6228 54.858 86.4514 54.8334C86.0106 54.8089 85.5942 54.7844 85.1289 54.8825C85.4718 55.0786 85.7656 55.2502 86.084 55.4217C85.8391 55.4708 85.6187 55.4953 85.4228 55.4708C84.7615 55.3727 84.1248 55.2011 83.537 54.907C82.8023 54.5148 82.0186 54.6619 81.2349 54.7844C82.0676 55.2256 82.8268 55.7159 83.2186 56.6473C83.1207 56.5738 83.0472 56.5248 82.9737 56.4757C82.337 56.0836 81.7002 55.6914 80.941 55.5198C80.5982 55.4462 80.2798 55.2992 79.9614 55.1766C79.594 55.0295 79.2267 54.956 78.8348 55.0786C78.7124 55.1276 78.5899 55.1276 78.443 55.1521C78.7124 54.7109 79.1532 54.6619 79.594 54.5393C79.4226 54.3922 79.2757 54.3187 79.1532 54.1961C78.7859 53.8775 78.394 53.8775 78.0022 54.0736C77.4144 54.3432 76.8266 54.6619 76.1899 54.956C76.3613 54.9315 76.5083 54.9315 76.6552 54.907C76.1164 55.4462 75.7246 55.5688 75.1858 55.3727C75.2837 55.2992 75.3817 55.2502 75.4797 55.1766C75.4797 55.1521 75.4797 55.1276 75.4552 55.1031C75.2347 55.1031 74.9898 55.1031 74.7205 55.1031C75.0143 54.7844 75.4797 54.7844 75.7246 54.4413C75.6756 54.4167 75.6511 54.4167 75.6266 54.4167C75.5776 54.4167 75.5286 54.4167 75.4797 54.4167C75.0143 54.5638 74.598 54.4658 74.1572 54.2697C74.0347 54.2206 73.8633 54.1961 73.7408 54.2206C73.1041 54.3922 72.5898 54.7844 72.0755 55.2501C72.2959 55.3237 72.4428 55.3727 72.6633 55.4462C72.2959 55.6423 71.9775 55.7159 71.6591 55.7404C71.2428 55.7649 70.8755 55.9365 70.5816 56.2061C69.9693 56.7699 69.2346 57.1376 68.4999 57.4562C68.157 57.6033 67.8386 57.7504 67.5203 57.922C67.1284 58.1181 66.7366 58.3387 66.3447 58.5102C65.708 58.7799 65.0712 59.025 64.4345 59.2946C63.7977 59.5643 63.2099 59.9319 62.7936 60.4957C62.0589 61.4517 61.2507 62.3341 60.3445 63.143C58.8261 64.5157 57.2832 65.8639 55.7403 67.212C55.6179 67.3346 55.4709 67.4081 55.324 67.5062C55.2505 67.5552 55.1526 67.6042 55.0791 67.6532C55.0546 67.6287 55.0546 67.6287 55.0301 67.6042C55.2995 67.212 55.5689 66.8198 55.8628 66.4031C55.7648 66.4521 55.6669 66.4521 55.5934 66.5012C54.1729 67.1875 52.8994 68.0945 51.7239 69.1485C50.6708 70.0799 49.4953 70.8398 48.2463 71.4771C47.3646 71.9183 46.5074 72.4086 45.6258 72.8498C44.4257 73.4381 43.2257 74.0509 41.9767 74.5656C41.0216 74.9578 40.0175 75.2275 39.0378 75.5461C38.7195 75.6687 38.3766 75.7667 38.0827 75.9383C37.1766 76.5021 36.2704 77.0904 35.3888 77.7032C34.0663 78.6346 32.7683 79.5906 31.4458 80.5466C31.3478 80.6201 31.2254 80.6936 31.1274 80.7672C31.1519 80.7917 31.1519 80.8162 31.1764 80.8407C31.7152 80.6201 32.254 80.3995 32.7928 80.1789C34.0173 79.6396 35.2418 79.0759 36.4908 78.5366C36.6623 78.463 36.8582 78.3895 37.0296 78.3405C36.9317 78.4876 36.8337 78.5611 36.7112 78.6346C34.7275 79.8602 32.7683 81.0613 30.7845 82.2869C30.6131 82.385 30.4417 82.483 30.2702 82.5566C29.1682 82.9978 28.0906 83.4635 26.9885 83.8557C25.813 84.2724 24.7109 84.7872 23.6333 85.3754C23.1925 85.5961 22.7517 85.8167 22.3108 86.0373C22.1149 86.1353 21.8945 86.2089 21.7231 86.3314C20.4741 87.2874 19.2006 88.1943 18.0005 89.2238C15.5515 91.3074 13.1759 93.4399 10.7513 95.5234C8.91456 97.1167 7.07778 98.6855 5.24099 100.254C5.16752 100.328 5.09405 100.401 5.02058 100.475C6.14714 99.9356 7.22472 99.3228 8.32679 98.759C9.42886 98.1952 10.5799 97.6805 11.7065 97.1412C11.6085 97.2883 11.4616 97.4109 11.3391 97.5334C10.9473 97.8521 10.5309 98.1952 10.1391 98.5139C9.5758 98.9796 9.11048 99.5189 8.57169 100.009C7.17574 101.259 5.7308 102.46 4.28586 103.661C4.23688 103.71 4.16341 103.784 4.08994 103.858C4.21239 103.882 4.28586 103.882 4.35933 103.907C5.70631 104.005 7.07778 104.103 8.42475 104.201C8.74313 104.225 9.03701 104.25 9.35539 104.225C10.2615 104.127 11.0942 103.759 11.9514 103.465C13.5188 102.902 15.0862 102.289 16.6535 101.7C16.9474 101.602 17.2413 101.553 17.5597 101.48C17.5597 101.504 17.5842 101.529 17.5842 101.553C17.1189 101.897 16.6535 102.24 16.1882 102.607C15.7229 102.951 15.2576 103.318 14.8168 103.661C14.8902 103.71 14.9147 103.686 14.9637 103.686C16.9719 102.583 19.1516 101.872 21.2822 101.063C21.5272 100.965 21.7965 100.916 22.1394 100.941C21.3802 101.676 20.523 102.117 19.7883 102.681C19.0291 103.269 18.2209 103.808 17.3883 104.421C17.5107 104.446 17.5597 104.446 17.6087 104.446C18.7107 104.421 19.8128 104.421 20.9149 104.397C21.0618 104.397 21.2088 104.323 21.3312 104.25C21.6986 104.054 22.0415 103.809 22.4088 103.612C23.4374 103.073 24.368 102.387 25.2497 101.651C25.4211 101.504 25.6171 101.382 25.8375 101.259C26.4987 100.916 27.16 100.597 27.8212 100.254C27.8457 100.23 27.8947 100.23 28.0416 100.205C27.2089 101.014 26.6212 101.921 26.0334 102.828C26.4497 102.534 26.8416 102.215 27.2089 101.872C27.4049 101.676 27.6008 101.529 27.8457 101.48C28.1151 101.406 28.3845 101.333 28.6294 101.259C28.8988 101.161 29.1682 101.063 29.4131 100.916C29.8049 100.72 30.1723 100.499 30.5641 100.254C30.8825 100.058 31.2009 99.8621 31.5193 99.666C32.0091 99.3473 32.4989 99.0287 32.9642 98.6855C33.503 98.3178 34.0663 97.9501 34.6051 97.5824C34.7275 97.5089 34.8255 97.4109 34.9724 97.3373C35.3643 97.1657 35.6581 96.8716 35.952 96.5774C36.5153 96.0872 37.0786 95.5725 37.6419 95.1067C38.1317 94.69 38.6215 94.2978 39.1113 93.9056C39.7481 93.3909 40.4093 92.8516 41.0461 92.3369C41.1195 92.2633 41.2175 92.2143 41.3154 92.1408C41.3154 92.2388 41.291 92.2878 41.242 92.3124C40.2379 93.4154 39.2093 94.5429 38.2052 95.646C37.5929 96.3323 36.9561 96.9942 36.3439 97.6805C35.7071 98.3668 35.0704 99.0777 34.4336 99.764C33.454 100.794 32.4744 101.823 31.4948 102.877C31.1764 103.22 30.9315 103.637 30.6621 104.005C30.6866 104.029 30.7111 104.054 30.7356 104.078C31.9601 103.024 33.1601 101.946 34.3846 100.892C35.6092 99.8621 36.7847 98.759 38.0337 97.754C37.9603 97.9011 37.8623 98.0237 37.7398 98.1217C36.2704 99.7885 34.801 101.431 33.4295 103.196C33.1111 103.612 32.7683 104.005 32.4499 104.397C32.3764 104.47 32.303 104.568 32.205 104.691C32.303 104.715 32.3764 104.74 32.4254 104.74C34.3602 104.74 36.3194 104.74 38.2541 104.74C38.4256 104.74 38.5725 104.666 38.7195 104.568C40.2868 103.245 41.8787 101.946 43.4216 100.622C43.7645 100.328 44.1808 100.156 44.6217 99.8866C44.1563 100.646 43.7155 101.333 43.3237 102.019C43.0298 102.534 42.7849 103.073 42.5155 103.612C42.4665 103.686 42.4665 103.784 42.442 103.882C43.1767 103.196 43.9114 102.534 44.7196 101.995C44.4992 102.436 44.2298 102.853 43.9849 103.269C43.74 103.71 43.3971 104.078 43.2257 104.617C43.3971 104.617 43.5196 104.617 43.642 104.617C45.5033 104.593 47.3646 104.593 49.2259 104.544C51.0137 104.495 52.826 104.421 54.6138 104.299C57.4792 104.103 60.3445 103.98 63.2344 104.078C63.4548 104.078 63.6508 104.054 63.8712 103.931C64.0426 103.833 64.263 103.784 64.4589 103.759C65.1202 103.612 65.8059 103.514 66.4917 103.367C67.1039 103.245 67.6672 103 68.206 102.681C69.0142 102.166 69.8468 101.676 70.6795 101.21C71.0959 100.99 71.5367 100.843 71.953 100.671C72.2469 100.548 72.5163 100.426 72.8102 100.303C72.9571 100.23 73.0796 100.156 73.202 100.083C73.2265 100.23 73.202 100.352 73.1286 100.401C72.6143 100.818 72.0755 101.21 71.5612 101.602C71.4632 101.676 71.3408 101.749 71.2183 101.848C71.6591 101.872 72.051 101.749 72.4428 101.627C72.7367 101.529 73.0061 101.431 73.3 101.406C74.4021 101.284 75.5041 101.186 76.6307 101.382C77.3654 101.504 78.1001 101.455 78.7369 100.941C79.3491 100.45 80.0839 100.181 80.8431 100.107C81.4798 100.034 81.9451 99.813 82.3125 99.2738C82.9737 98.2933 84.4432 98.2197 85.2269 98.4894C85.9861 98.7345 86.7208 99.0287 87.4555 99.2983C88.778 99.813 90.076 100.328 91.3985 100.867C91.6923 100.99 91.9862 101.014 92.3046 100.965C92.5495 100.916 92.7944 100.867 93.0148 100.794C93.1128 100.769 93.1863 100.695 93.3087 100.646C93.1863 100.426 93.0883 100.254 92.9903 100.083C92.8924 99.8866 92.7944 99.6905 92.7209 99.4699C92.6475 99.2247 92.672 99.0041 92.9169 98.8571C93.1373 98.71 93.3332 98.808 93.5291 98.9306C93.7251 99.0532 93.921 99.2002 94.1169 99.2983C94.5087 99.5434 94.9251 99.764 95.3414 99.9846C95.4149 100.034 95.4884 100.058 95.5618 100.083C95.5863 100.058 95.6108 100.034 95.6108 100.009C95.4394 99.8621 95.2679 99.715 95.0965 99.5434C94.8271 99.2738 94.5577 98.9796 94.2883 98.6855C93.7985 98.1462 93.3822 97.5579 92.9658 96.9696C92.3291 96.0872 91.6434 95.2293 90.9821 94.3714C90.9086 94.2978 90.8352 94.2243 90.7617 94.1508C89.9045 93.4644 89.0229 92.8026 88.1657 92.1163C87.9943 91.9937 87.8228 91.8711 87.6269 91.7486C87.6514 91.7241 87.6514 91.6996 87.6759 91.675C89.1453 92.2878 90.5413 93.0232 92.0352 93.5625C91.8148 93.2683 91.5699 93.0232 91.3005 92.7536C91.0066 92.4594 90.6882 92.1653 90.3943 91.8466C89.978 91.4054 89.5617 90.9642 89.1453 90.4985C89.0474 90.4004 88.9739 90.3024 88.9004 90.2043C88.2392 89.3464 87.6269 88.4394 86.7453 87.7776C86.6473 87.7041 86.5738 87.606 86.4759 87.508C86.133 87.1158 85.7656 86.7236 85.4228 86.3069C84.7615 85.5225 84.1493 84.6891 83.7084 83.7577C83.6105 83.5616 83.488 83.39 83.2921 83.2429C83.4635 84.444 84.0758 85.4245 84.4187 86.503C84.1738 86.1843 83.9534 85.8412 83.7574 85.498C83.3901 84.8362 83.0717 84.1498 82.7288 83.488C82.7043 83.4145 82.6554 83.3655 82.6064 83.2919C82.4594 83.0468 82.288 82.7772 82.1656 82.5075C81.7002 81.4045 81.3819 80.2279 81.088 79.0759C81.0145 78.8062 80.941 78.5366 80.8186 78.267C80.4267 77.3355 80.1084 76.404 80.0839 75.3745C80.2798 75.7422 80.4512 76.1099 80.5982 76.5021C81.1125 77.8257 81.8962 79.0023 82.6309 80.2034C83.1697 81.0858 83.7329 81.9683 84.2472 82.8507C84.5166 83.2919 84.6636 83.8067 84.9575 84.2479C85.7412 85.498 86.7453 86.601 87.8473 87.606C88.8759 88.562 89.929 89.4935 90.9086 90.4739C91.9372 91.5035 92.8924 92.582 93.8965 93.6605C94.0924 93.8566 94.2883 94.0527 94.5087 94.1998C95.3414 94.7881 96.0027 95.5479 96.7374 96.2588C96.8598 96.3814 96.9333 96.5284 97.0313 96.6755C97.1782 96.8716 97.3007 97.0432 97.4721 97.2148C97.9374 97.705 98.4272 98.2198 98.917 98.6855C99.3823 99.1267 99.8477 99.5924 100.337 100.009C100.803 100.401 101.317 100.744 101.782 101.112C101.856 101.161 101.929 101.21 102.003 101.235C102.027 101.21 102.052 101.21 102.052 101.186C101.978 101.088 101.905 100.965 101.807 100.867C101.391 100.279 100.974 99.6905 100.582 99.0532C100.337 98.661 100.068 98.3423 99.7252 98.0727C99.4313 97.8276 99.1864 97.5579 98.917 97.3128C98.9415 97.2883 98.9415 97.2638 98.966 97.2393C99.1619 97.3373 99.3823 97.3863 99.5538 97.5089C100.533 98.1707 101.513 98.808 102.468 99.4944C102.884 99.7885 103.252 100.156 103.668 100.475C104.256 100.916 104.795 101.455 105.456 101.774C107.072 102.558 108.664 103.343 110.281 104.127C110.379 104.176 110.501 104.176 110.599 104.225C110.085 103.392 109.276 102.828 108.738 102.044C109.717 102.583 110.648 103.147 111.603 103.686C111.824 103.808 112.019 103.98 112.24 104.078C112.387 104.152 112.583 104.225 112.754 104.225C114.126 104.225 115.473 104.225 116.844 104.201C116.942 104.201 117.04 104.176 117.211 104.176C116.232 103.024 115.326 101.946 114.395 100.843C115.032 101.235 115.644 101.651 116.256 102.093C116.844 102.534 117.358 103.073 118.093 103.49C118.02 103.367 117.995 103.318 117.971 103.294C117.285 102.264 116.501 101.308 115.669 100.401C115.252 99.9356 114.885 99.4454 114.493 98.9551C114.126 98.5139 113.807 98.0482 113.415 97.6315C112.607 96.749 111.775 95.8666 110.942 94.9842C110.477 94.4694 109.987 93.9547 109.693 93.3173C109.521 92.9252 109.301 92.5575 109.007 92.2388C108.983 92.2143 108.983 92.1653 108.958 92.1408C109.105 92.2143 109.203 92.3124 109.325 92.3859C110.721 93.6115 112.117 94.8126 113.538 96.0137C113.783 96.2098 114.052 96.3813 114.322 96.5529C114.346 96.5284 114.346 96.5039 114.371 96.5039C114.346 96.4549 114.322 96.4059 114.273 96.3568C113.636 95.6215 112.999 94.8861 112.362 94.1508C111.701 93.4154 111.04 92.7045 110.403 91.9447C109.717 91.1358 109.105 90.2533 108.297 89.5425C107.905 89.1993 107.513 88.8562 107.146 88.4885C106.754 88.1208 106.362 87.7531 106.019 87.3854C105.309 86.6256 104.599 85.8412 103.889 85.0568C103.791 84.9587 103.693 84.8852 103.595 84.7872C103.791 85.1303 104.036 85.4245 104.256 85.7431C104.476 86.0618 104.697 86.3804 104.893 86.7236C105.089 87.0423 105.383 87.2874 105.554 87.7286C105.138 87.4099 104.795 87.1648 104.476 86.8952C104.207 86.6746 103.938 86.454 103.693 86.2089C102.933 85.4 102.199 84.5666 101.44 83.7331C101.415 83.7086 101.391 83.7086 101.366 83.7086C101.366 83.7331 101.342 83.7576 101.366 83.7822C101.831 84.7381 102.174 85.7431 102.713 86.6746C103.35 87.7776 103.938 88.9052 104.55 90.0082C104.599 90.1063 104.672 90.2779 104.648 90.3269C104.55 90.4494 104.648 90.4985 104.697 90.572C104.77 90.6455 104.819 90.7191 104.893 90.7926C104.746 90.7436 104.623 90.6455 104.501 90.5475C103.423 89.5915 102.321 88.611 101.244 87.6551C100.827 87.2874 100.386 86.9687 99.9701 86.6256C100.974 87.8757 102.003 89.1258 103.105 90.2778C104.207 91.4299 105.383 92.533 106.534 93.6605C105.676 93.1703 104.77 92.7536 104.06 92.0672C103.889 91.8956 103.717 91.7486 103.521 91.626C103.325 91.4789 103.105 91.3564 102.909 91.2338C102.664 91.0868 102.395 90.9887 102.174 90.8171C101.489 90.3024 100.754 89.8857 100.019 89.4444C99.1619 88.9052 98.2313 88.4885 97.3496 87.9982C96.9823 87.8021 96.5659 87.6551 96.1986 87.508C96.2231 87.6551 96.2721 87.7776 96.3455 87.8512C96.7619 88.3414 97.1782 88.8071 97.5945 89.2974C98.1823 89.9592 98.7701 90.621 99.4558 91.1848C99.6273 91.3319 99.7742 91.5035 99.9211 91.675C100.705 92.631 101.513 93.538 102.566 94.2488C102.762 94.3959 102.958 94.5429 103.154 94.69C104.182 95.5234 105.236 96.2833 106.436 96.8226C107.366 97.2148 108.223 97.7295 109.056 98.2688C109.13 98.3178 109.203 98.3913 109.276 98.4404C109.105 98.4404 108.934 98.3668 108.787 98.2933C107.93 97.8766 107.048 97.5579 106.117 97.3373C105.211 97.1167 104.354 96.7735 103.521 96.3078C102.591 95.7685 101.66 95.2293 100.729 94.69C99.7252 94.1017 98.7701 93.4889 97.8639 92.7536C97.7905 92.7045 97.717 92.6555 97.668 92.6065C98.0109 93.1458 98.4027 93.685 98.8436 94.1508C99.4068 94.7145 99.8232 95.3764 100.313 96.0137C100.264 96.0137 100.24 96.0137 100.215 96.0137C98.5497 94.8861 96.9578 93.6605 95.6843 92.0917C95.5373 91.9202 95.3904 91.7241 95.219 91.577C93.7985 90.1063 92.5985 88.464 91.3985 86.8217C91.3495 86.7481 91.3005 86.6501 91.2515 86.5765C91.3985 86.6256 91.5209 86.7236 91.6189 86.8217C92.4271 87.508 93.2352 88.1698 94.0189 88.8562C94.5577 89.3219 95.072 89.7876 95.5863 90.2533C95.7333 90.4004 95.8802 90.5475 96.0516 90.67C96.9088 91.2093 97.7905 91.7486 98.6721 92.2633C98.7701 92.3369 98.8925 92.3614 99.015 92.4104C98.9415 92.2388 98.8191 92.1408 98.6966 92.0182C97.9374 91.3074 97.1537 90.621 96.4435 89.8857C95.2435 88.6355 94.0434 87.4099 92.9903 86.0373C92.5495 85.449 92.0352 84.9097 91.5944 84.3214C91.227 83.8557 90.8352 83.39 90.5413 82.8752C89.8066 81.5271 89.1208 80.1299 88.4351 78.7572C88.0188 77.9238 87.6514 77.0904 87.2106 76.2815C86.9657 75.8158 86.6718 75.35 86.3779 74.9333C85.9616 74.345 85.4963 73.8058 85.0799 73.242C85.0799 73.2175 85.0309 73.242 84.982 73.2175C85.0799 73.5361 85.1779 73.8303 85.2758 74.1244C85.8636 75.9383 86.4759 77.7767 87.0636 79.5906C87.2841 80.2524 87.3575 80.9633 87.7494 81.5516C87.7494 81.5761 87.7494 81.6006 87.7249 81.6496C87.1371 80.7917 86.5983 79.9093 85.9861 79.1004C85.3493 78.2915 84.5901 77.5806 83.9044 76.8207C83.8799 76.8453 83.8554 76.8453 83.8309 76.8698C84.0513 77.5561 84.2962 78.2424 84.5411 78.9533C84.5166 78.9533 84.4921 78.9533 84.4921 78.9533C84.4677 78.9043 84.4187 78.8798 84.3942 78.8307C83.3656 77.1884 82.6309 75.4236 82.1411 73.5606C81.8962 72.5557 81.7247 71.5507 81.5043 70.5457C81.4798 70.4476 81.4553 70.3496 81.4308 70.227C81.3574 70.9624 81.4308 71.6977 81.3574 72.4331C81.3084 72.4086 81.3084 72.3596 81.2839 72.335C80.9655 71.183 80.8431 69.9819 80.6716 68.8053C80.6471 68.7073 80.6716 68.6092 80.6716 68.4866C80.6961 67.9229 80.7206 67.3836 80.7451 66.8198C80.7451 66.2561 80.7451 65.6678 80.7451 65.104C80.7696 65.104 80.7941 65.104 80.8186 65.104C80.9165 65.4717 80.9655 65.8639 81.088 66.2315C81.5043 67.6532 81.9451 69.0504 82.3615 70.4721C82.7533 71.8448 83.2676 73.1439 83.9289 74.3941C83.9778 74.5166 84.0513 74.6147 84.1003 74.7372C84.1248 74.7372 84.1493 74.7127 84.1738 74.7127C83.4635 72.3596 83.3166 69.9083 82.8268 67.4326C82.9003 67.5307 82.9492 67.5797 82.9492 67.6042C83.1697 68.1435 83.439 68.6582 83.6105 69.222C84.0268 70.4966 84.7126 71.5752 85.5207 72.6292C85.9126 73.1439 86.3289 73.6587 86.7208 74.2225C87.2841 75.0314 87.8473 75.8403 88.4351 76.6246C89.978 78.6346 91.4474 80.6691 92.9658 82.7036C93.0393 82.7772 93.0883 82.8752 93.1373 82.9488C93.2842 83.1939 93.5046 83.3655 93.7495 83.537C94.2883 83.8802 94.8026 84.2479 95.3169 84.6156C95.8557 84.9833 96.419 85.3509 96.9823 85.6941C97.4966 85.9882 98.0354 86.2579 98.5497 86.552C98.6231 86.601 98.6966 86.6256 98.7701 86.6501C98.4762 86.2089 98.1578 85.7921 97.8639 85.3754C97.5701 84.9587 97.3007 84.5175 97.0313 84.0518C96.7619 83.6106 96.5415 83.1448 96.2966 82.6791C96.0761 82.2379 95.8802 81.7722 95.6843 81.3064C96.0761 81.7232 96.419 82.1399 96.7864 82.5811C96.8843 82.7036 97.0068 82.8262 97.1292 82.9488C97.6435 83.39 98.1578 83.8067 98.6721 84.2479C98.7701 84.3214 98.8436 84.395 98.917 84.4685C98.3048 82.9733 97.4476 81.6006 96.8353 80.1054C97.7415 81.2819 98.4762 82.5811 99.4803 83.6841C99.4558 83.537 99.4068 83.4145 99.3579 83.2919C98.966 82.532 98.5497 81.7477 98.1578 80.9878C97.9374 80.5956 97.717 80.1789 97.5701 79.7622C97.4231 79.3455 97.2027 78.9778 96.9578 78.5856C96.7864 78.316 96.5904 78.0463 96.517 77.7767C96.3945 77.2865 96.1496 76.8698 95.9047 76.4531C95.7333 76.1589 95.5618 75.8648 95.3904 75.5706C95.6108 75.6932 95.7822 75.8648 95.9292 76.0364C96.37 76.5021 96.7864 76.9678 97.2517 77.409C98.1333 78.2179 99.0395 78.9778 99.9456 79.7377C100.019 79.8112 100.117 79.8602 100.191 79.9338C100.582 80.2279 100.999 80.5466 101.391 80.8407C101.464 80.8897 101.513 80.9143 101.586 80.9633C101.072 79.8602 100.607 78.7327 99.8966 77.7522C99.0885 76.6247 98.3048 75.4481 97.4966 74.296C97.2762 73.9774 97.0068 73.6587 96.7619 73.34C96.37 72.8253 96.0027 72.286 95.6108 71.7713C95.5618 71.6977 95.5373 71.6242 95.5129 71.5507C95.6598 71.6242 95.7578 71.7222 95.8557 71.8203C97.4721 73.6097 99.064 75.3745 100.68 77.1639C100.974 77.4826 101.293 77.8012 101.635 78.0709C102.517 78.8062 103.448 79.4435 104.378 80.1054C105.138 80.6446 105.946 81.1103 106.754 81.6006C106.876 81.6741 106.999 81.7232 107.121 81.7967C107.146 81.7722 107.17 81.7477 107.195 81.7232C106.117 80.2279 105.162 78.6346 104.231 77.0413C104.329 77.0659 104.403 77.1149 104.476 77.1639C105.26 77.8257 105.995 78.5611 106.656 79.37C107.366 80.2279 108.052 81.0858 108.885 81.8457C109.987 82.8507 110.942 84.0028 111.775 85.2284C112.117 85.7186 112.534 86.1598 112.926 86.6256C113.024 86.7481 113.146 86.8217 113.244 86.9442C113.219 86.9687 113.219 86.9932 113.195 87.0177C112.485 86.6501 111.75 86.3314 111.089 85.8902C110.158 85.2774 109.252 84.5911 108.37 83.9047C107.881 83.5125 107.366 83.1939 106.778 82.9242C106.068 82.6056 105.383 82.2869 104.697 81.9928C104.55 81.8212 104.525 81.8212 104.452 81.8457Z" fill="#555555"/>
        <path d="M58.8506 69.7612C58.4833 70.3005 58.1159 70.8643 57.7241 71.379C57.2832 71.9673 56.8669 72.5556 56.3771 73.0949C55.9118 73.6096 55.422 74.1244 54.9077 74.5656C54.0995 75.2764 53.2668 75.9628 52.3607 76.5511C51.9688 76.8207 51.6014 77.1394 51.2586 77.458C50.6953 77.9482 50.132 78.414 49.4708 78.7817C49.1034 78.9778 48.7605 79.2229 48.4177 79.4435C47.732 79.8847 47.0462 80.3014 46.5319 80.9387C46.4584 81.0368 46.3605 81.1103 46.2135 81.2329C46.2625 81.0123 46.336 80.8652 46.4095 80.7426C46.9972 79.8357 47.585 78.9532 48.1973 78.0463C48.4177 77.7276 48.6381 77.409 48.834 77.0413C48.7605 77.0658 48.6871 77.0903 48.6136 77.1394C47.9279 77.6541 47.2421 78.1934 46.5319 78.7081C46.4584 78.7817 46.3605 78.8307 46.287 78.9042C43.3237 81.7231 40.2134 84.3704 37.0541 86.9442C36.8582 87.1158 36.6378 87.2628 36.4174 87.4099C34.8255 88.4149 33.2336 89.4199 31.5438 90.2288C30.4907 90.7435 29.4621 91.3318 28.409 91.8711C28.2865 91.9446 28.1396 91.9936 27.9681 92.0182C28.0416 91.9446 28.0906 91.8956 28.1641 91.8221C28.7029 91.4054 29.2661 90.9887 29.8049 90.5719C30.5396 89.9837 31.2499 89.3709 31.9846 88.7581C32.6703 88.1698 33.405 87.655 34.2132 87.2138C34.3846 87.1157 34.5561 86.9932 34.703 86.8461C34.6051 86.8951 34.4826 86.9197 34.3846 86.9687C33.1356 87.5325 31.9111 88.0962 30.6621 88.6355C30.2458 88.8316 29.8294 89.0032 29.4131 89.1748C29.2661 89.2238 29.1192 89.2483 28.9478 89.2238C28.9967 89.1748 29.0457 89.1012 29.1192 89.0522C30.4417 87.9737 31.7397 86.9197 33.0622 85.8411C33.2826 85.6695 33.454 85.4734 33.6499 85.2773C34.9969 83.9782 36.4418 82.8016 37.9113 81.6251C38.0582 81.5025 38.2052 81.4044 38.3031 81.2329C38.2296 81.2819 38.1317 81.3064 38.0582 81.3554C36.4908 82.2624 34.8989 83.1448 33.356 84.1008C30.3437 85.9637 27.2089 87.606 24.0986 89.2728C23.0945 89.8121 22.1394 90.4494 21.1843 91.0622C21.0618 91.1357 20.9394 91.2338 20.7679 91.2583C20.8659 91.1602 20.9639 91.0622 21.0618 90.9887C22.3353 89.8121 23.7068 88.7826 25.1272 87.8021C26.1803 87.0667 27.2334 86.3314 28.2865 85.596C29.9764 84.4439 31.6662 83.2919 33.3805 82.1643C33.7234 81.9192 34.0663 81.6741 34.4336 81.429C34.703 81.2329 34.9969 81.0368 35.2663 80.8652C36.7847 79.8847 38.3031 78.9287 39.8215 77.9728C41.0705 77.1884 42.344 76.4285 43.7155 75.8647C44.2543 75.6441 44.7686 75.3255 45.3074 75.0558C45.3074 75.0558 45.3319 75.0558 45.3319 75.0803V75.1049C45.2829 75.1539 45.2094 75.2029 45.1604 75.2519C44.7196 75.6196 44.2788 76.0118 43.8135 76.355C42.393 77.409 40.9726 78.463 39.5766 79.517C39.5766 79.517 39.5766 79.5415 39.5276 79.6151C39.7236 79.517 39.846 79.468 39.993 79.3945C41.4624 78.6591 42.8828 77.8992 44.3768 77.2129C45.3074 76.7962 46.1891 76.2814 47.0217 75.6931C48.2463 74.7862 49.4953 73.9283 50.7443 73.0704C50.8422 72.9968 50.9647 72.9478 51.0871 72.9233C49.2259 74.394 47.3646 75.8402 45.5278 77.3354C43.7155 78.8307 42.0012 80.424 40.2624 82.0172C40.2868 82.0418 40.2868 82.0663 40.3113 82.0908C40.3848 82.0663 40.4583 82.0418 40.5073 82.0172C41.291 81.527 42.0991 81.0613 42.8583 80.4975C43.5686 79.9827 44.2788 79.4925 44.9155 78.9287C46.1401 77.8502 47.536 77.0168 48.8585 76.1098C50.2055 75.2029 51.5525 74.3205 52.9239 73.4625C53.1688 73.3155 53.4382 73.1929 53.7321 73.0949C52.777 74.1979 51.6014 75.1049 50.8667 76.404C50.9892 76.3305 51.0871 76.2569 51.2096 76.1834C52.2137 75.4235 53.2423 74.6636 54.2464 73.8792C55.7158 72.7272 57.2098 71.5506 58.4098 70.1044C58.5078 69.9818 58.6057 69.8593 58.7037 69.7367C58.7772 69.7122 58.8261 69.7367 58.8506 69.7612Z" fill="#555555"/>
        <path d="M52.9729 91.6995C53.0464 91.5524 53.1443 91.3808 53.2178 91.2338C53.8545 90.0327 54.4668 88.8561 55.1035 87.655C55.5934 86.7481 56.1811 85.8901 56.8424 85.0812C57.4791 84.2969 58.1159 83.5125 58.7526 82.7281C58.8261 82.63 58.8996 82.532 58.9486 82.3849C58.8751 82.4339 58.8016 82.5075 58.7281 82.5565C58.4832 82.7771 58.2628 82.9977 58.0424 83.2428C55.9607 85.3264 53.9035 87.4344 51.8218 89.4934C51.2585 90.0572 50.6463 90.5719 50.083 91.1602C49.3728 91.8956 48.687 92.6555 48.0013 93.4153C47.9034 93.5379 47.8054 93.6359 47.6584 93.734C47.6829 93.6604 47.7319 93.5869 47.7564 93.5134C48.0258 93.0231 48.2952 92.5084 48.5891 92.0181C49.0544 91.2583 49.5442 90.5474 50.0095 89.7875C50.1565 89.5424 50.3034 89.2728 50.3769 88.9787C50.4993 88.5129 50.6953 88.0962 50.8912 87.6795C51.332 86.8216 51.7728 85.9392 52.2137 85.0812C52.2382 85.0322 52.2627 84.9587 52.2627 84.8851C52.2137 84.9342 52.1402 84.9832 52.0912 85.0322C51.9688 85.1548 51.8463 85.3019 51.6994 85.4244C51.0381 85.9637 50.5238 86.6255 49.9605 87.2628C49.4218 87.8511 48.883 88.4394 48.3197 89.0277C48.2952 89.0032 48.2707 89.0032 48.2462 88.9787C48.2707 88.9051 48.2952 88.8316 48.3442 88.758C48.687 88.1207 49.1524 87.5324 49.4218 86.8461C49.5932 86.4294 49.8626 86.0617 50.1565 85.694C51.5769 83.9782 53.0219 82.2624 54.4668 80.571C55.0056 79.9582 55.6178 79.419 56.2546 78.9042C56.5975 78.6346 56.9158 78.3159 57.2832 78.0463C57.2342 78.1198 57.1852 78.2179 57.1363 78.2914C56.6709 78.9532 56.2546 79.6641 55.8872 80.3994C55.4954 81.1838 55.0546 81.9192 54.6382 82.6791C54.3443 83.2428 54.0505 83.8311 53.7811 84.4194C53.7566 84.493 53.7321 84.5665 53.7321 84.64C53.8056 84.542 53.9035 84.4439 53.977 84.3459C55.3485 82.4094 56.8669 80.6201 58.3608 78.7817C59.4139 77.4825 60.6384 76.3795 61.8629 75.2519C61.8874 75.2274 61.9119 75.2274 62.0344 75.1539C59.8302 77.7276 57.822 80.3504 56.0832 83.1693C56.1077 83.1938 56.1321 83.1938 56.1321 83.2183C56.1811 83.1938 56.2301 83.1693 56.2791 83.1203C56.4995 82.8997 56.7444 82.7036 56.9648 82.483C57.5771 81.8211 58.2383 81.1838 58.973 80.6446C59.0955 80.5465 59.1935 80.424 59.3159 80.3259C59.6343 80.0318 59.9527 79.7131 60.271 79.419C61.4711 78.3404 62.6711 77.2864 63.8711 76.2079C64.5814 75.5706 65.2671 74.9333 65.9038 74.2469C66.4916 73.6096 67.0059 72.8743 67.5692 72.1879C67.6672 72.0899 67.7406 71.9673 67.8386 71.8693C67.4957 72.7027 67.2263 73.5606 66.761 74.345C66.6141 74.5901 66.4916 74.8107 66.3447 75.0313C64.4589 77.9237 62.6466 80.8652 60.6384 83.6595C60.1241 84.3704 59.6833 85.1058 59.1935 85.8411C58.9486 86.1843 58.7281 86.552 58.4587 86.8706C59.1935 85.1058 60.1731 83.4635 61.0547 81.7966C61.0302 81.7721 61.0058 81.7721 60.9813 81.7476C60.8833 81.8457 60.7853 81.9437 60.7119 82.0663C59.0465 83.9782 57.4301 85.9392 55.9117 87.9982C55.226 88.9296 54.4668 89.7876 53.7566 90.6945C53.4872 91.0132 53.2423 91.3563 52.9729 91.675C52.9974 91.724 52.9729 91.6995 52.9729 91.6995Z" fill="#555555"/>
        <path d="M89.1453 95.8666C87.7494 94.8371 86.3044 93.8566 85.0799 92.6065C84.9819 92.5085 84.884 92.4349 84.786 92.3369C84.4187 91.9447 83.9533 91.6996 83.439 91.528C82.7778 91.3074 82.1655 91.0132 81.5043 90.8171C80.6226 90.5475 80.7451 90.5475 80.0349 91.1113C79.8144 91.3074 79.5695 91.479 79.3002 91.626C78.5165 92.1163 77.7328 92.5575 76.9491 93.0477C76.3858 93.4154 75.8225 93.7831 75.2837 94.1753C75.0633 94.3224 74.8429 94.4449 74.5735 94.4694C73.6674 94.592 72.7857 94.7391 71.8795 94.7391C71.2428 94.7391 70.5816 94.7881 69.9448 94.8126C69.2101 94.8371 68.5733 95.1803 67.9611 95.548C66.4427 96.4304 64.8508 97.1412 63.2344 97.8276C63.1854 97.8521 63.1365 97.8521 63.063 97.8276C63.1854 97.7295 63.3079 97.6315 63.4548 97.558C64.5079 96.9942 65.3651 96.1853 66.2467 95.4254C67.2753 94.5185 68.3774 93.6851 69.4305 92.8271C69.6509 92.6555 69.8958 92.533 70.1162 92.4104C70.5816 92.1408 71.0469 91.8712 71.5367 91.6015C71.904 91.4054 72.2714 91.2093 72.6877 90.9887C72.1734 91.626 71.6836 92.2143 71.1693 92.8761C71.3653 92.8761 71.4877 92.9007 71.6346 92.8761C72.7122 92.7291 73.7898 92.582 74.8674 92.3859C76.1164 92.1408 77.2919 91.6996 78.345 91.0132C78.6144 90.8416 78.9083 90.621 79.2757 90.6701C79.3246 90.6701 79.3981 90.6456 79.4471 90.5965C79.741 90.3514 80.0594 90.1063 80.4022 89.8367C80.3043 89.7141 80.2063 89.5915 80.0838 89.518C79.3246 88.9297 78.6634 88.2434 77.9777 87.459C78.1001 87.508 78.1736 87.5325 78.2471 87.5815C78.7124 87.8757 79.1777 88.1943 79.6675 88.4395C80.1328 88.6846 80.6226 88.9052 81.1124 89.0768C81.6757 89.2484 82.2145 89.4445 82.7288 89.6896C83.3166 89.9592 83.9044 90.2043 84.5411 90.4004C85.3493 90.6456 86.0105 91.1113 86.5983 91.7241C87.284 92.4349 88.0677 93.0232 88.8024 93.6851C88.9004 93.7831 89.0229 93.8566 89.1208 93.9547C89.0963 93.9792 89.0963 94.0037 89.0718 94.0282C88.2882 93.6605 87.5289 93.2929 86.7453 92.9497C86.7208 92.9742 86.6963 92.9987 86.6963 93.0232C87.0881 93.5135 87.4555 94.0037 87.8473 94.4939C88.3126 94.9352 88.729 95.4009 89.1453 95.8666Z" fill="#555555"/>
        <path d="M50.7443 101.798C50.7932 101.7 50.8667 101.578 50.9157 101.48C51.9933 99.5679 53.0953 97.6314 54.1484 95.7195C54.4913 95.0822 54.7607 94.3713 55.0791 93.7095C55.226 93.4153 55.373 93.1212 55.5689 92.8761C56.9159 91.1602 58.1894 89.3954 59.3894 87.5815C60.2466 86.3069 61.1037 85.0322 61.9854 83.8066C62.7936 82.6791 63.6507 81.6005 64.5324 80.522C65.0712 79.8602 65.659 79.2719 66.2957 78.5856C66.2467 78.7081 66.2222 78.7326 66.1977 78.7817C65.3406 80.1053 64.4834 81.4535 63.6262 82.7771C63.0385 83.6841 62.4507 84.6155 61.8629 85.5225C61.6425 85.8656 61.4466 86.2333 61.2507 86.601C61.2017 86.699 61.1772 86.8216 61.1037 86.9932C61.2507 86.8951 61.3241 86.8706 61.3731 86.8216C61.569 86.65 61.7405 86.4539 61.9119 86.2578C62.6221 85.3999 63.3079 84.5665 64.0181 83.7086C64.0426 83.6841 64.0671 83.6596 64.1405 83.6596C64.0916 83.7576 64.0426 83.8557 63.9936 83.9292C63.3568 85.0322 62.7201 86.1598 62.0833 87.2628C61.8139 87.7531 61.4956 88.2188 61.1772 88.6845C59.4874 91.1602 57.9934 93.7585 56.622 96.4303C56.3771 96.9206 56.0097 97.3618 55.6913 97.8275C55.4219 98.1952 55.1525 98.5629 54.8587 98.906C55.5199 96.798 56.4995 94.837 57.4546 92.8761C57.4302 92.8516 57.4057 92.8516 57.3812 92.8271C57.2832 92.9251 57.1853 93.0232 57.1118 93.1212C55.8628 94.6409 54.7362 96.2342 53.7321 97.9256C52.9239 99.2737 51.9443 100.499 50.9402 101.7C50.8912 101.774 50.8177 101.823 50.7688 101.897C50.7932 101.823 50.7688 101.798 50.7443 101.798Z" fill="#555555"/>
        <path d="M76.1899 66.4521C75.896 69.0014 75.896 71.5016 76.2388 74.0264C76.5327 72.6782 76.8266 71.3546 77.096 70.0064C77.1205 70.0064 77.145 70.0064 77.145 70.0064C77.145 70.0554 77.1695 70.1044 77.1695 70.129C77.2185 71.4036 77.243 72.7027 77.2919 73.9773C77.3409 74.9088 77.145 75.8403 77.047 76.7717C76.9001 78.4876 76.4103 80.1544 76.1164 81.8457C76.1164 81.8947 76.0674 81.9438 75.9939 81.9928C75.9694 81.6496 75.945 81.331 75.945 80.9878C75.9695 80.0563 76.0184 79.1249 76.0429 78.1934C76.0429 77.8748 76.0429 77.5561 76.0429 77.2129C75.945 78.1689 75.4307 79.0513 75.4307 80.0318C75.2347 79.6151 75.1368 79.1984 75.1123 78.7817C75.0633 78.2669 75.0388 77.7522 75.0143 77.2374C74.9898 76.9188 74.9408 76.5756 74.8919 76.257C74.8674 76.257 74.8429 76.257 74.8184 76.2324C74.7204 76.5266 74.598 76.8207 74.5 77.1149C74.4266 77.3355 74.3531 77.5806 74.2551 77.8012C73.6673 79.1739 73.2755 80.6201 72.9571 82.0663C72.8347 82.5811 72.8836 83.0958 72.9571 83.6106C73.0551 84.1744 73.1041 84.7381 73.153 85.3019C73.1286 85.3019 73.1041 85.3264 73.0796 85.3264C72.9326 84.9097 72.7612 84.493 72.6142 84.0763C72.0755 82.3359 71.904 80.5466 72.002 78.7327C72.0265 78.4876 72.051 78.2179 72.1489 77.9728C72.4183 77.2374 72.7367 76.5266 73.0306 75.8157C73.3 75.2029 73.5694 74.5901 73.8143 73.9528C74.1327 73.193 74.4755 72.4576 74.7694 71.6977C74.9164 71.33 74.9898 70.9624 75.0633 70.5702C75.1123 70.3496 75.1123 70.1044 75.1613 69.8838C75.2347 69.3936 75.3082 68.9034 75.5041 68.4131C75.7001 67.9229 75.847 67.4081 75.9939 66.8934C76.0674 66.7708 76.1164 66.6237 76.1899 66.4521Z" fill="#555555"/>
        <path d="M67.8386 80.9143C67.6672 81.7477 67.4958 82.5811 67.3243 83.4145C67.3488 83.4145 67.3733 83.439 67.3733 83.439C67.4713 83.1939 67.5937 82.9488 67.6672 82.7037C67.8386 82.1154 68.0835 81.5761 68.3774 81.0369C68.6468 80.5711 68.8672 80.0319 69.1366 79.5416C69.0876 79.7622 69.0387 79.9828 68.9897 80.1789C68.6468 82.238 68.059 84.2479 67.5937 86.2824C67.4713 86.8217 67.3243 87.3365 67.1529 87.8512C66.6631 89.2239 66.1733 90.5966 65.659 91.9692C65.512 92.3614 65.3161 92.7536 65.0957 93.1213C64.9243 93.4154 64.6059 93.6361 64.5569 94.0282C64.5324 94.0282 64.5079 94.0037 64.4834 94.0037C64.7283 92.0918 64.9733 90.1553 65.1937 88.3414C64.9243 88.9542 64.6549 89.6651 64.312 90.376C63.9691 91.0868 63.5773 91.7731 63.1854 92.4595C62.7936 93.1458 62.3773 93.8076 61.9364 94.4695C62.1813 93.6361 62.3773 92.7536 62.6956 91.9447C62.9895 91.1113 63.4059 90.3514 63.7487 89.518C63.6997 89.5671 63.6263 89.6161 63.5773 89.6896C63.1854 90.1799 62.8181 90.6701 62.4262 91.1603C62.1568 91.479 61.863 91.7731 61.3976 91.8222C60.516 91.9202 59.9282 92.5085 59.3404 93.0968C58.9241 93.538 58.5323 94.0037 58.0914 94.4449C58.1159 94.3714 58.1404 94.2979 58.1649 94.2243C58.8261 93.1213 59.4874 92.0183 60.1486 90.9397C60.2711 90.7436 60.3935 90.572 60.6874 90.5475C60.6629 90.7436 60.6629 90.9397 60.6384 91.1358C61.1772 91.1113 61.6181 90.9642 61.9119 90.474C62.0834 90.2044 62.3283 89.9838 62.4997 89.7141C62.8671 89.2239 63.2589 88.7091 63.5773 88.1944C64.0916 87.3365 64.6059 86.454 65.1937 85.6451C65.5855 85.0813 66.0263 84.5176 66.1488 83.8067C66.1978 83.6106 66.3202 83.39 66.4182 83.2184C66.859 82.5076 67.3243 81.7967 67.6672 81.0369C67.6917 81.0124 67.7162 80.9633 67.7162 80.9388C67.7897 80.8898 67.8141 80.8898 67.8386 80.9143Z" fill="#555555"/>
        <path d="M112.803 77.7522C113.244 78.0954 113.685 78.414 114.126 78.7572C114.713 79.2229 115.277 79.6886 115.864 80.1299C116.771 80.8162 117.579 81.5761 118.289 82.483C118.901 83.2674 119.538 84.0273 120.126 84.8607C119.807 84.6156 119.489 84.3704 119.171 84.1498C118.828 83.9047 118.485 83.7086 118.069 83.4145C118.118 83.537 118.142 83.5861 118.167 83.6106C118.705 84.1253 119.024 84.7871 119.416 85.3754C119.66 85.7676 119.905 86.1353 120.15 86.503C120.322 86.7726 120.542 86.9932 120.665 87.2629C121.179 88.2679 121.987 89.0277 122.648 89.9102C122.795 90.1308 123.04 90.2778 123.236 90.4739C123.652 90.9397 124.069 91.4054 124.461 91.8956C123.799 91.5034 123.114 91.1603 122.55 90.5965C121.84 89.8611 121.056 89.2238 120.322 88.5375C119.832 88.0718 119.367 87.5815 118.901 87.0913C118.387 86.5275 117.922 85.9392 117.407 85.3999C116.648 84.6156 115.864 83.8802 115.081 83.0958C114.738 82.7526 114.371 82.4095 114.052 82.0418C112.999 80.8897 111.921 79.7377 110.868 78.5856C110.819 78.5121 110.746 78.4385 110.721 78.3405C110.795 78.365 110.868 78.3895 110.942 78.463C111.358 78.8062 111.799 79.1249 112.191 79.4925C112.828 80.0563 113.44 80.6691 114.052 81.2574C114.15 81.3555 114.248 81.429 114.346 81.5025C115.13 81.9192 115.766 82.5566 116.452 83.0958C116.673 83.2674 116.893 83.488 117.113 83.6596C116.844 83.0713 116.501 82.5566 116.134 82.0418C115.13 80.6691 114.003 79.3945 112.926 78.0954C112.852 77.9973 112.779 77.8993 112.681 77.8012C112.754 77.7767 112.779 77.7767 112.803 77.7522Z" fill="#555555"/>
        <path d="M100.044 71.085C100.68 71.6242 101.293 72.1635 101.929 72.7028C103.178 73.8303 104.476 74.9088 105.872 75.8648C106.191 76.0854 106.534 76.2325 106.827 76.4286C107.293 76.7227 107.758 76.9924 108.174 77.3355C109.227 78.1934 110.183 79.1249 111.064 80.1544C111.774 81.0123 112.607 81.7722 113.391 82.5566C114.321 83.488 115.301 84.395 116.232 85.3264C116.575 85.6451 116.869 85.9883 117.187 86.3559C117.04 86.2824 116.869 86.2089 116.722 86.1353C116.403 85.9392 116.109 85.7432 115.815 85.5471C114.126 84.3215 112.387 83.1694 110.795 81.7967C109.791 80.9143 108.762 80.0564 107.807 79.1494C107.219 78.6102 106.607 78.0954 105.97 77.5806C105.358 77.0659 104.795 76.4776 104.231 75.9138C103.154 74.7863 102.101 73.6097 101.048 72.4576C100.656 72.0409 100.313 71.5997 99.9701 71.1585C99.9946 71.1095 100.019 71.1095 100.044 71.085Z" fill="#555555"/>
        <path d="M47.7565 83.3655C47.3646 83.7822 47.0218 84.2234 46.6054 84.6156C45.3074 85.8167 43.985 87.0177 42.6625 88.1943C42.1237 88.66 41.5359 89.0768 40.9481 89.4689C40.1155 90.0082 39.3563 90.67 38.5971 91.3319C38.2052 91.675 37.7889 91.9937 37.397 92.3123C36.3194 93.1948 35.1929 94.0282 34.0418 94.8371C32.9887 95.597 32.0336 96.4549 31.1519 97.4108C31.054 97.5089 30.9805 97.5824 30.8091 97.754C30.8581 97.6069 30.8581 97.5089 30.8826 97.4599C31.1519 96.9941 31.3969 96.5039 31.7152 96.0627C32.0826 95.5479 32.4989 95.0822 32.9153 94.6165C33.699 93.7586 34.4827 92.9006 35.2663 92.0182C35.6827 91.577 36.1235 91.1603 36.6623 90.8416C38.4256 89.7631 40.1889 88.7091 41.9033 87.5815C42.9074 86.9442 43.838 86.2088 44.7931 85.498C45.234 85.1793 45.6748 84.8117 46.1156 84.493C46.6299 84.1008 47.1687 83.7331 47.683 83.3409C47.732 83.3655 47.732 83.3655 47.7565 83.3655Z" fill="#555555"/>
        <path d="M91.1046 71.2075C91.0311 71.1585 90.9821 71.085 90.9086 71.0359C90.0515 70.1535 89.1698 69.2465 88.3126 68.3641C88.1412 68.1925 87.9943 67.9719 87.8718 67.7758C87.7004 67.5552 87.5534 67.3101 87.382 67.0895C87.0146 66.6238 86.7208 66.158 86.4759 65.6188C85.8146 64.1726 85.1289 62.7509 84.4676 61.3292C84.3942 61.1821 84.3452 61.0595 84.3207 60.8879C84.5901 61.1331 84.835 61.3782 85.0064 61.6723C86.3289 63.8049 87.7738 65.8639 89.0229 68.0455C89.2433 68.4377 89.5861 68.7808 89.8555 69.173C90.3209 69.7858 90.8107 70.4231 91.1046 71.2075Z" fill="#555555"/>
        <path d="M58.9976 102.142C61.6425 99.862 64.5324 98.0482 67.9856 97.2393C67.9121 97.3128 67.8386 97.3618 67.7652 97.4108C67.4958 97.6069 67.2019 97.7785 66.9325 97.9991C66.0018 98.759 64.9732 99.3963 63.8957 99.9356C63.6018 100.083 63.3079 100.23 63.0385 100.401C61.8629 101.186 60.565 101.627 59.267 102.117C59.218 102.142 59.1445 102.166 59.071 102.166C59.071 102.191 59.0465 102.166 58.9976 102.142Z" fill="#555555"/>
        <path d="M93.3088 82.6546C90.6638 79.2229 87.9943 75.7912 85.9371 71.9183C85.9616 71.8938 85.9861 71.8938 86.0106 71.8693C86.0596 71.9183 86.1086 71.9673 86.1575 72.0163C87.4311 73.5851 88.729 75.1784 90.0026 76.7472C90.2964 77.0903 90.5658 77.458 90.7862 77.8502C91.374 78.9042 91.9618 79.9827 92.5251 81.0613C92.7945 81.576 93.0883 82.0663 93.3822 82.581C93.3577 82.63 93.3333 82.6546 93.3088 82.6546Z" fill="#555555"/>
        <path d="M74.8184 96.9697C74.5979 97.0922 74.402 97.2148 74.1816 97.3128C72.7857 97.9502 71.4877 98.7345 70.1652 99.5189C69.7733 99.7395 69.357 99.9356 68.9407 100.107C67.2998 100.72 65.6345 101.259 64.0426 101.995C64.0181 102.019 63.9691 102.019 63.8956 101.995C63.9691 101.921 64.0426 101.848 64.116 101.774C64.5324 101.48 64.9732 101.186 65.3895 100.892C65.8549 100.597 66.3202 100.328 66.7855 100.034C67.4957 99.5925 68.2794 99.2738 69.0876 99.0042C70.8754 98.3669 72.6632 97.705 74.451 97.0432C74.5735 96.9942 74.6959 96.9452 74.7939 96.9207C74.7939 96.9207 74.7939 96.9452 74.8184 96.9697Z" fill="#555555"/>
        <path d="M67.7897 90.1553C68.0101 86.9687 68.6224 83.8557 69.6265 80.9633C69.6265 81.9192 69.6755 82.9978 69.602 84.0763C69.553 85.0077 69.4061 85.9637 69.0877 86.8461C68.6713 87.9492 68.255 89.0277 67.8387 90.1063C67.8387 90.1308 67.8142 90.1553 67.7897 90.1553Z" fill="#555555"/>
        <path d="M90.8841 99.0777C90.0514 98.808 89.2433 98.5629 88.4106 98.2688C88.2147 98.1952 87.9942 98.0972 87.8228 97.9501C86.8432 97.2147 86.1085 96.2098 85.3003 95.2538C85.3738 95.2783 85.4227 95.3028 85.4962 95.3518C86.0595 95.646 86.6228 95.9401 87.1861 96.2097C87.7249 96.4794 88.2636 96.7735 88.8024 97.0677C88.9494 97.1412 89.0473 97.2393 89.1698 97.3373C89.7086 97.8275 90.2719 98.3178 90.8106 98.8325C90.8596 98.8816 90.9086 98.9306 90.9331 98.9796C90.9331 99.0286 90.9086 99.0531 90.8841 99.0777Z" fill="#555555"/>
        <path d="M60.2465 65.5452C60.173 65.6433 60.1241 65.7168 60.0506 65.8149C59.2669 66.6483 58.4587 67.4817 57.675 68.3151C57.5036 68.4867 57.3322 68.6338 57.1117 68.7318C56.1321 69.222 55.1525 69.7123 54.1729 70.2025C54.0504 70.2515 53.9035 70.3006 53.781 70.3496C53.7565 70.3251 53.7565 70.3006 53.7321 70.2761C53.879 70.129 54.0259 69.9819 54.1974 69.8594C55.3729 68.9769 56.5485 68.119 57.724 67.2611C58.2628 66.8689 58.7771 66.4767 59.3159 66.0845C59.6098 65.8884 59.9037 65.6923 60.1975 65.4962C60.222 65.4962 60.222 65.5207 60.2465 65.5452Z" fill="#555555"/>
        <path d="M87.1127 70.8398C87.0637 70.7908 87.0147 70.7908 86.9902 70.7662C86.231 69.9328 85.4228 69.1239 84.7371 68.1925C84.3453 67.6532 84.1004 67.114 83.9779 66.4766C83.8065 65.6678 83.5861 64.8588 83.3901 64.0745C83.3901 64.05 83.3901 64.0009 83.4146 63.9519C83.4636 64.0254 83.5126 64.1235 83.5371 64.197C84.1249 65.6677 84.8596 67.0404 85.8882 68.2415C85.9616 68.3396 86.0596 68.4376 86.1086 68.5602C86.4514 69.2955 86.7943 70.0064 87.1372 70.7417C87.1372 70.7417 87.1127 70.7662 87.1127 70.8398Z" fill="#555555"/>
        <path d="M91.5209 68.3641C93.5781 70.178 95.2434 72.2861 96.5904 74.6882C96.5659 74.6882 96.5169 74.6882 96.5169 74.6882C95.6842 73.8548 94.8516 73.0459 94.0189 72.188C93.8475 72.0164 93.725 71.7958 93.5781 71.5997C92.9413 70.5947 92.3046 69.5897 91.6678 68.5847C91.6188 68.5112 91.5699 68.4377 91.5209 68.3641Z" fill="#555555"/>
        <path d="M79.839 73.0459C79.8145 72.9479 79.7655 72.8743 79.741 72.7763C79.6186 72.3841 79.5451 71.9674 79.3982 71.5752C79.1777 70.9379 79.1532 70.2761 79.2022 69.6142C79.2512 68.8299 79.3002 68.0455 79.3247 67.2366C79.3492 66.5012 79.4716 65.8149 79.7165 65.1285C79.79 66.5747 79.8635 68.021 79.9124 69.4672C79.9369 70.6437 79.9124 71.8448 79.9124 73.0214C79.9124 73.0214 79.8635 73.0459 79.839 73.0459Z" fill="#555555"/>
        <path d="M64.9733 59.6378C65.3406 59.4172 65.708 59.1966 66.0998 58.976C66.8835 58.5347 67.6672 58.118 68.4509 57.7013C69.2101 57.3091 69.9693 56.9415 70.6795 56.4757C70.851 56.3777 71.0469 56.3287 71.2428 56.2551C71.2673 56.2796 71.2673 56.3042 71.2918 56.3287C71.2183 56.4022 71.1694 56.4757 71.0959 56.5248C70.5571 57.015 70.0428 57.5298 69.4795 57.971C69.0142 58.3632 68.4754 58.6328 67.8876 58.8289C67.5938 58.9269 67.2754 58.976 66.9815 59.0495C66.4427 59.2211 65.9039 59.3927 65.3651 59.5643C65.2427 59.6133 65.1202 59.6378 65.0223 59.6868C64.9978 59.6623 64.9733 59.6623 64.9733 59.6378Z" fill="#555555"/>
        <path d="M66.712 67.4081C67.8631 65.251 69.2835 63.3391 71.5367 62.187C70.1162 64.099 68.3529 65.6922 66.712 67.4081Z" fill="#555555"/>
        <path d="M93.8475 62.5792C93.7006 62.5057 93.6026 62.4567 93.5292 62.3831C92.9659 62.04 92.4026 61.6968 91.8393 61.3536C91.6189 61.2066 91.423 61.035 91.276 60.8389C90.7373 60.1035 90.1985 59.3436 89.6842 58.6083C89.6597 58.5838 89.6597 58.5347 89.6597 58.4857C90.3209 58.8289 93.4312 61.8439 93.8475 62.5792Z" fill="#555555"/>
        <path d="M70.4346 87.41C70.3856 86.6991 70.3121 85.9883 70.2631 85.2774C70.2142 84.8362 70.2876 84.4195 70.3856 84.0028C70.557 83.2184 70.7285 82.4095 70.8754 81.6497C70.9244 83.5616 70.9244 85.498 70.5081 87.41C70.4836 87.41 70.4591 87.41 70.4346 87.41Z" fill="#555555"/>
        <path d="M78.3695 64.2951C78.2715 62.9715 78.1491 61.6723 77.7817 60.3977C77.8307 60.4958 77.8797 60.6183 77.9287 60.7164C78.1736 61.3292 78.443 61.9174 78.8348 62.4567C78.9328 62.6038 78.9573 62.7509 78.9328 62.9224C78.8348 63.3391 78.8103 63.7804 78.5654 64.1235C78.5409 64.148 78.5165 64.1971 78.492 64.2216C78.4675 64.2706 78.443 64.2706 78.3695 64.2951Z" fill="#555555"/>
        <path d="M72.4184 60.2751C71.7817 61.2066 70.851 61.7704 69.9694 62.4322C70.0183 62.3587 70.0673 62.2606 70.1163 62.1871C70.2877 61.942 70.5081 61.6968 70.6551 61.4272C70.851 61.0595 71.1204 60.8389 71.5123 60.6919C71.8061 60.5693 72.1 60.4222 72.4184 60.2751Z" fill="#555555"/>
        <path d="M84.2473 55.7404C84.933 55.8384 85.5943 55.9365 86.231 56.01C85.7167 56.4757 84.9575 56.3777 84.2473 55.7404Z" fill="#555555"/>
        <path d="M71.3163 57.0395C71.4877 56.7699 71.7326 56.7454 71.9775 56.7454C71.8306 57.0395 71.8306 57.0395 71.3163 57.0395Z" fill="#555555"/>
        <path d="M62.8671 98.1217C62.7936 98.1952 62.7201 98.2442 62.6466 98.3177C62.6221 98.2932 62.6221 98.2687 62.5977 98.2687C62.6711 98.1952 62.7446 98.1462 62.8181 98.0726C62.8181 98.0971 62.8426 98.0971 62.8671 98.1217Z" fill="#555555"/>
    </g>
    <defs>
        <clipPath id="clip0_325_2882">
            <rect width="149" height="108" fill="white"/>
        </clipPath>
    </defs>
</svg>
