<svg width="54.000000" height="94.000000" viewBox="0 0 54 94" fill="none" xmlns="http://www.w3.org/2000/svg" xmlns:xlink="http://www.w3.org/1999/xlink">
	<desc>
			Created with Pixso.
	</desc>
	<defs>
		<clipPath id="clip325_1945">
			<rect id="Frame" rx="0.000000" width="53.000000" height="93.000000" transform="translate(0.500000 0.500000)" fill="white" fill-opacity="0"/>
		</clipPath>
	</defs>
	<rect id="Frame" rx="0.000000" width="53.000000" height="93.000000" transform="translate(0.500000 0.500000)" fill="#FFFFFF" fill-opacity="0"/>
	<g clip-path="url(#clip325_1945)">
		<path id="Vector" d="M52.75 10.74C51.04 8.25 47.44 7.19 44.63 8.33C43.57 8.78 42.74 9.45 42.21 10.54C41.23 12.56 40.61 14.65 40.58 16.94C40.58 19.82 40.52 22.69 40.55 25.6C40.58 28.27 39.02 29.95 36.92 31.15C34.88 32.3 32.58 32.39 30.3 32.33C27.35 32.06 25.84 31.56 23.48 31.42C20.67 31.24 19.2 31.01 17.39 31.01C15.09 31.01 12.9 30.68 10.81 32.62C9.36 33.97 7.65 35.15 5.81 38.82C2.56 45.28 4.87 51 4.87 51C5.16 52.59 6.02 53.76 6.35 57.2C6.67 60.75 4.49 62.34 3.04 64.36C1.68 66.3 0.17 67.98 0.5 71.79C0.82 75.41 1.89 77.87 4.66 81.75C6.02 83.63 7.29 84.19 8 86.42C8.15 86.92 8.15 87.27 7.73 87.71C6.17 89.44 6.7 91.68 8.89 92.61C12.46 94.17 18.69 94.2 21.56 89.94C21.91 89.44 22.09 88.74 22.36 88.09C22.74 87.3 23.07 86.54 23.98 86.12C24.75 85.77 26.02 85.83 26.64 86.07C27.88 86.48 28.56 88.33 28.56 88.39C28.68 88.77 28.86 89.33 29.24 89.91C32.02 94.26 38.52 93.76 42.03 92.09C44.16 91.06 44.63 88.83 42.98 87.15C42.56 86.74 42.53 86.36 42.68 85.86C43.3 83.6 44.54 83.01 45.81 81.04C48.41 77.05 49.39 74.55 49.56 70.94C49.74 67.13 48.18 65.51 46.73 63.63C45.22 61.66 43.69 60.11 43.12 56.58C42.62 53.24 42.39 51.74 42.53 49.92L42.47 49.92C42.5 49.27 42.56 48.86 42.65 48.89C42.92 49.01 47.08 49.18 49.92 45.95C51.01 44.72 52.19 41.75 52.22 38.38C52.25 35 51.25 31.86 50.6 28.63C49.68 24.1 49.39 19.64 52.78 15.79C53.91 14.53 53.73 12.15 52.75 10.74Z" fill="#FFFFFF" fill-opacity="1.000000" fill-rule="nonzero"/>
		<path id="Vector" d="M53.14 10.48C51.28 7.78 47.47 6.66 44.42 7.89C43.18 8.42 42.3 9.22 41.77 10.33C40.64 12.65 40.11 14.82 40.11 16.91C40.11 17.94 40.11 18.97 40.08 19.96C40.08 21.78 40.05 23.69 40.08 25.54C40.11 27.72 39.02 29.33 36.68 30.68C34.76 31.77 32.49 31.86 30.33 31.8C28.89 31.68 27.82 31.5 26.79 31.33C25.72 31.15 24.75 30.98 23.51 30.92C22.33 30.86 21.38 30.77 20.56 30.68C19.4 30.56 18.49 30.51 17.39 30.51C17.1 30.51 16.8 30.51 16.51 30.51C14.5 30.48 12.43 30.45 10.48 32.27C10.28 32.47 10.07 32.65 9.83 32.86C8.5 34.06 7 35.38 5.37 38.61C2.24 44.9 4.19 50.47 4.43 51.09C4.54 51.65 4.72 52.18 4.9 52.74C5.25 53.79 5.67 55.03 5.87 57.2C6.11 59.81 4.93 61.25 3.66 62.78C3.3 63.19 2.98 63.63 2.65 64.07C2.54 64.25 2.42 64.39 2.3 64.57C1.03 66.33 -0.3 68.15 0.02 71.82C0.35 75.41 1.41 77.99 4.28 82.01C4.78 82.72 5.28 83.25 5.7 83.72C6.49 84.57 7.11 85.21 7.53 86.57C7.65 86.98 7.62 87.12 7.38 87.42C6.52 88.36 6.2 89.47 6.43 90.53C6.67 91.62 7.5 92.53 8.71 93.06C10.13 93.67 11.99 94.05 13.91 94.05C16.92 93.97 20.08 92.94 21.97 90.15C22.24 89.74 22.45 89.24 22.59 88.74C22.65 88.56 22.71 88.39 22.77 88.24L22.83 88.09C23.18 87.39 23.45 86.8 24.16 86.51C24.81 86.21 25.96 86.27 26.46 86.48C27.32 86.74 27.88 87.95 28.03 88.33L28.03 88.36L28.12 88.65C28.24 89.03 28.44 89.59 28.8 90.15C31.72 94.73 38.52 94.26 42.18 92.5C43.36 91.94 44.16 90.97 44.34 89.88C44.51 88.8 44.13 87.71 43.24 86.8C42.98 86.54 42.95 86.36 43.07 85.98C43.45 84.63 44.04 83.92 44.78 83.07C45.19 82.6 45.66 82.04 46.14 81.31C48.83 77.17 49.8 74.55 49.98 70.97C50.15 67.3 48.77 65.54 47.41 63.84C47.29 63.69 47.17 63.51 47.05 63.37C46.88 63.13 46.67 62.9 46.49 62.66C45.22 61.05 44.01 59.52 43.54 56.55C43.04 53.21 42.83 51.77 42.95 50.01L42.95 49.48C42.95 49.48 42.95 49.48 42.95 49.45C44.31 49.54 47.82 49.09 50.24 46.3C51.4 44.98 52.64 41.96 52.67 38.41C52.67 35.82 52.1 33.35 51.54 30.95C51.37 30.15 51.19 29.36 51.01 28.57C50.01 23.63 49.89 20.11 52.4 17.64C54.62 15.47 54.2 12.01 53.14 10.48ZM53.08 14.03C52.96 15.32 52.46 16.5 50.98 17.41C49.59 17.97 47.7 18 46.37 17.56C46.14 17.47 45.84 17.53 45.78 17.79C45.69 18.23 46.11 18.47 46.43 18.55C48.09 19.05 49.39 18.97 50.42 18.73C49.12 21.93 49.48 25.4 50.15 28.71C50.33 29.54 50.51 30.33 50.69 31.12C51.22 33.47 51.78 35.88 51.78 38.35C51.78 41.49 50.72 44.43 49.59 45.63C46.7 48.68 43.12 48.6 42.89 48.45L42.42 48.48C42.15 48.62 42.09 48.92 42.03 49.89C42.03 49.89 42.18 53.56 42.65 56.64C43.15 59.87 44.42 61.49 45.78 63.19C45.96 63.43 46.14 63.66 46.34 63.9C46.46 64.04 46.58 64.22 46.73 64.36C48.03 66.01 49.24 67.57 49.09 70.88C48.94 74.32 48.03 76.73 45.4 80.75C44.96 81.43 44.54 81.93 44.13 82.4C43.36 83.28 42.65 84.13 42.21 85.68C42.06 86.21 42 86.8 42.62 87.42C43.3 88.09 43.6 88.89 43.45 89.68C43.3 90.47 42.74 91.18 41.79 91.62C38.43 93.23 32.22 93.7 29.62 89.62C29.33 89.15 29.15 88.68 29.03 88.33L29 88.24C28.97 88.09 28.92 87.89 28.74 87.53C28.44 86.95 27.79 85.89 26.82 85.57C26.17 85.33 24.75 85.21 23.8 85.63C22.77 86.07 22.39 86.89 22 87.68L21.91 87.86C21.83 88.03 21.77 88.24 21.71 88.42C21.56 88.86 21.38 89.3 21.18 89.62C18.4 93.76 12.43 93.58 9.06 92.12C8.12 91.7 7.53 91.06 7.35 90.27C7.17 89.5 7.44 88.68 8.09 87.98C8.68 87.33 8.62 86.74 8.44 86.21C7.94 84.69 7.2 83.86 6.41 83.01C5.96 82.54 5.52 82.07 5.05 81.43C2.27 77.52 1.27 75.14 0.97 71.71C0.67 68.39 1.83 66.8 3.07 65.1C3.19 64.92 3.3 64.78 3.42 64.6C3.72 64.19 4.04 63.78 4.4 63.37C5.67 61.84 7.08 60.08 6.82 57.11C6.61 54.82 6.17 53.5 5.79 52.44C5.61 51.88 5.43 51.41 5.34 50.89L5.31 50.8C5.28 50.74 3.13 45.19 6.23 38.99C7.76 35.94 9.21 34.68 10.48 33.53C10.72 33.33 10.93 33.12 11.13 32.94C12.52 31.65 13.94 31.45 15.53 31.45C15.86 31.45 16.18 31.45 16.51 31.45C16.8 31.45 17.1 31.45 17.39 31.45C18.43 31.45 19.31 31.53 20.47 31.62C21.29 31.71 22.27 31.77 23.45 31.86C24.63 31.92 25.61 32.09 26.64 32.27C27.65 32.44 28.8 32.62 30.3 32.77C32.64 32.83 35.06 32.74 37.19 31.53C39.82 30.04 41.09 28.1 41.06 25.57C41.03 23.72 41.06 21.81 41.06 19.99C41.06 18.97 41.06 17.94 41.09 16.91C41.09 14.91 41.59 12.95 42.65 10.71C43.09 9.8 43.77 9.19 44.81 8.75C47.41 7.69 50.89 8.95 52.37 10.98C53.14 12.09 53.2 12.89 53.08 14.03Z" fill="#C7B06A" fill-opacity="1.000000" fill-rule="nonzero"/>
		<path id="Vector" d="M13.76 31.33C27.02 38.76 27.5 37.08 39.08 30.07C39.46 30.39 38.55 40.37 37.63 43.9C35.5 50.94 31.75 54.15 27.11 54.17C22.98 54.2 18.07 51.53 15.92 44.1C14.91 41.05 13.76 33.5 13.76 31.33Z" fill="#1F1C1C" fill-opacity="1.000000" fill-rule="nonzero"/>
		<path id="Vector" d="M32.55 43.52C32.93 43.52 33.05 43.84 33.26 44.04C33.61 44.34 33.55 44.78 33.41 45.19L33.38 45.22C33.32 45.42 33.32 45.66 33.08 45.81C32.67 46.01 32.22 46.16 31.78 46.07C31.51 46.01 31.31 45.81 31.07 45.69C30.75 45.51 30.89 45.25 30.86 44.98C30.84 44.54 31.07 44.16 31.34 43.87C31.63 43.54 32.11 43.4 32.55 43.52Z" fill="#DC4814" fill-opacity="1.000000" fill-rule="nonzero"/>
		<path id="Vector" d="M32.84 46.63C33.02 46.22 33.2 45.84 33.7 45.75C33.91 45.69 34.14 45.57 34.35 45.57C34.79 45.54 35.33 45.92 35.36 46.48C35.38 46.95 35.15 47.3 34.85 47.69C34.71 47.89 34.11 47.98 33.85 47.89C33.38 47.74 33.05 47.45 32.87 46.98C32.84 46.86 32.84 46.72 32.84 46.63Z" fill="#DC4814" fill-opacity="1.000000" fill-rule="nonzero"/>
		<path id="Vector" d="M30.78 46.39C30.54 47.01 29.98 47.39 29.45 47.27C29.21 47.22 28.89 47.3 28.77 47.04C28.62 46.72 28.44 46.36 28.56 45.95C28.74 45.37 29.45 44.92 29.92 45.04C30.54 45.22 30.95 45.89 30.78 46.39Z" fill="#DC4814" fill-opacity="1.000000" fill-rule="nonzero"/>
		<path id="Vector" d="M31.75 48.45C31.93 47.95 32.46 47.69 33.14 47.83C33.38 47.89 33.61 48.42 33.52 48.71C33.35 49.24 32.84 49.54 32.28 49.39C31.99 49.33 31.66 48.77 31.75 48.45Z" fill="#DC4814" fill-opacity="1.000000" fill-rule="nonzero"/>
		<path id="Vector" d="M30.6 47.51C31.13 47.63 31.43 48.01 31.28 48.42C31.19 48.68 30.69 49.01 30.48 49.01C30.1 48.98 29.8 48.83 29.65 48.54C29.57 48.39 29.59 48.16 29.62 47.95C29.68 47.6 30.16 47.39 30.6 47.51Z" fill="#DC4814" fill-opacity="1.000000" fill-rule="nonzero"/>
		<path id="Vector" d="M32.58 47.16C32.49 47.3 32.43 47.51 32.31 47.6C32.16 47.69 31.93 47.77 31.78 47.74C30.95 47.51 30.86 47.45 31.1 46.72C31.22 46.33 31.6 46.13 32.08 46.22C32.52 46.28 32.7 46.63 32.58 47.16Z" fill="#C7B06A" fill-opacity="1.000000" fill-rule="nonzero"/>
		<path id="Vector" d="M20.17 43.37C20.47 43.22 20.7 43.46 20.97 43.54C21.38 43.66 21.53 44.01 21.59 44.4L21.59 44.43C21.65 44.6 21.77 44.81 21.62 44.98C21.38 45.31 21.12 45.57 20.73 45.66C20.5 45.72 20.26 45.6 19.99 45.6C19.67 45.57 19.64 45.31 19.52 45.1C19.28 44.78 19.31 44.37 19.4 44.04C19.46 43.72 19.76 43.43 20.17 43.37Z" fill="#DC4814" fill-opacity="1.000000" fill-rule="nonzero"/>
		<path id="Vector" d="M21.83 45.75C21.77 45.34 21.74 44.98 22.09 44.72C22.24 44.6 22.36 44.43 22.53 44.34C22.89 44.16 23.45 44.28 23.75 44.72C23.98 45.07 23.95 45.45 23.89 45.84C23.86 46.04 23.45 46.33 23.21 46.36C22.77 46.42 22.39 46.3 22.03 45.98C21.91 45.92 21.86 45.81 21.83 45.75Z" fill="#DC4814" fill-opacity="1.000000" fill-rule="nonzero"/>
		<path id="Vector" d="M20.11 46.3C20.23 46.89 19.93 47.39 19.49 47.48C19.28 47.54 19.05 47.71 18.84 47.54C18.58 47.33 18.28 47.13 18.19 46.75C18.07 46.22 18.4 45.6 18.84 45.54C19.37 45.45 20.02 45.84 20.11 46.3Z" fill="#DC4814" fill-opacity="1.000000" fill-rule="nonzero"/>
		<path id="Vector" d="M21.83 47.6C21.71 47.13 22.03 46.75 22.62 46.63C22.83 46.57 23.27 46.92 23.33 47.19C23.45 47.69 23.18 48.07 22.68 48.18C22.39 48.21 21.88 47.89 21.83 47.6Z" fill="#DC4814" fill-opacity="1.000000" fill-rule="nonzero"/>
		<path id="Vector" d="M20.47 47.24C20.94 47.16 21.35 47.36 21.41 47.74C21.47 48.01 21.23 48.42 21.06 48.51C20.73 48.62 20.44 48.62 20.2 48.42C20.05 48.33 19.96 48.13 19.91 47.98C19.79 47.66 20.08 47.3 20.47 47.24Z" fill="#DC4814" fill-opacity="1.000000" fill-rule="nonzero"/>
		<path id="Vector" d="M21.86 46.28C21.86 46.42 21.91 46.6 21.86 46.72C21.8 46.83 21.62 46.98 21.5 47.01C20.76 47.1 20.64 47.1 20.5 46.42C20.41 46.07 20.64 45.78 21.03 45.69C21.41 45.6 21.71 45.81 21.86 46.28Z" fill="#C7B06A" fill-opacity="1.000000" fill-rule="nonzero"/>
		<path id="XMLID_1_" d="M39.73 29.42C37.22 31.89 34.08 32.74 30.92 33.62C27.91 34.47 24.72 34.59 21.29 33.68C18.13 32.83 15 32.03 12.46 29.6C12.46 29.6 12.46 29.6 12.43 29.57C11.72 28.89 10.6 29.63 10.95 30.51C11.07 30.83 11.25 31.15 11.43 31.45C13.5 34.76 16.15 37.32 19.64 38.88C24.07 40.84 28.59 40.9 32.64 38.79C36 37.03 38.72 34.62 40.76 31.27C40.94 30.98 41.09 30.65 41.2 30.33C41.56 29.45 40.41 28.74 39.73 29.42Z" fill="#DC4814" fill-opacity="1.000000" fill-rule="nonzero"/>
		<path id="Vector" d="M42.12 15.62C41.56 14.5 41.32 13.47 41.26 12.04C41.26 12.09 41.14 10.3 41.09 9.27C41.06 8.22 41 7.19 41 6.13C41 4.66 40.7 3.28 39.9 2.02C38.87 0.38 37.48 0.05 35.74 1.02C34.41 1.79 33.26 2.76 32.37 3.96C31.46 5.22 30.54 6.48 29.71 7.81C29.45 8.25 29.21 8.33 28.74 8.19C27.62 7.87 26.52 7.72 25.43 7.78C24.34 7.75 23.21 7.89 22.12 8.25C21.65 8.39 21.41 8.31 21.15 7.89C20.29 6.6 19.37 5.34 18.46 4.08C17.57 2.87 16.39 1.9 15.03 1.17C13.29 0.2 11.9 0.58 10.87 2.23C10.07 3.52 9.77 4.87 9.8 6.34C9.83 7.4 9.77 8.42 9.74 9.48C9.71 10.51 9.6 12.3 9.6 12.24C9.57 13.68 9.33 14.71 8.8 15.82C7.32 18.91 6.32 22.2 7.23 25.57C8.18 29.1 10.54 31.27 13.94 33C15.5 33.8 17.19 34.35 18.87 34.73C21.23 35.23 23.39 35.47 25.58 35.47C27.76 35.44 29.95 35.18 32.28 34.65C33.97 34.26 35.65 33.68 37.19 32.86C40.55 31.06 42.89 28.86 43.8 25.34C44.66 21.93 43.66 18.67 42.12 15.62Z" fill="#FFFFFF" fill-opacity="1.000000" fill-rule="nonzero"/>
		<path id="Vector" d="M25.58 35.97C23.33 35.97 21.12 35.73 18.75 35.2C16.89 34.79 15.21 34.21 13.7 33.44C9.8 31.42 7.68 29.04 6.79 25.69C5.76 21.84 7.11 18.29 8.38 15.62C8.83 14.68 9.06 13.8 9.12 12.68L9.15 12.18C9.15 11.95 9.27 10.39 9.3 9.45C9.3 9.13 9.33 8.8 9.33 8.48C9.36 7.78 9.36 7.04 9.36 6.34C9.33 4.66 9.68 3.23 10.48 1.96C11.63 0.08 13.29 -0.33 15.27 0.76C16.74 1.58 17.96 2.61 18.84 3.81C19.82 5.13 20.7 6.37 21.56 7.63C21.74 7.89 21.74 7.89 22 7.81C23.13 7.45 24.31 7.31 25.46 7.34C26.61 7.31 27.76 7.45 28.92 7.78C29.18 7.87 29.18 7.87 29.36 7.6C30.19 6.31 31.1 5.05 32.02 3.75C32.9 2.55 34.08 1.49 35.53 0.67C37.48 -0.45 39.17 -0.03 40.35 1.82C41.14 3.08 41.53 4.52 41.53 6.19C41.53 6.9 41.56 7.63 41.59 8.33C41.59 8.66 41.62 8.98 41.62 9.3C41.68 10.3 41.79 12.04 41.79 12.04L41.65 12.04L41.79 12.04L41.82 12.3C41.88 13.5 42.12 14.41 42.62 15.44C43.92 18.11 45.31 21.64 44.34 25.51C43.48 28.86 41.38 31.27 37.48 33.33C36 34.12 34.29 34.73 32.46 35.15C30.07 35.65 27.82 35.94 25.58 35.97ZM13.23 1.08C12.46 1.08 11.81 1.52 11.25 2.43C10.57 3.55 10.25 4.81 10.28 6.31C10.28 7.04 10.28 7.78 10.25 8.51C10.25 8.83 10.22 9.16 10.22 9.48C10.19 10.42 10.1 12.01 10.07 12.24C10.04 13.71 9.77 14.85 9.21 16.03C8 18.55 6.73 21.9 7.68 25.46C8.5 28.51 10.48 30.71 14.14 32.59C15.56 33.33 17.19 33.88 18.96 34.26C21.23 34.76 23.39 35 25.58 35C27.73 34.97 29.89 34.71 32.16 34.18C33.94 33.77 35.53 33.18 36.95 32.44C40.58 30.51 42.56 28.27 43.33 25.22C44.25 21.67 42.92 18.32 41.68 15.79C41.09 14.62 40.82 13.47 40.76 12.01C40.7 11.65 40.67 10.89 40.58 9.25C40.58 8.92 40.55 8.6 40.55 8.28C40.52 7.57 40.5 6.84 40.5 6.1C40.5 4.61 40.17 3.34 39.46 2.26C38.55 0.82 37.45 0.55 35.95 1.43C34.59 2.2 33.52 3.14 32.73 4.25C31.81 5.55 30.89 6.81 30.1 8.07C29.71 8.66 29.27 8.83 28.59 8.66C27.56 8.36 26.49 8.22 25.43 8.25C24.34 8.22 23.27 8.36 22.24 8.69C21.56 8.89 21.12 8.72 20.73 8.13C19.91 6.87 19.02 5.66 18.04 4.34C17.22 3.23 16.15 2.31 14.79 1.55C14.2 1.26 13.7 1.08 13.23 1.08Z" fill="#C7B06A" fill-opacity="1.000000" fill-rule="nonzero"/>
		<path id="Vector" d="M43.54 35.65C44.34 34.21 45.55 33.41 47.2 33.35C48.74 33.27 49.56 34.35 50.24 35.47C51.75 37.88 51.22 41.96 49.27 44.01C48 45.34 46.4 45.57 44.87 44.95C43.48 44.43 42.68 43.16 42.56 41.61C42.53 41.2 41.91 38.38 43.54 35.65Z" fill="#C7B06A" fill-opacity="1.000000" fill-rule="nonzero"/>
		<path id="Vector" d="M44.45 36.47C45.04 35.35 45.9 34.73 47.11 34.68C48.23 34.62 48.83 35.44 49.33 36.32C50.42 38.2 50.04 41.37 48.62 42.96C47.7 43.99 46.55 44.16 45.43 43.69C44.42 43.28 43.83 42.28 43.74 41.08C43.71 40.75 43.24 38.58 44.45 36.47Z" fill="#1F1C1C" fill-opacity="1.000000" fill-rule="nonzero"/>
		<path id="Vector" d="M40.76 68.39C42.12 66.16 45.22 66.19 46.55 68.42C48.35 71.47 48.15 74.47 46.28 77.4C45.64 78.4 44.66 79.08 43.39 78.93C42.03 78.78 40.97 78.23 40.35 76.87C38.84 73.56 39.85 69.89 40.76 68.39Z" fill="#C7B06A" fill-opacity="1.000000" fill-rule="nonzero"/>
		<path id="Vector" d="M41.65 69.74C42.62 68.21 44.75 68.21 45.66 69.77C46.93 71.88 46.76 73.97 45.46 75.99C45.01 76.7 44.34 77.17 43.45 77.05C42.5 76.96 41.71 76.58 41.32 75.61C40.5 73.53 40.7 71.24 41.65 69.74Z" fill="#1F1C1C" fill-opacity="1.000000" fill-rule="nonzero"/>
		<path id="Vector" d="M11.4 74.73C11.57 78.72 10.22 80.4 7.65 80.08C6.29 79.9 5.28 79.08 4.57 77.93C3.07 75.52 2.56 72.88 3.42 70.09C4.19 67.6 6.49 66.92 8.38 68.62C10.36 70.38 11.16 72.79 11.4 74.73Z" fill="#C7B06A" fill-opacity="1.000000" fill-rule="nonzero"/>
		<path id="Vector" d="M10.25 74.5C10.36 77.43 9.39 78.64 7.5 78.4C6.52 78.28 5.78 77.67 5.25 76.85C4.16 75.08 3.78 73.15 4.43 71.12C4.99 69.3 6.67 68.8 8.06 70.03C9.51 71.32 10.1 73.09 10.25 74.5Z" fill="#1F1C1C" fill-opacity="1.000000" fill-rule="nonzero"/>
		<path id="Vector" d="M25.4 14.33C23.51 14.27 20.56 11.45 20.32 9.57C20.2 8.54 20.79 8.13 21.53 7.92C24.04 7.19 26.55 6.98 29.06 7.89C30.6 8.45 30.95 9.51 30.13 10.92C28.92 13 27.02 14.38 25.4 14.33Z" fill="#C7B06A" fill-opacity="1.000000" fill-rule="nonzero"/>
		<path id="Vector" d="M25.43 12.62C24.01 12.56 21.86 10.51 21.68 9.13C21.59 8.39 22.03 8.07 22.56 7.92C24.43 7.4 26.29 7.25 28.15 7.89C29.3 8.31 29.54 9.07 28.94 10.1C28.03 11.65 26.61 12.65 25.43 12.62Z" fill="#1F1C1C" fill-opacity="1.000000" fill-rule="nonzero"/>
		<path id="Vector" d="M26.68 36.45C28.86 36.53 30.56 38.36 30.48 40.53C30.39 42.7 28.55 44.39 26.37 44.31C24.19 44.23 22.48 42.4 22.57 40.23C22.65 38.05 24.49 36.36 26.68 36.45Z" fill="#C7B06A" fill-opacity="1.000000" fill-rule="evenodd"/>
		<path id="Vector" d="M26.64 43.37C26.64 43.57 26.29 43.6 26.26 43.37C26.23 43.19 26.26 43.05 26.26 42.87C26.26 42.49 26.26 42.16 25.81 41.93C25.49 41.78 25.52 41.43 25.72 41.17C26.05 40.78 26.49 40.78 26.91 41.02C27.2 41.2 27.38 41.52 27.08 41.72C26.52 42.14 26.58 42.69 26.58 43.25C26.64 43.34 26.64 43.34 26.64 43.37Z" fill="#1F1C1C" fill-opacity="1.000000" fill-rule="nonzero"/>
		<path id="Vector" d="M26.73 40.73C25.25 40.78 23.72 40.58 22.21 40.11C21.94 40.02 21.8 39.76 21.86 39.46C21.94 39.2 22.21 39.05 22.5 39.11C25.31 39.96 28.12 39.87 30.42 38.9C30.69 38.79 30.98 38.9 31.1 39.17C31.22 39.43 31.1 39.73 30.84 39.84C29.57 40.4 28.18 40.67 26.73 40.73Z" fill="#9D884C" fill-opacity="1.000000" fill-rule="nonzero"/>
		<path id="Vector" d="M25.25 37.38C25.02 37.17 24.54 37.29 24.19 37.67C23.83 38.05 23.72 38.52 23.95 38.73C24.19 38.93 24.66 38.82 25.02 38.43C25.37 38.08 25.46 37.58 25.25 37.38Z" fill="#FFFFFF" fill-opacity="1.000000" fill-rule="nonzero"/>
		<path id="Vector" d="M18.75 7.22C19.11 7.66 18.93 8.36 18.4 8.57C18.34 8.6 18.31 8.6 18.25 8.63C16.51 9.19 14.88 9.98 13.41 11.04C12.46 11.71 11.96 11.45 11.75 10.3C11.66 8.07 11.96 6.4 12.34 4.75C12.67 3.58 13.58 3.14 14.62 3.67C16.3 4.49 17.57 5.75 18.75 7.22Z" fill="#DC4814" fill-opacity="1.000000" fill-rule="nonzero"/>
		<path id="Vector" d="M33.52 8.36C33.2 8.28 33.02 7.89 33.17 7.57C33.88 6.04 34.97 4.49 36.27 3.34C37.48 2.34 38.31 2.96 38.84 4.02C39.64 5.81 39.79 7.98 39.82 10.13C39.82 10.57 39.37 10.83 38.99 10.65C37.51 9.89 35 8.8 33.52 8.36Z" fill="#DC4814" fill-opacity="1.000000" fill-rule="nonzero"/>
		<path id="Vector" d="M8.06 69.39C7.76 65.3 9.03 61.84 12.34 59.31C16.51 56.08 22.12 56.99 25.72 60.08C27.17 61.31 28.27 62.87 29.15 64.54C31.37 68.65 33.61 72.76 35.03 77.26C36.03 80.4 36.12 83.54 35.03 86.65C33.43 91.29 28.53 93.73 23.24 92.67C19.46 91.91 16.63 89.91 14.68 86.65C11.78 81.78 9.48 76.64 8.18 71.12C8.03 70.56 8.09 69.97 8.06 69.39Z" fill="#C7B06A" fill-opacity="1.000000" fill-rule="nonzero"/>
		<path id="Vector" d="M29.36 90.68C27.82 91.35 26.08 91.62 24.28 91.41C20.94 91.06 18.37 89.41 16.45 86.39C13.82 82.28 11.69 77.61 10.01 72.12C8.95 68.68 9.33 65.72 11.19 63.04C14.03 58.93 19.61 57.9 23.86 60.72C25.52 61.81 26.85 63.28 27.85 65.16C28.18 65.77 28.5 66.36 28.83 66.95C30.51 70.03 32.25 73.2 33.38 76.64C33.88 78.2 34.23 79.84 34.41 81.54C34.73 84.42 33.85 87.06 31.96 88.94C31.19 89.68 30.33 90.27 29.36 90.68ZM15.36 60.87C14.06 61.46 12.9 62.37 12.02 63.63C10.36 66.04 10.01 68.71 10.98 71.79C12.67 77.2 14.74 81.78 17.31 85.83C19.08 88.62 21.32 90.06 24.37 90.38C27 90.68 29.48 89.85 31.19 88.18C32.84 86.51 33.61 84.19 33.35 81.63C33.17 80.02 32.84 78.43 32.37 76.93C31.28 73.59 29.57 70.44 27.88 67.42C27.56 66.8 27.23 66.21 26.91 65.6C25.99 63.87 24.78 62.54 23.27 61.55C20.79 59.96 17.81 59.78 15.36 60.87Z" fill="#FFFFFF" fill-opacity="1.000000" fill-rule="nonzero"/>
		<path id="Vector" d="M19.64 70.36C19.67 70.44 19.73 70.5 19.79 70.53C19.93 70.62 20.11 70.62 20.35 70.5C20.58 70.38 20.7 70.24 20.7 70.03L22.18 69.24L24.13 73.2C24.22 73.41 24.19 73.53 24.04 73.62C23.95 73.64 23.83 73.7 23.63 73.73C23.54 73.76 23.48 73.79 23.42 73.79C23.3 73.85 23.21 73.94 23.21 74.08C23.21 74.17 23.21 74.23 23.24 74.29C23.3 74.44 23.45 74.5 23.63 74.53C23.78 74.53 23.92 74.53 24.1 74.53C24.6 74.5 24.96 74.41 25.19 74.29C25.64 74.08 25.72 73.7 25.46 73.15L22.21 66.51C22.09 66.27 21.97 66.1 21.83 66.01C21.65 65.89 21.41 65.92 21.12 66.07C21.06 66.1 21 66.13 20.94 66.16L19.26 67.15C19.08 67.07 18.9 67.07 18.69 67.18C18.61 67.24 18.52 67.3 18.46 67.39C18.34 67.54 18.31 67.71 18.4 67.89L19.64 70.36ZM21.62 68.09L21.83 68.51L20.41 69.3L20.2 68.89L21.62 68.09ZM20.88 67.21C20.91 67.21 20.91 67.18 20.94 67.18C21.09 67.13 21.18 67.15 21.26 67.3L21.32 67.45L19.91 68.27L19.73 67.89L20.88 67.21Z" fill="#1F1C1C" fill-opacity="1.000000" fill-rule="nonzero"/>
		<path id="Vector" d="M18.96 77.02C18.99 76.9 18.99 76.79 18.93 76.67L16.74 72.23L17.99 71.5C18.13 71.59 18.34 71.59 18.52 71.47C18.69 71.38 18.81 71.27 18.84 71.12C18.87 71 18.87 70.88 18.81 70.77L17.93 68.77C17.69 68.24 17.34 68.09 16.86 68.33C16.83 68.36 16.77 68.36 16.74 68.39L15.18 69.3C15 69.21 14.79 69.21 14.59 69.3C14.47 69.36 14.38 69.45 14.29 69.56C14.17 69.71 14.17 69.89 14.26 70.03L17.81 77.23C17.84 77.32 17.9 77.37 17.99 77.43C18.16 77.55 18.37 77.55 18.58 77.43C18.78 77.32 18.9 77.2 18.96 77.02ZM15.68 70.06L16.74 69.42C16.77 69.42 16.77 69.42 16.77 69.39C16.89 69.33 16.98 69.36 17.04 69.47L17.04 69.5L17.13 69.68L15.86 70.41L15.68 70.06ZM16.18 71.09L17.42 70.36L17.6 70.8L16.39 71.5L16.18 71.09Z" fill="#1F1C1C" fill-opacity="1.000000" fill-rule="nonzero"/>
		<path id="Vector" d="M23.07 72.26C23.15 72.12 23.15 71.97 23.07 71.79C23.01 71.65 22.89 71.56 22.77 71.53C22.65 71.5 22.56 71.5 22.45 71.56L22.42 71.59L21.68 72L21.32 71.3L21.68 71.09C21.91 70.94 21.97 70.74 21.85 70.5C21.77 70.33 21.62 70.24 21.44 70.24C21.35 70.24 21.29 70.27 21.23 70.3L17.87 72.23C17.63 72.38 17.57 72.59 17.69 72.85C17.75 72.97 17.84 73.06 17.96 73.09C18.07 73.15 18.19 73.12 18.28 73.06L18.31 73.03L18.75 72.76L19.08 73.44L18.34 73.88C18.1 74.03 18.04 74.23 18.16 74.53C18.22 74.67 18.31 74.76 18.43 74.79C18.55 74.82 18.66 74.82 18.75 74.76L18.78 74.73L19.43 74.38C19.55 74.82 19.58 75.2 19.49 75.52C19.43 75.79 19.43 75.96 19.49 76.08C19.55 76.2 19.64 76.26 19.76 76.29C19.88 76.32 19.96 76.29 20.08 76.26C20.23 76.2 20.35 75.99 20.44 75.7C20.61 75.14 20.61 74.53 20.41 73.82L21.12 73.41L21.88 74.97C21.91 75.05 21.97 75.11 22.03 75.14C22.21 75.23 22.39 75.23 22.56 75.14C22.71 75.08 22.83 74.97 22.89 74.82C22.92 74.7 22.92 74.58 22.86 74.5L22.06 72.88L22.83 72.44C22.95 72.38 23.01 72.32 23.07 72.26ZM20.08 72.88L19.76 72.18L20.41 71.79L20.73 72.5L20.08 72.88Z" fill="#1F1C1C" fill-opacity="1.000000" fill-rule="nonzero"/>
		<path id="Vector" d="M20.94 80.25C21.12 80.16 21.23 80.02 21.26 79.81C21.29 79.66 21.29 79.55 21.23 79.43C21.12 79.19 20.79 79.05 20.23 78.99C19.64 78.93 19.23 78.93 19.02 79.02C18.9 79.08 18.81 79.17 18.78 79.28C18.75 79.37 18.75 79.46 18.81 79.55C18.87 79.66 18.99 79.72 19.14 79.78C19.67 79.93 20.08 80.08 20.35 80.19C20.58 80.31 20.76 80.34 20.94 80.25Z" fill="#1F1C1C" fill-opacity="1.000000" fill-rule="nonzero"/>
		<path id="Vector" d="M30.81 82.28C30.75 82.16 30.57 82.19 30.24 82.34C29.45 82.72 28.5 83.1 27.35 83.51C27.53 83.34 27.56 83.16 27.47 82.98L27.26 82.54L29.27 81.46C29.54 81.31 29.59 81.1 29.45 80.84C29.33 80.57 29.12 80.52 28.86 80.63C28.83 80.63 28.83 80.66 28.83 80.66L28.8 80.66L26.82 81.72L26.61 81.31L27.41 80.87C27.53 80.93 27.7 80.93 27.88 80.84C28.15 80.72 28.24 80.52 28.15 80.25L27.47 78.4C27.44 78.34 27.44 78.31 27.41 78.28C27.23 77.9 26.94 77.81 26.52 78.02C26.49 78.05 26.43 78.05 26.4 78.08L25.34 78.7L25.16 78.34L26.05 77.81C26.29 77.67 26.35 77.49 26.26 77.29C26.35 77.32 26.43 77.29 26.49 77.26C26.61 77.2 26.7 77.02 26.76 76.76C26.88 76.2 26.88 75.79 26.76 75.52C26.61 75.23 26.37 75.2 25.99 75.38C25.96 75.41 25.9 75.41 25.87 75.44L21.97 77.79C21.83 77.67 21.68 77.64 21.5 77.73C21.32 77.81 21.26 77.99 21.32 78.25C21.44 78.61 21.5 78.96 21.53 79.25C21.56 79.43 21.56 79.52 21.59 79.58C21.65 79.69 21.74 79.78 21.86 79.81C22 79.84 22.15 79.84 22.3 79.75C22.56 79.64 22.65 79.4 22.56 79.08C22.5 78.9 22.45 78.72 22.39 78.55L23.83 77.7C23.75 77.81 23.75 77.96 23.83 78.11L23.86 78.2L22.92 78.78C22.68 78.93 22.62 79.11 22.74 79.34C22.77 79.43 22.83 79.49 22.92 79.55C23.04 79.61 23.15 79.61 23.27 79.55C23.3 79.52 23.33 79.52 23.33 79.52L24.25 78.96L24.4 79.28L23.51 79.81C23.39 79.78 23.24 79.78 23.07 79.87C22.74 80.02 22.65 80.22 22.77 80.46C22.77 80.49 22.8 80.49 22.8 80.52L24.01 82.48C24.16 82.72 24.37 82.78 24.66 82.63C24.84 82.54 24.96 82.42 24.96 82.28L25.67 81.9L25.87 82.31L24.1 83.28C23.83 83.42 23.78 83.63 23.89 83.89C23.98 84.07 24.1 84.16 24.25 84.16C24.34 84.16 24.42 84.13 24.51 84.1L26.26 83.16L26.43 83.54C26.49 83.69 26.61 83.75 26.76 83.78C26.23 83.95 25.7 84.13 25.13 84.28C24.16 84.54 23.45 84.77 23.04 84.98L23.07 84.92C23.24 84.6 23.36 84.33 23.42 84.1C23.51 83.86 23.51 83.69 23.42 83.51C23.33 83.34 23.15 83.25 22.92 83.25C22.68 83.25 22.56 83.25 22.53 83.25C22.45 83.25 22.42 83.19 22.36 83.13C22.27 82.92 22.27 82.54 22.36 81.98C22.39 81.75 22.39 81.54 22.33 81.43C22.27 81.28 22.15 81.22 22.03 81.16C21.88 81.13 21.77 81.16 21.59 81.22C21.53 81.25 21.5 81.28 21.44 81.31L20.11 82.25C19.88 82.4 19.85 82.6 19.96 82.87C19.99 82.92 20.05 82.98 20.11 83.04C20.26 83.19 20.44 83.22 20.64 83.13C20.67 83.1 20.73 83.07 20.79 83.04L21.41 82.57C21.44 83.19 21.5 83.57 21.56 83.72C21.65 83.89 21.83 83.98 22.06 83.98C22.21 83.98 22.33 84.01 22.36 84.1C22.39 84.16 22.39 84.28 22.36 84.45C22.3 84.83 22.18 85.21 22.06 85.57C21.91 85.68 21.8 85.77 21.74 85.83C21.56 86.01 21.5 86.18 21.59 86.39C21.62 86.48 21.68 86.54 21.74 86.59C21.88 86.71 22.03 86.74 22.21 86.65C22.27 86.62 22.36 86.57 22.45 86.48C22.77 86.15 23.1 85.92 23.39 85.77C23.78 85.6 24.28 85.42 24.87 85.3C27.32 84.77 28.94 84.33 29.68 83.95C29.89 83.83 30.1 83.69 30.24 83.48C30.36 83.34 30.51 83.1 30.69 82.78C30.81 82.48 30.86 82.37 30.81 82.28ZM24.37 77.32L25.78 76.46C25.9 76.4 25.96 76.4 25.99 76.43C26.02 76.46 26.02 76.58 26.02 76.79C26.02 76.87 26.02 76.93 26.05 77.02C25.93 76.99 25.84 76.99 25.72 77.05C25.72 77.05 25.7 77.08 25.67 77.08L24.84 77.58C24.75 77.37 24.57 77.29 24.37 77.32ZM24.13 80.66L23.95 80.34L24.75 79.87L24.93 80.22L24.13 80.66ZM24.66 81.54L24.45 81.19L25.19 80.75L25.37 81.13L24.66 81.54ZM25.81 79.69L25.64 79.34L26.32 78.96C26.43 78.9 26.52 78.9 26.58 79.02L26.67 79.22L25.81 79.69ZM26.29 80.63L26.11 80.25L26.94 79.78L27.08 80.16L26.29 80.63Z" fill="#1F1C1C" fill-opacity="1.000000" fill-rule="nonzero"/>
		<path id="Vector" d="M21.8 60.19C21.71 60.08 19.82 57.23 19.4 56.7C17.81 54.7 16.04 53.59 14.65 51.77C12.79 49.27 12.49 48.54 10.07 48.83C8.56 49.04 6.43 50.24 6.79 53.76C6.88 54.62 7.08 55.53 7.65 56.52C8.33 58.26 9.24 59.9 10.1 61.52C10.42 62.16 10.84 63.31 10.95 64.04C11.22 65.8 12.79 66.66 14.38 67.24C14.53 67.3 15.68 67.54 16.42 67.45C18.72 67.13 19.46 66.86 21.21 65.28C21.59 64.89 23.13 62.19 21.8 60.19Z" fill="#FFFFFF" fill-opacity="1.000000" fill-rule="nonzero"/>
		<path id="Vector" d="M22.36 60.25C22.06 59.61 21.86 59.31 21.56 58.93C21.44 58.79 21.32 58.58 21.15 58.34C20.76 57.76 19.82 56.64 18.81 55.5C18.81 55.5 16.69 53.24 16.04 52.68C15.06 51.88 13.94 49.56 13.76 49.09C13.76 49.07 13.73 49.04 13.73 49.01C13.7 48.83 13.73 48.6 13.76 48.39C13.97 46.57 14.23 45.22 13.52 42.6C13.5 42.46 13.41 42.34 13.32 42.28C12.99 41.96 12.43 42.25 12.49 42.69C12.49 42.72 12.49 42.78 12.52 42.81C13.14 45.22 12.96 46.39 12.76 48.27C12.73 48.57 12.7 48.92 12.76 49.27C12.82 49.59 14.12 52.41 15.39 53.47C17.13 54.91 17.84 55.64 18.58 56.41C18.64 56.47 18.72 56.55 18.81 56.64C19.55 57.49 20.23 58.32 20.53 58.76C20.7 58.99 20.82 59.2 20.94 59.34C21.21 59.73 21.38 59.96 21.65 60.55C22.24 61.81 21.97 63.45 21.06 64.63C20.14 65.75 18.72 66.6 17.22 66.92C15.56 67.24 13.7 67.07 12.49 65.89C11.99 65.28 11.69 64.51 11.46 63.81C10.48 61.19 8.71 57.82 7.76 56.49C7.68 56.38 7.5 56.44 7.5 56.58C7.47 57.08 7.76 57.49 7.94 57.93C9.06 60.31 10.16 62.57 10.66 64.42C10.78 64.75 10.95 65.04 11.13 65.3C12.14 67.24 14.17 67.89 16.09 67.83C16.54 67.83 16.98 67.77 17.39 67.68C19.08 67.36 20.67 66.39 21.68 65.13C22.77 63.75 23.04 61.78 22.36 60.25Z" fill="#C7B06A" fill-opacity="1.000000" fill-rule="nonzero"/>
		<path id="Vector" d="M18.75 64.78C18.96 65.39 18.96 65.57 18.75 65.66C18.28 65.92 16.57 63.48 17.01 62.87C17.28 62.75 18.04 63.13 18.75 64.78Z" fill="#DC4814" fill-opacity="1.000000" fill-rule="nonzero"/>
		<path id="Vector" d="M16.45 66.27C17.19 66.77 15.71 66.83 15.12 66.13C14.71 65.66 14.65 65.07 14.77 64.48C14.82 64.22 14.94 64.16 15.03 64.16C15.18 64.16 15.21 64.34 15.24 64.45C15.65 65.39 15.86 65.77 16.45 66.27Z" fill="#DC4814" fill-opacity="1.000000" fill-rule="nonzero"/>
		<path id="Vector" d="M20.5 63.81C20.7 64.66 21.29 63.34 20.88 62.54C20.61 61.99 20.08 61.69 19.46 61.58C19.2 61.52 19.11 61.6 19.05 61.69C18.99 61.84 19.14 61.9 19.23 61.99C19.99 62.78 20.29 63.1 20.5 63.81Z" fill="#DC4814" fill-opacity="1.000000" fill-rule="nonzero"/>
		<path id="Vector" d="M16.54 24.6C15.39 25.22 12.61 24.81 11.87 23.84C11.81 23.78 11.78 23.66 11.75 23.52C11.66 23.22 11.96 22.96 12.25 23.05C13.73 23.55 15.21 24.19 16.54 24.6Z" fill="#1F1C1C" fill-opacity="1.000000" fill-rule="nonzero"/>
		<path id="Vector" d="M16.51 26.45C15.65 27.22 12.99 27.48 12.11 26.84C11.96 26.72 11.78 26.51 11.81 26.37C11.84 26.22 12.11 26.01 12.25 26.01C13.64 26.1 15.06 26.22 16.45 26.37C16.48 26.34 16.48 26.39 16.51 26.45Z" fill="#1F1C1C" fill-opacity="1.000000" fill-rule="nonzero"/>
		<path id="Vector" d="M35.38 24.63C36.57 25.19 39.31 24.6 39.99 23.58C40.05 23.52 40.08 23.4 40.11 23.25C40.17 22.96 39.87 22.69 39.58 22.81C38.1 23.4 36.68 24.13 35.38 24.63Z" fill="#1F1C1C" fill-opacity="1.000000" fill-rule="nonzero"/>
		<path id="Vector" d="M36 26.1C36.92 26.84 39.58 26.92 40.41 26.22C40.55 26.1 40.7 25.87 40.67 25.72C40.64 25.57 40.38 25.37 40.23 25.4C38.84 25.57 37.45 25.78 36.06 25.98C36.03 26.01 36.03 26.07 36 26.1Z" fill="#1F1C1C" fill-opacity="1.000000" fill-rule="nonzero"/>
		<path id="Vector" d="M30.13 26.95C28.65 26.95 27.76 26.25 26.76 25.04C26.52 24.75 26.23 24.31 25.99 24.28C25.75 24.34 25.49 24.78 25.25 25.07C24.25 26.28 23.39 27.01 21.91 27.01C21.71 27.01 21.26 27.04 21.29 27.19C21.29 27.51 22.21 27.63 22.65 27.57C24.25 27.36 24.99 26.31 25.99 25.1C27.02 26.31 27.79 27.33 29.39 27.54C29.83 27.6 30.75 27.45 30.75 27.13C30.78 26.98 30.33 26.95 30.13 26.95Z" fill="#DC4814" fill-opacity="1.000000" fill-rule="nonzero"/>
		<path id="Vector" d="M10.75 20.11C11.6 20.23 12.52 20.23 12.99 19.73C16.51 15.79 20.58 15.79 22.53 18.38C22.56 18.44 22.5 18.5 22.45 18.47C20.41 17.35 17.1 17.47 14.17 19.96C13.2 20.84 11.46 20.84 10.75 20.11Z" fill="#1F1C1C" fill-opacity="1.000000" fill-rule="nonzero"/>
		<path id="Vector" d="M41.29 20.17C40.44 20.26 39.52 20.26 39.05 19.7C35.59 15.56 31.37 15.56 29.39 18.29C31.46 17.12 34.88 17.23 37.84 19.91C38.84 20.84 40.55 20.87 41.29 20.17Z" fill="#1F1C1C" fill-opacity="1.000000" fill-rule="nonzero"/>
		<path id="Vector" d="M25.99 22.05C25.13 22.05 24.34 21.4 24.54 21.93C24.81 22.64 25.55 23.14 25.99 23.14C26.37 23.14 27.23 22.43 27.44 21.87C27.64 21.29 26.76 22.05 25.99 22.05Z" fill="#1F1C1C" fill-opacity="1.000000" fill-rule="nonzero"/>
		<path id="Vector" d="M15.3 88.89C15.27 90.38 15.5 91.18 15.98 91.73C16.09 91.88 15.86 92.03 15.68 91.97C14.56 91.62 14.26 89.94 14.88 88.89C15 88.71 15.3 88.68 15.3 88.89Z" fill="#DC4814" fill-opacity="1.000000" fill-rule="nonzero"/>
		<path id="Vector" d="M12.99 92.03C11.84 91.5 11.46 90.06 12.28 88.83C12.37 88.71 12.58 88.68 12.58 88.83C12.55 90.12 12.7 90.91 13.26 91.88C13.32 92.03 13.14 92.09 12.99 92.03Z" fill="#DC4814" fill-opacity="1.000000" fill-rule="nonzero"/>
		<path id="Vector" d="M10.51 92.03C9.24 91.41 8.83 90.21 9.68 88.86C9.77 88.74 9.98 88.71 9.98 88.86C9.83 90.18 10.19 91.09 10.78 91.88C10.87 92 10.66 92.09 10.51 92.03Z" fill="#DC4814" fill-opacity="1.000000" fill-rule="nonzero"/>
		<path id="Vector" d="M35.92 88.77C35.98 90.27 35.74 91.06 35.27 91.65C35.15 91.79 35.38 91.94 35.59 91.88C36.68 91.53 36.98 89.83 36.36 88.77C36.24 88.59 35.92 88.56 35.92 88.77Z" fill="#DC4814" fill-opacity="1.000000" fill-rule="nonzero"/>
		<path id="Vector" d="M38.34 91.88C39.46 91.35 39.85 89.88 38.99 88.68C38.9 88.56 38.69 88.53 38.69 88.71C38.72 90 38.6 90.79 38.07 91.76C38.01 91.88 38.19 91.94 38.34 91.88Z" fill="#DC4814" fill-opacity="1.000000" fill-rule="nonzero"/>
		<path id="Vector" d="M40.97 91.62C42.15 90.88 42.47 89.65 41.47 88.39C41.38 88.27 41.14 88.27 41.17 88.42C41.44 89.71 41.2 90.68 40.7 91.5C40.64 91.62 40.85 91.7 40.97 91.62Z" fill="#DC4814" fill-opacity="1.000000" fill-rule="nonzero"/>
		<path id="Vector" d="M47.38 14C47.5 13.5 47.85 12.83 48.35 12.95C49.21 13.18 48.85 14.33 48.85 14.33C48.74 14.91 48.35 15.74 47.88 16.26C47.67 16.5 47.29 16.44 47.23 16.09C47.17 15.5 47.23 14.68 47.38 14Z" fill="#DC4814" fill-opacity="1.000000" fill-rule="nonzero"/>
		<path id="Vector" d="M50.27 14.77C50.39 14.41 50.57 13.83 51.1 14.06C51.84 14.35 51.37 15.29 51.37 15.29C51.22 15.53 50.86 16.2 50.42 16.5C50.21 16.62 49.98 16.62 49.98 16.38C50.01 15.94 50.13 15.27 50.27 14.77Z" fill="#DC4814" fill-opacity="1.000000" fill-rule="nonzero"/>
		<path id="Vector" d="M44.48 13.59C44.57 13.18 44.78 12.59 45.25 12.62C46.05 12.68 45.66 13.62 45.66 13.8C45.58 14.27 45.25 14.97 45.01 15.38C44.87 15.62 44.57 15.5 44.54 15.24C44.45 14.77 44.36 14.18 44.48 13.59Z" fill="#DC4814" fill-opacity="1.000000" fill-rule="nonzero"/>
	</g>
</svg>
