<svg width="40" height="40" viewBox="0 0 40 40" fill="none" xmlns="http://www.w3.org/2000/svg">
    <rect x="0.6" y="0.6" width="38.8" height="38.8" rx="11.4" stroke="white" stroke-width="1.2"/>
    <path d="M29.1907 16.3548C28.6369 15.7147 27.855 15.3206 27.0147 15.258H26.1827L23.8787 9.45156C23.8593 9.36087 23.8206 9.27549 23.7654 9.20123C23.7102 9.12698 23.6398 9.0656 23.5589 9.02128C23.478 8.97697 23.3886 8.95076 23.2968 8.94445C23.205 8.93814 23.1128 8.95187 23.0268 8.98471C22.9407 9.01754 22.8626 9.06872 22.7979 9.13473C22.7332 9.20074 22.6834 9.28005 22.6519 9.36723C22.6204 9.45441 22.6079 9.54742 22.6153 9.63991C22.6227 9.7324 22.6498 9.8222 22.6947 9.90317L24.8227 15.258H14.8707L16.9827 9.83865C17.0256 9.75771 17.0503 9.6683 17.0553 9.5767C17.0602 9.48509 17.0452 9.39351 17.0113 9.30837C16.9774 9.22323 16.9255 9.14659 16.8591 9.08382C16.7927 9.02106 16.7135 8.97369 16.6271 8.94504C16.5406 8.91639 16.449 8.90715 16.3586 8.91796C16.2682 8.92877 16.1813 8.95939 16.1039 9.00764C16.0265 9.0559 15.9605 9.12065 15.9106 9.19733C15.8606 9.27401 15.8279 9.36078 15.8147 9.45156L13.5107 15.258H12.7267C12.5778 15.2434 12.4277 15.2434 12.2787 15.258C11.8681 15.3483 11.4799 15.5216 11.1378 15.7676C10.7956 16.0136 10.5065 16.3271 10.2881 16.689C10.0697 17.051 9.92642 17.4539 9.86706 17.8733C9.80769 18.2927 9.83344 18.7199 9.94274 19.129L11.1267 26.258C11.2276 26.95 11.5665 27.5843 12.0841 28.0501C12.6017 28.5159 13.2653 28.7836 13.9587 28.8064H25.8787C26.5768 28.7726 27.2402 28.4896 27.7503 28.0079C28.2603 27.5263 28.5838 26.8774 28.6627 26.1774L29.8467 19.129C29.8545 18.9839 29.8545 18.8385 29.8467 18.6935C29.9389 17.8575 29.7035 17.0183 29.1907 16.3548ZM28.5987 18.8387L27.3987 26.0322C27.369 26.4501 27.1909 26.8431 26.897 27.1394C26.6032 27.4356 26.2133 27.6151 25.7987 27.6451H13.9907C13.5751 27.6185 13.1833 27.44 12.8887 27.1431C12.5942 26.8462 12.4172 26.4512 12.3907 26.0322L11.1907 18.7903C11.1361 18.5552 11.1279 18.3115 11.1667 18.0732C11.2055 17.8349 11.2905 17.6067 11.4167 17.4015C11.543 17.1963 11.7082 17.0182 11.9027 16.8773C12.0973 16.7365 12.3175 16.6357 12.5507 16.5806H12.7747H26.9667C27.4363 16.645 27.8637 16.8881 28.1611 17.26C28.4586 17.6318 28.6038 18.1043 28.5667 18.5806C28.5867 18.6652 28.5974 18.7517 28.5987 18.8387Z" fill="white"/>
    <path d="M15.88 19.4517C15.7131 19.4559 15.5544 19.5257 15.4378 19.6462C15.3212 19.7668 15.256 19.9285 15.256 20.0968V24.371C15.2415 24.4632 15.2469 24.5574 15.2719 24.6473C15.297 24.7371 15.3411 24.8204 15.4011 24.8914C15.4612 24.9624 15.5359 25.0194 15.6199 25.0585C15.704 25.0976 15.7955 25.1179 15.888 25.1179C15.9806 25.1179 16.0721 25.0976 16.1562 25.0585C16.2402 25.0194 16.3149 24.9624 16.375 24.8914C16.435 24.8204 16.4791 24.7371 16.5042 24.6473C16.5292 24.5574 16.5346 24.4632 16.52 24.371V20.0968C16.52 19.9257 16.4526 19.7616 16.3326 19.6406C16.2126 19.5196 16.0498 19.4517 15.88 19.4517Z" fill="white"/>
    <path d="M19.8322 19.4517C19.7489 19.4516 19.6664 19.4684 19.5897 19.501C19.5129 19.5337 19.4434 19.5814 19.3852 19.6416C19.3271 19.7017 19.2814 19.773 19.251 19.8511C19.2206 19.9293 19.2061 20.0129 19.2082 20.0968V24.371C19.2061 24.455 19.2206 24.5385 19.251 24.6167C19.2814 24.6949 19.3271 24.7661 19.3852 24.8263C19.4434 24.8864 19.5129 24.9342 19.5897 24.9668C19.6664 24.9994 19.7489 25.0162 19.8322 25.0162C20.002 25.0162 20.1647 24.9482 20.2848 24.8272C20.4048 24.7062 20.4722 24.5421 20.4722 24.371V20.0968C20.4722 19.9257 20.4048 19.7616 20.2848 19.6406C20.1647 19.5196 20.002 19.4517 19.8322 19.4517Z" fill="white"/>
    <path d="M23.784 19.4517C23.6143 19.4517 23.4515 19.5196 23.3315 19.6406C23.2115 19.7616 23.144 19.9257 23.144 20.0968V24.371C23.144 24.5421 23.2115 24.7062 23.3315 24.8272C23.4515 24.9482 23.6143 25.0162 23.784 25.0162C23.8674 25.0162 23.9498 24.9994 24.0266 24.9668C24.1034 24.9342 24.1729 24.8864 24.231 24.8263C24.2892 24.7661 24.3348 24.6949 24.3652 24.6167C24.3956 24.5385 24.4102 24.455 24.408 24.371V20.0968C24.4102 20.0129 24.3956 19.9293 24.3652 19.8511C24.3348 19.773 24.2892 19.7017 24.231 19.6416C24.1729 19.5814 24.1034 19.5337 24.0266 19.501C23.9498 19.4684 23.8674 19.4516 23.784 19.4517Z" fill="white"/>
</svg>
