<svg width="40" height="40" viewBox="0 0 40 40" fill="none" xmlns="http://www.w3.org/2000/svg">
    <circle cx="20" cy="20" r="20" fill="white"/>
    <g clip-path="url(#clip0_325_2525)">
        <path d="M27.0809 17.7803C27.0097 17.6641 26.9068 17.5866 26.794 17.5612C25.1615 16.0659 22.6862 17.45 21.32 18.7369C20.2043 19.8297 19.9034 21.4009 19.0509 22.5844C18.7947 22.9378 18.5175 23.2756 18.2209 23.5959C18.0233 23.8106 17.819 24.019 17.6084 24.2209C17.399 24.4228 17.1853 24.6178 16.9712 24.8056C16.7605 24.9892 16.5469 25.1693 16.3303 25.3459C15.7128 25.8497 14.9606 26.2097 14.1737 26.3428C13.8868 26.3909 13.3803 26.4794 13.2668 26.1347C13.1968 25.9225 13.1531 25.7409 13.0097 25.5634C12.7868 25.2872 12.3815 25.1419 12.0547 25.2981C11.699 25.4687 11.5768 25.9212 11.5228 26.2781C11.3959 27.1147 11.8872 27.9787 12.509 28.6009C12.7074 28.7984 12.9241 28.9765 13.1562 29.1328C15.9006 30.9162 19.3143 29.6178 22.0078 28.3547C22.3313 28.1871 22.6495 28.0093 22.9618 27.8216C23.8993 27.2606 24.7922 26.6209 25.6331 25.9434C25.9284 25.72 26.2178 25.4928 26.5028 25.2616C26.778 25.004 27.0344 24.7271 27.27 24.4328C27.508 24.1341 27.7207 23.8162 27.9059 23.4822C28.9659 21.5819 28.7509 19.1744 27.0809 17.7794" fill="#EC1C24"/>
        <path d="M13.204 29.1343C14.2543 29.8175 15.404 30.0478 16.5734 30.0012C16.6471 29.9518 16.7206 29.9018 16.7931 29.849C17.1118 29.6181 17.4362 29.3756 17.7609 29.1231C18.0895 28.8675 18.4122 28.6043 18.7287 28.3337C19.0484 28.0591 19.36 27.7753 19.6631 27.4825C20.1168 27.0445 20.5443 26.5802 20.9434 26.0918C22.2684 24.4559 22.8309 22.214 24.53 20.7293C25.45 19.9581 26.6834 19.1775 27.9671 18.745C27.7409 18.3809 27.4579 18.0554 27.1287 17.7809C27.0571 17.6643 26.9546 17.5872 26.8418 17.5615C25.2081 16.0665 22.7337 17.4509 21.3671 18.7372C20.2515 19.8303 19.9506 21.4018 19.0987 22.5847C18.8425 22.9381 18.5653 23.2759 18.2687 23.5962C18.0706 23.8104 17.8663 24.0188 17.6562 24.2212C17.4482 24.421 17.2355 24.6158 17.0184 24.8056C16.8077 24.9892 16.594 25.1693 16.3775 25.3459C15.76 25.8497 15.0071 26.2097 14.2215 26.3428C13.934 26.3909 13.4281 26.4793 13.3146 26.1347C13.244 25.9225 13.2003 25.7409 13.0562 25.5628C12.8346 25.2865 12.4281 25.1406 12.1015 25.2981C11.7462 25.4681 11.6237 25.9212 11.5696 26.2781C11.4428 27.1147 11.9343 27.9787 12.5565 28.6009C12.7547 28.7987 12.9716 28.9769 13.204 29.1331" fill="#C32129"/>
        <path d="M27.8156 21.444C27.8725 21.8928 27.6984 22.2975 27.5088 22.6828C27.48 22.7381 27.4522 22.7937 27.4238 22.8497C27.0628 23.4122 26.6578 23.9619 26.0569 24.3122C26.0375 24.3134 26.0141 24.2759 26.0128 24.2562C26.315 23.6572 26.8259 23.1962 26.9922 22.5578C27.0088 22.5003 27.0222 22.4422 27.0328 22.3844C27.042 22.3261 27.049 22.2675 27.0538 22.2087C27.0625 21.8725 26.8447 21.4181 27.2028 21.2275C27.3522 21.1347 27.5197 21.2387 27.6566 21.3162C27.7072 21.3519 27.7597 21.394 27.8156 21.444Z" fill="white"/>
        <path d="M26.2719 16.8325C25.151 16.5944 23.5732 16.4941 22.7297 17.4244C22.5594 17.6125 22.7044 17.8606 22.9107 17.9231C23.665 18.1519 24.7147 17.7431 25.465 17.5913C26.2388 17.4347 26.5132 18.0519 26.9738 18.5228C27.3788 18.9366 27.8566 19.1585 27.9891 19.7691L28.5444 19.5638C28.1222 18.8166 28.0119 17.9672 27.3569 17.3606C26.9178 16.9538 26.125 16.546 25.5107 16.705C25.0238 16.8316 24.7663 17.2841 25.195 17.6738C25.8135 18.2338 26.7516 18.3888 27.5253 18.6266C27.8569 18.7288 28.0397 18.1569 27.7107 18.0475C26.7232 17.7181 25.73 17.3553 24.6738 17.3835C24.4688 17.3888 24.3535 17.6178 24.4144 17.7963C24.7525 18.7872 26.2516 18.8138 27.1038 18.916C27.1125 18.7138 27.1225 18.5113 27.1313 18.3085C26.8938 18.3144 26.6769 18.3572 26.4494 18.42C26.3566 18.4523 26.2599 18.4721 26.1619 18.4788C26.0872 18.4875 25.5766 18.1828 25.635 18.1535L25.2219 17.8935C25.2097 18.266 24.9522 18.7113 25.2738 19.0281C25.645 19.3935 26.1019 19.1266 26.4582 18.8731C26.8372 18.6031 27.1372 18.4525 27.3144 18.001C27.4875 17.5563 27.4757 17.2078 26.9641 17.0769C27.0375 17.2213 27.1113 17.3653 27.1863 17.5094C27.6247 16.6603 28.4516 16.0228 29.2882 15.5913C29.1928 15.4122 29.0982 15.2331 29.0035 15.0541C27.9932 15.631 27.0091 16.2344 26.1575 17.0331C25.9063 17.2675 26.2422 17.5831 26.5003 17.5166C27.5719 17.2419 28.1525 16.2003 29.1372 15.7725C29.0413 15.5935 28.9472 15.4144 28.8525 15.2353C28.011 15.7294 26.7466 16.3953 26.8669 17.55C26.8957 17.82 27.2307 17.92 27.4075 17.7197C28.0388 17.0035 28.7272 16.3528 29.4588 15.7406C29.7603 15.4885 29.4072 14.9856 29.1032 15.2403C28.3319 15.886 27.6028 16.5713 26.9375 17.3263C27.1172 17.3828 27.2975 17.4391 27.4778 17.4953C27.3885 16.6419 28.5947 16.095 29.2072 15.7353C29.5075 15.5588 29.2385 15.0603 28.9216 15.1978C27.9416 15.6235 27.3307 16.6735 26.285 16.9422C26.3994 17.1035 26.5125 17.265 26.6272 17.4263C27.4366 16.6678 28.4 16.1016 29.3582 15.5544C29.6585 15.3825 29.3816 14.8578 29.0719 15.0169C28.0885 15.5244 27.1485 16.2472 26.6307 17.2488C26.5335 17.4353 26.6688 17.6341 26.8535 17.6806C26.7666 17.6588 26.6172 18.0275 26.5366 18.0875C26.3978 18.1906 26.2416 18.2694 26.101 18.3731C25.5307 18.7988 25.8207 18.2156 25.8335 17.8385C25.8385 17.6503 25.5853 17.4953 25.4203 17.5788C24.8541 17.8619 24.9391 18.3431 25.3397 18.7519C25.9041 19.3272 26.5266 18.9347 27.186 18.9191C27.5316 18.911 27.5553 18.3528 27.2138 18.3119C26.6294 18.2419 25.2182 18.256 24.9888 17.581C24.9025 17.7181 24.8147 17.856 24.7285 17.9938C25.666 17.9691 26.571 18.3094 27.4494 18.6022C27.5107 18.4091 27.5725 18.216 27.6347 18.0228C27.0969 17.8575 26.5457 17.7141 26.0269 17.4941C25.8613 17.4241 25.6932 17.3216 25.575 17.1831C25.5225 17.3497 25.586 17.3835 25.7682 17.285C25.9566 17.2656 26.1691 17.3681 26.3378 17.4381C27.4269 17.8913 27.5241 19.0006 28.0432 19.9194C28.1885 20.1778 28.6619 20.0091 28.5978 19.7141C28.4872 19.2047 28.2857 18.8491 27.8907 18.5075C27.5872 18.2466 27.3175 17.9966 27.0613 17.6856C26.8838 17.4697 26.6785 17.2278 26.4241 17.101C25.87 16.8244 25.335 17.0094 24.756 17.1053C24.2203 17.1941 23.5572 17.4825 23.0182 17.3191L23.1985 17.8169C23.8703 17.0766 25.2866 17.2503 26.16 17.4356C26.5503 17.5191 26.6575 16.9144 26.271 16.8328" fill="#00A551"/>
        <path d="M29.0313 14.9109C28.2835 15.3741 27.5101 15.8344 26.8157 16.3747C26.3801 16.7138 26.1066 17.2469 26.6404 17.6309C26.926 17.8372 27.2794 17.4172 26.9926 17.2091C26.6829 16.9856 27.7973 16.3594 27.9301 16.2716C28.3963 15.9591 28.8707 15.6562 29.3485 15.36C29.6498 15.1728 29.3304 14.7262 29.0307 14.9122" fill="#028D46"/>
        <path d="M26.4388 16.8569C25.867 16.7191 25.2926 16.7287 24.7085 16.7144C24.1895 16.7019 23.6463 16.6806 23.2082 16.9997C22.9213 17.2078 23.2388 17.6566 23.527 17.4478C23.871 17.1969 24.3538 17.2506 24.7576 17.2619C25.2935 17.2769 25.8157 17.2712 26.3398 17.3978C26.686 17.4809 26.7816 16.94 26.4388 16.8569Z" fill="#028D46"/>
        <path d="M25.5662 17.0765C25.7684 17.0828 25.9859 17.0531 26.1806 17.1228C26.3209 17.1734 26.4775 17.1359 26.5469 16.9912C26.6047 16.8659 26.5556 16.6756 26.4141 16.6256C26.1184 16.5194 25.8266 16.539 25.5175 16.5287C25.3672 16.5237 25.2559 16.6915 25.2681 16.8272C25.2822 16.99 25.4162 17.0715 25.5662 17.0765Z" fill="#028D46"/>
        <path d="M26.5031 16.4406C25.6563 16.4828 24.8238 16.5575 24.0031 16.779C23.6616 16.8709 23.8556 17.385 24.1953 17.2937C24.9678 17.0856 25.7559 17.0275 26.5513 16.9878C26.9053 16.9706 26.8553 16.4234 26.5031 16.4406Z" fill="#028D46"/>
        <path d="M26.722 17.5531C27.0804 17.8759 27.3651 18.0687 27.5604 18.53C27.7679 19.02 27.9501 19.4619 28.0435 19.9922C28.1057 20.3381 28.6532 20.2922 28.5913 19.9431C28.4807 19.3184 28.2629 18.7806 28.0176 18.2012C27.8048 17.6991 27.4663 17.4847 27.0738 17.1312C26.8098 16.8941 26.4588 17.3169 26.7216 17.5531" fill="#028D46"/>
        <path d="M27.5563 17.8719C26.3866 16.8166 24.7313 16.8803 23.2603 17.0087C22.9066 17.0397 22.956 17.5866 23.3085 17.5559C24.6316 17.44 26.146 17.34 27.2041 18.2937C27.4672 18.5312 27.8194 18.1091 27.5563 17.8719Z" fill="#028D46"/>
        <path d="M27.3406 18.2475C27.4372 18.3287 27.4903 18.3668 27.5153 18.4587C27.6394 18.3437 27.7647 18.229 27.8891 18.1134C27.8726 18.1073 27.8565 18.1001 27.8409 18.0918C27.7672 18.055 27.8744 18.1187 27.8053 18.0703C27.766 18.0411 27.728 18.0104 27.6913 17.9781C27.6106 17.9097 27.5338 17.8372 27.4456 17.7784C27.3206 17.6953 27.1613 17.689 27.0578 17.8128C26.9691 17.9184 26.9684 18.1168 27.0928 18.2C27.2875 18.33 27.4369 18.5178 27.6556 18.6109C27.8913 18.7112 28.0913 18.4959 28.0294 18.2659C27.98 18.0797 27.8353 17.945 27.6931 17.8256C27.6371 17.7795 27.5651 17.7573 27.4928 17.7637C27.4205 17.7701 27.3536 17.8047 27.3066 17.86C27.2603 17.9161 27.238 17.9882 27.2443 18.0607C27.2507 18.1332 27.2853 18.2002 27.3406 18.2475Z" fill="#028D46"/>
        <path d="M27.4294 18.4843C27.5264 18.6943 27.6466 18.8927 27.7878 19.0759C27.8819 19.1931 28.0447 19.2306 28.1719 19.1406C28.2894 19.0568 28.3287 18.8753 28.2366 18.7572C28.1222 18.6132 28.0239 18.4571 27.9434 18.2918C27.8794 18.1565 27.7406 18.075 27.59 18.1306C27.46 18.1803 27.3647 18.3493 27.4294 18.4843Z" fill="#028D46"/>
        <path d="M29.1688 15.3053C29.1847 15.3109 29.2002 15.3179 29.215 15.3262C29.1891 15.3078 29.1878 15.3078 29.2119 15.3253C29.2091 15.3221 29.2062 15.3189 29.2031 15.3159C29.1972 15.3053 29.1917 15.2945 29.1866 15.2834C29.1959 15.3118 29.1959 15.3037 29.1838 15.2597C29.1844 15.2893 29.1859 15.2812 29.185 15.2362C29.1788 15.2943 29.2106 15.1797 29.1844 15.2362C29.2059 15.2043 29.2084 15.2015 29.1903 15.2268C29.1769 15.2443 29.1613 15.2593 29.1466 15.2747C29.0391 15.3797 29.0744 15.5725 29.18 15.6618C29.3038 15.765 29.4603 15.7315 29.5663 15.6272C29.6794 15.5172 29.7416 15.3672 29.73 15.2106C29.7172 15.0231 29.5669 14.8778 29.4031 14.8078C29.265 14.7493 29.1028 14.8006 29.0375 14.9393C28.9766 15.0706 29.0322 15.2462 29.1688 15.3053Z" fill="#028D46"/>
        <path d="M12.6162 16.6797C11.8425 16.3081 11.0696 16.5363 10.3581 16.6553C10.2221 16.6778 10.254 16.8456 10.3512 16.9328C10.3365 16.9766 10.3459 17.0306 10.3943 17.0856C10.8931 17.6556 11.09 18.2013 11.185 18.8978C11.2803 19.5935 11.4268 20.2531 11.7865 20.9088C12.4696 22.1525 13.6981 23.1978 14.9656 23.4694C15.0959 23.4975 15.1559 23.3875 15.1153 23.2613C15.0003 22.8969 14.7828 22.6747 14.5306 22.3966C14.1956 22.0297 14.3306 21.5069 14.4031 21.1319C14.5612 20.3222 14.7946 19.5569 14.4843 18.6538C14.1806 17.7656 13.4078 17.0585 12.6162 16.6797Z" fill="#F05A2A"/>
        <path d="M13.3875 18.2813C12.9307 17.9553 12.4057 18.015 11.9357 18.0119C11.8453 18.011 11.8466 18.1225 11.9 18.1894C11.8853 18.2156 11.8853 18.2516 11.91 18.2922C12.1678 18.7156 12.2325 19.0894 12.216 19.5485C12.1994 20.0072 12.2178 20.4485 12.3766 20.911C12.6769 21.7888 13.3503 22.5997 14.136 22.9172C14.2166 22.95 14.2672 22.8853 14.256 22.7997C14.2225 22.5528 14.1075 22.3853 13.976 22.1772C13.8019 21.9035 13.9475 21.5831 14.0369 21.3497C14.2294 20.846 14.4653 20.3791 14.3682 19.7628C14.2716 19.1563 13.8535 18.6144 13.3875 18.2813Z" fill="#F5EB35"/>
        <path d="M20.7125 12.396C20.27 11.4185 19.3466 11.0153 18.571 10.5578C18.4225 10.4707 18.3185 10.6569 18.3413 10.8175C18.2932 10.8482 18.2575 10.9075 18.26 10.9982C18.2797 11.945 18.0291 12.625 17.5613 13.3682C17.0935 14.11 16.7032 14.8585 16.5203 15.7747C16.175 17.5135 16.5116 19.5 17.506 20.7778C17.6075 20.9091 17.7547 20.8525 17.8182 20.6991C17.9997 20.2582 17.9703 19.8707 17.9516 19.4019C17.926 18.7825 18.4744 18.391 18.8463 18.0903C19.646 17.4416 20.485 16.8972 20.9141 15.7844C21.3357 14.69 21.165 13.3932 20.7125 12.3953" fill="#F05A2A"/>
        <path d="M20.185 14.809C20.0694 14.1809 19.5925 13.8137 19.21 13.4372C19.1366 13.3656 19.0494 13.4581 19.0394 13.5543C19.0066 13.565 18.9785 13.5947 18.9666 13.6472C18.8422 14.1981 18.5991 14.5553 18.2216 14.9181C17.8441 15.28 17.5107 15.6568 17.2735 16.1606C16.8241 17.1172 16.7322 18.3147 17.1238 19.1975C17.1644 19.2878 17.2572 19.2759 17.3154 19.1965C17.4844 18.9678 17.5235 18.7397 17.5794 18.4656C17.6538 18.1034 18.0275 17.9562 18.286 17.8343C18.8425 17.5747 19.406 17.3803 19.8138 16.7984C20.2147 16.2247 20.3029 15.4506 20.185 14.8081" fill="#F5EB35"/>
        <path d="M15.1069 10.7322C14.615 10.1931 13.9316 10.1272 13.3322 9.99563C13.2182 9.97032 13.1894 10.1131 13.2385 10.2119C13.2135 10.2419 13.2035 10.2881 13.2244 10.3459C13.4372 10.9547 13.4188 11.4481 13.2735 12.0281C13.1282 12.6078 13.0335 13.1747 13.1085 13.8066C13.2532 15.005 13.8916 16.2206 14.8057 16.8375C14.8997 16.9009 14.9829 16.8334 14.991 16.7203C15.015 16.3963 14.9141 16.1519 14.8032 15.8522C14.655 15.4566 14.9275 15.0869 15.1044 14.8141C15.4854 14.225 15.9129 13.6944 15.955 12.8834C15.9966 12.0863 15.6113 11.2825 15.1069 10.7322Z" fill="#F05A2A"/>
        <path d="M15.2756 12.4062C15.0675 12.0231 14.6809 11.8868 14.354 11.7243C14.2912 11.694 14.255 11.7718 14.2678 11.8359C14.2493 11.8506 14.2381 11.8753 14.2412 11.9118C14.2762 12.295 14.195 12.5772 14.0275 12.8925C13.8606 13.205 13.7234 13.5206 13.6772 13.8968C13.5875 14.6118 13.7818 15.4062 14.2218 15.8947C14.2675 15.945 14.3253 15.9175 14.3462 15.8534C14.4072 15.67 14.3843 15.514 14.3628 15.3243C14.3343 15.0747 14.545 14.9003 14.6865 14.7672C14.9918 14.4812 15.3147 14.2359 15.4556 13.7731C15.594 13.3168 15.4868 12.7968 15.2756 12.4062Z" fill="#F5EB35"/>
    </g>
    <defs>
        <clipPath id="clip0_325_2525">
            <rect width="20" height="20" fill="white" transform="translate(10 10)"/>
        </clipPath>
    </defs>
</svg>
