<svg width="24.000000" height="24.000000" viewBox="0 0 24 24" fill="none" xmlns="http://www.w3.org/2000/svg" xmlns:xlink="http://www.w3.org/1999/xlink">
    <g clip-path="url(#clip389_7237)">
        <path id="Vector" d="M12 0C5.37 0 0 5.37 0 12C0 18.62 5.37 24 12 24C18.62 24 24 18.62 24 12C24 5.37 18.62 0 12 0Z" fill="#40B3E0" fill-opacity="1.000000" fill-rule="nonzero"/>
        <path id="Vector" d="M17.83 6.9L15.69 17.7C15.69 17.7 15.39 18.45 14.57 18.09L9.62 14.3L7.82 13.43L4.79 12.41C4.79 12.41 4.33 12.25 4.28 11.89C4.24 11.53 4.81 11.33 4.81 11.33L16.84 6.61C16.84 6.61 17.83 6.18 17.83 6.9L17.83 6.9Z" fill="#FFFFFF" fill-opacity="1.000000" fill-rule="nonzero"/>
        <path id="Vector" d="M9.24 17.58C9.24 17.58 9.1 17.57 8.92 17C8.74 16.43 7.82 13.43 7.82 13.43L15.09 8.82C15.09 8.82 15.51 8.56 15.5 8.82C15.5 8.82 15.57 8.86 15.35 9.07C15.12 9.28 9.64 14.21 9.64 14.21L9.24 17.58Z" fill="#D2E5F1" fill-opacity="1.000000" fill-rule="nonzero"/>
        <path id="Vector" d="M11.52 15.76L9.56 17.54C9.56 17.54 9.41 17.66 9.24 17.58L9.62 14.27L11.52 15.76Z" fill="#B5CFE4" fill-opacity="1.000000" fill-rule="nonzero"/>
    </g>
</svg>
