<svg width="90.000000" height="100.000000" viewBox="0 0 90 100" fill="none" xmlns="http://www.w3.org/2000/svg" xmlns:xlink="http://www.w3.org/1999/xlink">
	<desc>
			Created with Pixso.
	</desc>
	<defs>
		<clipPath id="clip325_1856">
			<rect id="Frame" rx="0.000000" width="89.000000" height="99.000000" transform="translate(0.500000 0.500000)" fill="white" fill-opacity="0"/>
		</clipPath>
	</defs>
	<rect id="Frame" rx="0.000000" width="89.000000" height="99.000000" transform="translate(0.500000 0.500000)" fill="#FFFFFF" fill-opacity="0"/>
	<g clip-path="url(#clip325_1856)">
		<path id="Vector" d="M77.58 11.41C78.15 12.88 77.19 14.49 75.67 14.75C74.94 14.88 74.2 14.88 73.51 15.01C69.86 15.74 66.08 15.83 62.48 16.61C60.57 17 58.84 18.3 57.02 19.21C56.54 19.47 56.1 19.86 55.58 20.08C53.63 21.04 52.85 21.12 51.46 19.91C50.72 19.3 50.42 18.3 50.64 17.39C50.77 16.91 50.85 16.48 51.03 16C51.46 14.66 52.02 13.4 52.37 12.06C53.15 9.19 56.8 6.11 60.23 6.5C64 6.89 74.37 9.06 75.76 9.5C76.8 9.89 77.24 10.58 77.58 11.41Z" fill="#C7B06A" fill-opacity="1.000000" fill-rule="nonzero"/>
		<path id="Vector" d="M0.34 47.07C0.99 48.5 2.82 48.93 4.07 48.02C4.68 47.59 5.2 47.07 5.81 46.68C8.89 44.59 11.58 41.95 14.66 39.91C16.31 38.82 18.44 38.48 20.39 37.83C20.91 37.65 21.48 37.61 22 37.44C24.04 36.7 24.64 36.22 24.77 34.36C24.86 33.4 24.38 32.49 23.56 32.01C23.17 31.75 22.73 31.54 22.3 31.32C21.04 30.67 19.74 30.19 18.52 29.5C15.92 28.06 11.19 28.5 9.02 31.19C6.68 34.27 0.95 43.12 0.3 44.46C-0.18 45.42 -0.01 46.24 0.34 47.07Z" fill="#C7B06A" fill-opacity="1.000000" fill-rule="nonzero"/>
		<path id="Vector" d="M90 63.21C90.04 64.55 89.21 65.33 88.04 65.77C86.87 66.2 86 65.81 85.22 64.9C84.44 63.94 83.66 62.99 82.75 62.12C81.01 60.47 79.28 58.87 76.67 58.52C75.02 58.3 73.37 57.7 72.33 56.13C70.94 54.01 70.94 51.36 72.33 49.63C73.68 47.93 76.28 47.2 78.63 48.06C83.27 49.84 89.82 54.36 90 63.21Z" fill="#C7B06A" fill-opacity="1.000000" fill-rule="nonzero"/>
		<path id="Vector" d="M32.84 90.8C33.84 91.67 34.97 91.58 36.06 90.97C37.14 90.36 37.4 89.45 37.18 88.24C36.97 87.02 36.71 85.81 36.66 84.55C36.49 82.16 36.4 79.82 37.83 77.61C38.7 76.22 39.35 74.53 38.79 72.75C38.05 70.32 36.06 68.63 33.84 68.54C31.67 68.45 29.46 70.02 28.64 72.36C26.94 77.04 26.21 84.98 32.84 90.8Z" fill="#C7B06A" fill-opacity="1.000000" fill-rule="nonzero"/>
		<path id="Vector" d="M38.4 18C37.62 20.13 36.58 21.17 34.67 21.99C32.63 22.86 31.28 23.12 28.42 22.08C25.47 19.65 22.73 16.09 21.48 12.27C20.52 9.41 20.39 7.33 21.43 4.59C22.6 1.51 27.29 -1.05 30.2 0.52C33.06 1.56 34.88 4.25 35.36 5.24C37.01 7.37 39.7 14.44 38.4 18Z" fill="#C7B06A" fill-opacity="1.000000" fill-rule="nonzero"/>
		<path id="Vector" d="M23.91 7.85C24.21 8.54 24.17 9.24 23.73 9.41C23.34 9.58 22.73 9.19 22.43 8.54C22.13 7.85 22.17 7.15 22.6 6.98C22.99 6.81 23.6 7.2 23.91 7.85Z" fill="#133F7E" fill-opacity="1.000000" fill-rule="nonzero"/>
		<path id="Vector" d="M31.93 4.12C32.24 4.81 32.19 5.5 31.76 5.68C31.37 5.85 30.76 5.46 30.46 4.81C30.15 4.12 30.2 3.42 30.63 3.25C31.07 3.03 31.63 3.47 31.93 4.12Z" fill="#133F7E" fill-opacity="1.000000" fill-rule="nonzero"/>
		<path id="Vector" d="M70.42 99.26C68.38 97 66.74 94.44 65.22 91.75C63.09 88.06 61.14 84.25 59.49 80.34C58.53 78.09 57.71 75.83 57.1 73.49C56.49 71.27 57.02 70.19 58.84 69.37C60.62 68.58 61.35 68.76 62.53 70.32C64.74 73.27 66.35 76.57 67.78 79.95C69.95 84.98 71.47 90.23 72.33 95.66C72.46 96.52 72.46 97.39 72.55 98.26C72.59 98.87 72.77 99.65 72.12 99.95C71.55 100.21 71.03 99.6 70.42 99.26Z" fill="#C7B06A" fill-opacity="1.000000" fill-rule="nonzero"/>
		<path id="Vector" d="M63.61 96.7C57.75 91.8 53.33 85.94 51.37 78.43C51.07 77.22 50.9 75.96 50.64 74.75C50.38 73.53 50.9 72.79 51.85 72.27C52.5 71.93 53.15 71.71 53.85 71.45C54.85 71.1 55.5 71.45 55.8 72.53C57.75 79.86 61.27 86.5 64.83 93.14C65.61 94.62 66.52 96 67.34 97.48C67.6 97.91 68.04 98.52 67.56 98.91C67.08 99.34 66.48 98.91 66 98.56C65.22 97.96 64.44 97.35 63.61 96.7Z" fill="#C7B06A" fill-opacity="1.000000" fill-rule="nonzero"/>
		<path id="Vector" d="M67.3 67.15C69.34 69.28 70.94 71.97 72.38 74.75C75.07 79.86 76.15 85.29 76.2 91.01C76.2 92.58 75.85 94.05 75.33 95.53C75.15 96 74.94 96.61 74.33 96.61C73.68 96.57 73.59 95.92 73.51 95.44C72.51 89.24 70.25 83.38 67.99 77.57C66.87 74.7 65.39 72.01 63.52 69.54C62.53 68.24 62.66 67.59 64.13 66.89C65.17 66.42 66.21 66.16 67.3 67.15Z" fill="#C7B06A" fill-opacity="1.000000" fill-rule="nonzero"/>
		<path id="Vector" d="M55.89 93.79C51.16 89.54 47.38 84.38 45.65 77.91C45.13 75.96 45.47 75.05 47.21 74.14C48.42 73.53 49.51 74.01 49.73 75.31C50.46 80.56 52.68 85.2 55.58 89.58C56.67 91.19 58.06 92.49 59.32 93.96C59.49 94.14 59.71 94.27 59.79 94.49C60.01 94.88 60.49 95.31 60.05 95.79C59.66 96.22 59.19 95.96 58.75 95.74C57.8 95.22 56.93 94.66 55.89 93.79Z" fill="#C7B06A" fill-opacity="1.000000" fill-rule="nonzero"/>
		<path id="Vector" d="M77.19 85.11C76.41 82.77 75.94 80.43 75.02 78.22C73.59 74.7 71.94 71.27 69.6 68.24C69.38 67.93 69.04 67.67 68.82 67.41C68.3 66.76 67.08 66.33 68.12 65.24C69.08 64.25 70.77 64.2 71.6 65.03C73.24 66.76 74.33 68.85 75.24 71.01C76.63 74.18 77.76 77.44 78.11 80.95C78.28 82.38 78.02 83.81 77.19 85.11Z" fill="#C7B06A" fill-opacity="1.000000" fill-rule="nonzero"/>
		<path id="Vector" d="M46.82 87.98C44.13 85.59 42.48 82.64 41.91 79.13C41.83 78.56 41.87 77.96 42 77.44C42.22 76.65 42.96 76.31 43.65 76.26C44.39 76.26 44.6 76.91 44.73 77.57C45.26 81.08 46.86 84.12 48.86 86.94C48.99 87.11 49.16 87.2 49.2 87.37C49.38 87.89 50.03 88.41 49.51 88.93C48.94 89.5 48.25 89.15 47.69 88.72C47.43 88.5 47.12 88.24 46.82 87.98Z" fill="#C7B06A" fill-opacity="1.000000" fill-rule="nonzero"/>
		<path id="Vector" d="M75.67 63.73C77.32 65.98 78.54 68.54 79.15 71.41C79.41 72.58 79.67 73.75 79.41 74.96C79.32 75.48 79.23 76.13 78.58 76.18C77.93 76.22 78.02 75.53 77.84 75.14C76.63 71.75 75.2 68.5 72.98 65.59C72.59 65.07 71.81 64.55 72.55 63.73C73.24 62.9 74.11 62.9 75.02 63.38C75.24 63.47 75.37 63.55 75.67 63.73Z" fill="#C7B06A" fill-opacity="1.000000" fill-rule="nonzero"/>
		<path id="XMLID_1_" d="M21.91 23.68C25.68 19.69 29.85 16.7 34.62 14.96C41.83 12.27 49.33 12.19 56.62 14.7C60.88 16.13 64.39 18.82 67.56 22.08C71.51 26.11 73.37 31.14 75.33 36.31C77.58 42.25 78.02 48.24 77.24 54.44C76.54 59.73 74.03 64.25 70.51 67.98C68.25 70.36 65.3 72.14 62.31 73.83C58.58 75.96 54.54 77.09 50.51 78.09C46.64 79.04 40.87 78.3 38.96 77.7C35.01 76.26 31.41 74.18 28.33 71.32C21.56 65.03 18.22 57 16.09 48.32C14.66 42.51 15.36 36.83 17.53 31.23C18.65 28.24 20.52 25.94 21.91 23.68Z" fill="#1F1C1C" fill-opacity="1.000000" fill-rule="nonzero"/>
		<path id="Vector" d="M75.63 46.94C71.42 46.29 66.91 45.55 60.75 44.77C60.49 44.72 55.67 35.22 55.67 35.22C55.58 35.01 55.58 34.79 55.67 34.57C56.8 32.19 62.4 21.77 62.09 21.6C60.88 20.86 60.27 20.52 59.32 20.3C58.88 20.21 52.59 33.92 52.29 33.92C48.03 33.4 45.78 33.36 41.87 33.23C41.78 33.23 41.7 33.18 41.65 33.1L35.45 19.6C35.32 19.3 34.93 19.13 34.62 19.3C34.28 19.43 33.93 19.6 33.63 19.73C33.28 19.91 33.11 20.34 33.28 20.73C35.45 25.37 37.84 30.02 39.74 34.62C39.79 34.7 39.74 34.79 39.7 34.88C37.1 38.39 35.97 40.08 33.67 43.47C33.63 43.55 33.54 43.6 33.45 43.55C27.59 43.16 23.38 43.03 17.7 43.08C17.4 43.08 17.18 43.34 17.18 43.6L17.27 45.9C17.27 46.16 17.48 46.37 17.74 46.37C22.56 46.46 26.08 46.59 32.71 46.59C32.8 46.59 32.89 46.63 32.93 46.72C34.8 50.54 36.14 53.66 37.36 56.26C37.4 56.31 37.4 56.39 37.36 56.44C34.93 62.16 33.32 65.59 31.37 69.97C32.28 70.49 33.15 71.01 34.19 71.41C36.62 66.37 37.88 63.03 40.13 57.91C40.18 57.83 40.31 57.74 40.4 57.78C43.35 58.26 47.64 58.61 51.89 59.04C51.98 59.04 52.07 59.08 52.07 59.17C54.67 64.42 57.93 71.62 58.06 71.54C58.71 71.23 59.92 70.71 60.53 70.36C60.62 70.32 57.06 62.9 54.59 57.57C57.75 52.62 57.67 52.71 60.83 47.72C67.08 48.5 69.73 49.19 75.2 49.71C75.33 49.76 75.76 46.98 75.63 46.94ZM57.88 47.11L52.16 55.74C51.98 55.96 51.76 56.09 51.46 56.05L40.74 55.05C40.48 55.01 39.96 54.57 39.83 54.36L35.97 46.03C35.84 45.77 35.84 45.11 36.01 44.9L41.74 36.61C41.91 36.39 42.39 36.18 42.65 36.18L52.85 37C53.02 37 53.15 37.09 53.2 37.09L53.15 37C53.24 37.09 53.24 37.09 53.2 37.09L57.88 45.94C58.32 46.63 58.01 46.89 57.88 47.11Z" fill="#FFFFFF" fill-opacity="1.000000" fill-rule="nonzero"/>
	</g>
</svg>
