<svg width="22.761108" height="24.000000" viewBox="0 0 22.7611 24" fill="none" xmlns="http://www.w3.org/2000/svg" xmlns:xlink="http://www.w3.org/1999/xlink">
	<g clip-path="url(#clip389_7231)">
		<path id="Vector" d="M20.19 2.34C19.59 1.78 17.18 0.03 11.81 0.01C11.81 0.01 5.48 -0.37 2.39 2.46C0.68 4.18 0.07 6.69 0.01 9.81C-0.06 12.92 -0.14 18.77 5.49 20.35L5.5 20.35L5.49 22.77C5.49 22.77 5.46 23.75 6.1 23.94C6.88 24.19 7.34 23.44 8.08 22.64C8.49 22.2 9.06 21.55 9.48 21.06C13.33 21.38 16.3 20.64 16.63 20.53C17.41 20.28 21.81 19.72 22.52 13.88C23.26 7.86 22.17 4.05 20.19 2.34ZM20.84 13.45C20.24 18.33 16.67 18.63 16.01 18.84C15.73 18.93 13.13 19.58 9.86 19.37C9.86 19.37 7.42 22.31 6.66 23.07C6.54 23.19 6.4 23.24 6.3 23.22C6.18 23.18 6.14 23.03 6.14 22.8C6.14 22.48 6.16 18.79 6.16 18.79C1.4 17.46 1.68 12.49 1.73 9.89C1.78 7.28 2.27 5.15 3.73 3.72C6.34 1.35 11.71 1.71 11.71 1.71C16.26 1.73 18.43 3.09 18.94 3.55C20.61 4.99 21.46 8.42 20.84 13.45Z" fill="#7360F2" fill-opacity="1.000000" fill-rule="nonzero"/>
		<path id="Vector" d="M14.02 9.68C13.97 8.48 13.36 7.86 12.21 7.8" stroke="#7360F2" stroke-opacity="1.000000" stroke-width="0.533544" stroke-linejoin="round" stroke-linecap="round"/>
		<path id="Vector" d="M15.58 10.2C15.6 9.09 15.27 8.16 14.59 7.42C13.91 6.67 12.96 6.26 11.74 6.17" stroke="#7360F2" stroke-opacity="1.000000" stroke-width="0.533544" stroke-linejoin="round" stroke-linecap="round"/>
		<path id="Vector" d="M17.17 10.82C17.16 8.9 16.58 7.38 15.45 6.27C14.31 5.16 12.9 4.6 11.21 4.59" stroke="#7360F2" stroke-opacity="1.000000" stroke-width="0.533544" stroke-linejoin="round" stroke-linecap="round"/>
		<path id="Vector" d="M12.27 13.74C12.27 13.74 12.7 13.78 12.92 13.49L13.37 12.93C13.59 12.65 14.11 12.47 14.62 12.76C15 12.98 15.37 13.21 15.73 13.47C16.07 13.72 16.77 14.3 16.77 14.3C17.1 14.58 17.17 14.98 16.95 15.42C16.95 15.42 16.95 15.42 16.95 15.43C16.7 15.86 16.39 16.24 16.01 16.58C16.01 16.58 16.01 16.58 16.01 16.58C15.69 16.85 15.37 17 15.06 17.04C15.01 17.05 14.97 17.05 14.92 17.05C14.79 17.05 14.65 17.03 14.52 16.99L14.51 16.97C14.03 16.84 13.23 16.5 11.91 15.77C11.14 15.35 10.41 14.87 9.72 14.33C9.37 14.06 9.05 13.76 8.74 13.45L8.7 13.42L8.67 13.39L8.64 13.36C8.63 13.35 8.62 13.33 8.61 13.32C8.3 13.01 8 12.68 7.73 12.34C7.19 11.65 6.71 10.92 6.29 10.15C5.56 8.83 5.22 8.03 5.09 7.55L5.07 7.54C5.03 7.41 5.01 7.27 5.01 7.14C5.01 7.09 5.01 7.04 5.02 7C5.06 6.69 5.21 6.37 5.48 6.05C5.48 6.05 5.48 6.05 5.48 6.05C5.81 5.67 6.2 5.36 6.63 5.11C6.64 5.11 6.64 5.11 6.64 5.11C7.08 4.88 7.49 4.96 7.76 5.29C7.77 5.29 8.34 5.98 8.59 6.32C8.85 6.68 9.09 7.05 9.3 7.44C9.59 7.95 9.41 8.47 9.13 8.69L8.57 9.13C8.28 9.36 8.32 9.79 8.32 9.79C8.32 9.79 9.15 12.95 12.27 13.74Z" fill="#7360F2" fill-opacity="1.000000" fill-rule="nonzero"/>
	</g>
</svg>
