<svg width="51.000000" height="16.000000" viewBox="0 0 51 16" fill="none" xmlns="http://www.w3.org/2000/svg" xmlns:xlink="http://www.w3.org/1999/xlink">
	<g clip-path="url(#clip389_9633)">
		<path id="polygon9" d="M22.09 15.76L17.96 15.76L20.55 0.28L24.68 0.28L22.09 15.76Z" fill="#00579F" fill-opacity="1.000000" fill-rule="nonzero"/>
		<path id="path11" d="M37.07 0.65C36.26 0.34 34.96 0 33.37 0C29.29 0 26.41 2.1 26.4 5.12C26.36 7.34 28.45 8.58 30.02 9.32C31.61 10.08 32.16 10.57 32.16 11.25C32.14 12.29 30.87 12.77 29.68 12.77C28.03 12.77 27.14 12.52 25.8 11.94L25.26 11.69L24.68 15.17C25.65 15.6 27.43 15.98 29.29 16C33.62 16 36.44 13.92 36.48 10.71C36.49 8.94 35.39 7.59 33.01 6.49C31.56 5.78 30.68 5.3 30.68 4.58C30.7 3.92 31.43 3.24 33.06 3.24C34.4 3.21 35.39 3.52 36.14 3.83L36.51 4L37.07 0.65Z" fill="#00579F" fill-opacity="1.000000" fill-rule="nonzero"/>
		<path id="path13" d="M42.56 10.28C42.9 9.39 44.21 5.94 44.21 5.94C44.19 5.98 44.55 5.04 44.75 4.46L45.04 5.8C45.04 5.8 45.83 9.5 46 10.28C45.35 10.28 43.38 10.28 42.56 10.28ZM47.66 0.28L44.47 0.28C43.48 0.28 42.73 0.56 42.31 1.56L36.17 15.76L40.5 15.76C40.5 15.76 41.22 13.85 41.37 13.44C41.85 13.44 46.06 13.44 46.68 13.44C46.79 13.98 47.17 15.76 47.17 15.76L50.99 15.76L47.66 0.28Z" fill="#00579F" fill-opacity="1.000000" fill-rule="nonzero"/>
		<path id="path15" d="M14.51 0.28L10.47 10.84L10.02 8.7C9.28 6.22 6.93 3.54 4.31 2.2L8.02 15.75L12.39 15.75L18.88 0.28L14.51 0.28Z" fill="#00579F" fill-opacity="1.000000" fill-rule="nonzero"/>
		<path id="path17" d="M6.71 0.28L0.06 0.28L0 0.59C5.18 1.87 8.61 4.97 10.02 8.7L8.58 1.58C8.34 0.59 7.61 0.31 6.71 0.28Z" fill="#FAA61A" fill-opacity="1.000000" fill-rule="nonzero"/>
	</g>
</svg>
